<svg xmlns="http://www.w3.org/2000/svg" xmlns:xlink="http://www.w3.org/1999/xlink" width="100" height="100" viewBox="0 0 100 100"><g><g transform="translate(50 50) scale(0.69 0.69) rotate(0) translate(-50 -50)" style="fill:#229897"><svg fill="#229897" xmlns="http://www.w3.org/2000/svg" data-name="Layer 1" viewBox="0 0 64 64" x="0px" y="0px"><title>analysis-check-analyse-consider-assess</title><path d="M18,27a9,9,0,1,0-9-9A9.01047,9.01047,0,0,0,18,27Zm1-15.92017A7.00413,7.00413,0,0,1,24.92017,17H19ZM18.16205,19h6.75812a6.982,6.982,0,0,1-11.5058,4.27637ZM17,11.07983v6.27454l-4.89349,4.40771A6.98009,6.98009,0,0,1,17,11.07983Z"></path><path d="M2.68555,21.45459l2.82861.937L6.07031,23.731,4.875,26.24707a1.001,1.001,0,0,0,.08838,1.00879,16.03433,16.03433,0,0,0,3.78027,3.78027,1.00021,1.00021,0,0,0,1.0083.08838L12.269,29.92969l1.33936.55566.93652,2.8291A.99971.99971,0,0,0,15.49414,34h5.01172a.99971.99971,0,0,0,.94922-.68555l.92187-2.78418a13.29538,13.29538,0,0,0,1.396-.58056L26.24756,31.125a.9974.9974,0,0,0,1.00879-.08838,16.0364,16.0364,0,0,0,3.78027-3.78076,1.001,1.001,0,0,0,.08838-1.00879L29.94971,23.773a13.25983,13.25983,0,0,0,.58056-1.39649l2.78418-.92187A.9997.9997,0,0,0,34,20.50537V15.49414a.99971.99971,0,0,0-.68555-.94922l-2.78418-.92187a13.29538,13.29538,0,0,0-.58056-1.396L31.125,9.75244a1.001,1.001,0,0,0-.08838-1.00879,16.04349,16.04349,0,0,0-3.78027-3.78027A1.00009,1.00009,0,0,0,26.24756,4.875L23.773,6.05029a13.29538,13.29538,0,0,0-1.396-.58056l-.92187-2.78418A.99971.99971,0,0,0,20.50586,2H15.49414a.99971.99971,0,0,0-.94922.68555L13.6084,5.51416,12.269,6.06982,9.75293,4.875a1.00362,1.00362,0,0,0-1.00879.08838A16.0364,16.0364,0,0,0,4.96338,8.74365,1.001,1.001,0,0,0,4.875,9.75244L6.07031,12.269,5.51465,13.6084l-2.8291.93652A.99971.99971,0,0,0,2,15.49414v5.01123A.9997.9997,0,0,0,2.68555,21.45459ZM4,16.21631l2.57715-.853a1.00033,1.00033,0,0,0,.60889-.56592L8.08789,12.625a.99834.99834,0,0,0-.02-.8125L6.93945,9.437A13.983,13.983,0,0,1,9.4375,6.93945l2.375,1.12793a1.00414,1.00414,0,0,0,.8125.02051l2.17236-.90137a1.00111,1.00111,0,0,0,.56592-.60937L16.21631,4h3.56738l.853,2.57715a1.00128,1.00128,0,0,0,.65723.64209,11.205,11.205,0,0,1,1.99414.82764,1.00074,1.00074,0,0,0,.89941.021L26.563,6.93945A14.02839,14.02839,0,0,1,29.06055,9.437L27.93213,11.8125a1.00089,1.00089,0,0,0,.021.89941,11.205,11.205,0,0,1,.82764,1.99414,1.00128,1.00128,0,0,0,.64209.65723L32,16.21631V19.7832l-2.57715.85352a1.00025,1.00025,0,0,0-.64209.65723,11.205,11.205,0,0,1-.82764,1.99414.99935.99935,0,0,0-.021.89941L29.06055,26.563A14.04461,14.04461,0,0,1,26.563,29.06055L24.1875,27.93213a.99768.99768,0,0,0-.89941.021,11.205,11.205,0,0,1-1.99414.82764,1.00128,1.00128,0,0,0-.65723.64209L19.78369,32H16.21631l-.853-2.57715a1.00033,1.00033,0,0,0-.56592-.60889L12.625,27.91211a.99719.99719,0,0,0-.812.02L9.437,29.06006A14.00946,14.00946,0,0,1,6.93945,26.563L8.06787,24.1875a.99834.99834,0,0,0,.02-.8125L7.186,21.20264a.99907.99907,0,0,0-.60889-.56592L4,19.7832Z"></path><path d="M45,35A10,10,0,1,0,55,45,10.01114,10.01114,0,0,0,45,35Zm0,18a8,8,0,1,1,8-8A8.00917,8.00917,0,0,1,45,53Z"></path><path d="M61.31445,41.37793l-3.001-.99365a14.0988,14.0988,0,0,0-.64112-1.54151l1.26709-2.66894a1.00019,1.00019,0,0,0-.08838-1.0083,17.0306,17.0306,0,0,0-4.0166-4.0166.99616.99616,0,0,0-1.0083-.08838l-2.66894,1.26709a14.0988,14.0988,0,0,0-1.54151-.64112l-.99365-3.001A.9997.9997,0,0,0,47.67285,28h-5.3457a.9997.9997,0,0,0-.94922.68555l-1.00879,3.0459-1.48389.61621-2.71093-1.2876a1.00236,1.00236,0,0,0-1.00879.08838,17.03248,17.03248,0,0,0-4.0166,4.01709,1.00019,1.00019,0,0,0-.08838,1.0083l1.28711,2.71142-.61621,1.48389-3.0459,1.00879A.9997.9997,0,0,0,28,42.32715v5.3457a.9997.9997,0,0,0,.68555.94922l3.0459,1.0083.61621,1.48438-1.2876,2.71093a1.001,1.001,0,0,0,.08838,1.00879,17.03248,17.03248,0,0,0,4.01709,4.0166,1.00114,1.00114,0,0,0,1.0083.08838l2.71142-1.28711,1.48389.61621,1.00879,3.0459A.9997.9997,0,0,0,42.32715,62h5.3457a.9997.9997,0,0,0,.94922-.68555l.99365-3.001a14.0988,14.0988,0,0,0,1.54151-.64112l2.66894,1.26709a.99567.99567,0,0,0,1.0083-.08838,17.0306,17.0306,0,0,0,4.0166-4.0166,1.00019,1.00019,0,0,0,.08838-1.0083l-1.26709-2.66894a14.0988,14.0988,0,0,0,.64112-1.54151l3.001-.99365A.9997.9997,0,0,0,62,47.67285v-5.3457A.9997.9997,0,0,0,61.31445,41.37793ZM60,46.95068l-2.79443.9253a1.00128,1.00128,0,0,0-.64209.65722,12.05863,12.05863,0,0,1-.88819,2.13916,1.00037,1.00037,0,0,0-.0205.89844l1.2207,2.57129a15.02772,15.02772,0,0,1-2.7334,2.7334l-2.57129-1.2207a.99726.99726,0,0,0-.89844.0205,12.05863,12.05863,0,0,1-2.13916.88819,1.00128,1.00128,0,0,0-.65722.64209L46.95068,60H43.04932l-.9253-2.79443a1.00034,1.00034,0,0,0-.56591-.60889l-2.3169-.96191a.99914.99914,0,0,0-.812.02l-2.57129,1.2207a14.99944,14.99944,0,0,1-2.73389-2.7334l1.22119-2.5708a1.00027,1.00027,0,0,0,.02051-.8125l-.96191-2.31738a1.00115,1.00115,0,0,0-.60938-.56592L30,46.95068V43.04932l2.79443-.9253a1.00034,1.00034,0,0,0,.60889-.56591l.96191-2.3169a.99711.99711,0,0,0-.02-.812l-1.2207-2.57129a14.99944,14.99944,0,0,1,2.7334-2.73389l2.5708,1.22119a.9984.9984,0,0,0,.8125.02l2.3169-.96191a1.00034,1.00034,0,0,0,.56591-.60889L43.04932,30h3.90136l.9253,2.79443a1.00128,1.00128,0,0,0,.65722.64209,12.05863,12.05863,0,0,1,2.13916.88819,1.00187,1.00187,0,0,0,.89844.0205l2.57129-1.2207a15.02772,15.02772,0,0,1,2.7334,2.7334l-1.2207,2.57129a1.00037,1.00037,0,0,0,.0205.89844,12.05863,12.05863,0,0,1,.88819,2.13916,1.00128,1.00128,0,0,0,.64209.65722L60,43.04932Z"></path><path d="M61.31445,10.38037,59.6123,9.81689q-.12523-.33764-.27685-.66552L60.05127,7.645a1.001,1.001,0,0,0-.08838-1.00879,11.02022,11.02022,0,0,0-2.59912-2.59912A.99686.99686,0,0,0,56.355,3.94873l-1.50635.71582q-.32739-.1516-.66552-.27685l-.56348-1.70215A.9997.9997,0,0,0,52.67041,2H49.32959a.9997.9997,0,0,0-.94922.68555l-.57666,1.74121-.61523.25537L45.645,3.94873a1.00124,1.00124,0,0,0-1.00879.08838A11.01609,11.01609,0,0,0,42.0376,6.63574a1.00024,1.00024,0,0,0-.08838,1.0083l.73291,1.54444-.25537.61523-1.74121.57666A.9997.9997,0,0,0,40,11.32959v3.34082a.9997.9997,0,0,0,.68555.94922l1.74121.57666.25537.61523-.7334,1.54346a1.001,1.001,0,0,0,.08838,1.00879,11.00157,11.00157,0,0,0,2.59961,2.59863.99981.99981,0,0,0,1.0083.08838l1.54346-.73291.61523.25537.57666,1.74121A.9997.9997,0,0,0,49.32959,24h3.34082a.9997.9997,0,0,0,.94922-.68555l.56348-1.70215q.33764-.12523.66552-.27685l1.50635.71533a.99641.99641,0,0,0,1.0083-.08838,10.98375,10.98375,0,0,0,2.59912-2.59912,1,1,0,0,0,.08838-1.0083l-.71533-1.50635q.1516-.32739.27637-.66552l1.70263-.56348A.9997.9997,0,0,0,62,14.67041V11.32959A.9997.9997,0,0,0,61.31445,10.38037ZM60,13.94824l-1.48975.49317a1.00028,1.00028,0,0,0-.64209.65722,7.1703,7.1703,0,0,1-.52685,1.27,1.00088,1.00088,0,0,0-.021.89942l.66309,1.396a8.96284,8.96284,0,0,1-1.31934,1.31934l-1.396-.66309a1.0018,1.0018,0,0,0-.89991.021,7.09074,7.09074,0,0,1-1.26953.52685,1.00028,1.00028,0,0,0-.65722.64209L51.94824,22H50.05176l-.49317-1.48975a1.00112,1.00112,0,0,0-.56591-.60937l-1.44825-.60108a1.00422,1.00422,0,0,0-.8125.02051l-1.396.66309a9.03812,9.03812,0,0,1-1.31983-1.31934l.66358-1.396a1.00035,1.00035,0,0,0,.02051-.8125l-.60108-1.44825a1.00112,1.00112,0,0,0-.60937-.56591L42,13.94824V12.05176l1.48975-.49317a1.00112,1.00112,0,0,0,.60937-.56591l.60108-1.44825a.99915.99915,0,0,0-.02051-.812l-.66309-1.397a9.01068,9.01068,0,0,1,1.31934-1.31934l1.396.66358a1.00422,1.00422,0,0,0,.8125.02051l1.44825-.60108a1.00112,1.00112,0,0,0,.56591-.60937L50.05176,4h1.89648l.49317,1.48975a1.00028,1.00028,0,0,0,.65722.64209,7.09074,7.09074,0,0,1,1.26953.52685,1.00808,1.00808,0,0,0,.89991.021l1.396-.66358a9.01735,9.01735,0,0,1,1.31983,1.31983l-.66358,1.396a1.00041,1.00041,0,0,0,.021.89991,7.131,7.131,0,0,1,.52685,1.269.99994.99994,0,0,0,.64209.65771L60,12.05176Z"></path><path d="M51,7a6,6,0,1,0,6,6A6.00657,6.00657,0,0,0,51,7Zm0,10a4,4,0,1,1,4-4A4.00458,4.00458,0,0,1,51,17Z"></path><path d="M3.707,62.34717l6.33484-6.33484a10.03832,10.03832,0,1,0-1.47821-1.34992L2.293,60.93311ZM8,48a8,8,0,1,1,8,8A8.00917,8.00917,0,0,1,8,48Z"></path><path d="M16.5,44V42a6.00657,6.00657,0,0,0-6,6h2A4.00458,4.00458,0,0,1,16.5,44Z"></path><rect x="40" y="45" width="2" height="4"></rect><rect x="44" y="43" width="2" height="6"></rect><rect x="48" y="41" width="2" height="8"></rect><rect x="50" y="12" width="2" height="2"></rect><rect x="13" y="15" width="2" height="2"></rect><rect x="18" y="21" width="2" height="2"></rect></svg></g></g></svg>