<svg xmlns="http://www.w3.org/2000/svg" xmlns:xlink="http://www.w3.org/1999/xlink" width="100" height="100" viewBox="0 0 100 100"><g><g transform="translate(50 50) scale(0.69 0.69) rotate(0) translate(-50 -50)" style="fill:#229897"><svg fill="#229897" xmlns="http://www.w3.org/2000/svg" xmlns:xlink="http://www.w3.org/1999/xlink" version="1.1" x="0px" y="0px" viewBox="0 0 100 100" enable-background="new 0 0 100 100" xml:space="preserve"><path d="M85.143,95H14.857V44.427h5.748L21.191,5h8.803l0.82,39.427h6.57l0.705-32.034h7.979l0.822,32.034h8.801V36.8l14.432,7.627  V36.8l14.902,7.627h0.117V95z M55.691,58.39v3.755h3.99V58.39H55.691z M55.691,63.553v3.637h3.99v-3.637H55.691z M55.691,68.599  v3.637h3.99v-3.637H55.691z M55.691,73.644v3.755h3.99v-3.755H55.691z M61.088,58.39v3.755h3.99V58.39H61.088z M61.088,63.553v3.637  h3.99v-3.637H61.088z M61.088,68.599v3.637h3.99v-3.637H61.088z M61.088,73.644v3.755h3.99v-3.755H61.088z M70.24,58.39v3.755h3.99  V58.39H70.24z M70.24,63.553v3.755h3.99v-3.755H70.24z M70.24,68.716v3.638h3.99v-3.638H70.24z M70.24,73.761v3.755h3.99v-3.755  H70.24z M75.639,58.39v3.755h3.988V58.39H75.639z M75.639,63.553v3.755h3.988v-3.755H75.639z M75.639,68.716v3.638h3.988v-3.638  H75.639z M75.639,73.761v3.755h3.988v-3.755H75.639z"></path></svg></g></g></svg>