<svg xmlns="http://www.w3.org/2000/svg" xmlns:xlink="http://www.w3.org/1999/xlink" width="100" height="100" viewBox="0 0 100 100"><g><g transform="translate(50 50) scale(0.69 0.69) rotate(0) translate(-50 -50)" style="fill:#229897"><svg fill="#229897" xmlns="http://www.w3.org/2000/svg" xmlns:xlink="http://www.w3.org/1999/xlink" version="1.1" x="0px" y="0px" viewBox="0 0 64 64" style="enable-background:new 0 0 64 64;" xml:space="preserve"><path d="M31.164,2.014C18.942,2.43,9,12.552,9,24.578v0.873c0,7.229,3.447,15.747,8.603,21.312l0.34,2.825  C16.784,50.289,16,51.549,16,53c0,2.206,1.794,4,4,4v1c0,2.206,1.794,4,4,4h16c2.206,0,4-1.794,4-4v-1c2.206,0,4-1.794,4-4  c0-1.451-0.784-2.711-1.943-3.413l0.34-2.825C51.553,41.197,55,32.68,55,25.451v-1.377c0-5.867-2.372-11.39-6.679-15.553  C43.818,4.168,37.554,1.799,31.164,2.014z M11,25.451v-0.873c0-10.883,8.952-20.046,20-20.545V9h-1c-2.206,0-4,1.794-4,4  s1.794,4,4,4h1v11h-6c-0.553,0-1,0.448-1,1v1.5c0,1.378-1.121,2.5-2.5,2.5S19,31.878,19,30.5V29c0-0.552-0.447-1-1-1h-6.848  C11.053,27.133,11,26.28,11,25.451z M11.467,30H17v0.5c0,2.481,2.019,4.5,4.5,4.5s4.5-2.019,4.5-4.5V30h5v5c0,0.552,0.447,1,1,1h2  c1.103,0,2,0.897,2,2s-0.897,2-2,2h-2c-0.553,0-1,0.448-1,1v8H20c-0.038,0-0.074,0.01-0.112,0.011l-0.339-2.814  c-0.026-0.214-0.12-0.414-0.269-0.569C15.459,41.607,12.55,35.642,11.467,30z M42,58c0,1.103-0.897,2-2,2H24c-1.103,0-2-0.897-2-2  v-1h20V58z M44,55H20c-1.103,0-2-0.897-2-2s0.897-2,2-2h24c1.103,0,2,0.897,2,2S45.103,55,44,55z M44.72,45.628  c-0.148,0.156-0.242,0.355-0.269,0.569l-0.339,2.814C44.074,49.01,44.038,49,44,49H33v-7h1c2.206,0,4-1.794,4-4s-1.794-4-4-4h-1v-4  h7c0.553,0,1-0.448,1-1v-1c0-1.103,0.897-2,2-2s2,0.897,2,2v1c0,0.552,0.447,1,1,1h6.533C51.45,35.642,48.541,41.607,44.72,45.628z   M53,25.451c0,0.829-0.053,1.682-0.152,2.549H47c0-2.206-1.794-4-4-4s-4,1.794-4,4h-6V16c0-0.552-0.447-1-1-1h-2  c-1.103,0-2-0.897-2-2s0.897-2,2-2h2c0.553,0,1-0.448,1-1V4.039c5.275,0.232,10.172,2.287,13.932,5.919  C50.845,13.741,53,18.753,53,24.073V25.451z"></path><path d="M43.256,11C43.255,11,43.255,11,43.256,11c-0.91,0-1.766,0.346-2.428,0.978c-1.362-1.3-3.65-1.255-4.968,0.115  c-1.37,1.427-1.37,3.749,0,5.176l4.246,4.423C40.295,21.889,40.556,22,40.828,22s0.533-0.111,0.722-0.308l4.245-4.423  c1.372-1.427,1.372-3.75,0.001-5.177C45.119,11.388,44.218,11,43.256,11z M44.353,15.884l-3.524,3.672l-3.524-3.672  c-0.637-0.664-0.637-1.743,0-2.407C37.599,13.169,37.989,13,38.401,13c0.413,0,0.804,0.169,1.099,0.478l0.606,0.632  c0.377,0.394,1.066,0.394,1.443,0l0.605-0.631C42.452,13.17,42.842,13,43.255,13c0.412,0,0.803,0.17,1.099,0.478  C44.99,14.141,44.99,15.221,44.353,15.884z"></path><path d="M21.586,44l2.707,2.707C24.484,46.898,24.74,47,25,47c0.129,0,0.259-0.025,0.383-0.076C25.757,46.769,26,46.404,26,46  v-2.036c1.694-0.243,3-1.704,3-3.464c0-1.93-1.57-3.5-3.5-3.5h-4c-1.93,0-3.5,1.57-3.5,3.5s1.57,3.5,3.5,3.5H21.586z M20,40.5  c0-0.827,0.673-1.5,1.5-1.5h4c0.827,0,1.5,0.673,1.5,1.5S26.327,42,25.5,42H25c-0.553,0-1,0.448-1,1v0.586l-1.293-1.293  C22.52,42.105,22.266,42,22,42h-0.5C20.673,42,20,41.327,20,40.5z"></path><path d="M21,23.897l2.482,1.897C23.661,25.931,23.876,26,24.09,26c0.2,0,0.399-0.06,0.572-0.18c0.356-0.249,0.512-0.7,0.383-1.115  l-0.974-3.154l2.536-1.937c0.341-0.26,0.478-0.708,0.34-1.115S26.429,17.82,26,17.82h-3.082l-0.963-3.115  C21.826,14.286,21.438,14,21,14s-0.826,0.286-0.955,0.705l-0.963,3.115H16c-0.429,0-0.81,0.273-0.947,0.68s-0.001,0.854,0.34,1.115  l2.536,1.937l-0.974,3.154c-0.129,0.416,0.026,0.866,0.383,1.115c0.357,0.249,0.834,0.239,1.18-0.026L21,23.897z M19.819,19.82  c0.438,0,0.826-0.286,0.955-0.705L21,18.386l0.226,0.729c0.129,0.419,0.517,0.705,0.955,0.705h0.863l-0.741,0.566  c-0.333,0.254-0.472,0.689-0.348,1.089l0.256,0.831l-0.604-0.461c-0.18-0.137-0.394-0.206-0.607-0.206s-0.428,0.068-0.607,0.206  l-0.604,0.461l0.256-0.831c0.124-0.4-0.015-0.835-0.348-1.089l-0.741-0.566H19.819z"></path><polygon points="45,32 43,32 43,35 40,35 40,37 43,37 43,40 45,40 45,37 48,37 48,35 45,35 "></polygon><rect x="4" y="2" width="2" height="2"></rect><rect x="4" y="6" width="2" height="2"></rect><rect x="6" y="4" width="2" height="2"></rect><rect x="2" y="4" width="2" height="2"></rect><rect x="58" y="2" width="2" height="2"></rect><rect x="58" y="6" width="2" height="2"></rect><rect x="60" y="4" width="2" height="2"></rect><rect x="56" y="4" width="2" height="2"></rect></svg></g></g></svg>