<svg xmlns="http://www.w3.org/2000/svg" xmlns:xlink="http://www.w3.org/1999/xlink" width="100" height="100" viewBox="0 0 100 100"><g><g transform="translate(50 50) scale(0.69 0.69) rotate(0) translate(-50 -50)" style="fill:#229897"><svg fill="#229897" xmlns="http://www.w3.org/2000/svg" xmlns:xlink="http://www.w3.org/1999/xlink" version="1.1" x="0px" y="0px" viewBox="0 0 48 48" enable-background="new 0 0 48 48" xml:space="preserve"><g><path fill="#229897" d="M27,7.8v-7c0-0.1-0.1-0.2-0.2-0.2H4.1C2.2,0.5,0.7,2,0.7,3.9v3.9C0.7,7.9,0.8,8,0.9,8h25.8   C26.9,8,27,7.9,27,7.8z"></path><path fill="#229897" d="M36.1,8h11c0.1,0,0.2-0.1,0.2-0.2V3.9c0-1.9-1.5-3.4-3.4-3.4h-7.8c-0.1,0-0.2,0.1-0.2,0.2v7   C35.8,7.9,35.9,8,36.1,8z"></path><path fill="#229897" d="M35.8,17.1v30.2c0,0.1,0.1,0.2,0.2,0.2h7.8c1.9,0,3.4-1.5,3.4-3.4v-27c0-0.1-0.1-0.2-0.2-0.2h-11   C35.9,16.9,35.8,17,35.8,17.1z"></path><path fill="#229897" d="M31.1,27.3l-3,7.8c-0.1,0.3,0.2,0.6,0.5,0.4l2.7-1.7c0.1-0.1,0.3-0.1,0.4,0l2.7,1.7   c0.3,0.2,0.6-0.1,0.5-0.4l-3-7.8C31.6,27,31.2,27,31.1,27.3z"></path><g><path fill="#229897" d="M0.7,44.1c0,1.9,1.5,3.4,3.4,3.4h22.6c0.1,0,0.2-0.1,0.2-0.2v-8.9c0-0.1-0.1-0.2-0.2-0.2H0.9    c-0.1,0-0.2,0.1-0.2,0.2V44.1z"></path><path fill="#229897" d="M26.7,16.9H0.9c-0.1,0-0.2,0.1-0.2,0.2v12c0,0.1,0.1,0.2,0.2,0.2h25.9c0.1,0,0.2-0.1,0.2-0.2v-12    C27,17,26.9,16.9,26.7,16.9z"></path></g></g></svg></g></g></svg>