<svg xmlns="http://www.w3.org/2000/svg" xmlns:xlink="http://www.w3.org/1999/xlink" width="100" height="100" viewBox="0 0 100 100"><g><g transform="translate(50 50) scale(0.69 0.69) rotate(0) translate(-50 -50)" style="fill:#229897"><svg fill="#229897" xmlns="http://www.w3.org/2000/svg" xmlns:xlink="http://www.w3.org/1999/xlink" version="1.1" x="0px" y="0px" viewBox="0 0 100 100" style="enable-background:new 0 0 100 100;" xml:space="preserve"><path d="M49.8,70.1c0-14.5,11.8-26.3,26.3-26.3c6.6,0,12.6,2.4,17.3,6.5V27.8c0-2.9-2.3-5.2-5.2-5.2H68.1v-3.1  c0-5.3-4.3-9.5-9.5-9.5H37.9c-5.3,0-9.5,4.3-9.5,9.5v3.1H8.4c-2.9,0-5.2,2.3-5.2,5.2v56.6c0,2.9,2.3,5.2,5.2,5.2h50  C53.2,84.8,49.8,77.9,49.8,70.1z M34.2,19.5c0-2,1.7-3.7,3.7-3.7h20.7c2,0,3.7,1.7,3.7,3.7v3.1H34.2V19.5z"></path><path d="M94.8,66.5h-3.2c-0.4-1.9-1.2-3.7-2.2-5.3l2.6-2.6c0.2-0.2,0.3-0.4,0.3-0.7s-0.1-0.5-0.3-0.7l-3.5-3.5c-0.4-0.4-1-0.4-1.4,0  l-2.7,2.7c-1.5-0.9-3.1-1.6-4.8-2v-3.4c0-0.6-0.4-1-1-1h-5c-0.6,0-1,0.4-1,1v3.4c-1.8,0.4-3.5,1.1-5,2l-2.9-2.9  c-0.4-0.4-1-0.4-1.4,0l-3.5,3.5c-0.2,0.2-0.3,0.4-0.3,0.7s0.1,0.5,0.3,0.7l2.8,2.8c-1.1,1.6-1.9,3.4-2.3,5.4h-3.2c-0.6,0-1,0.4-1,1  v5c0,0.6,0.4,1,1,1h3.2c0.4,1.8,1.1,3.4,2,4.9l-2.5,2.5c-0.2,0.2-0.3,0.4-0.3,0.7s0.1,0.5,0.3,0.7l3.5,3.5c0.2,0.2,0.5,0.3,0.7,0.3  c0.3,0,0.5-0.1,0.7-0.3l2.5-2.5c1.6,1.1,3.5,1.9,5.5,2.3v2.9c0,0.6,0.4,1,1,1h5c0.6,0,1-0.4,1-1v-3c1.9-0.4,3.7-1.2,5.3-2.3l2.1,2.1  c0.2,0.2,0.4,0.3,0.7,0.3c0.3,0,0.5-0.1,0.7-0.3l3.5-3.5c0.2-0.2,0.3-0.4,0.3-0.7c0-0.3-0.1-0.5-0.3-0.7l-2.2-2.2  c0.9-1.5,1.6-3.2,2-4.9h3.2c0.6,0,1-0.4,1-1v-5C95.8,66.9,95.4,66.5,94.8,66.5z M75.9,79.9c-5.5,0-9.9-4.4-9.9-9.9s4.4-9.9,9.9-9.9  s9.9,4.4,9.9,9.9S81.4,79.9,75.9,79.9z"></path><circle cx="75.9" cy="70" r="5.3"></circle></svg></g></g></svg>