<svg fill="#229897" xmlns="http://www.w3.org/2000/svg" xmlns:xlink="http://www.w3.org/1999/xlink" version="1.1" x="0px" y="0px" viewBox="0 0 64 64" style="enable-background:new 0 0 64 64;" xml:space="preserve"><path d="M60,50c0-0.553-0.448-1-1-1h-4c-0.552,0-1,0.447-1,1v10h-2v-7c0-0.553-0.448-1-1-1h-4c-0.552,0-1,0.447-1,1v7h-2v2h3h4h4h4  h3v-2h-2V50z M48,60v-6h2v6H48z M56,60v-9h2v9H56z"></path><path d="M61,39h-6v2h3.586l-4.783,4.783l-3.355-1.678c-0.339-0.169-0.745-0.134-1.047,0.095l-4,3l1.2,1.6l3.505-2.629l3.447,1.724  c0.387,0.194,0.851,0.117,1.154-0.188L60,42.414V45h2v-5C62,39.447,61.552,39,61,39z"></path><path d="M54,2c-4.411,0-8,3.589-8,8c0,0.346,0.032,0.696,0.078,1.046c-0.328,0.292-0.617,0.631-0.841,1.022l-2.39,4.183  c-0.309,0.54-0.836,0.914-1.448,1.026l-3.042,0.558C39.383,16.491,40,14.818,40,13c0-4.411-3.589-8-8-8s-8,3.589-8,8  c0,1.818,0.617,3.491,1.642,4.836L22.6,17.277c-0.611-0.112-1.139-0.486-1.447-1.026l-2.39-4.183  c-0.206-0.36-0.467-0.677-0.762-0.953V7c0-0.266-0.105-0.52-0.293-0.707l-4-4C13.52,2.105,13.265,2,13,2H3C2.448,2,2,2.447,2,3v18  c0,0.553,0.448,1,1,1h11.787l0.682,1.268c0.547,1.015,1.501,1.756,2.579,2.024L20.456,26l-2.368,0.697  c-1.117,0.279-2.071,1.021-2.619,2.036l-3.885,7.216c-0.692,1.284-0.658,2.798,0.09,4.051c0.748,1.252,2.065,2,3.524,2  c1.47,0,2.835-0.793,3.564-2.068l2.895-5.065L24,34.281V57.51c0,2.476,2.015,4.49,4.491,4.49c1.204,0,2.335-0.47,3.184-1.324  c0.123-0.123,0.219-0.264,0.325-0.398c0.106,0.134,0.203,0.275,0.325,0.398C33.174,61.53,34.305,62,35.509,62  C37.985,62,40,59.985,40,57.51V34.281l2.343,0.585l2.895,5.065C45.966,41.207,47.332,42,48.802,42c1.458,0,2.776-0.748,3.524-2  c0.748-1.253,0.782-2.767,0.09-4.051l-3.885-7.217c-0.547-1.015-1.502-1.756-2.579-2.024L43.544,26l2.368-0.697  c1.117-0.279,2.071-1.021,2.619-2.036l3.043-5.651c0.537,0.173,1.087,0.288,1.647,0.343l2.386,6.204  c0.422,1.1,1.498,1.838,2.676,1.838c0.944,0,1.828-0.465,2.363-1.244c0.535-0.778,0.652-1.771,0.312-2.652l-2.19-5.695  C60.725,14.949,62,12.624,62,10C62,5.589,58.411,2,54,2z M26,13c0-3.309,2.691-6,6-6s6,2.691,6,6c0,2.577-1.636,4.774-3.922,5.621  l-2.056,0.377C32.014,18.999,32.007,19,32,19s-0.014-0.001-0.022-0.001l-2.056-0.377C27.636,17.774,26,15.577,26,13z M4,20V4h8.586  L16,7.414v2.67c-0.02-0.004-0.04-0.004-0.06-0.008c-0.146-0.027-0.294-0.045-0.444-0.056c-0.069-0.005-0.138-0.012-0.207-0.014  c-0.03-0.001-0.06-0.006-0.09-0.006c-0.102,0-0.201,0.012-0.301,0.019c-0.066,0.005-0.133,0.005-0.199,0.013  c-0.406,0.049-0.794,0.159-1.158,0.319c-0.005,0.002-0.009,0.005-0.014,0.007c-0.18,0.08-0.352,0.174-0.518,0.279  c-0.016,0.01-0.031,0.021-0.047,0.031c-0.15,0.098-0.294,0.206-0.431,0.324c-0.024,0.021-0.049,0.041-0.073,0.062  c-0.123,0.111-0.238,0.23-0.348,0.356c-0.028,0.032-0.058,0.061-0.085,0.094c-0.119,0.146-0.23,0.3-0.33,0.465  c-0.006,0.01-0.015,0.019-0.021,0.03c-0.187,0.313-0.33,0.643-0.427,0.982c-0.244,0.845-0.208,1.745,0.111,2.579  c0.064,0.167,0.139,0.331,0.225,0.491c0,0,0,0,0,0.001l1.828,3.395L13.71,20H4z M46.77,22.318c-0.281,0.521-0.77,0.901-1.383,1.056  l-5.669,1.667C39.292,25.166,39,25.557,39,26s0.292,0.834,0.718,0.959l5.709,1.678c0.573,0.144,1.062,0.524,1.343,1.044l3.885,7.216  c0.354,0.659,0.337,1.436-0.046,2.078C50.225,39.616,49.55,40,48.802,40c-0.753,0-1.454-0.406-1.828-1.061l-3.106-5.436  c-0.135-0.236-0.361-0.408-0.625-0.474l-4-1c-0.297-0.075-0.615-0.008-0.858,0.182S38,32.692,38,33v24.51  c0,1.373-1.117,2.49-2.491,2.49c-0.668,0-1.295-0.261-1.766-0.734c-0.471-0.474-0.728-1.102-0.725-1.77l0.087-16.491l-0.109-0.001  L33,38.001l-2-0.002l-0.019,19.497c0.003,0.668-0.254,1.296-0.725,1.77C29.786,59.739,29.159,60,28.491,60  C27.117,60,26,58.883,26,57.51V33c0-0.308-0.142-0.599-0.385-0.788s-0.561-0.259-0.858-0.182l-4,1  c-0.264,0.065-0.49,0.237-0.625,0.474l-3.106,5.436C16.652,39.594,15.952,40,15.198,40c-0.748,0-1.423-0.384-1.807-1.025  c-0.384-0.643-0.401-1.419-0.046-2.078l3.885-7.215c0.281-0.521,0.77-0.901,1.383-1.056l5.669-1.667C24.708,26.834,25,26.443,25,26  s-0.292-0.834-0.718-0.959l-5.709-1.678C18,23.22,17.511,22.839,17.23,22.319l-0.962-1.787c-0.001-0.002-0.001-0.005-0.003-0.007  l-2.92-5.423c-0.177-0.329-0.261-0.688-0.254-1.044c0.008-0.357,0.108-0.711,0.3-1.033C13.775,12.384,14.45,12,15.198,12  c0.152,0,0.3,0.028,0.446,0.06c0.087,0.021,0.172,0.044,0.25,0.075c0.012,0.004,0.022,0.01,0.034,0.014  c0.195,0.079,0.361,0.178,0.488,0.27c0.012,0.009,0.026,0.012,0.038,0.02c0.225,0.169,0.428,0.37,0.572,0.622l2.39,4.183  c0.602,1.053,1.63,1.782,2.823,2.001l7.167,1.316C30.221,20.84,31.091,21,32,21c0.909,0,1.779-0.16,2.594-0.44l7.166-1.316  c1.193-0.219,2.222-0.948,2.823-2.001l2.39-4.183c0.172-0.301,0.418-0.541,0.702-0.722c0.005-0.003,0.011-0.004,0.016-0.008  c0.104-0.066,0.214-0.114,0.323-0.159c0.035-0.014,0.069-0.031,0.104-0.044c0.102-0.036,0.206-0.06,0.31-0.079  c0.054-0.01,0.108-0.016,0.163-0.022c0.105-0.011,0.21-0.02,0.314-0.015c0.018,0.001,0.034,0.005,0.051,0.007  c0.229,0.017,0.451,0.073,0.661,0.161c0.036,0.015,0.072,0.027,0.107,0.044c0.086,0.041,0.167,0.092,0.246,0.145  c0.062,0.042,0.121,0.086,0.178,0.134c0.056,0.047,0.112,0.093,0.164,0.146c0.109,0.114,0.212,0.236,0.295,0.375  c0.288,0.482,0.369,1.039,0.243,1.566c-0.008,0.034-0.028,0.065-0.038,0.098c-0.041,0.141-0.087,0.281-0.159,0.414l-0.427,0.791  c-0.001,0.001,0,0.002-0.001,0.003L46.77,22.318z M59.091,22.822c0.104,0.271,0.07,0.562-0.094,0.802  c-0.367,0.534-1.291,0.424-1.523-0.18l-2.138-5.558c0.034-0.006,0.066-0.016,0.099-0.023c0.213-0.039,0.422-0.088,0.628-0.144  c0.054-0.014,0.108-0.026,0.161-0.041c0.268-0.078,0.53-0.167,0.785-0.271L59.091,22.822z M57.024,15.174  c-0.443,0.259-0.915,0.458-1.399,0.597c-0.046,0.013-0.092,0.024-0.138,0.036c-0.178,0.046-0.357,0.082-0.537,0.111  c-0.078,0.013-0.156,0.027-0.235,0.036c-0.179,0.022-0.358,0.033-0.536,0.038C54.119,15.993,54.06,16,54,16  c-0.498,0-0.988-0.062-1.466-0.184c0.022-0.048,0.037-0.097,0.057-0.146c0.029-0.07,0.057-0.139,0.082-0.21  c0.032-0.092,0.06-0.184,0.086-0.277c0.02-0.074,0.04-0.147,0.056-0.221c0.02-0.093,0.035-0.186,0.048-0.279  c0.011-0.075,0.022-0.149,0.029-0.224c0.008-0.095,0.01-0.191,0.012-0.286c0.001-0.073,0.004-0.146,0.002-0.219  c-0.004-0.1-0.015-0.199-0.026-0.299c-0.008-0.068-0.012-0.136-0.023-0.204c-0.018-0.107-0.044-0.213-0.07-0.32  c-0.015-0.059-0.025-0.118-0.043-0.177c-0.036-0.123-0.083-0.244-0.131-0.365c-0.016-0.04-0.027-0.08-0.045-0.12  c-0.07-0.16-0.15-0.318-0.242-0.472c-0.007-0.011-0.015-0.02-0.022-0.031c-0.099-0.163-0.209-0.316-0.327-0.462  c-0.03-0.036-0.063-0.069-0.093-0.104c-0.105-0.121-0.216-0.235-0.333-0.342c-0.03-0.027-0.06-0.052-0.091-0.078  c-0.129-0.11-0.263-0.212-0.404-0.304c-0.025-0.016-0.049-0.033-0.074-0.049c-0.153-0.096-0.312-0.182-0.477-0.257  c-0.018-0.008-0.035-0.018-0.054-0.026c-0.359-0.157-0.741-0.265-1.14-0.314c-0.078-0.01-0.156-0.01-0.234-0.015  C48.985,10.012,48.894,10,48.802,10c-0.027,0-0.053,0.005-0.079,0.005c-0.079,0.002-0.157,0.009-0.236,0.016  c-0.136,0.011-0.27,0.027-0.403,0.051c-0.028,0.005-0.055,0.005-0.083,0.01c0-0.027,0-0.055,0-0.082c0-3.309,2.691-6,6-6  s6,2.691,6,6C60,12.205,58.801,14.131,57.024,15.174z"></path><path d="M54,6v2c1.103,0,2,0.897,2,2h2C58,7.794,56.206,6,54,6z"></path><rect x="6" y="7" width="6" height="2"></rect><rect x="6" y="11" width="3" height="2"></rect><rect x="6" y="15" width="3" height="2"></rect><path d="M13.651,43.263c-1.491-1.326-3.494-1.952-5.494-1.719c-3.047,0.357-5.6,2.812-6.07,5.834c-0.271,1.742,0.105,3.5,1.059,4.95  c0.234,0.355,0.452,0.666,0.653,0.952C4.624,54.456,5,54.993,5,56.494V57v4c0,0.553,0.448,1,1,1h6c0.552,0,1-0.447,1-1v-4v-0.37  c0-1.778,0.357-2.261,1.541-3.86l0.094-0.126C15.528,51.435,16,50,16,48.494C16,46.497,15.144,44.591,13.651,43.263z M11,60H7v-2h4  V60z M13.026,51.454l-0.093,0.126c-1.133,1.531-1.804,2.437-1.916,4.42h-4.03c-0.095-1.792-0.717-2.679-1.551-3.868  c-0.19-0.271-0.397-0.566-0.619-0.903c-0.69-1.05-0.951-2.274-0.753-3.543c0.334-2.152,2.154-3.9,4.327-4.155  c1.456-0.173,2.85,0.266,3.931,1.227C13.388,45.706,14,47.068,14,48.494C14,49.568,13.663,50.593,13.026,51.454z"></path><polygon points="9,48.292 6.555,46.662 5.445,48.326 8,50.029 8,53.494 10,53.494 10,50.029 12.555,48.326 11.445,46.662 "></polygon></svg>