<svg xmlns="http://www.w3.org/2000/svg" xmlns:xlink="http://www.w3.org/1999/xlink" width="100" height="100" viewBox="0 0 100 100"><g><g transform="translate(50 50) scale(0.69 0.69) rotate(0) translate(-50 -50)" style="fill:#229897"><svg fill="#229897" xmlns="http://www.w3.org/2000/svg" xmlns:xlink="http://www.w3.org/1999/xlink" version="1.1" x="0px" y="0px" viewBox="0 0 73.25 75.584" style="enable-background:new 0 0 73.25 75.584;" xml:space="preserve"><g><path d="M56.837,15.184c-0.014-0.041-0.024-0.08-0.042-0.119c-0.061-0.133-0.137-0.259-0.244-0.366L42.217,0.366   c-0.107-0.107-0.233-0.184-0.366-0.245c-0.039-0.018-0.078-0.028-0.119-0.042c-0.104-0.035-0.208-0.056-0.318-0.063   C41.387,0.014,41.362,0,41.333,0H1.25C0.56,0,0,0.56,0,1.25v73c0,0.69,0.56,1.25,1.25,1.25h54.416c0.69,0,1.25-0.56,1.25-1.25   V15.584c0-0.028-0.014-0.052-0.016-0.08C56.894,15.394,56.872,15.288,56.837,15.184z M52.649,14.334H42.583V4.268L52.649,14.334z    M2.5,73V2.5h37.583v13.083c0,0.69,0.56,1.25,1.25,1.25h13.083V73H2.5z"></path><path d="M21.042,28.043v-6.655c0-1.441-0.89-2.574-2.056-2.687c0.74-1.051,1.184-2.356,1.184-3.775   c0-3.448-2.595-6.253-5.784-6.253c-3.189,0-5.784,2.805-5.784,6.253c0,1.419,0.445,2.724,1.184,3.775   c-1.165,0.113-2.056,1.246-2.056,2.687v6.655c0,0.69,0.559,1.25,1.25,1.25h10.811C20.482,29.293,21.042,28.733,21.042,28.043z    M14.386,11.172c1.811,0,3.284,1.684,3.284,3.753c0,2.069-1.473,3.753-3.284,3.753c-1.811,0-3.284-1.684-3.284-3.753   C11.102,12.856,12.576,11.172,14.386,11.172z M18.542,26.793h-8.311v-5.405c0-0.085,0.011-0.155,0.025-0.209h8.26   c0.014,0.054,0.025,0.124,0.025,0.209V26.793z"></path><rect x="16.167" y="36.5" width="29.166" height="2.5"></rect><rect x="9.852" y="45.5" width="35.481" height="2.5"></rect><rect x="9.852" y="54.667" width="35.481" height="2.5"></rect><rect x="9.852" y="63.834" width="35.481" height="2.5"></rect><path d="M72,13.051h-3.097V4.75c0-0.69-0.56-1.25-1.25-1.25c-0.69,0-1.25,0.56-1.25,1.25v8.301h-3.097   c-0.69,0-1.25,0.559-1.25,1.25v43.656v16.376c0,0.69,0.56,1.25,1.25,1.25H72c0.69,0,1.25-0.56,1.25-1.25V57.957V14.301   C73.25,13.611,72.69,13.051,72,13.051z M64.557,15.551h6.193v41.156h-2.097V36.129h-2v20.578h-2.097V15.551z M70.75,73.084h-6.193   V59.207h2.097v7.848h2v-7.848h2.097V73.084z"></path><rect x="29.426" y="27.334" width="5.741" height="2.5"></rect><rect x="39.593" y="27.334" width="5.741" height="2.5"></rect></g></svg></g></g></svg>