<svg xmlns="http://www.w3.org/2000/svg" xmlns:xlink="http://www.w3.org/1999/xlink" width="100" height="100" viewBox="0 0 100 100"><g><g transform="translate(50 50) scale(0.69 0.69) rotate(0) translate(-50 -50)" style="fill:#229897"><svg fill="#229897" xmlns="http://www.w3.org/2000/svg" xmlns:xlink="http://www.w3.org/1999/xlink" version="1.1" x="0px" y="0px" viewBox="0 0 24 24" style="enable-background:new 0 0 24 24;" xml:space="preserve"><circle cx="20" cy="6" r="2"></circle><path d="M23.5,9C23.224,9,23,9.224,23,9.5v7c0,0.827-0.673,1.5-1.5,1.5H18v1h2v2h-1.5c-0.276,0-0.5,0.224-0.5,0.5s0.224,0.5,0.5,0.5  h4c0.276,0,0.5-0.224,0.5-0.5S22.776,21,22.5,21H21v-2h0.5c1.379,0,2.5-1.121,2.5-2.5v-7C24,9.224,23.776,9,23.5,9z"></path><path d="M22,16v-5.995c0-0.002,0-0.003,0-0.005c0-0.552-0.447-1-1-1h-1c-0.553,0-1,0.448-1,1v1v4h-2c-1.103,0-2,0.897-2,2v3  c0,0.553,0.447,1,1,1s1-0.447,1-1v-3h4C21.553,17,22,16.553,22,16z"></path><circle cx="4" cy="6" r="2"></circle><path d="M0.5,9C0.776,9,1,9.224,1,9.5v7C1,17.327,1.673,18,2.5,18H6v1H4v2h1.5C5.776,21,6,21.224,6,21.5S5.776,22,5.5,22h-4  C1.224,22,1,21.776,1,21.5S1.224,21,1.5,21H3v-2H2.5C1.121,19,0,17.879,0,16.5v-7C0,9.224,0.224,9,0.5,9z"></path><path d="M2,16v-5.995C2,10.003,2,10.002,2,10c0-0.552,0.447-1,1-1h1c0.553,0,1,0.448,1,1v1v4h2c1.103,0,2,0.897,2,2v3  c0,0.553-0.447,1-1,1s-1-0.447-1-1v-3H3C2.447,17,2,16.553,2,16z"></path><rect x="11" y="13" width="2" height="8"></rect><path d="M14,21.5c0,0.276-0.224,0.5-0.5,0.5h-3c-0.276,0-0.5-0.224-0.5-0.5l0,0c0-0.276,0.224-0.5,0.5-0.5h3  C13.776,21,14,21.224,14,21.5L14,21.5z"></path><circle cx="12" cy="6" r="2"></circle><path d="M15,10c0,0.552-0.447,1-1,1h-4c-0.552,0-1-0.448-1-1l0,0c0-0.552,0.448-1,1-1h4C14.553,9,15,9.448,15,10L15,10z"></path><rect x="9" y="10" width="6" height="1"></rect><rect x="6" y="12" width="12" height="2"></rect></svg></g></g></svg>