<svg fill="#229897" xmlns="http://www.w3.org/2000/svg" viewBox="0 0 100 100" x="0px" y="0px"><path d="m 23.937857 5.000544 l -5.696212 5.696218 c .003 .08306 .0028 .167553 .0099 .249627 l 5.937982 -5.928155 c -.08157 -.0069 -.167078 -.01432 -.249621 -.01769 l -.002 0 z"></path><path d="m 23.411092 5.008404 c -.09501 .0052 -.191352 -.000184 -.285015 .0099 L 18.2613 9.892914 c -.01009 .09069 -.0048 .185189 -.0099 .277146 l 5.159624 -5.161584 z"></path><path d="m 24.661187 5.073267 l -6.344849 6.344856 c .01258 .07385 .02175 .149292 .03734 .22211 l 6.529618 -6.52962 c -.07276 -.01569 -.148329 -.02457 -.222116 -.03734 z"></path><path d="m 22.497096 5.128304 c -.123864 .02817 -.241147 .06581 -.36166 .102214 l -3.661853 3.66382 c -.03462 .115068 -.06521 .231764 -.09239 .349872 L 22.49709 5.128309 Z"></path><path d="m 25.290168 5.222651 l -6.826417 6.834282 c .02044 .06879 .04192 .134826 .06486 .202454 l 6.97384 -6.964009 c -.07135 -.02453 -.139644 -.05108 -.212284 -.07272 z"></path><path d="m 25.871981 5.434933 l -7.195945 7.19398 c .02667 .06284 .05564 .125116 .08451 .18673 l 7.286369 -7.298157 c -.05867 -.02759 -.115189 -.05699 -.174938 -.08255 z"></path><path d="m 21.274516 5.572521 c -.227772 .111813 -.444283 .234832 -.62702 .351838 l -1.48007 1.489901 c -.129037 .191442 -.237463 .393901 -.342005 .601464 z"></path><path d="m 26.398756 5.692422 l -7.47309 7.473091 c .0317 .05669 .0686 .111651 .102204 .167074 l 7.537951 -7.537956 c -.05545 -.03374 -.110379 -.07039 -.167068 -.102204 z"></path><path d="m 26.880315 6.006913 l -7.640159 7.640165 c .03442 .04881 .06619 .0998 .102204 .147417 l 7.685375 -7.685374 c -.0476 -.03606 -.09858 -.06767 -.147423 -.102214 z"></path><path d="m 27.324537 6.350888 l -7.742375 7.740408 c .04126 .04745 .0869 .0916 .129731 .13759 l 7.750235 -7.758099 c -.04499 -.04202 -.09115 -.07939 -.137591 -.119899 z"></path><path d="m 27.721581 6.738104 l -7.740413 7.750237 c .04318 .0405 .08519 .08079 .129731 .1199 l 7.740413 -7.740409 c -.04045 -.04621 -.0878 -.08491 -.129731 -.129728 z"></path><path d="m 28.08325 7.154805 l -7.687346 7.685373 c .05293 .04057 .102765 .08126 .157245 .1199 L 28.193318 7.31205 C 28.156588 7.26037 28.121668 7.205144 28.08325 7.154805 Z"></path><path d="m 28.405601 7.63637 l -7.537961 7.535989 c .05394 .0329 .111918 .0613 .167078 .09239 l 7.47309 -7.471125 c -.0309 -.0548 -.06951 -.103618 -.102204 -.157246 z"></path><path d="m 28.674886 8.143486 l -7.298164 7.298156 c .0622 .02948 .121308 .0652 .184771 .09239 L 28.76726 8.328258 C 28.74009 8.264718 28.70438 8.205777 28.67488 8.143494 Z"></path><path d="m 28.904851 8.707605 l -6.964007 6.964008 c .06441 .02214 .129117 .04508 .194592 .06486 l 6.834277 -6.842145 c -.01913 -.06331 -.04353 -.124403 -.06486 -.186729 z"></path><path d="m 29.081752 9.318895 l -6.529618 6.52962 c .07376 .01596 .147253 .03225 .222106 .04521 l 6.352718 -6.352718 c -.01288 -.07456 -.0293 -.148607 -.0452 -.222111 z"></path><path d="m 29.181996 10.002914 l -5.945842 5.94781 c .08212 .0072 .166504 .01423 .249631 .01769 l 5.715866 -5.725701 c -.003 -.08003 -.01281 -.160685 -.01966 -.239799 z"></path><path d="m 29.191829 10.789141 l -5.169447 5.169446 c .08574 -.0047 .174787 .000745 .259452 -.0078 l .0078 0 l 4.892302 -4.8923 c .000321 -.003 -.000333 -.0069 0 -.0099 c .009 -.08468 .0058 -.17369 .0099 -.259454 z"></path><path d="m 29.07193 11.68544 l -4.153253 4.153247 c .121317 -.0271 .243511 -.05739 .361669 -.09239 l 3.699199 -3.689371 c .03603 -.120917 .06461 -.247255 .09239 -.371494 z"></path><path d="m 28.627707 12.935542 l -2.458927 2.458926 c .201717 -.100945 .395172 -.208081 .581813 -.33218 l 1.517417 -1.507592 c .0041 -.0056 .0038 -.012 .0078 -.01769 c .128686 -.191946 .24775 -.39346 .351839 -.601464 z"></path><path d="m 19.546778 17.271586 l -5.808251 5.808256 l 0 .269283 l 6.075573 -6.077539 z"></path><path d="m 20.340875 17.271586 l -6.602348 6.594483 l 0 .277145 l 6.861801 -6.871628 z"></path><path d="m 21.136925 17.271586 l -7.398398 7.400366 l 0 .257489 l 7.65785 -7.657855 z"></path><path d="m 21.91333 17.271586 l -8.174803 8.176765 l 0 .267318 l 8.444077 -8.444083 z"></path><path d="m 22.709379 17.271586 l -8.970852 8.972821 l 0 .257489 l 9.230305 -9.23031 z"></path><path d="m 23.495607 17.271586 l -9.75708 9.757083 l 0 .251593 l 10.01457 -10.008676 z"></path><path d="m 24.289694 17.271586 l -10.551167 10.54331 l 0 .269283 l 10.800797 -10.812593 z"></path><path d="m 25.068062 17.271586 l -11.329535 11.339365 l 0 .249628 l 11.596857 -11.588993 z"></path><path d="m 25.854289 17.271586 l -12.115762 12.125593 l 0 .259456 l 12.383084 -12.385049 z"></path><path d="m 26.640516 17.271586 l -12.901989 12.911821 l 0 .259455 l 13.179134 -13.171276 z"></path><path d="m 27.424781 17.271586 l -13.686254 13.688221 l 0 .249627 l 13.955539 -13.937848 z"></path><path d="m 19.01804 17.281449 c -.09309 -.0027 -.200398 .0054 -.277144 .01966 l -4.974855 4.965026 c -.01009 .09479 -.01513 .191407 -.01965 .286973 l 5.271653 -5.271655 z"></path><path d="m 28.21101 17.281449 l -14.32507 14.317169 l .267323 0 l 14.299507 -14.297546 c -.0793 -.0093 -.161865 -.01435 -.24176 -.01966 z"></path><path d="m 28.896992 17.383625 l -14.224824 14.214993 l .259462 0 l 14.177646 -14.169784 c -.07075 -.01807 -.140811 -.03019 -.212284 -.0452 z"></path><path d="m 18.104054 17.41114 c -.128625 .03035 -.253455 .06207 -.379351 .102214 l -3.746378 3.744408 c -.04036 .126021 -.07162 .250645 -.102204 .379354 l 4.227936 -4.225972 z"></path><path d="m 29.525975 17.550699 l -14.049888 14.047919 l .269285 0 l 13.973232 -13.975193 c -.06411 -.02509 -.127589 -.05016 -.192629 -.07273 z"></path><path d="m 30.080263 17.780671 l -13.835641 13.817947 l .277145 0 l 13.725574 -13.733427 c -.05555 -.02881 -.11061 -.05761 -.167078 -.08451 z"></path><path d="m 16.826435 17.892708 c -.223816 .118712 -.439542 .249506 -.646674 .397045 l -1.397517 1.39752 c -.153059 .21323 -.292079 .433329 -.414735 .664362 z"></path><path d="m 30.579514 18.057816 l -13.530972 13.540802 l .259452 0 l 13.446457 -13.438593 c -.05656 -.03707 -.117222 -.06716 -.174937 -.102214 z"></path><path d="m 31.061083 18.382135 l -13.236136 13.216483 l .279107 0 l 13.09462 -13.104446 c -.046 -.03673 -.09055 -.07671 -.137591 -.112037 z"></path><path d="m 31.48564 18.7438 l -12.874465 12.854818 l .279107 0 L 31.625204 18.8637 c -.04408 -.04253 -.09423 -.07874 -.139564 -.1199 z"></path><path d="m 31.882694 19.131016 l -12.47547 12.467602 l .267323 0 l 12.330009 -12.328047 c -.04006 -.04639 -.08043 -.09438 -.121862 -.139555 z"></path><path d="m 32.244353 19.557545 l -12.060724 12.041073 l .286967 0 l 11.883834 -11.893655 c -.03593 -.05046 -.07256 -.09807 -.110077 -.147418 z"></path><path d="m 32.558845 20.029281 l -11.569334 11.569337 l .25749 0 l 11.414051 -11.412091 c -.031 -.05407 -.06941 -.10416 -.102204 -.157246 z"></path><path d="m 32.845821 20.536398 l -11.070082 11.06222 l .277144 0 l 10.875491 -10.885319 c -.02616 -.05896 -.05438 -.118827 -.08255 -.176901 z"></path><path d="m 33.075787 21.082826 l -10.513821 10.515792 l .277145 0 l 10.301547 -10.3212 c -.02063 -.06523 -.04172 -.130168 -.06487 -.194592 z"></path><path d="m 33.260557 21.694119 l -9.904504 9.904499 l .249631 0 l 9.692219 -9.684356 c -.01319 -.07356 -.02084 -.147292 -.03734 -.220143 z"></path><path d="m 33.362764 22.378135 l -9.230316 9.220483 l .269285 0 l 8.970854 -8.980683 c -.003 -.08024 -.0038 -.160069 -.0099 -.2398 z"></path><path d="m 33.382419 23.144708 l -8.444078 8.45391 l .249619 0 l 8.194459 -8.184627 z"></path><path d="m 33.382419 23.923073 l -7.667684 7.675545 l .259454 0 l 7.40823 -7.408228 z"></path><path d="m 33.382419 24.717163 l -6.871624 6.881455 l .257481 0 l 6.614143 -6.612172 z"></path><path d="m 33.382419 25.50339 l -6.077537 6.095228 l .241762 0 l 5.835775 -5.818083 z"></path><path d="m 33.382419 26.299445 l -5.299169 5.299173 l .257481 0 l 5.041688 -5.039717 z"></path><path d="m 33.382419 27.075845 l -4.514913 4.522773 l .269285 0 l 4.245628 -4.245628 z"></path><path d="m 33.382419 27.8719 l -3.728686 3.726718 l .259453 0 l 3.469233 -3.459401 z"></path><path d="m 33.382419 28.658127 l -2.942458 2.940491 l .269284 0 l 2.673174 -2.673174 z"></path><path d="m 33.382419 29.452217 l -2.146399 2.146401 l .24962 0 l 1.896779 -1.896773 z"></path><path d="m 33.382419 30.228616 l -1.370004 1.370002 l .277145 0 l 1.092859 -1.09089 z"></path><path d="m 33.382419 31.024672 l -.573944 .573946 l .259453 0 l .314491 -.314491 z"></path><path d="m 23.927895 68.401926 l -5.696211 5.696217 c .003 .08306 .0028 .167554 .0099 .249628 l 5.937982 -5.928155 c -.08158 -.007 -.167077 -.01432 -.24962 -.01769 l -.002 0 z"></path><path d="m 23.401131 68.409775 c -.095 .0052 -.191351 -.000184 -.285015 .0099 l -4.864778 4.87461 c -.01009 .09069 -.0048 .18519 -.0099 .277146 l 5.159625 -5.161584 z"></path><path d="m 24.651225 68.474636 l -6.344848 6.344856 c .01258 .07385 .02175 .149293 .03734 .222109 l 6.529618 -6.529618 c -.07276 -.01569 -.148329 -.02457 -.222116 -.03734 z"></path><path d="m 22.487134 68.529674 c -.123864 .02817 -.241146 .06581 -.361659 .102214 l -3.661853 3.663821 c -.03462 .115067 -.06521 .231763 -.09239 .34987 l 4.115897 -4.115901 z"></path><path d="m 25.280207 68.624022 l -6.826416 6.834282 c .02043 .06879 .04192 .134826 .06486 .202453 l 6.973839 -6.964009 c -.07135 -.02453 -.139644 -.05108 -.212283 -.07273 z"></path><path d="m 25.862021 68.836315 l -7.195947 7.19398 c .02667 .06284 .05564 .125116 .08452 .18673 l 7.286369 -7.298157 c -.05867 -.02759 -.11519 -.05699 -.174937 -.08255 z"></path><path d="m 21.264554 68.973904 c -.227771 .111812 -.444282 .234831 -.627019 .351837 l -1.48007 1.489901 c -.129037 .191442 -.237463 .393901 -.342005 .601464 z"></path><path d="m 26.388796 69.093804 l -7.473091 7.473091 c .0317 .05669 .0686 .111651 .102203 .167074 l 7.537951 -7.537956 c -.05545 -.03375 -.110378 -.07038 -.167066 -.102214 z"></path><path d="m 26.870354 69.408294 l -7.640158 7.640167 c .03442 .0488 .06619 .0998 .102204 .147417 l 7.685374 -7.685374 c -.0476 -.03606 -.09857 -.06767 -.147423 -.102214 z"></path><path d="m 27.314577 69.75227 l -7.742376 7.740408 c .04126 .04745 .0869 .0916 .129731 .13759 l 7.750235 -7.758099 c -.04499 -.04202 -.09115 -.07939 -.13759 -.119899 z"></path><path d="m 27.71162 70.139486 l -7.740414 7.750237 c .04318 .04051 .08519 .08079 .129732 .1199 l 7.740414 -7.740409 c -.04045 -.04621 -.0878 -.08491 -.129732 -.129728 z"></path><path d="m 28.07329 70.556187 l -7.687348 7.685374 c .05293 .04057 .102765 .08126 .157246 .119899 l 7.640168 -7.648028 c -.03673 -.05168 -.07165 -.106906 -.110066 -.157245 z"></path><path d="m 28.39564 71.037752 l -7.537962 7.535989 c .05394 .0329 .111919 .0613 .167078 .09239 l 7.473092 -7.471126 c -.0309 -.0548 -.06951 -.103617 -.102204 -.157245 z"></path><path d="m 28.664925 71.544868 l -7.298163 7.298156 c .0622 .02948 .121308 .0652 .184769 .09239 L 28.7573 71.72964 C 28.73013 71.6661 28.69442 71.607159 28.66492 71.544876 Z"></path><path d="m 28.894891 72.108986 l -6.964008 6.964009 c .0644 .02214 .129118 .04508 .194592 .06486 l 6.834276 -6.842144 c -.01912 -.06331 -.04352 -.124404 -.06486 -.18673 z"></path><path d="m 29.07179 72.720277 l -6.529617 6.52962 c .07376 .01596 .147252 .03225 .222106 .04521 l 6.352718 -6.352718 c -.01288 -.07456 -.02931 -.148607 -.04521 -.222111 z"></path><path d="m 29.172036 73.404296 l -5.945843 5.94781 c .08212 .0072 .166504 .01423 .24963 .01769 l 5.715867 -5.725702 c -.003 -.08003 -.01281 -.160684 -.01965 -.239798 z"></path><path d="m 29.181867 74.190523 l -5.169446 5.169446 c .08574 -.0047 .174786 .000745 .259453 -.0078 l .0078 0 l 4.892302 -4.8923 c .000323 -.003 -.000331 -.0069 0 -.0099 c .009 -.08467 .0058 -.17369 .0099 -.259455 z"></path><path d="m 29.061968 75.086822 l -4.153253 4.153247 c .121319 -.0271 .243512 -.05739 .36167 -.09239 l 3.699199 -3.689371 c .03602 -.120918 .06461 -.247254 .09239 -.371493 z"></path><path d="m 28.617746 76.336924 l -2.458927 2.458926 c .201717 -.100945 .395172 -.208081 .581814 -.33218 l 1.517416 -1.507592 c .0041 -.0056 .0038 -.012 .0078 -.01769 c .128684 -.191947 .247748 -.39346 .351837 -.601465 z"></path><path d="m 19.536816 80.672968 l -5.80825 5.808256 l 0 .269283 l 6.075573 -6.077539 z"></path><path d="m 20.330914 80.672968 l -6.602348 6.594483 l 0 .277145 l 6.8618 -6.871628 z"></path><path d="m 21.126963 80.672968 l -7.398397 7.400366 l 0 .257489 l 7.657851 -7.657855 z"></path><path d="m 21.903368 80.672968 l -8.174802 8.176766 l 0 .267317 l 8.444078 -8.444083 z"></path><path d="m 22.699419 80.672968 l -8.970853 8.972821 l 0 .25749 l 9.230305 -9.230311 z"></path><path d="m 23.485646 80.672968 l -9.75708 9.757084 l 0 .251593 l 10.01457 -10.008677 z"></path><path d="m 24.279733 80.672968 l -10.551167 10.543311 l 0 .269283 l 10.800798 -10.812594 z"></path><path d="m 25.058101 80.672968 l -11.329535 11.339366 l 0 .249627 l 11.596858 -11.588993 z"></path><path d="m 25.844329 80.672968 l -12.115763 12.125593 l 0 .259456 l 12.383085 -12.385049 z"></path><path d="m 26.630556 80.672968 l -12.90199 12.911821 l 0 .259455 l 13.179135 -13.171276 z"></path><path d="m 27.414821 80.672968 l -13.686255 13.688221 l 0 .249627 l 13.95554 -13.937848 z"></path><path d="m 19.008079 80.682831 c -.09309 -.0027 -.200398 .0054 -.277145 .01965 l -4.974854 4.965026 c -.01009 .09479 -.01512 .191407 -.01966 .286973 l 5.271654 -5.271654 z"></path><path d="M 28.201048 80.682831 L 13.875979 95 L 14.143301 95 L 28.442809 80.702454 c -.0793 -.0093 -.161865 -.01435 -.241761 -.01966 z"></path><path d="M 28.887031 80.785007 L 14.662206 95 L 14.921669 95 L 29.099315 80.830216 c -.07075 -.01807 -.140812 -.03019 -.212284 -.04521 z"></path><path d="m 18.094093 80.812521 c -.128624 .03035 -.253454 .06207 -.379352 .102215 l -3.746378 3.744408 c -.04036 .126021 -.07162 .250645 -.102203 .379354 l 4.227936 -4.225972 z"></path><path d="M 29.516013 80.952081 L 15.466126 95 L 15.735411 95 L 29.708642 81.024808 c -.06411 -.02509 -.127587 -.05016 -.192629 -.07273 z"></path><path d="M 30.070302 81.182053 L 16.234661 95 L 16.511806 95 L 30.237379 81.266573 c -.05555 -.02881 -.11061 -.05761 -.167077 -.08452 z"></path><path d="m 16.816475 81.29409 c -.223818 .118712 -.439543 .249507 -.646674 .397046 l -1.397518 1.397519 c -.153059 .21323 -.292079 .43333 -.414736 .664362 z"></path><path d="M 30.569553 81.459197 L 17.038581 95 L 17.298033 95 L 30.744491 81.561407 c -.05656 -.03707 -.117223 -.06716 -.174938 -.102214 z"></path><path d="M 31.051121 81.783517 L 17.814986 95 L 18.094093 95 L 31.188712 81.895554 c -.046 -.03673 -.09055 -.0767 -.137591 -.112037 z"></path><path d="M 31.475679 82.145182 L 18.601213 95 L 18.88032 95 L 31.615243 82.265081 c -.04408 -.04253 -.09423 -.07874 -.139564 -.119899 z"></path><path d="M 31.872733 82.532398 L 19.397263 95 L 19.664585 95 L 31.994594 82.671953 c -.04006 -.04639 -.08043 -.09438 -.121861 -.139555 z"></path><path d="M 32.234392 82.958927 L 20.173668 95 L 20.460635 95 L 32.344469 83.106345 c -.03593 -.05046 -.07256 -.09807 -.110077 -.147418 z"></path><path d="M 32.548883 83.430663 L 20.97955 95 L 21.23704 95 L 32.65109 83.587909 c -.031 -.05407 -.0694 -.10416 -.102203 -.157246 z"></path><path d="M 32.835861 83.937781 L 21.765777 95 L 22.042922 95 L 32.918413 84.114681 c -.02617 -.05896 -.05438 -.118827 -.08255 -.1769 z"></path><path d="M 33.065826 84.484208 L 22.552005 95 L 22.829149 95 L 33.130697 84.6788 c -.02063 -.06524 -.04172 -.130168 -.06487 -.194592 z"></path><path d="M 33.250596 85.095501 L 23.346093 95 l .24963 0 l 9.692219 -9.684356 c -.01319 -.07356 -.02084 -.147293 -.03734 -.220143 z"></path><path d="M 33.352803 85.779518 L 24.122488 95 l .269285 0 l 8.970852 -8.980683 c -.003 -.08024 -.0038 -.160068 -.0099 -.239799 z"></path><path d="M 33.372458 86.54609 L 24.928379 95 L 25.178 95 L 33.372458 86.815373 Z"></path><path d="M 33.372458 87.324455 L 25.704775 95 l .259452 0 l 7.408231 -7.408228 z"></path><path d="M 33.372458 88.118545 L 26.500835 95 l .25748 0 l 6.614143 -6.612172 z"></path><path d="M 33.372458 88.904772 L 27.294922 95 l .24176 0 l 5.835776 -5.818083 z"></path><path d="M 33.372458 89.700827 L 28.07329 95 l .257479 0 l 5.041689 -5.039718 z"></path><path d="M 33.372458 90.477227 L 28.857544 95 l .269285 0 l 4.245629 -4.245628 z"></path><path d="M 33.372458 91.273282 L 29.643772 95 l .259452 0 l 3.469234 -3.459401 z"></path><path d="M 33.372458 92.059509 L 30.429999 95 l .269285 0 l 2.673174 -2.673174 z"></path><path d="M 33.372458 92.853599 L 31.226059 95 l .24962 0 l 1.896779 -1.896773 z"></path><path d="M 33.372458 93.629998 L 32.002454 95 l .277145 0 l 1.092859 -1.09089 z"></path><path d="M 33.372458 94.426054 L 32.798514 95 l .259452 0 l .314492 -.314491 z"></path><path d="m 76.828568 68.401239 l -5.69706 5.69706 c .0031 .08306 .0024 .167637 .0093 .24971 l 5.937521 -5.928272 c -.08218 -.007 -.166531 -.01517 -.249709 -.0185 z"></path><path d="m 76.301404 68.410487 c -.09502 .0052 -.193033 -.000752 -.286701 .0093 l -4.864699 4.873945 c -.0097 .09069 -.0041 .185499 -.0093 .277455 z"></path><path d="m 77.549949 68.475227 l -6.344453 6.344454 c .0126 .07384 .02147 .149146 .03699 .221964 l 6.529423 -6.529424 c -.07275 -.01569 -.148177 -.02422 -.221964 -.03699 z"></path><path d="m 75.385807 68.530718 c -.12387 .02817 -.240178 .06534 -.360691 .101736 L 71.36272 72.29485 c -.03463 .115068 -.06533 .233335 -.09249 .351442 z"></path><path d="m 78.178846 68.623203 l -6.825374 6.834622 c .02041 .06879 .04172 .135839 .06473 .203467 l 6.973351 -6.964102 c -.07135 -.02453 -.140072 -.05234 -.212715 -.07399 z"></path><path d="m 78.7615 68.835917 l -7.195314 7.195314 c .02668 .06284 .05432 .123357 .08324 .184969 l 7.287799 -7.297046 c -.05864 -.02759 -.115973 -.05767 -.175721 -.08324 z"></path><path d="m 74.165008 68.974645 c -.227768 .111811 -.446162 .234436 -.628898 .351441 l -1.479756 1.489005 c -.12903 .191443 -.237654 .393587 -.342194 .601151 z"></path><path d="m 79.288663 69.094874 l -7.472768 7.472769 c .03172 .05669 .06808 .111048 .101736 .166472 l 7.537508 -7.537507 c -.05542 -.03375 -.109786 -.06991 -.166473 -.101736 z"></path><path d="m 79.769583 69.409323 l -7.63924 7.639241 c .03444 .04881 .06575 .100352 .101735 .147974 l 7.685483 -7.685482 c -.04762 -.03606 -.09917 -.0672 -.147976 -.101735 z"></path><path d="m 80.213511 69.751517 l -7.740974 7.740973 c .04127 .04745 .08662 .09274 .129477 .138728 l 7.750224 -7.759472 c -.04504 -.04202 -.0923 -.07971 -.138727 -.120229 z"></path><path d="m 80.611195 70.139953 l -7.740974 7.750222 c .0432 .04051 .08497 .08113 .129478 .12023 l 7.740975 -7.740973 c -.04042 -.04622 -.08755 -.08466 -.129479 -.129479 z"></path><path d="m 80.971886 70.556133 l -7.685484 7.685484 c .05297 .04057 .102744 .08158 .157225 .12023 l 7.639241 -7.648489 c -.03673 -.05168 -.07254 -.106885 -.110982 -.157225 z"></path><path d="m 81.295582 71.037054 l -7.537507 7.537508 c .05396 .0329 .111308 .06141 .166473 .09249 l 7.472767 -7.472768 c -.03088 -.0548 -.06905 -.103597 -.101735 -.157225 z"></path><path d="m 81.563788 71.545721 l -7.297048 7.297046 c .0622 .02948 .121514 .06531 .18497 .09249 l 7.204563 -7.20456 c -.02718 -.06354 -.06301 -.122687 -.09248 -.18497 z"></path><path d="m 81.794999 72.109878 l -6.9641 6.964102 c .06441 .02214 .128734 .04496 .194217 .06473 l 6.834624 -6.843873 c -.01912 -.06331 -.04343 -.122643 -.06473 -.184969 z"></path><path d="m 81.97072 72.720277 l -6.529423 6.529424 c .07377 .01596 .147114 .03328 .221964 .04624 l 6.353702 -6.353703 c -.01291 -.07456 -.03037 -.148459 -.04625 -.221963 z"></path><path d="m 82.072454 73.404664 l -5.946769 5.94677 c .08213 .0072 .166579 .01504 .249708 .0185 l 5.715557 -5.724811 c -.0034 -.08003 -.01165 -.161346 -.0185 -.24046 z"></path><path d="m 82.081702 74.190785 l -5.169899 5.169897 c .08575 -.0047 .17429 -.00065 .258957 -.0093 l .0093 0 l 4.892445 -4.892443 c .000325 -.003 -.000325 -.0062 0 -.0093 c .0086 -.08467 .0046 -.173194 .0093 -.258959 z"></path><path d="m 81.96147 75.087887 l -4.152564 4.152566 c .121318 -.0271 .242535 -.0575 .36069 -.09248 l 3.699391 -3.690143 c .03602 -.120916 .06473 -.245698 .09248 -.369938 z"></path><path d="m 81.517544 76.336431 l -2.460095 2.460095 c .201719 -.100945 .396005 -.208847 .582655 -.332946 l 1.51675 -1.507502 c .0038 -.0056 .0054 -.01281 .0093 -.0185 c .128687 -.191946 .247349 -.393145 .351443 -.601149 z"></path><path d="m 72.435542 80.673965 l -5.808042 5.808043 l 0 .268206 l 6.076249 -6.076249 z"></path><path d="m 73.230912 80.673965 l -6.603412 6.594164 l 0 .277455 l 6.862368 -6.871619 z"></path><path d="m 74.02628 80.673965 l -7.39878 7.398781 l 0 .258957 l 7.657738 -7.657738 z"></path><path d="m 74.803152 80.673965 l -8.175652 8.175653 l 0 .268206 l 8.443859 -8.443859 z"></path><path d="m 75.598521 80.673965 l -8.971021 8.971021 l 0 .258958 l 9.229978 -9.229979 z"></path><path d="m 76.384642 80.673965 l -9.757142 9.757143 l 0 .249708 l 10.016099 -10.006851 z"></path><path d="m 77.18001 80.673965 l -10.55251 10.543263 l 0 .268206 l 10.802219 -10.811469 z"></path><path d="M 77.956883 80.673965 L 66.6275 92.012596 l 0 .249709 l 11.597588 -11.58834 z"></path><path d="M 78.743003 80.673965 L 66.6275 92.798717 l 0 .258958 l 12.383709 -12.38371 z"></path><path d="M 79.529123 80.673965 L 66.6275 93.584837 l 0 .258957 l 13.179078 -13.169829 z"></path><path d="M 80.315243 80.673965 L 66.6275 94.361709 l 0 .249709 l 13.95595 -13.937453 z"></path><path d="m 71.630926 80.701711 l -4.97568 4.966432 c -.01009 .09479 -.01404 .191136 -.0185 .286702 l 5.271631 -5.271631 c -.09309 -.0027 -.20071 .0043 -.277453 .0185 z"></path><path d="m 81.101365 80.683213 l -14.325889 14.316641 l .268206 0 l 14.298143 -14.298143 c -.07929 -.0093 -.160565 -.0132 -.24046 -.0185 z"></path><path d="m 81.785751 80.784947 l -14.224155 14.214907 l .258957 0 l 14.177913 -14.168664 c -.07071 -.01807 -.141242 -.03123 -.212715 -.04624 z"></path><path d="m 70.992781 80.812693 c -.128623 .03034 -.253288 .06161 -.379187 .101736 l -3.745634 3.745633 c -.04031 .126021 -.07113 .250478 -.101736 .379187 z"></path><path d="m 82.414648 80.95142 l -14.048435 14.048434 l .268207 0 l 13.974445 -13.974447 c -.06415 -.02508 -.129179 -.05141 -.194217 -.07399 z"></path><path d="m 82.969556 81.182632 l -13.835719 13.817222 l .277454 0 l 13.724738 -13.733986 c -.05559 -.02881 -.110003 -.05633 -.166473 -.08324 z"></path><path d="m 69.716491 81.293614 c -.223814 .118711 -.440262 .250145 -.647394 .397684 l -1.39652 1.396519 c -.153056 .21323 -.293516 .434859 -.416181 .665891 z"></path><path d="m 83.468974 81.460087 l -13.53052 13.539767 l .258957 0 l 13.447284 -13.438035 c -.05651 -.03707 -.118014 -.06668 -.175721 -.101736 z"></path><path d="m 83.949894 81.783782 l -13.234568 13.216072 l .277455 0 l 13.09584 -13.10509 c -.04602 -.03673 -.09168 -.07564 -.138727 -.110982 z"></path><path d="m 84.375325 82.144473 l -12.873879 12.855381 l .277455 0 l 12.73515 -12.735151 c -.04411 -.04253 -.09335 -.07908 -.138726 -.12023 z"></path><path d="m 84.773009 82.532909 l -12.476193 12.466945 l .268205 0 l 12.328218 -12.328218 c -.04002 -.04639 -.07881 -.09356 -.12023 -.138727 z"></path><path d="m 85.1337 82.95834 l -12.060012 12.041514 l .286701 0 l 11.884292 -11.893539 c -.03589 -.05046 -.07351 -.09863 -.110981 -.147975 z"></path><path d="m 85.448148 83.430011 l -11.569844 11.569843 l .258958 0 l 11.41262 -11.412619 c -.03104 -.05407 -.06895 -.104138 -.101736 -.157224 z"></path><path d="m 85.734852 83.938678 l -11.070426 11.061176 l .277453 0 l 10.876208 -10.885456 c -.02612 -.05896 -.05505 -.117646 -.08324 -.17572 z"></path><path d="m 85.966062 84.484337 l -10.515517 10.515517 l .277454 0 l 10.302804 -10.321298 c -.02063 -.06523 -.04162 -.129795 -.06474 -.194219 z"></path><path d="m 86.151031 85.094736 l -9.905117 9.905118 l .24971 0 l 9.692402 -9.683153 c -.01322 -.07357 -.02057 -.149113 -.03699 -.221965 z"></path><path d="m 86.252765 85.779124 l -9.229979 9.22073 l .268207 0 l 8.97102 -8.98027 c -.0026 -.08024 -.0026 -.160729 -.0093 -.24046 z"></path><path d="m 86.271263 86.546748 l -8.443859 8.453106 l .249708 0 l 8.194151 -8.184901 z"></path><path d="m 86.271263 87.32362 l -7.666987 7.676234 l .258957 0 l 7.40803 -7.408029 z"></path><path d="m 86.271263 88.118989 l -6.871618 6.880865 l .258957 0 l 6.612661 -6.61266 z"></path><path d="m 86.271263 88.905108 l -6.076249 6.094746 l .24046 0 l 5.835789 -5.817291 z"></path><path d="m 86.271263 89.700478 l -5.299377 5.299376 l .258956 0 l 5.040421 -5.040419 z"></path><path d="m 86.271263 90.47735 l -4.513258 4.522504 l .268207 0 l 4.245051 -4.245051 z"></path><path d="m 86.271263 91.272718 l -3.727136 3.727136 l .258957 0 l 3.468179 -3.458929 z"></path><path d="m 86.271263 92.058839 l -2.941017 2.941015 l .268206 0 l 2.672811 -2.672809 z"></path><path d="m 86.271263 92.854209 l -2.145648 2.145645 l .24971 0 l 1.895938 -1.895938 z"></path><path d="m 86.271263 93.63108 l -1.368776 1.368774 l .277455 0 l 1.091321 -1.09132 z"></path><path d="m 86.271263 94.426449 l -.573407 .573405 l .258958 0 l .314449 -.314448 z"></path><path d="m 50.378747 68.401239 l -5.69706 5.69706 c .0031 .08306 .0023 .167637 .0093 .24971 l 5.937517 -5.928272 c -.0822 -.007 -.166531 -.01517 -.249707 -.0185 z"></path><path d="m 49.851585 68.410487 c -.09502 .0052 -.193036 -.000752 -.286705 .0093 l -4.864698 4.873945 c -.0097 .09069 -.0041 .185499 -.0093 .277455 z"></path><path d="m 51.100128 68.475227 l -6.344455 6.344454 c .01262 .07384 .02148 .149146 .03699 .221964 l 6.529421 -6.529424 c -.07275 -.01569 -.148174 -.02422 -.221962 -.03699 z"></path><path d="m 48.935986 68.530718 c -.123871 .02817 -.240177 .06534 -.360692 .101736 l -3.662396 3.662396 c -.03463 .115068 -.06533 .233335 -.09248 .351442 z"></path><path d="m 51.729023 68.623203 l -6.825373 6.834622 c .02042 .06879 .04172 .135839 .06475 .203467 L 51.94175 68.69719 C 51.8704 68.67266 51.801681 68.64485 51.729034 68.6232 Z"></path><path d="m 52.311678 68.835917 l -7.195312 7.195314 c .02668 .06284 .05432 .123357 .08324 .184969 l 7.287799 -7.297046 c -.05864 -.02759 -.115973 -.05767 -.175722 -.08324 z"></path><path d="m 47.715186 68.974645 c -.227767 .111811 -.446162 .234436 -.628898 .351441 l -1.479755 1.489005 c -.129029 .191443 -.237655 .393587 -.342193 .601151 z"></path><path d="m 52.838842 69.094874 l -7.472769 7.472769 c .03172 .05669 .06809 .111048 .101736 .166472 l 7.537506 -7.537507 c -.05542 -.03375 -.109785 -.06991 -.166472 -.101736 z"></path><path d="m 53.319762 69.409323 l -7.63924 7.639241 c .03444 .04881 .06575 .100352 .101735 .147974 l 7.685483 -7.685482 c -.04762 -.03606 -.09917 -.0672 -.147977 -.101735 z"></path><path d="m 53.76369 69.751517 l -7.740973 7.740973 c .04127 .04745 .08662 .09274 .129478 .138728 l 7.750223 -7.759472 c -.04504 -.04202 -.0923 -.07971 -.138728 -.120229 z"></path><path d="m 54.161375 70.139953 l -7.740974 7.750222 c .0432 .04051 .08498 .08113 .129479 .12023 l 7.740972 -7.740973 c -.04042 -.04622 -.08755 -.08466 -.129477 -.129479 z"></path><path d="m 54.522064 70.556133 l -7.685483 7.685484 c .05298 .04057 .102744 .08158 .157224 .12023 l 7.639241 -7.648489 c -.03673 -.05168 -.07252 -.106885 -.110982 -.157225 z"></path><path d="m 54.845761 71.037054 l -7.537507 7.537508 c .05396 .0329 .111309 .06141 .166472 .09249 l 7.472768 -7.472768 c -.03088 -.0548 -.06906 -.103597 -.101735 -.157225 z"></path><path d="m 55.113966 71.545721 l -7.297046 7.297046 c .0622 .02948 .121514 .06531 .184969 .09249 l 7.204563 -7.20456 c -.02719 -.06354 -.06301 -.122687 -.09249 -.18497 z"></path><path d="m 55.34518 72.109878 l -6.964103 6.964102 c .06442 .02214 .128734 .04496 .194217 .06473 l 6.834623 -6.843873 c -.01912 -.06331 -.04343 -.122643 -.06473 -.184969 z"></path><path d="m 55.520898 72.720277 l -6.529422 6.529424 c .07377 .01596 .147115 .03328 .221962 .04624 l 6.353704 -6.353703 c -.01292 -.07456 -.03037 -.148459 -.04625 -.221963 z"></path><path d="m 55.622632 73.404664 l -5.946767 5.94677 c .08212 .0072 .166578 .01504 .249708 .0185 l 5.715557 -5.724808 c -.0034 -.08003 -.01165 -.161346 -.0185 -.24046 z"></path><path d="m 55.631879 74.190785 l -5.169895 5.169897 c .08575 -.0047 .174288 -.00065 .258955 -.0093 l .0093 0 l 4.892444 -4.892443 c .000297 -.003 -.000294 -.0062 0 -.0093 c .0085 -.08467 .0046 -.173194 .0093 -.258959 z"></path><path d="m 55.511651 75.087887 l -4.152567 4.152566 c .121319 -.0271 .242536 -.0575 .360692 -.09248 l 3.699392 -3.690143 c .03602 -.120916 .06473 -.245698 .09248 -.369938 z"></path><path d="m 55.067723 76.336431 l -2.460093 2.460095 c .201718 -.100945 .396002 -.208847 .582653 -.332946 l 1.516751 -1.507502 c .0038 -.0056 .0054 -.01281 .0093 -.0185 c .128685 -.191946 .247347 -.393145 .351441 -.601149 z"></path><path d="m 45.98572 80.673965 l -5.80804 5.808043 l 0 .268206 l 6.076246 -6.076249 z"></path><path d="m 46.78109 80.673965 l -6.60341 6.594164 l 0 .277455 l 6.862368 -6.871619 z"></path><path d="m 47.57646 80.673965 l -7.39878 7.398781 l 0 .258957 l 7.657738 -7.657738 z"></path><path d="m 48.353331 80.673965 l -8.175651 8.175653 l 0 .268206 l 8.443857 -8.443859 z"></path><path d="m 49.148701 80.673965 l -8.971021 8.971021 l 0 .258958 l 9.229979 -9.229979 z"></path><path d="m 49.934819 80.673965 l -9.757139 9.757143 l 0 .249708 l 10.016097 -10.006851 z"></path><path d="m 50.730189 80.673965 l -10.552509 10.543263 l 0 .268206 l 10.802218 -10.811469 z"></path><path d="m 51.507061 80.673965 l -11.329381 11.338631 l 0 .249709 l 11.597587 -11.58834 z"></path><path d="m 52.293183 80.673965 l -12.115503 12.124752 l 0 .258958 l 12.383708 -12.38371 z"></path><path d="m 53.079302 80.673965 l -12.901622 12.910872 l 0 .258957 l 13.179075 -13.169829 z"></path><path d="m 53.865421 80.673965 l -13.687741 13.687744 l 0 .249709 l 13.95595 -13.937453 z"></path><path d="m 45.181103 80.701711 l -4.975679 4.966432 c -.01009 .09479 -.01404 .191136 -.0185 .286702 l 5.271633 -5.271631 c -.09308 -.0027 -.200711 .0043 -.277457 .0185 z"></path><path d="m 54.651543 80.683213 l -14.325889 14.316641 l .268208 0 l 14.298141 -14.298143 c -.07929 -.0093 -.160563 -.0132 -.24046 -.0185 z"></path><path d="m 55.335931 80.784947 l -14.224156 14.214907 l .258958 0 l 14.177914 -14.168664 c -.07072 -.01807 -.141242 -.03123 -.212716 -.04624 z"></path><path d="m 44.542959 80.812693 c -.128623 .03034 -.253287 .06161 -.379187 .101736 l -3.745632 3.745633 c -.04031 .126021 -.07113 .250478 -.101735 .379187 z"></path><path d="m 55.964826 80.95142 l -14.048434 14.048434 l .268206 0 l 13.974446 -13.974447 c -.06415 -.02508 -.129178 -.05141 -.194218 -.07399 z"></path><path d="m 56.519735 81.182632 l -13.835718 13.817222 l .277452 0 l 13.724738 -13.733986 c -.05559 -.02881 -.110002 -.05633 -.166472 -.08324 z"></path><path d="m 43.266672 81.293614 c -.223817 .118711 -.440264 .250145 -.647396 .397684 l -1.396519 1.396519 c -.153058 .21323 -.293517 .434859 -.416183 .665891 z"></path><path d="m 57.019154 81.460087 l -13.53052 13.539767 l .258958 0 l 13.447282 -13.438035 c -.05651 -.03707 -.118013 -.06668 -.17572 -.101736 z"></path><path d="m 57.500074 81.783782 l -13.234569 13.216072 l .277454 0 l 13.095843 -13.10509 c -.04602 -.03673 -.09168 -.07564 -.138728 -.110982 z"></path><path d="m 57.925505 82.144473 l -12.873881 12.855381 l .277456 0 l 12.735151 -12.735151 c -.04411 -.04253 -.09336 -.07908 -.138726 -.12023 z"></path><path d="m 58.323187 82.532909 l -12.476193 12.466945 l .268206 0 l 12.328218 -12.328218 c -.04002 -.04639 -.07882 -.09356 -.120231 -.138727 z"></path><path d="m 58.683879 82.95834 l -12.060014 12.041514 l .286705 0 l 11.884289 -11.893539 c -.03589 -.05046 -.07351 -.09863 -.11098 -.147975 z"></path><path d="m 58.998327 83.430011 l -11.569845 11.569843 l .258959 0 l 11.412621 -11.412619 c -.03104 -.05407 -.06895 -.104138 -.101736 -.157224 z"></path><path d="m 59.285028 83.938678 l -11.070423 11.061176 l .277452 0 l 10.876209 -10.885456 c -.02612 -.05896 -.05504 -.117646 -.08324 -.17572 z"></path><path d="m 59.51624 84.484337 l -10.515516 10.515517 l .277456 0 l 10.302803 -10.321298 c -.02063 -.06523 -.04163 -.129795 -.06475 -.194219 z"></path><path d="m 59.70121 85.094736 l -9.905117 9.905118 l .249708 0 l 9.692402 -9.683153 c -.01322 -.07357 -.02057 -.149113 -.03699 -.221965 z"></path><path d="m 59.802945 85.779124 l -9.22998 9.22073 l .268205 0 l 8.971022 -8.98027 c -.0026 -.08024 -.0026 -.160729 -.0093 -.24046 z"></path><path d="m 59.821443 86.546748 l -8.443861 8.453106 l .249711 0 l 8.19415 -8.184901 z"></path><path d="m 59.821443 87.32362 l -7.66699 7.676234 l .258958 0 l 7.408032 -7.408029 z"></path><path d="m 59.821443 88.118989 l -6.871621 6.880865 l .258959 0 l 6.612662 -6.61266 z"></path><path d="m 59.821443 88.905108 l -6.07625 6.094746 l .24046 0 l 5.83579 -5.817291 z"></path><path d="m 59.821443 89.700478 l -5.299379 5.299376 l .258958 0 l 5.040421 -5.040419 z"></path><path d="m 59.821443 90.47735 l -4.513257 4.522504 l .268206 0 l 4.245051 -4.245051 z"></path><path d="m 59.821443 91.272718 l -3.727137 3.727136 l .258957 0 l 3.46818 -3.458929 z"></path><path d="m 59.821443 92.058839 l -2.941018 2.941015 l .268205 0 l 2.672813 -2.672809 z"></path><path d="m 59.821443 92.854209 l -2.145649 2.145645 l .249711 0 l 1.895938 -1.895938 z"></path><path d="m 59.821443 93.63108 l -1.368777 1.368774 l .277456 0 l 1.091321 -1.09132 z"></path><path d="m 59.821443 94.426449 l -.573407 .573405 l .258958 0 l .314449 -.314448 z"></path><path d="m 50.154082 36.265015 c -2.863961 0 -5.468746 2.606712 -5.467189 5.470513 c .0016 2.861603 2.60543 5.464472 5.467189 5.464472 c 2.861761 0 5.465679 -2.602869 5.467795 -5.464472 c .0021 -2.864534 -2.603836 -5.470513 -5.467795 -5.470513 z"></path><path d="m 23.929569 36.700695 l -5.69706 5.69706 c .0031 .08306 .0023 .167635 .0093 .249709 l 5.937517 -5.928272 c -.08218 -.007 -.166531 -.01517 -.249708 -.0185 z"></path><path d="m 23.402405 36.709943 c -.09502 .0052 -.193035 -.000754 -.286704 .0093 l -4.864697 4.873947 c -.0097 .09069 -.0041 .185498 -.0093 .277454 z"></path><path d="m 24.65095 36.774682 l -6.344456 6.344455 c .01262 .07385 .02148 .149145 .03699 .221963 l 6.529421 -6.529424 c -.07275 -.01569 -.148175 -.02422 -.221962 -.03699 z"></path><path d="m 22.486807 36.830173 c -.123871 .02817 -.240177 .06533 -.360693 .101736 l -3.662396 3.662393 c -.03463 .115068 -.06533 .233335 -.09249 .351442 z"></path><path d="m 25.279844 36.922658 l -6.825373 6.834622 c .02041 .06878 .04172 .135839 .06473 .203467 l 6.97335 -6.964102 c -.07135 -.02453 -.140068 -.05234 -.212715 -.07399 z"></path><path d="m 25.862498 37.135372 l -7.195312 7.195314 c .02669 .06284 .05431 .123356 .08323 .184969 l 7.287799 -7.297046 c -.05864 -.0276 -.115973 -.05767 -.175723 -.08324 z"></path><path d="m 21.266007 37.2741 c -.227767 .111811 -.446163 .234436 -.628897 .351442 l -1.479755 1.489004 c -.129031 .191443 -.237656 .393588 -.342195 .601151 z"></path><path d="m 26.389663 37.394329 l -7.472769 7.472769 c .03172 .05669 .06809 .111048 .101736 .166472 l 7.537507 -7.537507 c -.05542 -.03375 -.109786 -.06991 -.166472 -.101736 z"></path><path d="m 26.870584 37.708778 l -7.639241 7.639241 c .03444 .0488 .06575 .100352 .101736 .147974 l 7.685484 -7.685481 c -.04762 -.03606 -.09917 -.0672 -.147977 -.101736 z"></path><path d="m 27.314511 38.050972 l -7.740974 7.740973 c .04127 .04745 .08662 .09274 .129479 .138728 l 7.750222 -7.759471 c -.04504 -.04202 -.0923 -.07971 -.138727 -.12023 z"></path><path d="m 27.712195 38.439408 l -7.740973 7.750222 c .0432 .0405 .08498 .08113 .129479 .12023 l 7.740971 -7.740973 c -.04042 -.04621 -.08755 -.08466 -.129477 -.129479 z"></path><path d="m 28.072885 38.855588 l -7.685484 7.685484 c .05298 .04057 .102745 .08158 .157225 .12023 l 7.639241 -7.648489 c -.03673 -.05168 -.07252 -.106886 -.110982 -.157225 z"></path><path d="m 28.396581 39.336509 l -7.537506 7.537508 c .05396 .03291 .111308 .06141 .166472 .09249 l 7.472769 -7.472768 c -.03088 -.0548 -.06906 -.103597 -.101736 -.157225 z"></path><path d="m 28.664787 39.845176 l -7.297046 7.297046 c .0622 .02948 .121515 .06531 .184969 .09248 l 7.204563 -7.204561 c -.02719 -.06354 -.06301 -.122687 -.09248 -.18497 z"></path><path d="m 28.896 40.409333 l -6.964102 6.964102 c .06441 .02214 .128734 .04496 .194216 .06473 l 6.834624 -6.843872 c -.01912 -.06331 -.04343 -.122644 -.06475 -.184969 z"></path><path d="m 29.07172 41.019732 l -6.529423 6.529424 c .07377 .01596 .147114 .03328 .221962 .04624 l 6.353703 -6.353703 c -.01292 -.07456 -.03037 -.148459 -.04625 -.221963 z"></path><path d="m 29.173452 41.704119 l -5.946766 5.94677 c .08212 .0072 .166577 .01504 .249707 .0185 L 29.19195 41.94458 c -.0034 -.08003 -.01165 -.161346 -.0185 -.24046 z"></path><path d="m 29.1827 42.49024 l -5.169896 5.169897 c .08575 -.0047 .174289 -.00065 .258955 -.0093 l .0093 0 l 4.892445 -4.892444 c .000296 -.003 -.000295 -.0062 0 -.0093 c .0085 -.08468 .0046 -.173194 .0093 -.258959 z"></path><path d="m 29.062472 43.387342 l -4.152567 4.152566 c .121318 -.0271 .242535 -.0575 .360691 -.09249 l 3.699392 -3.690143 c .03602 -.120916 .06472 -.245699 .09248 -.369938 z"></path><path d="m 28.618543 44.635886 l -2.460093 2.460095 c .201718 -.100945 .396003 -.208846 .582654 -.332946 l 1.516751 -1.507502 c .0038 -.0056 .0054 -.01281 .0093 -.0185 c .128683 -.191946 .247345 -.393145 .35144 -.601149 z"></path><path d="m 19.536541 48.97342 l -5.808041 5.808043 l 0 .268206 l 6.076247 -6.076249 z"></path><path d="m 20.33191 48.97342 l -6.60341 6.594163 l 0 .277455 l 6.862368 -6.871618 z"></path><path d="m 21.12728 48.97342 l -7.39878 7.398781 l 0 .258957 l 7.657738 -7.657738 z"></path><path d="m 21.904152 48.97342 l -8.175652 8.175653 l 0 .268205 l 8.443858 -8.443858 z"></path><path d="m 22.699521 48.97342 l -8.971021 8.971021 l 0 .258958 l 9.229979 -9.229979 z"></path><path d="m 23.48564 48.97342 l -9.75714 9.757142 l 0 .249709 l 10.016099 -10.006851 z"></path><path d="M 24.281011 48.97342 L 13.7285 59.516683 l 0 .268205 l 10.802218 -10.811468 z"></path><path d="M 25.057882 48.97342 L 13.7285 60.312051 l 0 .249709 l 11.597587 -11.58834 z"></path><path d="M 25.844003 48.97342 L 13.7285 61.098172 l 0 .258957 l 12.38371 -12.383709 z"></path><path d="M 26.630123 48.97342 L 13.7285 61.884292 l 0 .258957 l 13.179076 -13.169829 z"></path><path d="M 27.416242 48.97342 L 13.7285 62.661164 l 0 .249708 l 13.955951 -13.937452 z"></path><path d="m 18.731924 49.001167 l -4.975679 4.966431 c -.01009 .09479 -.01404 .191135 -.0185 .286701 l 5.271633 -5.271629 c -.09309 -.0027 -.200712 .0043 -.277457 .0185 z"></path><path d="m 28.202364 48.982668 l -14.32589 14.316641 l .268209 0 l 14.298141 -14.298142 c -.07929 -.0093 -.160564 -.0132 -.24046 -.0185 z"></path><path d="m 28.886753 49.084402 l -14.224157 14.214907 l .258959 0 l 14.177912 -14.168664 c -.07071 -.01807 -.141241 -.03123 -.212714 -.04625 z"></path><path d="m 18.093779 49.112148 c -.128622 .03034 -.253287 .06159 -.379186 .101736 l -3.745633 3.745632 c -.04031 .126021 -.07113 .250478 -.101735 .379188 z"></path><path d="m 29.515647 49.250875 l -14.048435 14.048434 l .268207 0 l 13.974445 -13.974447 c -.06415 -.02509 -.129177 -.05141 -.194217 -.07399 z"></path><path d="m 30.070556 49.482087 l -13.835718 13.817222 l .277452 0 l 13.724738 -13.733986 c -.05559 -.02881 -.110003 -.05633 -.166472 -.08324 z"></path><path d="m 16.817492 49.593069 c -.223815 .118711 -.440263 .250145 -.647396 .397684 l -1.396518 1.39652 c -.153058 .21323 -.293516 .434858 -.416184 .66589 z"></path><path d="m 30.569975 49.759542 l -13.530521 13.539767 l .258958 0 l 13.447282 -13.438035 c -.05651 -.03707 -.118012 -.06668 -.175719 -.101735 z"></path><path d="m 31.050895 50.083238 l -13.23457 13.216071 l .277454 0 l 13.095843 -13.10509 c -.04602 -.03673 -.09168 -.07564 -.138727 -.110981 z"></path><path d="m 31.476326 50.443928 l -12.87388 12.855381 l .277455 0 l 12.73515 -12.735151 c -.04411 -.04253 -.09336 -.07906 -.138725 -.12023 z"></path><path d="m 31.874007 50.832365 l -12.476192 12.466944 l .268205 0 l 12.32822 -12.328218 c -.04002 -.04639 -.07882 -.09356 -.120233 -.138726 z"></path><path d="m 32.2347 51.257794 l -12.060014 12.041515 l .286704 0 L 32.34568 51.40577 C 32.30979 51.35531 32.27217 51.30714 32.2347 51.257794 Z"></path><path d="m 32.549149 51.729466 l -11.569847 11.569843 l .258959 0 l 11.412621 -11.412619 c -.03104 -.05406 -.06895 -.104138 -.101735 -.157224 z"></path><path d="m 32.835848 52.238132 l -11.070422 11.061177 l .277452 0 l 10.87621 -10.885456 c -.02612 -.05896 -.05505 -.117646 -.08324 -.175721 z"></path><path d="m 33.067061 52.783792 l -10.515517 10.515517 l .277457 0 l 10.302802 -10.321299 c -.02063 -.06523 -.04162 -.129794 -.06473 -.194218 z"></path><path d="m 33.252031 53.394192 l -9.905118 9.905117 l .249709 0 l 9.692403 -9.683153 c -.01322 -.07356 -.02057 -.149114 -.03699 -.221964 z"></path><path d="m 33.353765 54.078579 l -9.229979 9.22073 l .268205 0 l 8.971022 -8.980269 c -.0026 -.08024 -.0026 -.16073 -.0093 -.240461 z"></path><path d="m 33.372263 54.846202 l -8.44386 8.453107 l .24971 0 l 8.19415 -8.184901 z"></path><path d="m 33.372263 55.623074 l -7.666989 7.676235 l .258959 0 l 7.40803 -7.408029 z"></path><path d="m 33.372263 56.418443 l -6.871619 6.880866 l .258958 0 l 6.612661 -6.612659 z"></path><path d="m 33.372263 57.204563 l -6.076249 6.094746 l .24046 0 l 5.835789 -5.817291 z"></path><path d="m 33.372263 57.999933 l -5.299378 5.299376 l .258959 0 l 5.040419 -5.040419 z"></path><path d="m 33.372263 58.776805 l -4.513257 4.522504 l .268207 0 l 4.24505 -4.245051 z"></path><path d="m 33.372263 59.572173 l -3.727136 3.727136 l .258957 0 l 3.468179 -3.45893 z"></path><path d="m 33.372263 60.358293 l -2.941018 2.941016 l .268206 0 l 2.672812 -2.672809 z"></path><path d="m 33.372263 61.153663 l -2.145649 2.145646 l .249712 0 l 1.895937 -1.895938 z"></path><path d="m 33.372263 61.930534 l -1.368776 1.368775 l .277455 0 l 1.091321 -1.09132 z"></path><path d="m 33.372263 62.725903 l -.573407 .573406 l .258958 0 l .314449 -.314449 z"></path><path d="m 76.828573 36.700695 l -5.697067 5.69706 c .003 .08306 .002 .167635 .009 .249709 l 5.937567 -5.928272 c -.08222 -.007 -.166524 -.01517 -.2497 -.0185 z"></path><path d="m 76.301406 36.709943 c -.095 .0052 -.193032 -.000754 -.286705 .0093 l -4.864698 4.873942 c -.01009 .09069 -.0041 .185498 -.009 .277454 z"></path><path d="m 77.54995 36.774682 l -6.344455 6.344455 c .01258 .07385 .02143 .149145 .03703 .221963 l 6.529427 -6.529424 c -.07276 -.01569 -.148178 -.02422 -.221965 -.03699 z"></path><path d="m 75.38581 36.830173 c -.123875 .02817 -.240181 .06533 -.360694 .101736 l -3.662396 3.662396 c -.03462 .115068 -.06532 .233335 -.09249 .351442 z"></path><path d="m 78.178842 36.922658 l -6.82537 6.834622 c .02042 .06878 .04176 .135839 .0647 .203467 l 6.973346 -6.964102 c -.07135 -.02453 -.140066 -.05234 -.212716 -.07399 z"></path><path d="m 78.7615 37.135372 l -7.195312 7.195314 c .02666 .06284 .05435 .123356 .08322 .184969 l 7.287797 -7.297046 c -.05867 -.0276 -.115974 -.05767 -.175723 -.08324 z"></path><path d="m 74.165011 37.2741 c -.227772 .111811 -.446165 .234436 -.628902 .351442 l -1.479758 1.489004 c -.129027 .191443 -.237654 .393588 -.342186 .601151 z"></path><path d="m 79.288667 37.394329 l -7.472768 7.472769 c .0317 .05669 .06813 .111048 .101725 .166472 l 7.53751 -7.537507 c -.05545 -.03375 -.109786 -.06991 -.166465 -.101736 z"></path><path d="m 79.769582 37.708778 l -7.639242 7.639241 c .03442 .0488 .06582 .100352 .101735 .147974 l 7.685486 -7.685481 c -.0476 -.03606 -.09913 -.0672 -.147977 -.101736 z"></path><path d="m 80.213513 38.050972 l -7.740977 7.740973 c .04126 .04745 .08665 .09274 .129479 .138728 l 7.750226 -7.759471 c -.04509 -.04202 -.09228 -.07971 -.138728 -.12023 z"></path><path d="m 80.6112 38.439408 l -7.740976 7.750222 c .04318 .0405 .08494 .08113 .12948 .12023 l 7.740966 -7.740973 c -.04045 -.04621 -.08755 -.08466 -.12947 -.129479 z"></path><path d="m 80.971884 38.855588 l -7.685486 7.685484 c .05293 .04057 .102755 .08158 .157226 .12023 l 7.639243 -7.648489 c -.03673 -.05168 -.07256 -.106886 -.110983 -.157225 z"></path><path d="m 81.295583 39.336509 l -7.537508 7.537508 c .05394 .03291 .111304 .06141 .166474 .09249 l 7.472768 -7.472768 c -.0309 -.0548 -.06904 -.103597 -.101735 -.157225 z"></path><path d="m 81.56379 39.845176 l -7.297045 7.297046 c .0622 .02948 .121508 .06531 .18496 .09248 l 7.204571 -7.204561 c -.02717 -.06354 -.063 -.122687 -.09249 -.18497 z"></path><path d="m 81.795005 40.409333 l -6.964109 6.964102 c .06441 .02214 .128736 .04496 .19422 .06473 l 6.834619 -6.843872 c -.01913 -.06331 -.04338 -.122644 -.06472 -.184969 z"></path><path d="m 81.970717 41.019732 l -6.529416 6.529424 c .07376 .01596 .147111 .03328 .221955 .04624 l 6.353704 -6.353703 c -.01288 -.07456 -.03039 -.148459 -.0463 -.221963 z"></path><path d="m 82.072451 41.704119 l -5.946767 5.94677 c .08212 .0072 .166584 .01504 .24971 .0185 l 5.715554 -5.724809 c -.003 -.08003 -.01168 -.161346 -.01852 -.24046 z"></path><path d="m 82.0817 42.49024 l -5.1699 5.169897 c .08574 -.0047 .174294 -.00065 .258959 -.0093 l .009 0 l 4.892443 -4.892444 c .000303 -.003 -.000291 -.0062 0 -.0093 c .009 -.08468 .005 -.173194 .009 -.258959 z"></path><path d="m 81.961468 43.387342 l -4.152558 4.152566 c .121317 -.0271 .242524 -.0575 .360682 -.09249 l 3.699401 -3.690143 c .03602 -.120916 .0647 -.245699 .09248 -.369938 z"></path><path d="m 81.517548 44.635886 l -2.460094 2.460095 c .201717 -.100945 .395997 -.208846 .582649 -.332946 l 1.516752 -1.507502 c .0041 -.0056 .005 -.01281 .009 -.0185 c .128686 -.191946 .247346 -.393145 .351445 -.601149 z"></path><path d="m 72.435541 48.97342 l -5.808039 5.808043 l 0 .268206 l 6.076248 -6.076249 z"></path><path d="m 73.230907 48.97342 l -6.603405 6.594163 l 0 .277455 l 6.862364 -6.871618 z"></path><path d="m 74.026282 48.97342 l -7.39878 7.398781 l 0 .258957 l 7.65774 -7.657738 z"></path><path d="m 74.80315 48.97342 l -8.175648 8.175653 l 0 .268205 l 8.443857 -8.443858 z"></path><path d="m 75.598526 48.97342 l -8.971024 8.971021 l 0 .258958 l 9.229973 -9.229979 z"></path><path d="m 76.384643 48.97342 l -9.757141 9.757142 l 0 .249709 l 10.0161 -10.006851 z"></path><path d="m 77.180008 48.97342 l -10.552506 10.543263 l 0 .268205 l 10.802217 -10.811468 z"></path><path d="m 77.956886 48.97342 l -11.329384 11.338631 l 0 .249709 l 11.597582 -11.58834 z"></path><path d="m 78.743003 48.97342 l -12.115501 12.124752 l 0 .258957 l 12.383709 -12.383709 z"></path><path d="m 79.52912 48.97342 l -12.901618 12.910872 l 0 .258957 l 13.179075 -13.169829 z"></path><path d="m 80.315246 48.97342 l -13.687744 13.687744 l 0 .249708 l 13.955952 -13.937452 z"></path><path d="m 71.630928 49.001167 l -4.97568 4.966431 c -.01009 .09479 -.01409 .191135 -.01852 .286701 l 5.271634 -5.271629 c -.09309 -.0027 -.20071 .0043 -.277457 .0185 z"></path><path d="m 81.101364 48.982668 l -14.325885 14.316641 l .268208 0 l 14.298139 -14.298142 c -.0793 -.0093 -.160567 -.0132 -.240462 -.0185 z"></path><path d="m 81.785756 49.084402 l -14.22416 14.214907 l .258959 0 l 14.177907 -14.168664 c -.07075 -.01807 -.141234 -.03123 -.212706 -.04625 z"></path><path d="m 70.992777 49.112148 c -.128623 .03034 -.253283 .06159 -.37919 .101736 l -3.745623 3.745632 c -.04036 .126021 -.07115 .250478 -.101735 .379188 z"></path><path d="m 82.414648 49.250875 l -14.048439 14.048434 l .268209 0 l 13.974449 -13.974447 c -.06411 -.02509 -.129178 -.05141 -.194219 -.07399 z"></path><path d="m 82.96956 49.482087 l -13.83572 13.817222 l .277446 0 l 13.724739 -13.733986 c -.05555 -.02881 -.109997 -.05633 -.166465 -.08324 z"></path><path d="m 69.716487 49.593069 c -.223807 .118711 -.440256 .250145 -.647388 .397684 l -1.396521 1.39652 c -.153058 .21323 -.293518 .434858 -.416185 .66589 z"></path><path d="m 83.468973 49.759542 l -13.53052 13.539767 l .258959 0 l 13.447283 -13.438035 c -.05656 -.03707 -.118017 -.06668 -.175722 -.101735 z"></path><path d="m 83.949896 50.083238 l -13.234575 13.216071 l .277456 0 l 13.095848 -13.10509 c -.046 -.03673 -.09168 -.07564 -.138729 -.110981 z"></path><path d="m 84.37533 50.443928 l -12.873882 12.855381 l .277457 0 l 12.735143 -12.735151 c -.04408 -.04253 -.0934 -.07906 -.138718 -.12023 z"></path><path d="m 84.773008 50.832365 l -12.476194 12.466944 l .268207 0 l 12.328218 -12.328218 c -.04006 -.04639 -.07879 -.09356 -.120231 -.138726 z"></path><path d="m 85.133701 51.257794 l -12.060019 12.041515 l .286704 0 l 11.884297 -11.893539 c -.03593 -.05046 -.07356 -.09863 -.110982 -.147976 z"></path><path d="m 85.448152 51.729466 l -11.569847 11.569843 l .25896 0 l 11.412621 -11.412619 c -.03109 -.05406 -.06894 -.104138 -.101736 -.157224 z"></path><path d="m 85.734847 52.238132 l -11.070425 11.061177 l .277457 0 l 10.876205 -10.885456 c -.02616 -.05896 -.05505 -.117646 -.08322 -.175721 z"></path><path d="m 85.966061 52.783792 l -10.515512 10.515517 l .277446 0 L 86.0308 52.97801 c -.02063 -.06523 -.04157 -.129794 -.0647 -.194218 z"></path><path d="m 86.151032 53.394192 l -9.905118 9.905117 l .249712 0 l 9.6924 -9.683153 c -.01319 -.07356 -.02053 -.149114 -.03703 -.221964 z"></path><path d="m 86.252766 54.078579 l -9.229984 9.22073 l .268209 0 l 8.971024 -8.980269 c -.003 -.08024 -.003 -.16073 -.009 -.240461 z"></path><path d="m 86.271263 54.846202 l -8.443856 8.453107 l .24971 0 l 8.194146 -8.184901 z"></path><path d="m 86.271263 55.623074 l -7.666988 7.676235 l .25896 0 l 7.408028 -7.408029 z"></path><path d="m 86.271263 56.418443 l -6.871623 6.880866 l .25896 0 l 6.612663 -6.612659 z"></path><path d="m 86.271263 57.204563 l -6.076247 6.094746 l .240461 0 l 5.835786 -5.817291 z"></path><path d="m 86.271263 57.999933 l -5.299379 5.299376 l .258959 0 l 5.04042 -5.040419 z"></path><path d="m 86.271263 58.776805 l -4.513253 4.522504 l .268199 0 l 4.245054 -4.245051 z"></path><path d="m 86.271263 59.572173 l -3.727135 3.727136 l .258958 0 l 3.468177 -3.45893 z"></path><path d="m 86.271263 60.358293 l -2.941019 2.941016 l .268208 0 l 2.672811 -2.672809 z"></path><path d="m 86.271263 61.153663 l -2.145644 2.145646 l .249711 0 l 1.895933 -1.895938 z"></path><path d="m 86.271263 61.930534 l -1.368776 1.368775 l .277457 0 l 1.091319 -1.09132 z"></path><path d="m 86.271263 62.725903 l -.57341 .573406 l .258959 0 l .314451 -.314449 z"></path><path d="m 45.429492 48.407433 c -2.734701 0 -5.218708 2.493818 -5.218708 5.228519 l 0 9.663357 l 19.578379 0 l 0 -9.663357 c 0 -2.735404 -2.484006 -5.228519 -5.218705 -5.228519 z"></path><path d="m 76.828568 5.000003 l -5.69706 5.69706 c .0031 .08306 .0024 .167637 .0093 .24971 L 77.078329 5.0185 C 76.996149 5.0115 76.911798 5.00333 76.82862 5 Z"></path><path d="m 76.301404 5.009252 c -.09502 .0052 -.193033 -.000754 -.286701 .0093 l -4.864699 4.873945 c -.0097 .09069 -.0041 .185498 -.0093 .277455 z"></path><path d="m 77.549949 5.073991 l -6.344453 6.344454 c .0126 .07384 .02147 .149146 .03699 .221963 l 6.529428 -6.529423 c -.07275 -.01569 -.148178 -.02422 -.221965 -.03699 z"></path><path d="m 75.385807 5.129482 c -.12387 .02817 -.240178 .06534 -.360691 .101735 L 71.36272 8.893612 c -.03463 .11507 -.06533 .233336 -.09249 .351442 z"></path><path d="m 78.178846 5.221966 l -6.825374 6.834623 c .02041 .06878 .04172 .135839 .06473 .203467 l 6.973355 -6.964102 c -.07135 -.02453 -.140071 -.05234 -.212715 -.07399 z"></path><path d="m 78.7615 5.434681 l -7.195314 7.195314 c .02668 .06284 .05432 .123356 .08324 .184969 l 7.287799 -7.297046 c -.05864 -.02759 -.115973 -.05767 -.175721 -.08323 z"></path><path d="M 74.165008 5.573408 C 73.93724 5.68522 73.718846 5.807844 73.53611 5.92485 L 72.056354 7.413855 C 71.927324 7.605298 71.8187 7.807442 71.71416 8.015006 Z"></path><path d="m 79.288663 5.693639 l -7.472768 7.472768 c .03172 .05669 .06808 .111048 .101736 .166472 l 7.537508 -7.537508 c -.05542 -.03374 -.109786 -.06991 -.166473 -.101735 z"></path><path d="m 79.769583 6.008088 l -7.63924 7.639239 c .03444 .04881 .06575 .100353 .101735 .147975 L 79.917561 6.10982 c -.04762 -.03606 -.09917 -.0672 -.147976 -.101735 z"></path><path d="m 80.213511 6.35028 l -7.740974 7.740974 c .04127 .04745 .08662 .09274 .129477 .138727 l 7.750224 -7.75947 c -.04504 -.04202 -.0923 -.07971 -.138727 -.120231 z"></path><path d="m 80.611195 6.738717 l -7.740974 7.750222 c .0432 .0405 .08497 .08112 .129478 .120229 l 7.740975 -7.740973 c -.04042 -.04621 -.08755 -.08466 -.129479 -.129478 z"></path><path d="m 80.971886 7.154898 l -7.685484 7.685483 c .05297 .04057 .102744 .08158 .157225 .120229 l 7.639241 -7.648488 c -.03673 -.05168 -.07254 -.106886 -.110982 -.157224 z"></path><path d="m 81.295582 7.635818 l -7.537507 7.537508 c .05396 .0329 .111308 .06141 .166473 .09248 l 7.472767 -7.472768 c -.03088 -.0548 -.06905 -.103597 -.101735 -.157225 z"></path><path d="m 81.563788 8.144484 l -7.297048 7.297047 c .0622 .02948 .121514 .06531 .18497 .09249 L 81.656273 8.32946 c -.02718 -.06354 -.06301 -.122687 -.09248 -.184971 z"></path><path d="m 81.794999 8.708641 l -6.9641 6.964102 c .06441 .02214 .128734 .04496 .194217 .06474 L 81.85974 8.893611 C 81.84062 8.830301 81.81631 8.770968 81.79501 8.708642 Z"></path><path d="m 81.97072 9.319041 l -6.529423 6.529423 c .07377 .01596 .147114 .03328 .221964 .04625 l 6.353702 -6.353703 c -.01291 -.07456 -.03037 -.148459 -.04625 -.221963 z"></path><path d="m 82.072454 10.003427 l -5.946769 5.946771 c .08213 .0072 .166579 .01504 .249708 .0185 l 5.715557 -5.724807 c -.0034 -.08003 -.01165 -.161347 -.0185 -.240461 z"></path><path d="m 82.081702 10.789549 l -5.169899 5.169897 c .08575 -.0047 .17429 -.00065 .258957 -.0093 l .0093 0 l 4.892445 -4.892443 c .000325 -.003 -.000325 -.0062 0 -.0093 c .0086 -.08468 .0046 -.173195 .0093 -.25896 z"></path><path d="m 81.96147 11.686651 l -4.152564 4.152565 c .121318 -.0271 .242535 -.0575 .36069 -.09248 l 3.699391 -3.690142 c .03602 -.120917 .06473 -.2457 .09248 -.369939 z"></path><path d="m 81.517544 12.935194 l -2.460095 2.460096 c .201719 -.100946 .396005 -.208847 .582655 -.332946 l 1.51675 -1.507502 c .0038 -.0056 .0054 -.01281 .0093 -.0185 c .128687 -.191945 .247349 -.393144 .351443 -.601149 z"></path><path d="m 72.435542 17.272729 l -5.808042 5.808043 l 0 .268206 l 6.076249 -6.076249 z"></path><path d="m 73.230912 17.272729 l -6.603412 6.594164 l 0 .277455 l 6.862368 -6.871619 z"></path><path d="m 74.02628 17.272729 l -7.39878 7.39878 l 0 .258958 l 7.657738 -7.657738 z"></path><path d="m 74.803152 17.272729 l -8.175652 8.175652 l 0 .268207 l 8.443859 -8.443859 z"></path><path d="m 75.598521 17.272729 l -8.971021 8.971021 l 0 .258957 l 9.229978 -9.229978 z"></path><path d="m 76.384642 17.272729 l -9.757142 9.757142 l 0 .249709 l 10.016099 -10.006851 z"></path><path d="m 77.18001 17.272729 l -10.55251 10.543263 l 0 .268206 l 10.802219 -10.811469 z"></path><path d="M 77.956883 17.272729 L 66.6275 28.61136 l 0 .249709 l 11.597588 -11.58834 z"></path><path d="M 78.743003 17.272729 L 66.6275 29.397481 l 0 .258957 l 12.383709 -12.383709 z"></path><path d="M 79.529123 17.272729 L 66.6275 30.1836 l 0 .258958 l 13.179078 -13.169829 z"></path><path d="M 80.315243 17.272729 L 66.6275 30.960473 l 0 .249709 l 13.95595 -13.937453 z"></path><path d="m 71.630926 17.300475 l -4.97568 4.966431 c -.01009 .09479 -.01404 .191137 -.0185 .286703 l 5.271631 -5.271631 c -.09309 -.0027 -.20071 .0043 -.277453 .0185 z"></path><path d="m 81.101365 17.281977 l -14.325889 14.316641 l .268206 0 l 14.298143 -14.298143 c -.07929 -.0093 -.160565 -.0132 -.24046 -.0185 z"></path><path d="m 81.785751 17.383711 l -14.224155 14.214907 l .258957 0 l 14.177913 -14.168664 c -.07071 -.01807 -.141242 -.03123 -.212715 -.04624 z"></path><path d="m 70.992781 17.411457 c -.128623 .03035 -.253288 .06161 -.379187 .101735 l -3.745634 3.745634 c -.04031 .126021 -.07113 .250478 -.101736 .379187 z"></path><path d="m 82.414648 17.550183 l -14.048435 14.048435 l .268207 0 l 13.974445 -13.974447 c -.06415 -.02508 -.129179 -.05141 -.194217 -.07399 z"></path><path d="m 82.969556 17.781396 l -13.835719 13.817222 l .277454 0 l 13.724738 -13.733987 c -.05559 -.02881 -.110003 -.05633 -.166473 -.08323 z"></path><path d="m 69.716491 17.892377 c -.223814 .118712 -.440262 .250145 -.647394 .397684 l -1.39652 1.39652 c -.153056 .21323 -.293516 .434859 -.416181 .665891 z"></path><path d="m 83.468974 18.05885 l -13.53052 13.539768 l .258957 0 l 13.447284 -13.438035 c -.05651 -.03707 -.118014 -.06668 -.175721 -.101736 z"></path><path d="m 83.949894 18.382546 l -13.234568 13.216072 l .277455 0 l 13.09584 -13.10509 c -.04602 -.03673 -.09168 -.07564 -.138727 -.110982 z"></path><path d="m 84.375325 18.743237 l -12.873879 12.855381 l .277455 0 l 12.73515 -12.735151 c -.04411 -.04253 -.09335 -.07906 -.138726 -.12023 z"></path><path d="m 84.773009 19.131673 l -12.476193 12.466945 l .268205 0 L 84.893239 19.2704 c -.04002 -.04639 -.07881 -.09356 -.12023 -.138727 z"></path><path d="m 85.1337 19.557103 l -12.060012 12.041515 l .286701 0 l 11.884292 -11.89354 c -.03589 -.05046 -.07351 -.09863 -.110981 -.147975 z"></path><path d="m 85.448148 20.028775 l -11.569844 11.569843 l .258958 0 l 11.41262 -11.412619 c -.03104 -.05407 -.06895 -.104138 -.101736 -.157224 z"></path><path d="m 85.734852 20.537442 l -11.070426 11.061176 l .277453 0 l 10.876208 -10.885456 c -.02612 -.05896 -.05505 -.117647 -.08324 -.17572 z"></path><path d="m 85.966062 21.083101 l -10.515517 10.515517 l .277454 0 l 10.302804 -10.321298 c -.02063 -.06523 -.04162 -.129795 -.06474 -.194219 z"></path><path d="m 86.151031 21.6935 l -9.905117 9.905118 l .24971 0 l 9.692402 -9.683154 c -.01322 -.07356 -.02057 -.149112 -.03699 -.221964 z"></path><path d="m 86.252765 22.377888 l -9.229979 9.22073 l .268207 0 l 8.97102 -8.98027 c -.0026 -.08024 -.0026 -.160729 -.0093 -.24046 z"></path><path d="m 86.271263 23.145512 l -8.443859 8.453106 l .249708 0 l 8.194151 -8.184902 z"></path><path d="m 86.271263 23.922383 l -7.666987 7.676235 l .258957 0 l 7.40803 -7.408029 z"></path><path d="m 86.271263 24.717753 l -6.871618 6.880865 l .258957 0 l 6.612661 -6.61266 z"></path><path d="m 86.271263 25.503872 l -6.076249 6.094746 l .24046 0 l 5.835789 -5.817292 z"></path><path d="m 86.271263 26.299241 l -5.299377 5.299377 l .258956 0 l 5.040421 -5.040419 z"></path><path d="m 86.271263 27.076113 l -4.513258 4.522505 l .268207 0 l 4.245051 -4.245051 z"></path><path d="m 86.271263 27.871482 l -3.727136 3.727136 l .258957 0 l 3.468179 -3.45893 z"></path><path d="m 86.271263 28.657603 l -2.941017 2.941015 l .268206 0 l 2.672811 -2.67281 z"></path><path d="m 86.271263 29.452972 l -2.145648 2.145646 l .24971 0 l 1.895938 -1.895938 z"></path><path d="m 86.271263 30.229844 l -1.368776 1.368774 l .277455 0 l 1.091321 -1.09132 z"></path><path d="m 86.271263 31.025213 l -.573407 .573405 l .258958 0 l .314449 -.314449 z"></path><path d="m 50.378747 5.000003 l -5.69706 5.69706 c .0031 .08306 .0023 .167637 .0093 .24971 L 50.628507 5.0185 C 50.546317 5.0115 50.461976 5.00333 50.3788 5 Z"></path><path d="m 49.851585 5.009252 c -.09502 .0052 -.193036 -.000754 -.286705 .0093 l -4.864698 4.873945 c -.0097 .09069 -.0041 .185498 -.0093 .277455 z"></path><path d="m 51.100128 5.073991 l -6.344455 6.344454 c .01262 .07384 .02148 .149146 .03699 .221963 l 6.529425 -6.529423 c -.07275 -.01569 -.148174 -.02422 -.221962 -.03699 z"></path><path d="m 48.935986 5.129482 c -.123871 .02817 -.240177 .06534 -.360692 .101735 l -3.662396 3.662395 c -.03463 .11507 -.06533 .233336 -.09248 .351442 z"></path><path d="m 51.729023 5.221966 l -6.825373 6.834623 c .02042 .06878 .04172 .135839 .06475 .203467 L 51.94175 5.295954 C 51.8704 5.271424 51.801681 5.243614 51.729034 5.221964 Z"></path><path d="m 52.311678 5.434681 l -7.195312 7.195314 c .02668 .06284 .05432 .123356 .08324 .184969 l 7.2878 -7.297046 c -.05864 -.02759 -.115973 -.05767 -.175722 -.08323 z"></path><path d="M 47.715186 5.573408 C 47.487419 5.68522 47.269024 5.807844 47.086288 5.92485 L 45.606533 7.413855 C 45.477504 7.605298 45.368878 7.807442 45.26434 8.015006 Z"></path><path d="m 52.838842 5.693639 l -7.472769 7.472768 c .03172 .05669 .06809 .111048 .101736 .166472 L 53.005315 5.795371 C 52.949895 5.761631 52.89553 5.725461 52.838843 5.693636 Z"></path><path d="m 53.319762 6.008088 l -7.63924 7.639239 c .03444 .04881 .06575 .100353 .101735 .147975 L 53.46774 6.10982 C 53.42012 6.07376 53.36857 6.04262 53.319763 6.008085 Z"></path><path d="m 53.76369 6.35028 l -7.740973 7.740974 c .04127 .04745 .08662 .09274 .129478 .138727 l 7.750223 -7.75947 c -.04504 -.04202 -.0923 -.07971 -.138728 -.120231 z"></path><path d="m 54.161375 6.738717 l -7.740974 7.750222 c .0432 .0405 .08498 .08112 .129479 .120229 l 7.740972 -7.740973 c -.04042 -.04621 -.08755 -.08466 -.129477 -.129478 z"></path><path d="m 54.522064 7.154898 l -7.685483 7.685483 c .05298 .04057 .102744 .08158 .157224 .120229 l 7.639241 -7.648488 c -.03673 -.05168 -.07252 -.106886 -.110982 -.157224 z"></path><path d="m 54.845761 7.635818 l -7.537507 7.537508 c .05396 .0329 .111309 .06141 .166472 .09248 l 7.472768 -7.472768 c -.03088 -.0548 -.06906 -.103597 -.101735 -.157225 z"></path><path d="m 55.113966 8.144484 l -7.297046 7.297047 c .0622 .02948 .121514 .06531 .184969 .09249 L 55.206452 8.32946 c -.02719 -.06354 -.06301 -.122687 -.09249 -.184971 z"></path><path d="m 55.34518 8.708641 l -6.964103 6.964102 c .06442 .02214 .128734 .04496 .194217 .06474 l 6.834623 -6.843872 c -.01912 -.06331 -.04343 -.122643 -.06473 -.184969 z"></path><path d="m 55.520898 9.319041 l -6.529422 6.529423 c .07377 .01596 .147115 .03328 .221962 .04625 l 6.353704 -6.353703 c -.01292 -.07456 -.03037 -.148459 -.04625 -.221963 z"></path><path d="m 55.622632 10.003427 l -5.946767 5.946771 c .08212 .0072 .166578 .01504 .249708 .0185 l 5.715557 -5.724807 c -.0034 -.08003 -.01165 -.161347 -.0185 -.240461 z"></path><path d="m 55.631879 10.789549 l -5.169895 5.169897 c .08575 -.0047 .174288 -.00065 .258955 -.0093 l .0093 0 l 4.892444 -4.892443 c .000297 -.003 -.000294 -.0062 0 -.0093 c .0085 -.08468 .0046 -.173195 .0093 -.25896 z"></path><path d="m 55.511651 11.686651 l -4.152567 4.152565 c .121319 -.0271 .242536 -.0575 .360692 -.09248 l 3.699392 -3.690142 c .03602 -.120917 .06473 -.2457 .09248 -.369939 z"></path><path d="M 55.067723 12.935194 L 52.60763 15.39529 c .201718 -.100946 .396002 -.208847 .582653 -.332946 l 1.516751 -1.507502 c .0038 -.0056 .0054 -.01281 .0093 -.0185 c .128685 -.191945 .247347 -.393144 .351441 -.601149 z"></path><path d="m 45.98572 17.272729 l -5.80804 5.808043 l 0 .268206 l 6.076246 -6.076249 z"></path><path d="m 46.78109 17.272729 l -6.60341 6.594164 l 0 .277455 l 6.862368 -6.871619 z"></path><path d="m 47.57646 17.272729 l -7.39878 7.39878 l 0 .258958 l 7.657738 -7.657738 z"></path><path d="m 48.353331 17.272729 l -8.175651 8.175652 l 0 .268207 l 8.443857 -8.443859 z"></path><path d="m 49.148701 17.272729 l -8.971021 8.971021 l 0 .258957 l 9.229979 -9.229978 z"></path><path d="m 49.934819 17.272729 l -9.757139 9.757142 l 0 .249709 l 10.016097 -10.006851 z"></path><path d="m 50.730189 17.272729 l -10.552509 10.543263 l 0 .268206 l 10.802218 -10.811469 z"></path><path d="M 51.507061 17.272729 L 40.17768 28.61136 l 0 .249709 l 11.597587 -11.58834 z"></path><path d="m 52.293183 17.272729 l -12.115503 12.124752 l 0 .258957 l 12.383708 -12.383709 z"></path><path d="M 53.079302 17.272729 L 40.17768 30.1836 l 0 .258958 l 13.179075 -13.169829 z"></path><path d="m 53.865421 17.272729 l -13.687741 13.687744 l 0 .249709 l 13.95595 -13.937453 z"></path><path d="m 45.181103 17.300475 l -4.975679 4.966431 c -.01009 .09479 -.01404 .191137 -.0185 .286703 l 5.271633 -5.271631 c -.09308 -.0027 -.200711 .0043 -.277457 .0185 z"></path><path d="m 54.651543 17.281977 l -14.325889 14.316641 l .268208 0 l 14.298141 -14.298143 c -.07929 -.0093 -.160563 -.0132 -.24046 -.0185 z"></path><path d="m 55.335931 17.383711 l -14.224156 14.214907 l .258958 0 l 14.177914 -14.168664 c -.07072 -.01807 -.141242 -.03123 -.212716 -.04624 z"></path><path d="m 44.542959 17.411457 c -.128623 .03035 -.253287 .06161 -.379187 .101735 l -3.745632 3.745634 c -.04031 .126021 -.07113 .250478 -.101735 .379187 z"></path><path d="m 55.964826 17.550183 l -14.048434 14.048435 l .268206 0 l 13.974446 -13.974447 c -.06415 -.02508 -.129178 -.05141 -.194218 -.07399 z"></path><path d="m 56.519735 17.781396 l -13.835718 13.817222 l .277452 0 l 13.724738 -13.733987 c -.05559 -.02881 -.110002 -.05633 -.166472 -.08323 z"></path><path d="m 43.266672 17.892377 c -.223817 .118712 -.440264 .250145 -.647396 .397684 l -1.396519 1.39652 c -.153058 .21323 -.293517 .434859 -.416183 .665891 z"></path><path d="m 57.019154 18.05885 l -13.53052 13.539768 l .258958 0 l 13.447282 -13.438035 c -.05651 -.03707 -.118013 -.06668 -.17572 -.101736 z"></path><path d="m 57.500074 18.382546 l -13.234569 13.216072 l .277454 0 l 13.095843 -13.10509 c -.04602 -.03673 -.09168 -.07564 -.138728 -.110982 z"></path><path d="m 57.925505 18.743237 l -12.873881 12.855381 l .277456 0 l 12.735151 -12.735151 c -.04411 -.04253 -.09336 -.07906 -.138726 -.12023 z"></path><path d="m 58.323187 19.131673 l -12.476193 12.466945 l .268206 0 L 58.443418 19.2704 c -.04002 -.04639 -.07882 -.09356 -.120231 -.138727 z"></path><path d="m 58.683879 19.557103 l -12.060014 12.041515 l .286705 0 l 11.884289 -11.89354 c -.03589 -.05046 -.07351 -.09863 -.11098 -.147975 z"></path><path d="m 58.998327 20.028775 l -11.569845 11.569843 l .258959 0 l 11.412621 -11.412619 c -.03104 -.05407 -.06895 -.104138 -.101736 -.157224 z"></path><path d="m 59.285028 20.537442 l -11.070423 11.061176 l .277452 0 l 10.876209 -10.885456 c -.02612 -.05896 -.05504 -.117647 -.08324 -.17572 z"></path><path d="m 59.51624 21.083101 l -10.515516 10.515517 l .277456 0 l 10.302803 -10.321298 c -.02063 -.06523 -.04163 -.129795 -.06475 -.194219 z"></path><path d="m 59.70121 21.6935 l -9.905117 9.905118 l .249708 0 l 9.692402 -9.683154 c -.01322 -.07356 -.02057 -.149112 -.03699 -.221964 z"></path><path d="m 59.802945 22.377888 l -9.22998 9.22073 l .268205 0 l 8.971022 -8.98027 c -.0026 -.08024 -.0026 -.160729 -.0093 -.24046 z"></path><path d="m 59.821443 23.145512 l -8.443861 8.453106 l .249711 0 l 8.19415 -8.184902 z"></path><path d="m 59.821443 23.922383 l -7.66699 7.676235 l .258958 0 l 7.408032 -7.408029 z"></path><path d="m 59.821443 24.717753 l -6.871621 6.880865 l .258959 0 l 6.612662 -6.61266 z"></path><path d="m 59.821443 25.503872 l -6.07625 6.094746 l .24046 0 l 5.83579 -5.817292 z"></path><path d="m 59.821443 26.299241 l -5.299379 5.299377 l .258958 0 l 5.040421 -5.040419 z"></path><path d="m 59.821443 27.076113 l -4.513257 4.522505 l .268206 0 l 4.245051 -4.245051 z"></path><path d="m 59.821443 27.871482 l -3.727137 3.727136 l .258957 0 l 3.46818 -3.45893 z"></path><path d="m 59.821443 28.657603 l -2.941018 2.941015 l .268205 0 l 2.672813 -2.67281 z"></path><path d="m 59.821443 29.452972 l -2.145649 2.145646 l .249711 0 l 1.895938 -1.895938 z"></path><path d="m 59.821443 30.229844 l -1.368777 1.368774 l .277456 0 l 1.091321 -1.09132 z"></path><path d="m 59.821443 31.025213 l -.573407 .573405 l .258958 0 l .314449 -.314449 z"></path></svg>