<svg fill="#229897" xmlns="http://www.w3.org/2000/svg" data-name="Layer 1" viewBox="0 0 64 64" x="0px" y="0px"><title>strategy-plan-procedure-tactics-policy</title><circle cx="29" cy="57" r="4"></circle><circle cx="55" cy="34" r="4"></circle><circle cx="6" cy="20" r="4"></circle><polygon points="61.707 55.707 60.293 54.293 58 56.586 55.707 54.293 54.293 55.707 56.586 58 54.293 60.293 55.707 61.707 58 59.414 60.293 61.707 61.707 60.293 59.414 58 61.707 55.707"></polygon><polygon points="19.707 3.707 18.293 2.293 16 4.586 13.707 2.293 12.293 3.707 14.586 6 12.293 8.293 13.707 9.707 16 7.414 18.293 9.707 19.707 8.293 17.414 6 19.707 3.707"></polygon><polygon points="28.707 31.707 27.293 30.293 25 32.586 22.707 30.293 21.293 31.707 23.586 34 21.293 36.293 22.707 37.707 25 35.414 27.293 37.707 28.707 36.293 26.414 34 28.707 31.707"></polygon><rect x="30.36059" y="45.99985" width="16.27882" height="2.0003" transform="translate(-22.16185 43.62502) rotate(-47.49299)"></rect><path d="M46.99023,45.1416l-1.98046-.2832.81152-5.67969-5.67969.81152-.2832-1.98046,7-1a1.00092,1.00092,0,0,1,1.13183,1.13183Z"></path><rect x="12" y="19" width="17" height="2"></rect><path d="M28.625,24.78125l-1.25-1.5625L31.39941,20,27.375,16.78125l1.25-1.5625,5,4a1.0013,1.0013,0,0,1,0,1.5625Z"></path><path d="M50,2A12,12,0,1,0,62,14,12,12,0,0,0,50,2Zm4.32623,18L50,16.695,45.67377,20l1.65246-5.34753L43,11h5.34753L50,6l1.65247,5H57l-4.32623,3.65247Z"></path><path d="M13,42H11.62048a4.00006,4.00006,0,1,0-5.241,0H5a3,3,0,0,0-3,3v6l2,1V62H14V52l2-1V45A3,3,0,0,0,13,42ZM7,46V44h4v2H10v4H8V46Zm5,14H10V58h2Z"></path></svg>