<svg fill="#229897" xmlns="http://www.w3.org/2000/svg" xmlns:xlink="http://www.w3.org/1999/xlink" version="1.0" x="0px" y="0px" viewBox="0 0 100 100" enable-background="new 0 0 100 100" xml:space="preserve"><circle cx="40" cy="40" r="6.667"></circle><path d="M43.333,53.333l-6.666,0.004c-5.521,0-10,4.476-10,10l26.666-0.004C53.333,57.813,48.857,53.333,43.333,53.333z"></path><path d="M60,36.667V70H20V16.667h26.667V10H20c-3.665,0-6.667,3.001-6.667,6.667v66.667C13.333,86.999,16.335,90,20,90h40  c3.665,0,6.667-3.001,6.667-6.667V36.667H60z M43.333,83.333h-6.666c-1.843,0-3.334-1.49-3.334-3.333s1.491-3.333,3.334-3.333h6.666  c1.843,0,3.334,1.49,3.334,3.333S45.176,83.333,43.333,83.333z"></path><path d="M80,16.667v-3.333C80,11.5,78.499,10,76.667,10h-20c-1.833,0-3.334,1.5-3.334,3.333v13.333c0,1.833,1.501,3.333,3.334,3.333  h20C78.499,30,80,28.5,80,26.667v-3.333L86.667,30V10L80,16.667z M73.333,23.333H60v-6.667h13.333V23.333z"></path></svg>