<svg xmlns="http://www.w3.org/2000/svg" xmlns:xlink="http://www.w3.org/1999/xlink" width="100" height="100" viewBox="0 0 100 100"><g><g transform="translate(50 50) scale(0.69 0.69) rotate(0) translate(-50 -50)" style="fill:#229897"><svg fill="#229897" xmlns="http://www.w3.org/2000/svg" xmlns:xlink="http://www.w3.org/1999/xlink" version="1.1" x="0px" y="0px" viewBox="0 0 100 100" enable-background="new 0 0 100 100" xml:space="preserve"><g><path d="M95,21v0.3c0,1.9-1.5,3.4-3.4,3.4h-55c-1.5,4-5.3,6.9-9.8,6.9c-4.5,0-8.4-2.9-9.8-6.9H8.4c-1.9,0-3.4-1.5-3.4-3.4V21   c0-1.9,1.5-3.4,3.4-3.4h8.5c1.5-4,5.3-6.9,9.8-6.9c4.5,0,8.4,2.9,9.8,6.9h55C93.5,17.6,95,19.1,95,21z"></path><path d="M95,49.8v0.3c0,1.9-1.5,3.4-3.4,3.4h-8.5c-1.5,4-5.3,6.9-9.8,6.9c-4.5,0-8.4-2.9-9.8-6.9h-55c-1.9,0-3.4-1.5-3.4-3.4v-0.3   c0-1.9,1.5-3.4,3.4-3.4h55c1.5-4,5.3-6.9,9.8-6.9c4.5,0,8.4,2.9,9.8,6.9h8.5C93.5,46.4,95,47.9,95,49.8z"></path><path d="M95,78.7V79c0,1.9-1.5,3.4-3.4,3.4h-55c-1.5,4-5.3,6.9-9.8,6.9c-4.5,0-8.4-2.9-9.8-6.9H8.4C6.5,82.4,5,80.9,5,79v-0.3   c0-1.9,1.5-3.4,3.4-3.4h8.5c1.5-4,5.3-6.9,9.8-6.9c4.5,0,8.4,2.9,9.8,6.9h55C93.5,75.2,95,76.8,95,78.7z"></path></g></svg></g></g></svg>