<svg xmlns="http://www.w3.org/2000/svg" xmlns:xlink="http://www.w3.org/1999/xlink" width="100" height="100" viewBox="0 0 100 100"><g><g transform="translate(50 50) scale(0.69 0.69) rotate(0) translate(-50 -50)" style="fill:#229897"><svg fill="#229897" xmlns="http://www.w3.org/2000/svg" data-name="Layer 1" viewBox="0 0 64 64" x="0px" y="0px"><polygon points="13 49 15 49 15 45 16 45 16 43 12 43 12 45 13 45 13 49"></polygon><rect x="15" y="57" width="2" height="2"></rect><path d="M6,44v6a.99985.99985,0,0,0,.55273.89453L8,51.61816V61a1,1,0,0,0,1,1H19a1,1,0,0,0,1-1V51.61816l1.44727-.72363A.99985.99985,0,0,0,22,50V44a4.006,4.006,0,0,0-3.44385-3.96143A4.91991,4.91991,0,0,0,19,38,5,5,0,0,0,9,38a4.91991,4.91991,0,0,0,.44385,2.03857A4.006,4.006,0,0,0,6,44Zm2,0a2.002,2.002,0,0,1,2-2h1.37939a.99983.99983,0,0,0,.65821-1.75244A2.957,2.957,0,0,1,11,38a3,3,0,0,1,6,0,2.957,2.957,0,0,1-1.0376,2.24756A.99983.99983,0,0,0,16.62061,42H18a2.002,2.002,0,0,1,2,2v5.38184l-1.44727.72363A.99985.99985,0,0,0,18,51v9H10V51a.99985.99985,0,0,0-.55273-.89453L8,49.38184Z"></path><path d="M56,11H52.1499L50.9541,7.19971a1.00034,1.00034,0,0,0-1.9082,0L47.8501,11H44a1.00012,1.00012,0,0,0-.61816,1.78613l3.168,2.4917-1.21337,3.92676a.99986.99986,0,0,0,1.5625,1.08984L50,17.92529l3.10107,2.36914a.99986.99986,0,0,0,1.5625-1.08984L53.4502,15.27783l3.168-2.4917A1.00012,1.00012,0,0,0,56,11Zm-4.32617,3.13037a1.001,1.001,0,0,0-.3374,1.08154l.49267,1.59424-1.22217-.93359a.99874.99874,0,0,0-1.21386,0l-1.22217.93359.49267-1.59424a1.001,1.001,0,0,0-.3374-1.08154L46.88916,13H48.5835a1.00054,1.00054,0,0,0,.9541-.69971L50,10.83057l.4624,1.46972A1.00054,1.00054,0,0,0,51.4165,13h1.69434Z"></path><path d="M50,2A12,12,0,1,0,62,14,12.01375,12.01375,0,0,0,50,2Zm0,22A10,10,0,1,1,60,14,10.01114,10.01114,0,0,1,50,24Z"></path><path d="M50,38A12,12,0,1,0,62,50,12.01375,12.01375,0,0,0,50,38Zm0,22A10,10,0,1,1,60,50,10.01114,10.01114,0,0,1,50,60Z"></path><path d="M14,26A12,12,0,1,0,2,14,12.01375,12.01375,0,0,0,14,26ZM14,4A10,10,0,1,1,4,14,10.01114,10.01114,0,0,1,14,4Z"></path><path d="M13.28955,19.2041a1.00084,1.00084,0,0,0,1.4209,0L19.104,14.771a3.10945,3.10945,0,0,0,0-4.3628l-.00048-.00049a3.13112,3.13112,0,0,0-4.34961,0L14,11.169l-.75439-.76124A3.08065,3.08065,0,0,0,8.896,14.77148Zm-2.97314-7.38818a1.05868,1.05868,0,0,1,1.50879,0l1.46435,1.47754a1.03017,1.03017,0,0,0,1.4209,0l1.46387-1.47754a1.08345,1.08345,0,0,1,1.50879-.00049,1.10289,1.10289,0,0,1,0,1.54785L14,17.07959l-3.68311-3.71582A1.10334,1.10334,0,0,1,10.31641,11.81592Z"></path><path d="M53.896,43H46.104A3.10768,3.10768,0,0,0,43,46.104v3.792a3.10841,3.10841,0,0,0,2.7251,3.081l-.69531,2.78027a.99987.99987,0,0,0,1.59472,1.02344L51.35059,53H53.896A3.10768,3.10768,0,0,0,57,49.896V46.104A3.10768,3.10768,0,0,0,53.896,43ZM55,49.896A1.10508,1.10508,0,0,1,53.896,51H51a.99807.99807,0,0,0-.62451.21924l-2.687,2.14941.28173-1.126A1.00046,1.00046,0,0,0,47,51h-.896A1.10508,1.10508,0,0,1,45,49.896V46.104A1.10508,1.10508,0,0,1,46.104,45h7.792A1.10508,1.10508,0,0,1,55,46.104Z"></path><rect x="13" y="29" width="2" height="2"></rect><rect x="33" y="47" width="2" height="2"></rect><rect x="29" y="47" width="2" height="2"></rect><rect x="25" y="47" width="2" height="2"></rect><rect x="38" y="23" width="2" height="2"></rect><rect x="35" y="26" width="2" height="2"></rect><rect x="32" y="29" width="2" height="2"></rect><rect x="29" y="32" width="2" height="2"></rect><rect x="26" y="35" width="2" height="2"></rect><rect x="23" y="38" width="2" height="2"></rect></svg></g></g></svg>