<svg fill="#229897" xmlns="http://www.w3.org/2000/svg" xmlns:xlink="http://www.w3.org/1999/xlink" version="1.1" x="0px" y="0px" viewBox="0 0 100 100" style="enable-background:new 0 0 100 100;" xml:space="preserve"><path d="M78.7,71.8l3.5,2l0.1-0.2c4.9-6.8,7.5-14.9,7.5-23.4c0.1-10.9-4-21.1-11.6-28.7C70.6,13.8,60.4,9.6,49.6,9.6  C27.3,9.6,9.2,27.7,9.2,50s18.1,40.4,40.4,40.4c3.9,0,7.6-0.5,11.1-1.6l0.2-0.1l-0.8-4l-0.3,0.1c-3.4,1-6.9,1.6-10.4,1.6  c-20,0-36.3-16.3-36.3-36.3c0-20,16.3-36.3,36.3-36.3s36.3,16.3,36.3,36.3c0,7.7-2.4,15.1-7,21.5L78.7,71.8z"></path><path d="M83.7,16.3C74.6,7.2,62.5,2.1,49.6,2.1c-4.5,0-8.8,0.6-12.9,1.8L36.5,4l0.7,3.7l0.3-0.1  c4-1.1,8.1-1.7,12.1-1.7C74.1,5.9,94,25.9,94,50.4S74.1,94.8,49.6,94.8C25.1,94.7,5.1,74.8,5.1,50.3c0-9.3,2.8-18.1,8.2-25.7  l0.2-0.2l-3.3-1.9l-0.1,0.2c-5.7,8.1-8.8,17.7-8.8,27.7c0,26.5,21.6,48.1,48.1,48.1c26.6,0,48.2-21.6,48.2-48.1  C97.8,37.5,92.8,25.4,83.7,16.3z"></path><path d="M59.8,49.1h-0.3l-6.2,20.4h-7.8l-5.9-20.4h-0.4c-5.3,0-9.7,4.3-9.7,9.7v15.7l40-0.3V58.8  C69.4,53.5,65.1,49.1,59.8,49.1z"></path><polygon points="51.4,57.4 46.7,60.7 45.8,64.5 52,60.1 "></polygon><path d="M52.4,61.5l-5.7,4.1l2.9,2.5c0,0,0.1,0,0.1,0c0,0,0.1,0,0.1-0.1l3.3-3.3c0,0,0.1-0.1,0.1-0.2L52.4,61.5z"></path><path d="M48.4,53.8l-1.2,5L51,56l-0.5-2.2l1.6-1.9c0.1-0.1,0.1-0.1,0-0.2l-1-2.4c0-0.1-0.1-0.1-0.2-0.1h-3.1  c-0.1,0-0.1,0-0.2,0.1l-1,2.4c0,0.1,0,0.2,0,0.2L48.4,53.8z"></path><path d="M49.4,23c-6.1,0-11.1,5-11.1,11.1c0,6.1,5,11.1,11.1,11.1c6.1,0,11.1-5,11.1-11.1C60.6,28,55.6,23,49.4,23z   M49.4,42.7c-4.8,0-8.6-3.9-8.6-8.6c0-0.7,0.1-1.4,0.3-2.1c1,0.5,2.9,1.2,4.9,1.2c1.5,0,3.1-0.4,4.7-1.5c0.2-0.1,4-2.8,7-0.1  c0.2,0.8,0.4,1.6,0.4,2.5C58.1,38.9,54.2,42.7,49.4,42.7z"></path></svg>