<svg fill="#229897" xmlns="http://www.w3.org/2000/svg" xmlns:xlink="http://www.w3.org/1999/xlink" version="1.1" x="0px" y="0px" viewBox="0 0 100 100" enable-background="new 0 0 100 100" xml:space="preserve"><path d="M78.995,11.092h-58.26c-5.239,0-9.487,4.247-9.487,9.487v57.882c0,5.24,4.248,9.487,9.487,9.487h58.26  c5.239,0,9.487-4.247,9.487-9.487V20.579C88.482,15.339,84.235,11.092,78.995,11.092z M38.065,64.785l-8.291,17.567l-6.202-11.036  c-0.274-0.488-0.101-1.104,0.385-1.376c0.486-0.276,1.104-0.101,1.376,0.385l4.283,7.62l6.621-14.025  c0.237-0.505,0.841-0.717,1.347-0.482C38.087,63.677,38.304,64.279,38.065,64.785z M38.065,42.999l-8.291,17.567l-6.202-11.036  c-0.274-0.488-0.101-1.104,0.385-1.376c0.486-0.277,1.104-0.101,1.376,0.385l4.283,7.62l6.621-14.025  c0.237-0.505,0.841-0.717,1.347-0.482C38.087,41.892,38.304,42.494,38.065,42.999z M38.065,21.214l-8.291,17.567l-6.202-11.036  c-0.274-0.488-0.101-1.104,0.385-1.376c0.486-0.277,1.104-0.101,1.376,0.385l4.283,7.62l6.621-14.025  c0.237-0.505,0.841-0.717,1.347-0.482C38.087,20.107,38.304,20.709,38.065,21.214z M74.718,74.416H43.715  c-0.868,0-1.57-0.702-1.57-1.57c0-0.868,0.702-1.57,1.57-1.57h31.003c0.868,0,1.57,0.702,1.57,1.57  C76.287,73.714,75.585,74.416,74.718,74.416z M74.718,52.632H43.715c-0.868,0-1.57-0.702-1.57-1.57s0.702-1.57,1.57-1.57h31.003  c0.868,0,1.57,0.702,1.57,1.57S75.585,52.632,74.718,52.632z M74.718,30.846H43.715c-0.868,0-1.57-0.702-1.57-1.57  s0.702-1.57,1.57-1.57h31.003c0.868,0,1.57,0.702,1.57,1.57S75.585,30.846,74.718,30.846z"></path></svg>