<svg fill="#229897" xmlns="http://www.w3.org/2000/svg" xmlns:xlink="http://www.w3.org/1999/xlink" version="1.1" x="0px" y="0px" viewBox="0 0 100 100" enable-background="new 0 0 100 100" xml:space="preserve"><path fill="#229897" d="M78.487,35.021l-9.004,5.198c-0.362-0.833-0.776-1.64-1.239-2.413l8.883-5.129  C77.471,33.526,77.931,34.312,78.487,35.021z M32.944,61.315c-0.539-0.725-1.029-1.486-1.475-2.278l-9.745,5.626  c0.53,0.729,0.959,1.534,1.271,2.396L32.944,61.315z M48.73,69.871v12.1h2.71V69.857c-0.477,0.032-0.956,0.055-1.44,0.055  C49.573,69.912,49.151,69.896,48.73,69.871z M51.441,27.483V17.78c-0.472,0.07-0.95,0.119-1.441,0.119  c-0.432,0-0.853-0.038-1.27-0.093v9.664c0.421-0.025,0.844-0.042,1.27-0.042C50.485,27.429,50.964,27.451,51.441,27.483z   M78.326,64.596l-9.754-5.632c-0.441,0.793-0.931,1.556-1.467,2.282l9.928,5.732C77.354,66.12,77.79,65.32,78.326,64.596z   M22.95,32.623l-0.21,0.365c-0.272,0.609-0.606,1.185-0.994,1.721l-0.15,0.262l8.956,5.171c0.366-0.832,0.781-1.638,1.247-2.41  L22.95,32.623z M51.44,67.819c-0.476,0.036-0.955,0.06-1.44,0.06c-0.427,0-0.85-0.02-1.27-0.047  c-5.717-0.373-10.75-3.245-14.02-7.537c-0.547-0.719-1.044-1.478-1.487-2.271c-1.547-2.769-2.433-5.957-2.433-9.354  c0-2.666,0.543-5.204,1.524-7.511c0.356-0.838,0.771-1.645,1.237-2.416c3.159-5.223,8.735-8.815,15.178-9.236  c0.421-0.027,0.843-0.046,1.27-0.046c0.485,0,0.965,0.024,1.441,0.06c6.4,0.476,11.927,4.081,15.049,9.297  c0.464,0.773,0.875,1.582,1.228,2.421c0.96,2.286,1.491,4.797,1.491,7.432c0,3.366-0.868,6.529-2.391,9.28  c-0.438,0.795-0.933,1.556-1.477,2.277C62.107,64.516,57.118,67.398,51.44,67.819z M46.192,40.956c0,1.654,1.062,3.062,2.538,3.586  c0.397,0.141,0.823,0.222,1.269,0.222c0.511,0,0.997-0.103,1.442-0.285c1.386-0.569,2.365-1.933,2.365-3.522  c0-1.589-0.979-2.952-2.365-3.521c-0.445-0.183-0.932-0.285-1.442-0.285c-0.445,0-0.871,0.081-1.269,0.223  C47.255,37.896,46.192,39.303,46.192,40.956z M51.44,57.197h3.218V54.06v-3.13v-0.07l0.057,0.104l0.578,1.043  c0.579,1.045,0.879,2.147,1.034,3.018c0.166,0.92,0.171,1.581,0.171,1.634c0,0.846,0.689,1.534,1.536,1.534  c0.77,0,1.403-0.569,1.514-1.309c0.011-0.074,0.022-0.148,0.022-0.226c0-0.072-0.009-1.427-0.442-3.146  c-0.124-0.49-0.279-1.008-0.481-1.535c-0.622-1.627-1.513-2.961-2.637-3.977c-0.767-0.693-1.65-1.226-2.627-1.613  c-0.479-0.19-0.974-0.356-1.5-0.47l-0.131-0.032l-0.001,0.002c-0.103-0.022-0.206-0.037-0.31-0.052  c-0.168-0.023-0.336-0.039-0.504-0.039h-1.876c-0.109,0-0.221,0.021-0.331,0.031c-0.118,0.011-0.236,0.011-0.354,0.033l-0.022,0.035  l-0.185,0.001c-0.509,0.111-0.989,0.27-1.453,0.449c-0.99,0.384-1.883,0.911-2.658,1.596c-1.16,1.025-2.072,2.378-2.706,4.035  c-0.218,0.569-0.384,1.128-0.511,1.65c-0.405,1.666-0.412,2.96-0.412,3.031c0,0.109,0.012,0.215,0.034,0.317  c0.146,0.689,0.762,1.211,1.496,1.214c0.846,0,1.534-0.686,1.54-1.528c0-0.05,0.007-0.664,0.154-1.528  c0.151-0.889,0.451-2.044,1.05-3.126L45.2,51.11l0.14-0.253v0.172v3.13v3.038h3.391H51.44z M57.544,85.704  c0.569,0.7,1.044,1.479,1.402,2.32l19.763-11.41c-0.583-0.69-1.068-1.463-1.441-2.298L57.544,85.704z M84.775,38.655v22.093  c0.444-0.062,0.895-0.106,1.355-0.106c0.462,0,0.911,0.044,1.355,0.106V38.655c-0.444,0.062-0.894,0.105-1.355,0.105  C85.67,38.761,85.22,38.718,84.775,38.655z M42.356,14.162c-0.557-0.71-1.018-1.496-1.361-2.345L21.512,23.065  c0.557,0.711,1.018,1.497,1.361,2.345L42.356,14.162z M77.127,25.41c0.344-0.848,0.805-1.634,1.361-2.345L59.005,11.817  c-0.344,0.849-0.805,1.635-1.361,2.345L77.127,25.41z M22.732,74.316c-0.373,0.835-0.858,1.607-1.441,2.298l19.765,11.41  c0.357-0.841,0.833-1.619,1.401-2.319L22.732,74.316z M12.514,38.654v22.094c0.444-0.062,0.894-0.106,1.355-0.106  c0.461,0,0.911,0.044,1.354,0.106V38.654c-0.443,0.062-0.894,0.105-1.354,0.105C13.407,38.76,12.958,38.717,12.514,38.654z   M6.186,29.044c0-4.243,3.439-7.684,7.684-7.684c2.354,0,4.459,1.062,5.868,2.73c0.582,0.688,1.04,1.483,1.353,2.349  c0.294,0.814,0.462,1.688,0.462,2.604c0,3.779-2.731,6.916-6.328,7.557c-0.44,0.079-0.892,0.127-1.354,0.127  c-0.464,0-0.915-0.048-1.355-0.127C8.918,35.96,6.186,32.823,6.186,29.044z M11.948,29.044c0,0.531,0.216,1.013,0.565,1.36  c0.348,0.346,0.826,0.561,1.355,0.561c0.528,0,1.008-0.215,1.354-0.561c0.236-0.234,0.403-0.532,0.493-0.862  c0.043-0.16,0.073-0.325,0.073-0.498c0-0.89-0.608-1.631-1.429-1.85c-0.158-0.042-0.321-0.071-0.492-0.071  C12.808,27.123,11.948,27.983,11.948,29.044z M42.778,10.788c-0.294-0.814-0.463-1.689-0.463-2.604C42.315,3.939,45.758,0.5,50,0.5  s7.685,3.439,7.685,7.684c0,0.915-0.169,1.79-0.463,2.604c-0.312,0.865-0.771,1.659-1.354,2.349  c-1.409,1.668-3.515,2.729-5.868,2.729s-4.459-1.062-5.868-2.729C43.549,12.447,43.091,11.653,42.778,10.788z M48.079,8.184  c0,0.89,0.608,1.631,1.43,1.849c0.157,0.042,0.32,0.071,0.491,0.071s0.334-0.029,0.491-0.071c0.821-0.218,1.43-0.959,1.43-1.849  c0-0.174-0.03-0.339-0.073-0.498C51.627,6.867,50.888,6.263,50,6.263s-1.627,0.604-1.848,1.423  C48.109,7.845,48.079,8.01,48.079,8.184z M78.447,29.044c0-0.916,0.169-1.79,0.463-2.604c0.312-0.865,0.771-1.66,1.353-2.349  c1.409-1.668,3.514-2.729,5.868-2.729c4.243,0,7.684,3.439,7.684,7.683c0,3.779-2.732,6.916-6.328,7.558  c-0.44,0.078-0.892,0.126-1.355,0.126c-0.463,0-0.914-0.048-1.355-0.126C81.181,35.96,78.447,32.823,78.447,29.044z M84.211,29.044  c0,0.174,0.03,0.339,0.073,0.498c0.09,0.33,0.257,0.628,0.491,0.862c0.348,0.347,0.827,0.561,1.355,0.561  c0.529,0,1.008-0.214,1.355-0.56c0.35-0.348,0.566-0.829,0.566-1.361c0-1.061-0.86-1.92-1.922-1.92c-0.171,0-0.333,0.029-0.49,0.071  C84.819,27.413,84.211,28.154,84.211,29.044z M93.814,70.357c0,4.243-3.44,7.684-7.684,7.684c-2.225,0-4.223-0.952-5.627-2.464  c-0.615-0.663-1.118-1.431-1.471-2.279c-0.376-0.906-0.586-1.898-0.586-2.94c0-3.779,2.732-6.915,6.328-7.557  c0.441-0.077,0.893-0.126,1.355-0.126c0.464,0,0.915,0.049,1.355,0.126C91.082,63.442,93.814,66.578,93.814,70.357z M88.052,70.357  c0-0.531-0.216-1.012-0.565-1.36c-0.348-0.346-0.826-0.56-1.355-0.56c-0.528,0-1.008,0.214-1.355,0.56  c-0.337,0.336-0.546,0.798-0.56,1.309c-0.001,0.018-0.006,0.034-0.006,0.052c0,1.061,0.86,1.921,1.921,1.921  c0.037,0,0.07-0.009,0.106-0.011C87.247,72.211,88.052,71.382,88.052,70.357z M57.164,89.054c0.331,0.857,0.521,1.787,0.521,2.763  c0,4.242-3.44,7.684-7.684,7.684c-4.244,0-7.684-3.441-7.684-7.684c0-0.976,0.188-1.904,0.52-2.763  c0.331-0.857,0.811-1.639,1.408-2.316c1.408-1.595,3.461-2.604,5.756-2.604c2.294,0,4.347,1.01,5.755,2.604  C56.354,87.414,56.833,88.195,57.164,89.054z M51.922,91.816c0-0.979-0.733-1.776-1.679-1.896c-0.08-0.011-0.16-0.025-0.242-0.025  c-0.084,0-0.163,0.015-0.244,0.025c-0.944,0.121-1.677,0.919-1.677,1.896c0,0.097,0.014,0.188,0.028,0.281  c0.137,0.926,0.928,1.64,1.893,1.64s1.756-0.714,1.893-1.641C51.907,92.005,51.922,91.912,51.922,91.816z M21.553,70.357  c0,1.042-0.21,2.034-0.586,2.94c-0.353,0.849-0.855,1.616-1.471,2.279c-1.404,1.512-3.402,2.464-5.627,2.464  c-4.243,0-7.684-3.44-7.684-7.684c0-3.779,2.732-6.915,6.328-7.557c0.44-0.077,0.892-0.126,1.355-0.126  c0.463,0,0.914,0.049,1.354,0.126C18.82,63.442,21.553,66.578,21.553,70.357z M15.79,70.357c0-0.018-0.005-0.034-0.006-0.052  c-0.014-0.511-0.223-0.973-0.561-1.309c-0.347-0.346-0.826-0.56-1.354-0.56c-0.529,0-1.008,0.214-1.355,0.56  c-0.35,0.349-0.565,0.829-0.565,1.36c0,1.024,0.805,1.854,1.814,1.91c0.036,0.002,0.069,0.011,0.106,0.011  C14.93,72.278,15.79,71.418,15.79,70.357z"></path></svg>