<svg fill="#229897" xmlns="http://www.w3.org/2000/svg" xmlns:xlink="http://www.w3.org/1999/xlink" version="1.1" x="0px" y="0px" viewBox="0 0 110.792 229.184" style="enable-background:new 0 0 110.792 229.184;" xml:space="preserve"><g><ellipse transform="matrix(0.9739 -0.2268 0.2268 0.9739 -3.7688 12.1937)" cx="51.187" cy="22.5" rx="22.495" ry="22.495"></ellipse><path d="M5.168,98.676c2.238,1.393,4.598,1.791,6.634,1.791c3.722-0.08,7.102-1.102,11.107-2.877   c0.404-0.179,0.814-0.364,1.232-0.559c0.784-0.365,1.586-0.747,2.428-1.164c5.038-2.564,11.094-6.253,18.536-11.376   c0.957-0.659,1.93-1.335,2.934-2.042c3.612-2.545,4.477-7.536,1.932-11.147c-0.408-0.579-0.885-1.079-1.403-1.514   c-0.42-0.353-0.87-0.658-1.343-0.913c-0.826-0.444-1.718-0.739-2.637-0.873c-1.957-0.286-4.021,0.141-5.765,1.371   c-5.815,4.1-10.683,7.239-14.682,9.577c-1.774,1.036-3.393,1.932-4.82,2.654c-0.057,0.029-0.115,0.059-0.171,0.087   c0.253-0.422,0.517-0.849,0.791-1.277c1.255-1.965,2.714-3.974,4.2-5.807v2.742c5.163-3.722,11.605-8.253,13.53-9.609   c1.492-1.052,3.213-1.668,5.015-1.8c0.245-0.018,0.492-0.028,0.739-0.028c1.095,0,2.163,0.194,3.175,0.534   c1.969,0.661,3.713,1.915,4.951,3.641c1.242-0.04,2.479-0.28,3.661-0.724l3.964,29.214l1.507,11.108l-7.045,8.899l-2.454,3.101   l-2.316-2.926l-7.184-9.074l1.518-11.187l1.539-11.339c-6.671,4.533-12.362,7.994-17.266,10.49   c-1.17,0.579-2.268,1.094-3.336,1.574v9.658v18.939v89c0,6.828,5.537,12.363,12.365,12.363c6.826,0,12.363-5.535,12.363-12.363   v-81.273h4.771v81.273c0,6.828,5.537,12.363,12.365,12.363c6.826,0,12.362-5.535,12.362-12.363V108.881   c0-0.591-0.056-1.167-0.136-1.735V72.65c1.573,1.4,3.227,3.141,4.821,5.311c4.662,6.39,9.104,16.513,9.137,33.443   c0,3.281-0.173,6.819-0.554,10.629c-0.367,3.68,1.825,7.016,5.125,8.267v5.278h-4.018c-2.571,0-4.657,2.084-4.657,4.656v33.186   c0,2.572,2.086,4.658,4.657,4.658h13.391c2.572,0,4.657-2.086,4.657-4.658v-33.186c0-2.572-2.085-4.656-4.657-4.656h-4.019v-5.163   c2.902-0.965,5.12-3.553,5.442-6.793c0.43-4.307,0.632-8.372,0.632-12.218c0.064-23.342-7.671-38.571-15.963-47.421   c-8.265-8.885-16.538-11.457-17.429-11.73c-0.818-0.242-1.645-0.343-2.454-0.324c-0.591-0.145-1.205-0.23-1.841-0.23H31.871   c-0.644,0-1.267,0.087-1.865,0.236c-0.056-0.001-0.11-0.008-0.165-0.008c-3.019,0.062-4.915,1.017-6.616,1.936   c-2.911,1.684-5.32,3.873-7.806,6.443c-3.671,3.853-7.236,8.547-10.087,13.322c-1.421,2.395-2.66,4.802-3.618,7.244   C0.776,83.336,0.031,85.778,0,88.785c0.002,1.217,0.142,2.553,0.605,3.992C1.252,94.922,2.916,97.313,5.168,98.676z M47.387,57.184   h3.8h3.8l1.9,7.5l-0.29,0.458c-1.566,1.305-3.485,1.958-5.412,1.96c-1.925-0.002-3.838-0.653-5.403-1.953l-0.294-0.465   L47.387,57.184z"></path></g></svg>