<svg fill="#229897" xmlns="http://www.w3.org/2000/svg" xmlns:xlink="http://www.w3.org/1999/xlink" version="1.1" x="0px" y="0px" viewBox="0 0 230.686 300.485" style="enable-background:new 0 0 230.686 300.485;" xml:space="preserve"><g><path d="M199.548,254.249l-0.002-14.517H186.53c-0.411-2.305-1.005-4.546-1.782-6.7l11.263-6.503l-7.26-12.572l-11.275,6.51   c-1.493-1.767-3.132-3.406-4.899-4.899l6.511-11.276l-12.573-7.257l-6.503,11.263c-2.154-0.777-4.396-1.372-6.701-1.782v-13.018   h-14.516v13.018c-2.305,0.411-4.545,1.005-6.7,1.782l-6.502-11.263l-12.573,7.258l6.511,11.276   c-1.768,1.493-3.406,3.132-4.899,4.898l-11.275-6.51l-7.258,12.572l11.262,6.503c-0.777,2.154-1.371,4.396-1.782,6.7H92.559v14.516   h13.018c0.41,2.306,1.005,4.547,1.782,6.702l-11.262,6.502l7.258,12.572l11.275-6.51c1.493,1.768,3.132,3.406,4.898,4.899   l-6.51,11.275l12.573,7.258l6.501-11.261c2.155,0.777,4.396,1.372,6.701,1.783v13.017h14.516v-13.017   c2.306-0.41,4.547-1.005,6.702-1.782l6.502,11.261l12.57-7.258l-6.509-11.273c1.768-1.494,3.407-3.133,4.9-4.9l11.275,6.51   l7.258-12.573l-11.261-6.502c0.777-2.155,1.371-4.396,1.782-6.701H199.548z M146.054,277.097   c-16.628,0-30.107-13.479-30.107-30.107c0-16.627,13.479-30.106,30.107-30.106c16.628,0,30.106,13.479,30.106,30.106   C176.16,263.618,162.682,277.097,146.054,277.097z"></path><circle cx="146.054" cy="246.99" r="9.408"></circle><path d="M73.425,256.141l9.292-2.951l-3.296-10.374l-9.303,2.955c-0.81-1.534-1.746-2.998-2.8-4.376l6.578-7.21l-8.039-7.335   l-6.571,7.202c-1.454-0.916-3-1.712-4.623-2.383l2.092-9.532l-10.629-2.333l-2.092,9.533c-1.754-0.069-3.489,0.006-5.192,0.229   l-2.951-9.292l-10.374,3.295l2.955,9.304c-1.534,0.81-2.998,1.746-4.375,2.801l-7.211-6.579l-7.335,8.039l7.202,6.571   c-0.916,1.453-1.711,2.999-2.383,4.621l-9.532-2.092l-2.332,10.63l9.532,2.092c-0.069,1.754,0.006,3.49,0.229,5.192L2.975,267.1   l3.295,10.373l9.303-2.955c0.809,1.534,1.746,2.998,2.801,4.376l-6.579,7.21l8.041,7.335l6.57-7.201   c1.453,0.916,2.998,1.711,4.62,2.383l-2.092,9.532l10.629,2.332l2.092-9.532c1.754,0.07,3.491-0.005,5.195-0.228l2.951,9.291   l10.372-3.295l-2.955-9.302c1.535-0.81,2.999-1.747,4.377-2.801l7.21,6.578l7.335-8.041l-7.201-6.57   c0.916-1.453,1.711-2.999,2.383-4.621l9.532,2.092l2.331-10.63l-9.531-2.092C73.723,259.581,73.647,257.844,73.425,256.141z    M38.008,282.193c-12.177-2.672-19.881-14.709-17.209-26.887c2.671-12.175,14.708-19.881,26.886-17.208   c12.176,2.672,19.881,14.709,17.208,26.886C62.221,277.159,50.185,284.865,38.008,282.193z"></path><ellipse transform="matrix(0.2144 -0.9767 0.9767 0.2144 -220.4356 246.2239)" cx="42.846" cy="260.145" rx="7.054" ry="7.054"></ellipse><path d="M228.902,171.281l1.783-8.128l-7.287-1.599c0.053-1.341-0.005-2.668-0.175-3.97l7.104-2.257l-2.52-7.932l-7.112,2.259   c-0.618-1.172-1.334-2.291-2.14-3.344l5.029-5.513l-6.146-5.608l-5.024,5.507c-1.111-0.7-2.293-1.309-3.533-1.821l1.599-7.287   l-8.126-1.784l-1.6,7.288c-1.34-0.053-2.667,0.004-3.969,0.175l-2.256-7.104l-7.931,2.519l2.259,7.112   c-1.173,0.619-2.292,1.335-3.346,2.142l-5.513-5.03l-5.607,6.148l5.506,5.023c-0.7,1.111-1.308,2.293-1.82,3.532l-7.288-1.599   l-1.783,8.126l7.288,1.6c-0.054,1.34,0.004,2.667,0.174,3.969l-7.104,2.257l2.519,7.932l7.112-2.26   c0.619,1.173,1.335,2.292,2.141,3.345l-5.029,5.513l6.148,5.608l5.023-5.506c1.11,0.7,2.292,1.308,3.531,1.82l-1.599,7.288   l8.125,1.783l1.599-7.287c1.342,0.053,2.67-0.004,3.973-0.175l2.256,7.104l7.929-2.519l-2.259-7.111   c1.174-0.619,2.293-1.335,3.347-2.142l5.512,5.029l5.608-6.148l-5.505-5.022c0.699-1.11,1.308-2.292,1.82-3.532L228.902,171.281z    M196.147,177.501c-9.309-2.043-15.199-11.245-13.156-20.555c2.042-9.308,11.244-15.199,20.554-13.155   c9.31,2.042,15.199,11.244,13.156,20.554C214.658,173.653,205.456,179.543,196.147,177.501z"></path><ellipse transform="matrix(0.2145 -0.9767 0.9767 0.2145 0.0742 321.3827)" cx="199.847" cy="160.645" rx="5.393" ry="5.393"></ellipse><path d="M94.497,132.635c0.642-0.022,1.299-0.034,1.975-0.033c7.664-0.032,16.836,1.595,23.545,6.593   c3.409,2.519,6.444,5.838,8.991,10.928c2.526,5.086,4.519,12.057,5.118,21.694c0.411,6.626,5.914,11.73,12.463,11.73   c0.261,0,0.522-0.008,0.785-0.025c6.89-0.428,12.133-6.357,11.705-13.249c-0.76-12.314-3.418-22.688-7.68-31.27   c-6.342-12.924-16.467-21.31-26.612-25.769c-10.172-4.528-20.252-5.618-28.315-5.634c-0.554,0.001-1.094,0.009-1.628,0.02   c0.799-8.999,3.021-18.193,5.396-26.564c-2.715-1.688-5.361-3.672-7.91-5.934c-5.98-5.328-9.598-10.471-10.877-12.433l-0.009-0.013   l-0.058-0.091c-1.426-2.259-1.886-4.938-1.294-7.543c0.589-2.604,2.16-4.825,4.419-6.248c1.6-1.009,3.441-1.544,5.324-1.544   c3.444,0,6.602,1.735,8.448,4.639l0.163,0.241c0.161,0.238,0.419,0.604,0.766,1.07c0.655,0.882,1.745,2.266,3.196,3.826   c1.168,1.267,3.064,3.142,5.436,4.973c-0.637-3.93-1.372-7.456-2.177-10.166c-1.166-4.805-3.923-8.771-8.194-10.271   c-0.183-0.064-0.371-0.121-0.558-0.18c-0.449-0.268-0.93-0.497-1.441-0.678h-0.002c-0.517-0.162-8.895-3.149-20.175-3.177   c-8.178,0.004-18.147,1.629-27.193,7.828C39.03,51.534,31.614,62.257,28.317,77.93c-0.042,0.196-0.068,0.393-0.096,0.588   l-4.773-1.146l-2.436,10.14L9.069,84.643L0,122.404l48.333,11.609l9.067-37.76l-11.947-2.87l2.438-10.144l-4.199-1.008   c0.106-0.307,0.201-0.62,0.271-0.945c2.774-12.645,7.79-18.957,13.204-22.744c4.269-2.948,9.235-4.353,14.132-4.82   c-0.441,0.794-0.861,1.627-1.257,2.502c-8.658,19.45-11.334,32.388-10.829,54.749c0.414,4.182,1.436,7.462,2.876,10.049   c0.369,0.832,0.825,1.638,1.391,2.398c0.005,0.007,0.016,0.022,0.041,0.056c0.001,0.002,0.002,0.003,0.004,0.005   c0,0.001,0.001,0.002,0.002,0.002l-0.002-0.001c0.006,0.008,0.012,0.016,0.019,0.024c0.405,0.572,2.518,3.704,4.432,8.35   c1.929,4.652,3.624,10.755,3.616,17.386c-0.02,5.861-1.227,12.14-4.92,19.024c-3.714,6.868-10.045,14.466-20.943,22.29   c-5.611,4.022-6.897,11.832-2.875,17.443c2.442,3.404,6.277,5.217,10.171,5.217c2.521,0,5.066-0.76,7.272-2.342   c13.423-9.616,22.63-20.072,28.376-30.739c5.766-10.65,7.938-21.389,7.919-30.893C96.584,143.152,95.739,137.577,94.497,132.635z    M44.271,85.456l-1.736,7.227l-18.605-4.47l1.735-7.226l2.745,0.659c0.746,2.82,3.005,5.132,6.053,5.784   c0.564,0.121,1.129,0.18,1.684,0.18c2.307,0,4.469-1.004,5.963-2.674L44.271,85.456z"></path><ellipse transform="matrix(0.3166 -0.9486 0.9486 0.3166 59.327 127.3455)" cx="118.04" cy="22.5" rx="22.495" ry="22.496"></ellipse><path d="M102.456,82.353c-0.413,3.879-0.998,7.739-1.796,11.562c1.152,3.6,2.139,7.327,2.937,11.171   c2.331-3.198,4.529-6.548,6.581-10.051c0.135-2.612,0.125-5.787-0.003-9.243c-1.635-0.555-3.258-1.203-4.863-1.963   C104.353,83.376,103.401,82.878,102.456,82.353z"></path><path d="M100.942,58.388c-1.465-1.576-2.599-3.002-3.338-3.996c-0.369-0.496-0.642-0.885-0.81-1.132   c-0.084-0.123-0.142-0.211-0.174-0.258c-0.011-0.017-0.018-0.027-0.021-0.034c-0.001,0-0.001-0.001-0.001-0.001s0,0-0.001,0   c0-0.001-0.001-0.002-0.001-0.002s0,0,0-0.001c-0.001,0-0.001-0.001-0.001-0.001c-2.364-3.72-7.29-4.829-11.02-2.475   c-3.736,2.355-4.855,7.297-2.499,11.033c0.264,0.397,3.874,6.129,10.58,12.105c3.359,2.981,7.515,6.033,12.51,8.395   c4.984,2.36,10.862,4.019,17.367,4.017c0.045,0,0.09,0,0.136,0c10.989,0,23.131-4.936,34.99-16.418   c3.186-3.063,3.281-8.128,0.222-11.311c-3.063-3.186-8.129-3.284-11.311-0.222c-9.91,9.451-17.721,11.906-24.036,11.949   c-3.789-0.003-7.268-0.943-10.529-2.481C108.125,65.267,103.862,61.553,100.942,58.388z"></path></g></svg>