<svg fill="#73942F" xmlns="http://www.w3.org/2000/svg" xmlns:xlink="http://www.w3.org/1999/xlink" version="1.0" x="0px" y="0px" viewBox="0 0 100 100" enable-background="new 0 0 100 100" xml:space="preserve"><path d="M86.666,10.001H71.145v6.666h7.475L63.332,31.953l4.715,4.714L83.332,21.38v7.475H90V13.333  C90,11.491,88.508,10.001,86.666,10.001z"></path><path d="M33.333,30c-5.521,0-10,4.476-10,9.999c0,5.521,4.479,10,10,10s10-4.479,10-10C43.333,34.476,38.854,30,33.333,30z"></path><path d="M61.381,78.618C58.789,81.21,53.666,83.333,50,83.333h-6.666v-20c3.685,0,6.666,2.984,6.666,6.666v6.666h6.667v-6.666  c0-7.366-5.969-13.333-13.333-13.333h-20C15.97,56.666,10,62.633,10,69.999v6.666h6.667v-6.666c0-3.682,2.988-6.666,6.666-6.666v20  H10v6.666H50c5.463,0,12.233-2.807,16.094-6.666L90,59.427v-9.428L61.381,78.618z"></path></svg>