<svg xmlns="http://www.w3.org/2000/svg" xmlns:xlink="http://www.w3.org/1999/xlink" width="100" height="100" viewBox="0 0 100 100"><g><g transform="translate(50 50) scale(0.69 0.69) rotate(0) translate(-50 -50)" style="fill:#229897"><svg fill="#229897" xmlns="http://www.w3.org/2000/svg" viewBox="0 0 64 64" x="0px" y="0px"><title>Interview-meeting-teamwork-business-people</title><g data-name="Layer 3"><path d="M43,41a1,1,0,0,0-1-1H22a1,1,0,0,0,0,2h9V61a1,1,0,0,0,2,0V42h9A1,1,0,0,0,43,41Z"></path><path d="M45,52a1,1,0,0,1,1-1h9a3,3,0,0,0,3-3V36a5,5,0,0,0-10,0v8a1,1,0,0,1-1,1H42a3,3,0,0,0-3,3V59a3,3,0,0,0,6,0Zm-2,0v7a1,1,0,0,1-2,0V48a1,1,0,0,1,1-1h5a3,3,0,0,0,3-3V36a3,3,0,0,1,6,0V48a1,1,0,0,1-1,1H46A3,3,0,0,0,43,52Z"></path><path d="M48,25a5,5,0,1,0,5-5A5,5,0,0,0,48,25Zm8,0a3,3,0,1,1-3-3A3,3,0,0,1,56,25Z"></path><path d="M23,62a3,3,0,0,0,3-3V48a3,3,0,0,0-3-3H18a1,1,0,0,1-1-1V36A5,5,0,0,0,7,36V48a3,3,0,0,0,3,3h9a1,1,0,0,1,1,1v7A3,3,0,0,0,23,62ZM19,49H10a1,1,0,0,1-1-1V36a3,3,0,0,1,6,0v8a3,3,0,0,0,3,3h5a1,1,0,0,1,1,1V59a1,1,0,0,1-2,0V52A3,3,0,0,0,19,49Z"></path><path d="M12,30a5,5,0,1,0-5-5A5,5,0,0,0,12,30Zm0-8a3,3,0,1,1-3,3A3,3,0,0,1,12,22Z"></path><path d="M24.8,38H39.2A2.81,2.81,0,0,0,42,35.2V32.87a.8.8,0,0,1,.3-.63l4.33-3.46A1,1,0,0,0,45.8,27L43,27.59a.81.81,0,0,1-.67-.17A.79.79,0,0,1,42,26.8,2.81,2.81,0,0,0,39.2,24H24.8A2.81,2.81,0,0,0,22,26.8v8.4A2.81,2.81,0,0,0,24.8,38ZM24,26.8a.8.8,0,0,1,.8-.8H39.2a.8.8,0,0,1,.8.8,2.81,2.81,0,0,0,2.42,2.78l-1.37,1.1a2.77,2.77,0,0,0-1,2.19V35.2a.8.8,0,0,1-.8.8H24.8a.8.8,0,0,1-.8-.8Z"></path><path d="M18.31,21.73A1,1,0,0,0,19,22a1,1,0,0,0,.6-.2l7.47-5.6a1,1,0,0,1,.6-.2H40a3,3,0,0,0,3-3V5a3,3,0,0,0-3-3H23a3,3,0,0,0-3,3v8a3,3,0,0,0,1.43,2.55l-3.26,4.9A1,1,0,0,0,18.31,21.73ZM22,5a1,1,0,0,1,1-1H40a1,1,0,0,1,1,1v8a1,1,0,0,1-1,1H27.67a3,3,0,0,0-1.8.6l-2.8,2.1.76-1.15a1,1,0,0,0,.05-1A1,1,0,0,0,23,14a1,1,0,0,1-1-1Z"></path><path d="M25,10H38a1,1,0,0,0,0-2H25a1,1,0,0,0,0,2Z"></path><path d="M27,32H37a1,1,0,0,0,0-2H27a1,1,0,0,0,0,2Z"></path></g></svg></g></g></svg>