<svg fill="#229897" xmlns="http://www.w3.org/2000/svg" xmlns:xlink="http://www.w3.org/1999/xlink" version="1.1" x="0px" y="0px" viewBox="0 0 96 96" enable-background="new 0 0 96 96" xml:space="preserve"><g><path d="M52.068,64.031c3.17,0,6.207-0.97,8.781-2.805c0.801-0.571,0.988-1.684,0.418-2.484c-0.572-0.801-1.684-0.989-2.484-0.418   c-1.969,1.402-4.291,2.143-6.715,2.143c-2.289,0-4.502-0.665-6.4-1.925c-0.82-0.543-1.924-0.32-2.469,0.5   c-0.543,0.819-0.32,1.925,0.5,2.469C46.182,63.159,49.076,64.031,52.068,64.031z"></path><path d="M72.988,59.728c-0.695-0.695-1.824-0.695-2.52,0s-0.695,1.823,0,2.52l5.883,5.884l-5.021,5.022l-5.883-5.884   c-0.584-0.584-1.494-0.69-2.197-0.256c-1.941,1.198-4.047,2.071-6.26,2.595c-0.803,0.19-1.371,0.907-1.371,1.733v8.319h-7.104   v-8.319c0-0.826-0.566-1.543-1.371-1.733c-2.213-0.523-4.318-1.396-6.26-2.595c-0.703-0.435-1.611-0.328-2.195,0.256l-5.883,5.884   l-5.025-5.022l5.885-5.884c0.695-0.696,0.695-1.824,0-2.52s-1.822-0.695-2.52,0l-7.143,7.144c-0.695,0.696-0.695,1.824,0,2.52   l7.541,7.542c0.697,0.695,1.824,0.695,2.52,0l6.176-6.176c1.502,0.813,3.078,1.466,4.713,1.953v8.732   c0,0.984,0.797,1.782,1.781,1.782H57.4c0.984,0,1.781-0.798,1.781-1.782V72.71c1.633-0.487,3.211-1.141,4.713-1.953l6.176,6.176   c0.695,0.695,1.824,0.695,2.52,0l7.543-7.542c0.695-0.695,0.695-1.823,0-2.52L72.988,59.728z"></path><path d="M52.068,31.969c-3.172,0-6.209,0.969-8.783,2.803c-0.801,0.571-0.988,1.683-0.418,2.484   c0.348,0.488,0.896,0.749,1.453,0.749c0.357,0,0.719-0.107,1.033-0.331c1.967-1.401,4.289-2.143,6.715-2.143   c2.287,0,4.5,0.666,6.398,1.925c0.82,0.545,1.926,0.321,2.469-0.499c0.545-0.819,0.32-1.926-0.498-2.47   C57.953,32.839,55.059,31.969,52.068,31.969z"></path><path d="M70.469,36.271c0.695,0.695,1.824,0.695,2.52,0l7.145-7.144c0.695-0.696,0.695-1.824,0-2.521l-7.543-7.542   c-0.695-0.695-1.824-0.695-2.52,0l-6.176,6.177c-1.502-0.813-3.08-1.467-4.713-1.954v-8.731c0-0.984-0.797-1.781-1.781-1.781   H46.734c-0.984,0-1.781,0.797-1.781,1.781v8.731c-1.635,0.487-3.211,1.141-4.713,1.954l-6.176-6.177   c-0.695-0.695-1.822-0.695-2.52,0l-7.541,7.542c-0.695,0.696-0.695,1.824,0,2.521l7.143,7.144c0.35,0.348,0.805,0.521,1.26,0.521   c0.457,0,0.912-0.174,1.26-0.521c0.695-0.696,0.695-1.824,0-2.52l-5.885-5.884l5.025-5.023l5.883,5.885   c0.584,0.584,1.492,0.689,2.195,0.255c1.941-1.198,4.047-2.071,6.26-2.594c0.805-0.19,1.371-0.908,1.371-1.734v-8.318h7.104v8.318   c0,0.826,0.568,1.544,1.371,1.734c2.213,0.522,4.318,1.396,6.26,2.594c0.703,0.435,1.613,0.329,2.197-0.255l5.883-5.885   l5.021,5.023l-5.883,5.884C69.773,34.447,69.773,35.575,70.469,36.271z"></path><path d="M94.014,39.623H78.838H21.387c-0.037,0-0.072,0.004-0.109,0.006c-0.02,0.001-0.039,0.001-0.059,0.003   c-0.135,0.013-0.268,0.041-0.393,0.083c-0.004,0.002-0.01,0.002-0.014,0.004L1.41,46.31c-0.721,0.246-1.207,0.925-1.207,1.687   c0,0.763,0.486,1.441,1.207,1.688l19.402,6.59c0.006,0.002,0.012,0.004,0.016,0.005c0.027,0.01,0.053,0.017,0.078,0.023   c0.027,0.008,0.057,0.015,0.084,0.021c0.023,0.005,0.047,0.01,0.07,0.016c0.033,0.006,0.068,0.011,0.102,0.015   c0.02,0.003,0.039,0.006,0.059,0.007c0.055,0.005,0.109,0.009,0.164,0.009l0,0l0,0h57.453h15.176c0.986,0,1.783-0.798,1.783-1.781   V41.404c0-0.472-0.188-0.925-0.521-1.26C94.941,39.811,94.488,39.623,94.014,39.623z M77.057,52.807H23.168v-4.811v-4.809h53.889   V52.807z M19.605,43.892v4.104l-0.002,4.104l-12.08-4.104L19.605,43.892z M92.232,52.807H80.619v-9.619l11.613-0.001V52.807z"></path></g></svg>