<svg fill="#229897" xmlns="http://www.w3.org/2000/svg" xmlns:xlink="http://www.w3.org/1999/xlink" version="1.1" x="0px" y="0px" viewBox="0 0 100 100" style="enable-background:new 0 0 100 100;" xml:space="preserve"><g><path d="M87.4,16.8c-1.8,0-3.2,1.4-3.2,3.2c0,0.5,0.1,0.9,0.3,1.3l-4.7,6.8c-0.2,0-0.3-0.1-0.5-0.1c-1.2,0-2.2,0.7-2.8,1.6h-7.4   c-0.5-1-1.6-1.7-2.8-1.7c-1.8,0-3.2,1.4-3.2,3.2c0,0.4,0.1,0.7,0.2,1.1l-4.7,6.7c-0.2,0-0.3-0.1-0.5-0.1c-1.8,0-3.2,1.4-3.2,3.2   s1.4,3.2,3.2,3.2c1.8,0,3.2-1.4,3.2-3.2c0-0.5-0.1-0.9-0.3-1.3l4.5-6.5c0.2,0.1,0.5,0.1,0.7,0.1c1.2,0,2.3-0.7,2.8-1.7h7.3   c0.5,1,1.6,1.7,2.8,1.7c1.8,0,3.2-1.4,3.2-3.2c0-0.5-0.1-0.9-0.3-1.3l4.7-6.8c0.2,0,0.4,0.1,0.5,0.1c1.8,0,3.2-1.4,3.2-3.2   S89.2,16.8,87.4,16.8z"></path><path d="M48.1,20.1c0-0.8-0.7-1.5-1.5-1.5s-1.5,0.7-1.5,1.5v22.7c0,6.3-5.1,11.4-11.4,11.4s-11.4-5.1-11.4-11.4V20.1   c0-0.8-0.7-1.5-1.5-1.5s-1.5,0.7-1.5,1.5v22.7c0,8,6.5,14.4,14.4,14.4s14.4-6.5,14.4-14.4V20.1z"></path><path d="M33.7,29c0.8,0,1.5-0.7,1.5-1.5v-7.4c0-0.8-0.7-1.5-1.5-1.5s-1.5,0.7-1.5,1.5v7.4C32.2,28.4,32.8,29,33.7,29z"></path><path d="M39.9,29c0.8,0,1.5-0.7,1.5-1.5v-7.4c0-0.8-0.7-1.5-1.5-1.5s-1.5,0.7-1.5,1.5v7.4C38.4,28.4,39.1,29,39.9,29z"></path><path d="M27.1,29c0.8,0,1.5-0.7,1.5-1.5v-7.4c0-0.8-0.7-1.5-1.5-1.5s-1.5,0.7-1.5,1.5v7.4C25.6,28.4,26.3,29,27.1,29z"></path><circle cx="29.3" cy="38.9" r="1.7"></circle><circle cx="38.2" cy="38.9" r="1.7"></circle><path d="M17,59c-3.3,0-5.9,2.7-5.9,5.9v22.6c0,0.8,0.7,1.5,1.5,1.5s1.5-0.7,1.5-1.5V64.9c0-1.6,1.3-2.9,2.9-2.9   c0.8,0,1.5-0.7,1.5-1.5S17.8,59,17,59z"></path><path d="M20.7,68.2c-0.8,0-1.5,0.7-1.5,1.5v17.8c0,0.8,0.7,1.5,1.5,1.5s1.5-0.7,1.5-1.5V69.7C22.2,68.9,21.6,68.2,20.7,68.2z"></path><path d="M35.6,66.5l2.4-2.6c0.6-0.7,0.8-1.7,0.4-2.6c-0.4-0.9-1.2-1.4-2.2-1.4h-4.8c-1,0-1.8,0.6-2.2,1.5c-0.4,0.9-0.2,1.9,0.5,2.6   l2.5,2.6l-3.3,12.2c-0.2,0.7-0.1,1.4,0.3,2l2.6,3.8c0.4,0.6,1.2,1,2,1s1.5-0.4,2-1l2.6-3.8c0.4-0.6,0.5-1.3,0.3-2L35.6,66.5z    M34.8,62.8l-1,1l-1-1H34.8z M33.8,82l-2-2.8l2-7.4l1.9,7.3L33.8,82z"></path><path d="M72.9,58.5l2.8-6.3c0.3-0.8,0-1.6-0.8-2c-0.8-0.3-1.6,0-2,0.8l-7.5,16.7c-0.7,1.5-2,2.4-3.7,2.5c-1.6,0.1-3.1-0.7-3.9-2.2   l-2-3.5c-1.9-3.4-5.5-5.5-9.4-5.5c-0.8,0-1.5,0.7-1.5,1.5s0.7,1.5,1.5,1.5c2.8,0,5.4,1.5,6.8,4l2,3.5c1.3,2.3,3.7,3.7,6.3,3.7   c0.1,0,0.2,0,0.3,0c2.7-0.1,5.1-1.8,6.3-4.3l3.4-7.6c0.9,0.5,1.7,1.4,2.2,2.4c0.6,1.4,0.6,2.9,0,4.3l-3.1,5.3   c-1.9,3.3-5.4,5.3-9.2,5.3c-2.9,0-5.7-1.2-7.7-3.3l-6.2-6.5c-0.4-0.4-1.1-0.6-1.6-0.4c-0.6,0.2-0.9,0.8-0.9,1.4v17.8   c0,0.8,0.7,1.5,1.5,1.5s1.5-0.7,1.5-1.5V73.5l3.6,3.8c2.6,2.7,6.2,4.2,9.9,4.2c4.9,0,9.4-2.6,11.8-6.8l3.1-5.3c0,0,0-0.1,0.1-0.1   c1-2.2,1-4.7,0-6.8C75.8,60.7,74.5,59.3,72.9,58.5z"></path></g></svg>