<svg fill="#FFFFFF" xmlns="http://www.w3.org/2000/svg" xmlns:xlink="http://www.w3.org/1999/xlink" version="1.1" x="0px" y="0px" viewBox="0 0 100 100" style="enable-background:new 0 0 100 100;" xml:space="preserve"><g><g><path d="M87.7,47.3c0-0.8-0.6-1.4-1.4-1.4H59.4V6.4C59.4,5.6,58.8,5,58,5C27,5,13.3,20.6,12.7,21.3c-0.2,0.3-0.3,0.6-0.3,0.9V95    h75.3V47.3z M44,92.2H27.7V78H44V92.2z M56.6,92.2h-9.8V76.6c0-0.8-0.6-1.4-1.4-1.4H26.3c-0.8,0-1.4,0.6-1.4,1.4v15.6h-9.7V22.7    c1-1,4.3-4.2,10-7.3c6.2-3.4,16.7-7.4,31.4-7.6V92.2z M84.9,92.2H59.4V48.7h25.5V92.2z"></path><path d="M76.2,61.8c0.8,0,1.4-0.6,1.4-1.4v-4c0-0.8-0.6-1.4-1.4-1.4s-1.4,0.6-1.4,1.4v4C74.8,61.2,75.4,61.8,76.2,61.8z"></path><path d="M67.5,61.8c0.8,0,1.4-0.6,1.4-1.4v-4c0-0.8-0.6-1.4-1.4-1.4s-1.4,0.6-1.4,1.4v4C66.1,61.2,66.7,61.8,67.5,61.8z"></path><path d="M76.2,73.2c0.8,0,1.4-0.6,1.4-1.4v-4c0-0.8-0.6-1.4-1.4-1.4s-1.4,0.6-1.4,1.4v4C74.8,72.6,75.4,73.2,76.2,73.2z"></path><path d="M67.5,73.2c0.8,0,1.4-0.6,1.4-1.4v-4c0-0.8-0.6-1.4-1.4-1.4s-1.4,0.6-1.4,1.4v4C66.1,72.6,66.7,73.2,67.5,73.2z"></path><path d="M76.2,84.6c0.8,0,1.4-0.6,1.4-1.4v-4c0-0.8-0.6-1.4-1.4-1.4s-1.4,0.6-1.4,1.4v4C74.8,84,75.4,84.6,76.2,84.6z"></path><path d="M67.5,84.6c0.8,0,1.4-0.6,1.4-1.4v-4c0-0.8-0.6-1.4-1.4-1.4s-1.4,0.6-1.4,1.4v4C66.1,84,66.7,84.6,67.5,84.6z"></path><path d="M25.9,48.7c0.8,0,1.4-0.6,1.4-1.4v-3.7c0-0.8-0.6-1.4-1.4-1.4c-0.8,0-1.4,0.6-1.4,1.4v3.7C24.5,48.1,25.2,48.7,25.9,48.7z    "></path><path d="M35.4,48.7c0.8,0,1.4-0.6,1.4-1.4v-3.7c0-0.8-0.6-1.4-1.4-1.4c-0.8,0-1.4,0.6-1.4,1.4v3.7C34,48.1,34.6,48.7,35.4,48.7z"></path><path d="M25.9,59.2c0.8,0,1.4-0.6,1.4-1.4v-3.7c0-0.8-0.6-1.4-1.4-1.4c-0.8,0-1.4,0.6-1.4,1.4v3.7C24.5,58.6,25.2,59.2,25.9,59.2z    "></path><path d="M35.4,59.2c0.8,0,1.4-0.6,1.4-1.4v-3.7c0-0.8-0.6-1.4-1.4-1.4c-0.8,0-1.4,0.6-1.4,1.4v3.7C34,58.6,34.6,59.2,35.4,59.2z"></path><path d="M45.2,48.7c0.8,0,1.4-0.6,1.4-1.4v-3.7c0-0.8-0.6-1.4-1.4-1.4s-1.4,0.6-1.4,1.4v3.7C43.8,48.1,44.4,48.7,45.2,48.7z"></path><path d="M45.2,59.2c0.8,0,1.4-0.6,1.4-1.4v-3.7c0-0.8-0.6-1.4-1.4-1.4s-1.4,0.6-1.4,1.4v3.7C43.8,58.6,44.4,59.2,45.2,59.2z"></path><path d="M25.9,69.7c0.8,0,1.4-0.6,1.4-1.4v-3.7c0-0.8-0.6-1.4-1.4-1.4c-0.8,0-1.4,0.6-1.4,1.4v3.7C24.5,69,25.2,69.7,25.9,69.7z"></path><path d="M35.4,69.7c0.8,0,1.4-0.6,1.4-1.4v-3.7c0-0.8-0.6-1.4-1.4-1.4c-0.8,0-1.4,0.6-1.4,1.4v3.7C34,69,34.6,69.7,35.4,69.7z"></path><path d="M45.2,69.7c0.8,0,1.4-0.6,1.4-1.4v-3.7c0-0.8-0.6-1.4-1.4-1.4s-1.4,0.6-1.4,1.4v3.7C43.8,69,44.4,69.7,45.2,69.7z"></path><path d="M35.4,27.7c0.8,0,1.4-0.6,1.4-1.4v-3.7c0-0.8-0.6-1.4-1.4-1.4c-0.8,0-1.4,0.6-1.4,1.4v3.7C34,27.1,34.6,27.7,35.4,27.7z"></path><path d="M45.2,27.7c0.8,0,1.4-0.6,1.4-1.4v-3.7c0-0.8-0.6-1.4-1.4-1.4s-1.4,0.6-1.4,1.4v3.7C43.8,27.1,44.4,27.7,45.2,27.7z"></path><path d="M25.9,38.2c0.8,0,1.4-0.6,1.4-1.4v-3.7c0-0.8-0.6-1.4-1.4-1.4c-0.8,0-1.4,0.6-1.4,1.4v3.7C24.5,37.6,25.2,38.2,25.9,38.2z    "></path><path d="M35.4,38.2c0.8,0,1.4-0.6,1.4-1.4v-3.7c0-0.8-0.6-1.4-1.4-1.4c-0.8,0-1.4,0.6-1.4,1.4v3.7C34,37.6,34.6,38.2,35.4,38.2z"></path><path d="M45.2,38.2c0.8,0,1.4-0.6,1.4-1.4v-3.7c0-0.8-0.6-1.4-1.4-1.4s-1.4,0.6-1.4,1.4v3.7C43.8,37.6,44.4,38.2,45.2,38.2z"></path></g></g></svg>