<svg fill="#FFFFFF" xmlns="http://www.w3.org/2000/svg" xmlns:xlink="http://www.w3.org/1999/xlink" version="1.1" x="0px" y="0px" viewBox="0 0 1024 1024" style="enable-background:new 0 0 1024 1024;" xml:space="preserve"><path d="M963,420.2c-10.3-8-24.8-10-37.4-9.7c-15.8,0.4-30.8,4.2-45.8,8.6c-4.2,1.2-8.3,2-12.6,2.7  c0.3,0,0.7-0.1,1.1-0.1c1.2-0.1-4.6,0.7-1.1,0.1c-0.7,0.1-1.4,0.2-2.1,0.2c-2.4,0.2-4.8,0.3-7.2,0.4c-4.7,0.1-9.3,0-14-0.3  c-2.2-0.2-4.5-0.3-6.7-0.6c-1.2-0.1-2.5-0.3-3.7-0.4c-0.1,0-0.2,0-0.3,0c0.7,0.1,1,0.2,1.1,0.2c-0.3,0-1.8-0.2-2-0.3  c0.1,0,0.3,0,0.8,0.1c-10.3-1.6-20.5-3.9-30.5-6.7c-10.6-3-21-6.5-31.2-10.5c-2.6-1-5.2-2-7.8-3.1c-0.5-0.2-2.6-1.1-2.6-1.1  c-0.7-0.3-1.3-0.6-1.6-0.7c-5.1-2.3-10.2-4.7-15.2-7.1c-19.4-9.6-38.1-20.6-55.6-33.3c-1.8-1.4-3.7-2.7-5.5-4.1  c-0.6-0.4-1.2-0.9-1.8-1.3c0,0,0,0,0,0c0,0,0,0,0,0.1c0,0-0.1,0-0.1-0.1c-0.3-0.3-1.1-0.9-1.4-1.2c0,0,0.1,0,0.1,0.1  c0,0,0.1,0,0.1,0.1c0,0,0.1,0.1,0.1,0.1c0,0,0.1,0.1,0.1,0.1c-0.1,0-0.1-0.1-0.2-0.1c-3.5-2.9-7-5.9-10.3-8.9  c-5.9-5.5-11.6-11.3-16.5-17.6c0-0.1-0.1-0.1-0.1-0.2c0,0-0.1-0.1-0.1-0.2c0,0-0.1-0.1-0.1-0.2c-0.1-0.1-0.2-0.3-0.3-0.4  c0,0,0,0-0.1-0.1c0,0,0,0,0-0.1c-0.2-0.3-0.4-0.5-0.6-0.8c0.1,0.2,0.3,0.3,0.4,0.5c-2.7-3.8-5.4-7.6-8.4-11.2  c-4.5-5.3-9.4-9.8-14.9-14.1c-8.1-6.3-18-10.2-28.2-10.8c-11-0.5-22,3.9-30.4,11.1c-2.1-9.1-4.4-18.2-6.8-27.3  c-6.8-25.8-14.5-51.3-23.3-76.4c-5-14.4-10.3-28.8-16.1-43c-1.2-2.9-2.4-5.8-3.6-8.6c-0.3-0.6-0.5-1.2-0.8-1.8  c-0.2-0.3-0.3-0.6-0.5-1c-7.3-14.7-20.4-24.1-36.7-26c-14.1-1.7-28.8,4.5-40.4,11.8c-14.5,9.2-26.5,21.2-38.1,33.7  c-3.2,3.4-6.7,6.5-10.3,9.6c0.3-0.2,0.6-0.5,1-0.7c0.1,0,0.1-0.1,0.1-0.1c0,0.1-3.8,3-1.1,0.8c-0.6,0.5-1.3,1-1.9,1.4  c-2.1,1.5-4.3,3-6.5,4.4c-4.3,2.7-8.8,5.2-13.3,7.5c-2.2,1.1-4.4,2.2-6.6,3.2c-1.2,0.6-2.4,1.1-3.7,1.7c-0.1,0.1-0.2,0.1-0.3,0.2  c0.7-0.3,1-0.4,1.1-0.4c-0.2,0.1-1.8,0.8-2,0.9c0.1,0,0.3-0.1,0.8-0.4c-10.6,4.2-21.3,7.8-32.3,10.8c-11.6,3.1-23.3,5.6-35.1,7.6  c-3,0.5-6,1-9,1.4c-0.6,0.1-3.1,0.4-3.1,0.4c-0.8,0.1-1.5,0.2-1.8,0.2c-6.1,0.7-12.1,1.3-18.3,1.8c-23.5,1.9-47.2,2-70.7-0.1  c-2.5-0.2-5-0.5-7.5-0.8c-0.9-0.1-1.8-0.2-2.6-0.3c0.1,0,0.2,0,0.3,0c0,0,0,0,0.1,0c0,0-0.1,0-0.1,0c-0.5-0.1-1.8-0.2-2.1-0.3  c0,0,0,0,0,0c0,0,0.1,0,0.1,0c0.1,0,0.1,0,0.2,0c0,0,0.1,0,0.1,0c0.1,0,0.1,0,0.2,0c0.1,0,0.3,0,0.4,0c-0.1,0-0.3,0-0.4-0.1  c-4.9-0.7-9.8-1.6-14.7-2.6c-8.6-1.8-17.1-4.1-25.3-7.2c-0.1,0-0.2-0.1-0.3-0.1c-0.1,0-0.1,0-0.2-0.1c0,0-0.1,0-0.2-0.1  c-0.2-0.1-0.3-0.1-0.5-0.2c0,0-0.1,0-0.1,0c0,0,0,0-0.1,0c-0.2-0.1-0.3-0.2-0.5-0.2c0,0,0.1,0,0.1,0c-4.7-2.1-9.4-4.1-14.2-5.8  c-7.1-2.5-14.3-3.9-21.9-4.8c-11.1-1.4-22.5,0.5-32.5,5.8c-13.3,7-22.1,21.5-24.4,36.1c-0.9,6.1-1.1,11.1-1.1,17.2  c0.2,16.2,0.7,32.4,1.5,48.6c1.4,28.9,3.8,57.7,7.4,86.4C58.7,431.4,68,480,83.4,526.8c11.9,36.3,27.2,71.9,47.3,104.5  c16,26,35.2,50.5,57.4,71.5c18.4,17.3,39.1,32.7,61.5,44.6c18.6,10,38.5,18,58.8,23.5c16.2,4.4,32.9,7.1,49.6,8.5  c9.5,0.8,19.1,1.1,28.7,0.5c2.1-0.1,4.2-0.3,6.3-0.5c13.7-1.5,27-8.6,39.4-14.4c8.5-4,16.9-8.4,25-13.3c6.2,19.6,14.5,38.6,25,56.2  c9.9,16.6,21.8,32.3,35.2,46.2c10.7,11.1,22.5,21.1,35,30c7.1,5.1,14.5,9.8,22.3,13.9c1.7,0.9,3.4,1.8,5.2,2.5  c11.5,5.2,25.3,6,37.8,7.2c35.8,3.6,72.8-0.3,106.6-12.9c32.7-12.3,62.2-31,87.7-54.8c25.1-23.3,46.4-50.9,64.5-79.9  c18.3-29.3,33.3-60.5,46.4-92.3c11.6-28.2,21.5-57,30-86.3c6.8-23.4,12.7-47.2,17.7-71c2.9-13.7,5.5-27.5,7.6-41.4  c0.4-2.8,0.8-5.6,1.2-8.5c0.1-0.6,0.2-1.2,0.2-1.8c0-0.3,0.1-0.7,0.1-1C980.8,442.9,974.9,429.4,963,420.2z M631.3,467.1  c14,3.8,27.5,9.8,37,21.3c8.3,10.1,12.8,22.3,14.2,35.2c0.8,7,1.1,15.1-0.7,22.1c-1.4,5.6-7,8.8-11.7,11.7  c-5.6,3.5-12.1,6.1-18.7,7.2c-24.4,4.2-46.6-8.9-64-25c2.7-19.1,4-38.4,4.4-57.6c0.1-5.1,0.1-10.1,0.1-15.2  C604.6,463.4,618.2,463.5,631.3,467.1z M349.9,364.1c1.7-13.7,6.2-26.5,14.8-37.4c10.9-13.9,26.8-20.9,43.6-24.6  c30-6.5,61.1,2.3,80.4,26.9c2.7,3.5,4.4,8.3,1.6,12.5c-3.3,4.9-7,9.6-10.7,14.2c-14.1,17.4-31.1,34.1-51.3,44.2  c-11.3,5.6-24,9.5-36.8,8.6c-14.4-1.1-26.8-7.2-37.6-16.5c-1.2-0.8-2.2-1.7-2.9-2.9c-1.5-2.1-1.9-4.4-1.5-6.5  C349,376.5,349.1,370.3,349.9,364.1z M146.3,418.5c-0.3-0.2-0.7-0.3-1-0.5c-0.1,0-0.1-0.1-0.2-0.1c-4.3-2.4-5.5-6.3-4.7-10  c0-0.5,0.1-1,0.2-1.5c5.3-30.4,28.3-53.4,57.6-61.7c15.3-4.3,31.3-6.2,46.5-0.8c13.5,4.8,24.4,13.7,33,25  c4.7,6.2,9.5,13.6,11.7,21.1c1.8,6-1.6,12.2-4.4,17.5c-3.4,6.4-8,12.5-13.5,17.2c-22,18.9-52.8,17.7-79.4,11.1  C176.5,431.9,160.7,426.1,146.3,418.5z M443.7,640.9c-17.9,15.7-39.3,27.1-63.1,32.8c-22.8,5.2-46.4,5-69-1.1  c-33.6-9.2-63.1-30.1-87-55c-12.1-12.5-23.7-26.4-32.8-41.4c-2.4-3.9-1.6-9.3,1.6-12.5c3.5-3.5,8.2-3.5,12.4-1.6  c33.5,14.5,69.7,23.4,106.3,23.5c47.5,0.1,92.2-14.6,131.4-40.9c3.7-2.5,7.3-5,10.8-7.7c0.8-0.6,1.7-1.3,2.5-1.9c0,0,0,0,0,0  c0,0,0,0,0.1-0.1c0.3-0.3,1.1-0.9,1.4-1.1c1.1-0.9,2.2-1.8,3.3-2.7c0.3-0.3,0.6-0.5,0.9-0.8c5.1-4.2,10.1-8.7,14.9-13.3  c4.2-4.1,8.5-8.3,12.1-13c5.5-6.8,18.4-1.3,17.5,7.3c-0.6,6.4-1.8,12.8-3.1,19.1c-5.7,27-16,53.7-31.2,76.8  C464.5,619.9,454.8,631.2,443.7,640.9z M795.8,743.6c-3.5,4.7-7.4,9.2-11.4,13.6c-17.2,18.5-37.8,34.7-60.6,45.7  c-32.6,15.7-69.1,19.7-103.8,8.8c-20.4-6.6-38.9-17.9-53.8-33.4c-22-22.9-35.3-53-42.4-83.6c0.3-0.4,0.7-0.9,1-1.3  c8.7-10.9,16.6-22.5,23.5-34.5c16.9,20.1,36.7,37.8,59.2,51.3c37.3,22.4,79.4,31.9,122.6,29.6c4-0.2,8.1-0.8,12.1-1.2  c0.9-0.1,1.9-0.5,2.8-0.5h0c0,0,0,0.2,0.1,0.2c0.4-0.1,1.3,0,1.6-0.1c1.7-0.2,3.3-0.4,4.9-0.6c6-0.9,12-2,18-3.4  c5.3-1.2,10.6-2.6,15.6-4.5C792.9,726.8,800.5,737.3,795.8,743.6z M862.6,602c-4.9,2.3-10,4.3-15.1,6.2c-19.3,7-40.5,12.2-61.2,10.6  c-11.5-0.9-23.4-3.8-32.9-10.6c-10.8-7.6-17.7-18.3-21.8-30.6c-0.6-1.1-0.9-2.4-0.9-3.6c-0.2-2.3,0.6-4.3,1.9-5.8  c2.4-5.1,5.4-10,8.9-14.5c7.8-9.9,17.4-17.9,29.2-22.4c15.1-5.8,30.9-3.9,45.9,1.2c26.6,9,47,30.5,50.6,59  C867.8,595.5,866.8,600.1,862.6,602z"></path></svg>