<svg fill="#FFFFFF" xmlns="http://www.w3.org/2000/svg" xmlns:xlink="http://www.w3.org/1999/xlink" version="1.1" x="0px" y="0px" viewBox="0 0 100 100" enable-background="new 0 0 100 100" xml:space="preserve"><g><polygon points="77,33.6 72,31 62.3,49.7 61.7,50.9 57.6,58.8 56.2,72.1 66.3,63.3 80.7,35.6 78.6,34.5  "></polygon><path d="M93.8,15.6l-2.1-1.1c0.4-1.2,1.8-6.3-1.4-7.9c-0.5-0.3-1.1-0.4-1.6-0.4c-3.1,0-5.9,4-5.9,4l-4.3,8.2L75.7,24l-2.3,4.5   l2.4,1.2l2.9,1.5l3.5,1.8l8.5-16.4l0.8,0.4c0.7,0.4,1,1.2,0.6,2l-7.8,15.1c-0.3,0.6-0.1,1.3,0.5,1.6c0.2,0.1,0.4,0.1,0.5,0.1   c0.4,0,0.8-0.2,1-0.6l8.5-16.4l0-0.1C95.3,17.6,94.9,16.2,93.8,15.6z"></path><path d="M75.7,76.8H56.7l0.2,14.1h-49V11.5h67.8V19l2.9-5.6V8.6H5v85.2h53.9l19.7-14.9V44.8l-2.9,5.6V76.8z M59.8,89.5l-0.1-9.8   h13.1L59.8,89.5z"></path><ellipse cx="25.4" cy="22.5" rx="6.2" ry="6.5"></ellipse><path d="M13.2,39.7c0,1.2,0.9,2.1,2.1,2.1h20.4c1.2,0,2.1-0.9,2.1-2.1V37l0,0c0,0,0,0,0,0c0-6.9-8.2-7.7-9.1-7.9l-3.1,2.5l1.5,5.5   l-1.5,2.4l-1.4-2.3l1.4-5.5l-3.1-2.5c-0.9,0.2-9.1,1-9.1,7.9c0,0.1,0,0.3,0,0.4l-0.1,0V39.7z"></path><path d="M68,24.6c0-0.6-0.5-1.2-1.2-1.2H42.6c-0.6,0-1.2,0.5-1.2,1.2c0,0.6,0.5,1.2,1.2,1.2h24.2C67.4,25.8,68,25.3,68,24.6z"></path><path d="M55.3,52.4c0-0.6-0.5-1.2-1.2-1.2H14.4c-0.6,0-1.2,0.5-1.2,1.2c0,0.6,0.5,1.2,1.2,1.2h39.8C54.8,53.6,55.3,53.1,55.3,52.4z   "></path><path d="M53,64.9c0-0.6-0.5-1.2-1.2-1.2H14.4c-0.6,0-1.2,0.5-1.2,1.2c0,0.6,0.5,1.2,1.2,1.2h37.5C52.5,66,53,65.5,53,64.9z"></path><path d="M14.4,76.2c-0.6,0-1.2,0.5-1.2,1.2s0.5,1.2,1.2,1.2h21.1c0.6,0,1.2-0.5,1.2-1.2s-0.5-1.2-1.2-1.2H14.4z"></path><path d="M62.9,37.8c0-0.6-0.5-1.2-1.2-1.2H42.6c-0.6,0-1.2,0.5-1.2,1.2c0,0.6,0.5,1.2,1.2,1.2h19.1C62.4,38.9,62.9,38.4,62.9,37.8z   "></path></g></svg>