<svg fill="#229897" xmlns="http://www.w3.org/2000/svg" xmlns:xlink="http://www.w3.org/1999/xlink" version="1.1" x="0px" y="0px" viewBox="0 0 100 100" style="enable-background:new 0 0 100 100;" xml:space="preserve"><g><path d="M75.0844727,17.7319336H38.7485352v-0.9638672c0-3.3544922-2.7290039-6.0834961-6.0830078-6.0834961   c-3.3544922,0-6.0834961,2.7290039-6.0834961,6.0834961v0.8730469c0,0.0311279,0.0072632,0.0601807,0.0091553,0.0908203h-1.6756592   c-0.8286133,0-1.5,0.6713867-1.5,1.5v68.5834961c0,0.828125,0.6713867,1.5,1.5,1.5h50.1689453c0.8286133,0,1.5-0.671875,1.5-1.5   V19.2319336C76.5844727,18.4033203,75.9130859,17.7319336,75.0844727,17.7319336z M29.5820312,17.6411133v-0.8730469   c0-1.7001953,1.3833008-3.0834961,3.0834961-3.0834961s3.0830078,1.3833008,3.0830078,3.0834961v0.9638672h-1.6923828v-0.2138672   c0-0.8286133-0.6713867-1.5-1.5-1.5s-1.5,0.6713867-1.5,1.5v0.2138672H29.572876   C29.5747681,17.7012939,29.5820312,17.6722412,29.5820312,17.6411133z M34.0561523,20.7319336h1.6923828v3.2016602   c0,0.4667969-0.3793945,0.8461914-0.8461914,0.8461914s-0.8461914-0.3793945-0.8461914-0.8461914V20.7319336z    M73.5844727,86.3154297H26.4155273V20.7319336h4.640625v3.2016602c0,2.1206055,1.7255859,3.8461914,3.8461914,3.8461914   s3.8461914-1.7255859,3.8461914-3.8461914v-3.2016602h34.8359375V86.3154297z"></path><path d="M33.125,49.4926758c-0.8286133,0-1.5,0.6713867-1.5,1.5s0.6713867,1.4995117,1.5,1.4995117h33.75   c0.8286133,0,1.5-0.6708984,1.5-1.4995117s-0.6713867-1.5-1.5-1.5H33.125z"></path><path d="M56.125,42.0654297h10.0415039c0.8286133,0,1.5-0.6713867,1.5-1.5s-0.6713867-1.5-1.5-1.5H56.125   c-0.8286133,0-1.5,0.6713867-1.5,1.5S55.2963867,42.0654297,56.125,42.0654297z"></path><path d="M56.125,35.7319336h10.0415039c0.8286133,0,1.5-0.6713867,1.5-1.5s-0.6713867-1.5-1.5-1.5H56.125   c-0.8286133,0-1.5,0.6713867-1.5,1.5S55.2963867,35.7319336,56.125,35.7319336z"></path><path d="M66.875,56.1591797h-33.75c-0.8286133,0-1.5,0.671875-1.5,1.5s0.6713867,1.5,1.5,1.5h33.75   c0.8286133,0,1.5-0.671875,1.5-1.5S67.7036133,56.1591797,66.875,56.1591797z"></path><path d="M66.875,62.8261719h-33.75c-0.8286133,0-1.5,0.671875-1.5,1.5s0.6713867,1.5,1.5,1.5h33.75   c0.8286133,0,1.5-0.671875,1.5-1.5S67.7036133,62.8261719,66.875,62.8261719z"></path><path d="M66.875,69.4921875h-33.75c-0.8286133,0-1.5,0.671875-1.5,1.5s0.6713867,1.5,1.5,1.5h33.75   c0.8286133,0,1.5-0.671875,1.5-1.5S67.7036133,69.4921875,66.875,69.4921875z"></path><path d="M66.875,76.1591797h-33.75c-0.8286133,0-1.5,0.671875-1.5,1.5s0.6713867,1.5,1.5,1.5h33.75   c0.8286133,0,1.5-0.671875,1.5-1.5S67.7036133,76.1591797,66.875,76.1591797z"></path><path d="M36.6030273,34.2890625c0,0.5771484,0.1184692,1.12323,0.303772,1.6373291   c-2.9553223,1.6387939-4.8555298,4.7780762-4.8555298,8.2366943c0,0.8286133,0.6713867,1.5,1.5,1.5h15.8334961   c0.8286133,0,1.5-0.6713867,1.5-1.5c0-3.4597778-1.8998413-6.5980225-4.8555298-8.2364502   c0.1853027-0.5141602,0.303772-1.0603638,0.303772-1.6375732c0-2.6826172-2.1821289-4.8647461-4.8647461-4.8647461   S36.6030273,31.6064453,36.6030273,34.2890625z M47.7070312,42.6630859H35.2290039   c0.4558105-1.8929443,1.7634277-3.4935303,3.5584717-4.3208008c0.7695923,0.5105591,1.6900024,0.8115234,2.6807861,0.8115234   c0.9909058,0,1.911377-0.3010254,2.6809692-0.8117065C45.9440918,39.1691895,47.2512817,40.7695923,47.7070312,42.6630859z    M43.3330078,34.2890625c0,1.0283203-0.8364258,1.8647461-1.8647461,1.8647461s-1.8652344-0.8364258-1.8652344-1.8647461   s0.8369141-1.8647461,1.8652344-1.8647461S43.3330078,33.2607422,43.3330078,34.2890625z"></path></g></svg>