<svg fill="#FFFFFF" xmlns="http://www.w3.org/2000/svg" xmlns:xlink="http://www.w3.org/1999/xlink" version="1.1" x="0px" y="0px" viewBox="0 0 100 100" enable-background="new 0 0 100 100" xml:space="preserve"><path d="M78.6,29.7v8.6c0,0.2,0.5,0.6,0.8,0.6h8.2c0.5,0,1.2-0.3,1.2-0.6v-8.6c0-0.2-0.7-0.6-1.2-0.6h-8.2  C79.1,29.2,78.6,29.5,78.6,29.7z M78.6,45.4v8c0,0.6,0.4,1.1,0.8,1.1h8.2c0.6,0,1.2-0.5,1.2-1.1v-8c0-0.5-0.7-1.1-1.2-1.1h-8.2  C79.1,44.3,78.6,45,78.6,45.4z M78.6,60.7v8.2c0,0.5,0.4,0.8,0.8,0.8h8.2c0.6,0,1.2-0.4,1.2-0.8v-8.2c0-0.5-0.6-0.8-1.2-0.8h-8.2  C79,59.9,78.6,60.3,78.6,60.7z M40.2,37.6v26c0,1.2,1.1,2.1,2.1,1.2l19.6-12.9c0.5-0.3,0.8-0.7,0.8-1.3s-0.3-0.9-0.8-1.1L42.3,36.4  C41.5,36.1,40.2,36.5,40.2,37.6z M11.2,29.7v8.6c0,0.2,0.6,0.6,1,0.6h8.3c0.3,0,0.8-0.3,0.8-0.6v-8.6c0-0.2-0.5-0.6-0.8-0.6h-8.3  C11.8,29.2,11.2,29.5,11.2,29.7z M11.2,45.4v8c0,0.6,0.6,1.1,1,1.1h8.3c0.4,0,0.8-0.5,0.8-1.1v-8c0-0.5-0.5-1.1-0.8-1.1h-8.3  C11.8,44.3,11.2,45,11.2,45.4z M11.2,60.7v8.2c0,0.5,0.6,0.8,1,0.8h8.3c0.4,0,0.8-0.4,0.8-0.8v-8.2c0-0.5-0.4-0.8-0.8-0.8h-8.3  C11.8,59.9,11.2,60.3,11.2,60.7z M5,71.5V27.5c0-3.7,3-6.5,6.6-6.5h76.8c3.6,0,6.6,2.8,6.6,6.5v43.9c0,3.6-3,6.4-6.6,6.4H11.6  C8,77.9,5,75,5,71.5z"></path></svg>