<svg fill="#229897" xmlns="http://www.w3.org/2000/svg" xmlns:xlink="http://www.w3.org/1999/xlink" version="1.1" x="0px" y="0px" viewBox="0 0 65 65" enable-background="new 0 0 65 65" xml:space="preserve"><g><path d="M44.4,6.1v-6.3H20.6v6.3H0.4v42.7h17.4v-1.5H1.9V22.6L7,26.4c1.1,0.9,2.6,1.3,4,1.3h16.7l1.3,2.8h7.1l1.3-2.8H54   c1.4,0,2.8-0.5,4-1.3l5.1-3.8v24.7H50.9v1.5h13.6V6.1H44.4z M22.1,1.3h20.9v4.8H22.1V1.3z M36.7,25.6L35.1,29h-5.2l-1.6-3.4v-1.5   h8.3V25.6z M57.1,25.2c-0.9,0.7-2,1-3.1,1H38l0.1-0.3v-3.4H26.8v3.4l0.1,0.3H11c-1.1,0-2.2-0.4-3.1-1l-6-4.5V7.6h61.2v13.1   L57.1,25.2z"></path><path d="M42.1,65.2h7V42.3h-7V65.2z M43.6,43.8h4v19.9h-4V43.8z"></path><path d="M33.4,65.2h7V47.3h-7V65.2z M34.9,48.8h4v14.9h-4V48.8z"></path><path d="M24.7,65.2h7V52.5h-7V65.2z M26.2,54h4v9.8h-4V54z"></path><path d="M16,65.2h7V57h-7V65.2z M17.5,58.5h4v5.2h-4V58.5z"></path><polygon points="19.8,51.8 44.5,36.3 43.8,39.7 45.3,39.9 46.4,34.2 40.6,33.1 40.3,34.5 43.5,35.1 19,50.5  "></polygon></g></svg>