<svg xmlns="http://www.w3.org/2000/svg" xmlns:xlink="http://www.w3.org/1999/xlink" width="100" height="100" viewBox="0 0 100 100"><g><g transform="translate(50 50) scale(0.69 0.69) rotate(0) translate(-50 -50)" style="fill:#ffffff"><svg fill="#ffffff" xmlns="http://www.w3.org/2000/svg" xmlns:xlink="http://www.w3.org/1999/xlink" version="1.1" x="0px" y="0px" viewBox="0 0 64 64" enable-background="new 0 0 64 64" xml:space="preserve"><rect x="17" y="29" width="14" height="2"></rect><rect x="17" y="33" width="14" height="2"></rect><rect x="33" y="29" width="14" height="2"></rect><rect x="33" y="33" width="14" height="2"></rect><path d="M54,23.486v-18.9l-4-4l-3,3l-3-3l-3,3l-3-3l-3,3l-3-3l-3,3l-3-3l-3,3l-3-3l-3,3l-3-3l-4,4v18.9l-7,5V64h58V28.486L54,23.486  z M58.186,28.933L54,31.474v-5.53L58.186,28.933z M14,3.414l3,3l3-3l3,3l3-3l3,3l3-3l3,3l3-3l3,3l3-3l3,3l3-3l2,2v27.273L44.898,37  H33v2h8.604l-3.293,2H33v2h2.016L32,44.831L28.985,43H31v-2h-5.31l-3.294-2H31v-2H19.103L12,32.688V5.414L14,3.414z M25,42.92V43  h0.132l4.942,3L5,61.225V30.778L25,42.92z M10,31.474l-4.185-2.541L10,25.944V31.474z M7.574,62l31.295-19H39v-0.08l20-12.142V62  H7.574z"></path><rect x="17" y="9" width="30" height="2"></rect><path d="M47,13H17v14h30V13z M45,25H19V15h26V25z"></path><rect x="27" y="19" width="2" height="2"></rect><rect x="31" y="19" width="2" height="2"></rect><rect x="35" y="19" width="2" height="2"></rect><rect x="47" y="58" width="10" height="2"></rect><rect x="47" y="54" width="7" height="2"></rect></svg></g></g></svg>