<svg fill="#229897" xmlns="http://www.w3.org/2000/svg" xmlns:xlink="http://www.w3.org/1999/xlink" version="1.1" x="0px" y="0px" viewBox="0 0 100 100" enable-background="new 0 0 100 100" xml:space="preserve"><path d="M86.2,30.3c-3,2.7-7.3,1.5-7.3-3.7V14.1c0-3.8-3.1-6.9-6.9-6.9h-8.8h-3.8c-5,0.1-6.1,4.4-3.5,7.4c4.4,5,2,12.6-5.9,12.9  c-8-0.3-10.3-8-5.9-12.9c2.6-3,1.5-7.3-3.5-7.4h-3.4h-9.1c0,0,0,0,0,0h-0.1c-3.7,0-6.7,3-6.7,6.7v12.6c0,5.2-4.3,6.3-7.3,3.7  c-5-4.4-12.6-2-12.9,5.9c0.3,8,7.9,10.3,12.8,5.9c3-2.7,7.4-1.5,7.4,3.7v12.4c0,3.7,3,6.7,6.7,6.7h12.5h3.4v10.9h-6.5  c-0.7,0-1.1,0.8-0.6,1.3l12.5,15.2c0.4,0.5,1.2,0.5,1.6,0l12.5-15.2c0.4-0.5,0.1-1.3-0.6-1.3h-6.5V64.9h3.6h12.5  c3.7,0,6.7-3,6.7-6.7V45.8c0-5.2,4.2-6.3,7.2-3.7c5,4.4,12.5,2,12.9-5.9C98.7,28.2,91.1,25.9,86.2,30.3z"></path></svg>