<svg xmlns="http://www.w3.org/2000/svg" xmlns:xlink="http://www.w3.org/1999/xlink" width="100" height="100" viewBox="0 0 100 100"><g><g transform="translate(50 50) scale(0.69 0.69) rotate(0) translate(-50 -50)" style="fill:#ffffff"><svg fill="#ffffff" xmlns="http://www.w3.org/2000/svg" xmlns:xlink="http://www.w3.org/1999/xlink" version="1.1" x="0px" y="0px" viewBox="0 0 50 50" enable-background="new 0 0 50 50" xml:space="preserve"><g><path d="M39.5,1h-29C8.1,1,6.2,2.9,6.2,5.3v39.3c0,2.4,1.9,4.3,4.3,4.3c30.6,0,29.1,0,29.6,0c2.1-0.3,3.7-2.1,3.7-4.3v-7.5V5.3   C43.8,2.9,41.9,1,39.5,1z M11.8,9.6h11.8c0.5,0,0.9,0.4,0.9,0.9c0,0.5-0.4,0.9-0.9,0.9H11.8c-0.5,0-0.9-0.4-0.9-0.9   C10.9,10,11.3,9.6,11.8,9.6z M11.8,14.5H15c0.5,0,0.9,0.4,0.9,0.9c0,0.5-0.4,0.9-0.9,0.9h-3.2c-0.5,0-0.9-0.4-0.9-0.9   C10.9,14.9,11.3,14.5,11.8,14.5z M11.8,20h11.8c0.5,0,0.9,0.4,0.9,0.9c0,0.5-0.4,0.9-0.9,0.9H11.8c-0.5,0-0.9-0.4-0.9-0.9   C10.9,20.4,11.3,20,11.8,20z M11.8,24.9H15c0.5,0,0.9,0.4,0.9,0.9c0,0.5-0.4,0.9-0.9,0.9h-3.2c-0.5,0-0.9-0.4-0.9-0.9   C10.9,25.3,11.3,24.9,11.8,24.9z M11.8,30.5h11.8c0.5,0,0.9,0.4,0.9,0.9c0,0.5-0.4,0.9-0.9,0.9H11.8c-0.5,0-0.9-0.4-0.9-0.9   C10.9,30.9,11.3,30.5,11.8,30.5z M15,37.2h-3.2c-0.5,0-0.9-0.4-0.9-0.9c0-0.5,0.4-0.9,0.9-0.9H15c0.5,0,0.9,0.4,0.9,0.9   C15.9,36.8,15.5,37.2,15,37.2z M31.3,37.2H18.5c-0.5,0-0.9-0.4-0.9-0.9c0-0.5,0.4-0.9,0.9-0.9h12.8c0.5,0,0.9,0.4,0.9,0.9   C32.2,36.8,31.8,37.2,31.3,37.2z M31.3,32.3h-4.2c-0.5,0-0.9-0.4-0.9-0.9c0-0.5,0.4-0.9,0.9-0.9h4.2c0.5,0,0.9,0.4,0.9,0.9   C32.2,31.9,31.8,32.3,31.3,32.3z M31.3,26.8H18.5c-0.5,0-0.9-0.4-0.9-0.9c0-0.5,0.4-0.9,0.9-0.9h12.8c0.5,0,0.9,0.4,0.9,0.9   C32.2,26.3,31.8,26.8,31.3,26.8z M31.3,21.8h-4.2c-0.5,0-0.9-0.4-0.9-0.9c0-0.5,0.4-0.9,0.9-0.9h4.2c0.5,0,0.9,0.4,0.9,0.9   C32.2,21.4,31.8,21.8,31.3,21.8z M31.3,16.3H18.5c-0.5,0-0.9-0.4-0.9-0.9c0-0.5,0.4-0.9,0.9-0.9h12.8c0.5,0,0.9,0.4,0.9,0.9   C32.2,15.9,31.8,16.3,31.3,16.3z M31.3,11.4h-4.2c-0.5,0-0.9-0.4-0.9-0.9c0-0.5,0.4-0.9,0.9-0.9h4.2c0.5,0,0.9,0.4,0.9,0.9   C32.2,11,31.8,11.4,31.3,11.4z M40.6,37.3h-5.9v-5.9h5.9V37.3z M40.6,26.1h-5.9v-5.9h5.9V26.1z M40.6,15.5h-5.9V9.6h5.9V15.5z"></path><path d="M36.7,13.8l-0.9-0.9c-0.2-0.2-0.2-0.6,0-0.8c0.2-0.2,0.6-0.2,0.8,0l0.5,0.5l1.5-1.5c0.2-0.2,0.6-0.2,0.8,0   c0.2,0.2,0.2,0.6,0,0.8l-1.9,1.9C37.3,14.1,37,14.1,36.7,13.8z"></path><path d="M36.7,24.5l-0.9-0.9c-0.2-0.2-0.2-0.6,0-0.8c0.2-0.2,0.6-0.2,0.8,0l0.5,0.5l1.5-1.5c0.2-0.2,0.6-0.2,0.8,0   c0.2,0.2,0.2,0.6,0,0.8l-1.9,1.9C37.3,24.7,37,24.7,36.7,24.5z"></path></g></svg></g></g></svg>