<svg fill="#229897" xmlns="http://www.w3.org/2000/svg" xmlns:xlink="http://www.w3.org/1999/xlink" version="1.1" x="0px" y="0px" viewBox="0 0 100 100" enable-background="new 0 0 100 100" xml:space="preserve"><g><path d="M81,6.5h-4.375V3.25h-2V6.5h-8.25V3.25h-2V6.5h-8.25V3.25h-2V6.5h-8.25V3.25h-2V6.5h-8.25V3.25h-2V6.5h-8.25V3.25h-2V6.5   H19h-5v87h72v-87H81z M23.375,8.5v3.25h2V8.5h8.25v3.25h2V8.5h8.25v3.25h2V8.5h8.25v3.25h2V8.5h8.25v3.25h2V8.5h8.25v3.25h2V8.5H79   v76.93H21V8.5H23.375z M84,91.5H16v-83h3v78.93h62V8.5h3V91.5z"></path><path d="M28.405,35.516l5.757-3.026l5.756,3.026l-1.099-6.408l4.656-4.539l-6.435-0.937l-2.878-5.83l-2.878,5.83l-6.435,0.937   l4.656,4.539L28.405,35.516z M29.146,25.965l3.466-0.504l1.55-3.14l1.55,3.14l3.466,0.504l-2.508,2.445l0.592,3.45l-3.1-1.63   l-3.1,1.63l0.592-3.45L29.146,25.965z"></path><path d="M28.405,57.229l5.757-3.025l5.756,3.025l-1.099-6.407l4.656-4.541l-6.435-0.935l-2.878-5.832l-2.878,5.832l-6.435,0.935   l4.656,4.541L28.405,57.229z M29.146,47.677l3.466-0.503l1.55-3.14l1.55,3.14l3.466,0.503l-2.508,2.446l0.592,3.449l-3.1-1.629   l-3.1,1.629l0.592-3.449L29.146,47.677z"></path><path d="M28.405,78.942l5.757-3.026l5.756,3.026l-1.099-6.408l4.656-4.541l-6.435-0.935l-2.878-5.832l-2.878,5.832l-6.435,0.935   l4.656,4.541L28.405,78.942z M29.146,69.39l3.466-0.503l1.55-3.141l1.55,3.141l3.466,0.503l-2.508,2.447l0.592,3.449l-3.1-1.63   l-3.1,1.63l0.592-3.449L29.146,69.39z"></path><rect x="49.001" y="23.25" width="25.166" height="2"></rect><rect x="49.001" y="28.5" width="16.916" height="2"></rect><rect x="49.001" y="44.963" width="25.166" height="2"></rect><rect x="49.001" y="50.213" width="16.916" height="2"></rect><rect x="49.001" y="66.676" width="25.166" height="2"></rect><rect x="49.001" y="71.926" width="16.916" height="2"></rect></g></svg>