<svg fill="#FFFFFF" xmlns="http://www.w3.org/2000/svg" data-name="Layer 1" viewBox="0 0 64 64" x="0px" y="0px"><title>analysis-graph-consider-result-analyze-report-presentation</title><path d="M34,2a1,1,0,0,0-1,1V30a1,1,0,0,0,1,1H61a1,1,0,0,0,1-1A28,28,0,0,0,34,2Zm1,27V4A26,26,0,0,1,60,29Z"></path><path d="M57,33H31V7a1,1,0,0,0-1-1A28,28,0,0,0,9.13,52.67l.06.06h0l0,0,1,1h0a28,28,0,0,0,16.83,8l.28,0c.4,0,.79.07,1.19.09s1,0,1.48,0,.93,0,1.39,0c.16,0,.31,0,.47,0l.9-.07.58-.07.77-.09.65-.11.68-.13c.24,0,.47-.09.7-.15l.61-.14.75-.2.53-.15.78-.25.5-.17.75-.28.31-.11,0,0h0l.14-.06c.57-.23,1.14-.48,1.69-.75l.49-.25c.34-.18.68-.36,1-.55A27.8,27.8,0,0,0,57,41.48c.06-.24.13-.47.19-.72s.14-.57.2-.86.18-.9.25-1.35a5.62,5.62,0,0,0,.09-.57c.08-.52.13-1,.18-1.57,0-.17,0-.35,0-.52,0-.63.07-1.26.07-1.89A1,1,0,0,0,57,33ZM10,50.62A26,26,0,0,1,29,8V33.55Zm26.67,8.5-.17,0c-.64.17-1.29.31-1.94.43l-.33,0c-.63.11-1.28.19-1.92.25l-.32,0c-.67.06-1.35.09-2,.09-.45,0-.9,0-1.35,0l-.48,0-.85-.07-.58-.07-.74-.1-.63-.12-.68-.12L24,59.3l-.63-.16L22.74,59l-.6-.18-.68-.22-.57-.21-.67-.26-.55-.23-.67-.3-.52-.26L17.81,57l-.5-.27-.65-.37-.49-.3-.63-.41-.47-.33c-.21-.14-.41-.29-.61-.44L14,54.49l-.6-.48L13,53.64c-.19-.17-.39-.33-.57-.51L12,52.74c-.18-.18-.37-.35-.55-.54l-.08-.08L29.6,35.7l9.12,22.79C38.06,58.73,37.39,58.93,36.71,59.12ZM56,35.05c0,.52-.06,1-.12,1.55,0,.19,0,.38-.06.57q-.06.53-.15,1c0,.22-.07.45-.11.66q-.12.63-.27,1.23c-.08.33-.17.66-.26,1a3.37,3.37,0,0,1-.1.34A26.1,26.1,0,0,1,43.34,56.31l-.52.3L42,57c-.42.22-.84.43-1.27.62l-.19.08L31.48,35H56Z"></path><path d="M45,17H42a2,2,0,0,1,0-4h6V11H44V9H42v2a4,4,0,0,0,0,8h3a2,2,0,0,1,0,4H39v2h3v2h2V25h1a4,4,0,0,0,0-8Z"></path><path d="M20.3,23.72A4.92,4.92,0,0,0,22,20a5,5,0,0,0-10,0,4.92,4.92,0,0,0,1.7,3.72A8,8,0,0,0,9,31v3a1,1,0,0,0,1,1H24a1,1,0,0,0,1-1V31A8,8,0,0,0,20.3,23.72ZM17,17a3,3,0,1,1-3,3A3,3,0,0,1,17,17Zm6,16H11V31a6,6,0,0,1,12,0Z"></path><path d="M26.14,52H22V50H20v2H19V50H17v2H16v2H26.14a4,4,0,1,0,0-2ZM30,51a2,2,0,1,1-2,2A2,2,0,0,1,30,51Z"></path><path d="M38.8,46.6,41.5,43H47a1,1,0,0,0,.62-.22l2.86-2.28L50,42.8l2,.4,1-5a1,1,0,0,0-.46-1.05A1,1,0,0,0,52,37H47v2h2.15l-2.5,2H41a1,1,0,0,0-.8.4l-3,4Z"></path></svg>