<svg fill="#FFFFFF" xmlns="http://www.w3.org/2000/svg" xmlns:xlink="http://www.w3.org/1999/xlink" version="1.1" x="0px" y="0px" viewBox="0 0 50.4 50.4" enable-background="new 0 0 50.4 50.4" xml:space="preserve"><g><path d="M41.223,19.672c0.631,0,1.144,0.512,1.144,1.144c0,0.63-0.513,1.141-1.144,1.141s-1.142-0.511-1.142-1.141   C40.081,20.184,40.592,19.672,41.223,19.672z"></path><path d="M44.547,19.672c0.632,0,1.144,0.512,1.144,1.144c0,0.63-0.512,1.141-1.144,1.141c-0.629,0-1.141-0.511-1.141-1.141   C43.406,20.184,43.918,19.672,44.547,19.672z"></path><path d="M5.887,19.672c0.631,0,1.144,0.512,1.144,1.144c0,0.63-0.513,1.141-1.144,1.141c-0.63,0-1.143-0.511-1.143-1.141   C4.745,20.184,5.257,19.672,5.887,19.672z"></path><path d="M9.212,19.672c0.632,0,1.144,0.512,1.144,1.144c0,0.63-0.512,1.141-1.144,1.141c-0.631,0-1.141-0.511-1.141-1.141   C8.071,20.184,8.581,19.672,9.212,19.672z"></path><path d="M23.436,13.18c0.632,0,1.143,0.513,1.143,1.144c0,0.63-0.511,1.141-1.143,1.141c-0.632,0-1.142-0.51-1.142-1.141   C22.294,13.693,22.803,13.18,23.436,13.18z"></path><path d="M26.759,13.18c0.633,0,1.144,0.513,1.144,1.144c0,0.63-0.511,1.141-1.144,1.141c-0.629,0-1.139-0.51-1.139-1.141   C25.62,13.693,26.13,13.18,26.759,13.18z"></path><path d="M27.911,39.105l-2.606-6.553l-2.398,6.387h0.004c-0.466,1.013-0.284,2.246,0.556,3.073c1.07,1.051,2.794,1.041,3.849-0.032   C28.085,41.197,28.276,40.071,27.911,39.105z"></path><path d="M25.349,27.024c-7.196,0-13.05,5.863-13.05,13.07c0,0.494,0.402,0.896,0.898,0.896c0.497,0,0.899-0.402,0.899-0.896   c0-1.226,0.202-2.401,0.563-3.504l2.728,1.03c0.089-0.287,0.196-0.567,0.314-0.84l-2.733-1.036   c0.697-1.664,1.785-3.123,3.144-4.271l1.786,2.317c0.225-0.196,0.46-0.384,0.706-0.555l-1.778-2.309   c1.733-1.242,3.83-1.997,6.098-2.084v2.922c0.142-0.005,0.283-0.021,0.426-0.021c0.158,0,0.315,0.016,0.473,0.023v-2.922   c2.241,0.093,4.313,0.841,6.031,2.062l-1.779,2.308c0.247,0.172,0.484,0.356,0.711,0.554l1.783-2.318   c1.367,1.146,2.461,2.604,3.164,4.27l-2.735,1.036c0.12,0.272,0.227,0.552,0.319,0.839l2.726-1.032   c0.369,1.112,0.574,2.299,0.574,3.531c0,0.494,0.403,0.896,0.898,0.896c0.496,0,0.9-0.402,0.9-0.896   C38.417,32.888,32.554,27.024,25.349,27.024z"></path></g><g><path d="M42.884,30.352c-4.041,0-7.328-3.289-7.328-7.33c0-4.043,3.287-7.331,7.328-7.331c4.044,0,7.333,3.288,7.333,7.331   C50.217,27.062,46.928,30.352,42.884,30.352L42.884,30.352z M42.884,17.449c-3.071,0-5.568,2.5-5.568,5.573   c0,3.071,2.497,5.57,5.568,5.57c3.073,0,5.572-2.499,5.572-5.57C48.456,19.948,45.957,17.449,42.884,17.449L42.884,17.449z"></path><path d="M42.885,26.857c-2.114,0-3.834-1.72-3.834-3.836h1.512c0,1.28,1.043,2.322,2.322,2.322c1.282,0,2.324-1.042,2.324-2.322   h1.514C46.723,25.138,45.001,26.857,42.885,26.857L42.885,26.857z"></path><path d="M7.55,30.352c-4.042,0-7.331-3.289-7.331-7.33c0-4.043,3.289-7.331,7.331-7.331c4.041,0,7.331,3.288,7.331,7.331   C14.88,27.062,11.591,30.352,7.55,30.352L7.55,30.352z M7.55,17.449c-3.072,0-5.57,2.5-5.57,5.573c0,3.071,2.498,5.57,5.57,5.57   c3.071,0,5.571-2.499,5.571-5.57C13.121,19.948,10.621,17.449,7.55,17.449L7.55,17.449z"></path><path d="M11.385,26.19H9.874c0-0.885-1.064-1.631-2.322-1.631c-1.26,0-2.325,0.746-2.325,1.631H3.714   c0-1.734,1.721-3.145,3.837-3.145C9.666,23.046,11.385,24.456,11.385,26.19L11.385,26.19z"></path><path d="M25.163,23.108c-4.042,0-7.329-3.289-7.329-7.331c0-4.043,3.287-7.331,7.329-7.331c4.042,0,7.332,3.288,7.332,7.331   C32.494,19.819,29.205,23.108,25.163,23.108L25.163,23.108z M25.163,10.206c-3.071,0-5.57,2.499-5.57,5.572   c0,3.071,2.499,5.572,5.57,5.572c3.073,0,5.571-2.5,5.571-5.572C30.733,12.705,28.235,10.206,25.163,10.206L25.163,10.206z"></path><polygon points="26.876,18.705 23.246,18.705 23.246,17.191 26.876,17.191 26.876,18.705  "></polygon></g></svg>