<svg xmlns="http://www.w3.org/2000/svg" xmlns:xlink="http://www.w3.org/1999/xlink" width="100" height="100" viewBox="0 0 100 100"><g><g transform="translate(50 50) scale(0.69 0.69) rotate(0) translate(-50 -50)" style="fill:#ffffff"><svg fill="#ffffff" xmlns="http://www.w3.org/2000/svg" xmlns:xlink="http://www.w3.org/1999/xlink" version="1.1" x="0px" y="0px" viewBox="0 0 32 32" enable-background="new 0 0 32 32" xml:space="preserve"><g display="none"><rect x="-297.55" y="-124.318" display="inline" fill="#ffffff" width="421.212" height="207"></rect></g><g display="none"><text transform="matrix(1 0 0 1 6.9656 8.7855)" display="inline"><tspan x="0" y="0" font-family="'MyriadPro-Semibold'" font-size="6.8868px">N</tspan><tspan x="4.655" y="0" font-family="'MyriadPro-Semibold'" font-size="6.8868px">E</tspan><tspan x="8.257" y="0" font-family="'MyriadPro-Semibold'" font-size="6.8868px">W</tspan><tspan x="14.214" y="0" font-family="'MyriadPro-Semibold'" font-size="6.8868px">S</tspan></text><g display="inline"><g><path d="M27.937,1v30H4.063V1H27.937 M28.937,0H3.063v32h25.875V0L28.937,0z"></path></g><rect x="6.994" y="12.589" fill="none" stroke="#ffffff" stroke-miterlimit="10" width="8.732" height="5.87"></rect><line fill="none" stroke="#ffffff" stroke-miterlimit="10" x1="18.264" y1="12.589" x2="26.195" y2="12.589"></line><line fill="none" stroke="#ffffff" stroke-miterlimit="10" x1="18.264" y1="15.524" x2="26.195" y2="15.524"></line><line fill="none" stroke="#ffffff" stroke-miterlimit="10" x1="18.264" y1="18.459" x2="26.195" y2="18.459"></line><line fill="none" stroke="#ffffff" stroke-miterlimit="10" x1="6.079" y1="21.394" x2="26.195" y2="21.394"></line><line fill="none" stroke="#ffffff" stroke-miterlimit="10" x1="6.079" y1="24.329" x2="26.195" y2="24.329"></line><line fill="none" stroke="#ffffff" stroke-miterlimit="10" x1="6.079" y1="27.264" x2="26.195" y2="27.264"></line></g></g><g display="none"><g display="inline"><rect x="3.562" y="0.5" fill="#ffffff" width="24.875" height="31"></rect><g><path d="M27.937,1v30H4.063V1H27.937 M28.937,0H3.063v32h25.875V0L28.937,0z"></path></g></g><text transform="matrix(1 0 0 1 6.9656 8.7855)" display="inline"><tspan x="0" y="0" font-family="'MyriadPro-Semibold'" font-size="6.8868px">N</tspan><tspan x="4.655" y="0" font-family="'MyriadPro-Semibold'" font-size="6.8868px">E</tspan><tspan x="8.257" y="0" font-family="'MyriadPro-Semibold'" font-size="6.8868px">W</tspan><tspan x="14.214" y="0" font-family="'MyriadPro-Semibold'" font-size="6.8868px">S</tspan></text><rect x="6.994" y="12.589" display="inline" fill="#ffffff" stroke="#ffffff" stroke-miterlimit="10" width="8.732" height="5.87"></rect><line display="inline" fill="none" stroke="#ffffff" stroke-miterlimit="10" x1="18.264" y1="12.589" x2="26.195" y2="12.589"></line><line display="inline" fill="none" stroke="#ffffff" stroke-miterlimit="10" x1="18.264" y1="15.524" x2="26.195" y2="15.524"></line><line display="inline" fill="none" stroke="#ffffff" stroke-miterlimit="10" x1="18.264" y1="18.459" x2="26.195" y2="18.459"></line><line display="inline" fill="none" stroke="#ffffff" stroke-miterlimit="10" x1="6.079" y1="21.394" x2="26.195" y2="21.394"></line><line display="inline" fill="none" stroke="#ffffff" stroke-miterlimit="10" x1="6.079" y1="24.329" x2="26.195" y2="24.329"></line><line display="inline" fill="none" stroke="#ffffff" stroke-miterlimit="10" x1="6.079" y1="27.264" x2="26.195" y2="27.264"></line></g><g display="none"><path display="inline" d="M3.063,0v32h25.875V0H3.063z M16.662,3.732l0.51,2.442c0.136,0.654,0.263,1.34,0.351,1.874h0.016   c0.088-0.567,0.239-1.204,0.391-1.882l0.583-2.434h1.029l0.534,2.473c0.136,0.638,0.247,1.236,0.327,1.819h0.016   c0.095-0.591,0.223-1.204,0.367-1.859l0.558-2.434h0.997l-1.443,5.377h-1.053L19.286,6.58c-0.136-0.614-0.231-1.124-0.294-1.707   h-0.017c-0.095,0.574-0.199,1.094-0.359,1.707l-0.621,2.529h-1.062l-1.315-5.377H16.662z M16.225,12.465v6.87H6.494v-6.87H16.225z    M11.889,3.732h3.128v0.806H12.87v1.388h2.026v0.798H12.87v1.579h2.265v0.806h-3.246V3.732z M6.493,3.732H7.61l1.388,2.306   c0.359,0.598,0.67,1.22,0.917,1.803h0.017C9.867,7.122,9.843,6.428,9.843,5.606V3.732h0.909v5.377H9.739L8.336,6.747   C7.993,6.158,7.634,5.495,7.37,4.889L7.346,4.897C7.387,5.591,7.395,6.3,7.395,7.187v1.922H6.493V3.732z M26.195,28.141H6.079v-1   h20.116V28.141z M26.195,25.205H6.079v-1h20.116V25.205z M26.195,22.271H6.079v-1h20.116V22.271z M26.195,19.335h-7.931v-1h7.931   V19.335z M26.195,16.399h-7.931v-1h7.931V16.399z M26.195,13.465h-7.931v-1h7.931V13.465z M24.181,9.188   c-0.566,0-1.156-0.158-1.451-0.334l0.215-0.814c0.319,0.183,0.798,0.343,1.301,0.343c0.63,0,0.981-0.295,0.981-0.735   c0-0.406-0.272-0.645-0.958-0.893c-0.885-0.319-1.452-0.789-1.452-1.563c0-0.877,0.735-1.547,1.899-1.547   c0.582,0,1.013,0.128,1.292,0.271l-0.239,0.79c-0.191-0.103-0.567-0.255-1.069-0.255c-0.623,0-0.894,0.335-0.894,0.645   c0,0.415,0.311,0.607,1.029,0.886c0.934,0.351,1.388,0.821,1.388,1.595C26.223,8.438,25.569,9.188,24.181,9.188z"></path></g><g><path d="M3.063,32h25.875V0H3.063V32z M26.195,28.141H6.079v-1h20.116V28.141z M26.195,25.205H6.079v-1h20.116V25.205z    M26.195,22.271H6.079v-1h20.116V22.271z M6.494,19.335v-6.87h9.731v6.87H6.494z M26.195,19.335h-7.931v-1h7.931V19.335z    M26.195,16.399h-7.931v-1h7.931V16.399z M26.195,13.465h-7.931v-1h7.931V13.465z M23.211,5.224l0.583-1.804l0.583,1.804h1.874   l-1.516,1.108l0.582,1.8l-1.522-1.113l-1.523,1.113l0.582-1.8l-1.517-1.108H23.211z M18.015,5.224l0.583-1.804l0.583,1.804h1.874   l-1.516,1.108l0.582,1.8l-1.522-1.113l-1.523,1.113l0.582-1.8l-1.517-1.108H18.015z M12.819,5.224l0.583-1.804l0.583,1.804h1.874   l-1.516,1.108l0.582,1.8l-1.522-1.113L11.88,8.132l0.582-1.8l-1.517-1.108H12.819z M7.623,5.224L8.206,3.42l0.583,1.804h1.874   L9.147,6.332l0.582,1.8L8.206,7.019L6.684,8.132l0.582-1.8L5.749,5.224H7.623z"></path></g></svg></g></g></svg>