<svg fill="#229897" xmlns="http://www.w3.org/2000/svg" xmlns:xlink="http://www.w3.org/1999/xlink" version="1.1" x="0px" y="0px" viewBox="0 0 160 160" style="enable-background:new 0 0 160 160;" xml:space="preserve"><g><path d="M80.878,10.01c1.012,0,2.02,0.085,3.02,0.216l-1.616-3.611C81.879,5.715,80.985,5.135,80,5.135s-1.879,0.579-2.282,1.479   l-1.656,3.701c1.026-0.196,2.043-0.306,3.054-0.306H80.878z"></path><path d="M13.621,80.135l22.055-9.868c0.687-0.308,1.198-0.908,1.394-1.635c0.194-0.728,0.052-1.504-0.39-2.113L22.514,46.946   l24.034,2.48c0.752,0.086,1.493-0.187,2.024-0.719c0.532-0.532,0.797-1.275,0.719-2.024l-2.48-24.034l9.38,6.789   c0.355-1.742,0.872-3.441,1.544-5.055l-12.519-9.061c-0.8-0.579-1.865-0.632-2.716-0.14c-0.854,0.493-1.338,1.441-1.236,2.422   l2.738,26.532L17.47,41.399c-0.974-0.114-1.93,0.383-2.422,1.236c-0.493,0.854-0.438,1.917,0.14,2.716L30.826,66.96L6.479,77.853   C5.579,78.257,5,79.15,5,80.135s0.579,1.879,1.479,2.282l16.202,7.249l3.08-4.1L13.621,80.135z"></path><path d="M153.521,77.853L129.174,66.96l15.639-21.608c0.578-0.799,0.633-1.862,0.14-2.716c-0.492-0.854-1.448-1.354-2.422-1.236   l-26.532,2.738l2.738-26.532c0.102-0.98-0.383-1.929-1.236-2.422c-0.853-0.492-1.917-0.439-2.716,0.14l-12.686,9.181   c0.748,1.572,1.333,3.219,1.708,4.936l9.382-6.791l-2.48,24.034c-0.078,0.749,0.187,1.492,0.719,2.024   c0.531,0.532,1.271,0.804,2.024,0.719l24.034-2.48L123.32,66.519c-0.441,0.609-0.584,1.386-0.39,2.113   c0.195,0.727,0.707,1.327,1.394,1.635l22.055,9.868l-12.873,5.76l3.079,4.1l16.936-7.578c0.899-0.403,1.479-1.297,1.479-2.282   S154.421,78.257,153.521,77.853z"></path><path d="M83.933,75.51l0.05-0.062v-0.006c0.012-0.006,0.019-0.018,0.025-0.03c0.043-0.062,0.075-0.129,0.099-0.204   c0.006-0.012,0.013-0.031,0.013-0.049c0.018-0.068,0.031-0.135,0.037-0.203c0-0.019,0.006-0.031,0.006-0.049   c0-0.074-0.013-0.154-0.031-0.222c-0.006-0.025-0.012-0.05-0.025-0.068c-0.025-0.086-0.062-0.167-0.118-0.24   c-0.006-0.013-0.019-0.025-0.025-0.037c-0.006-0.006-0.019-0.012-0.025-0.025c-0.037-0.043-0.081-0.086-0.137-0.129   c-0.006-0.006-0.012-0.018-0.025-0.024c-0.006-0.006-0.013-0.012-0.025-0.012c-0.006-0.006-0.006-0.013-0.012-0.013l-3.224-2.902   c-0.311-0.203-0.708-0.203-1.019,0l-3.231,2.902c-0.006,0-0.012,0.006-0.019,0.013c-0.006,0.006-0.012,0.006-0.019,0.012   c-0.012,0.006-0.019,0.019-0.025,0.024c-0.05,0.043-0.099,0.086-0.143,0.136c-0.006,0.006-0.012,0.012-0.019,0.019   c-0.006,0.012-0.012,0.024-0.025,0.031c-0.012,0.019-0.019,0.031-0.031,0.049c-0.012,0.024-0.031,0.049-0.043,0.074   c-0.006,0.006-0.006,0.019-0.006,0.025c-0.031,0.067-0.056,0.136-0.075,0.209c-0.012,0.074-0.019,0.154-0.012,0.228v0.037   c0.012,0.074,0.025,0.154,0.05,0.222c0,0.006,0,0.006,0,0.006c0.025,0.067,0.056,0.129,0.099,0.191   c0.006,0.012,0.012,0.018,0.019,0.03c0.006,0,0.006,0.006,0.006,0.006l0.05,0.068l1.883,4.282l-3.013,10.745l1.187,2.416   l3.877,7.874l3.865-7.88l1.187-2.416L82.05,79.799L83.933,75.51z"></path><path d="M153.521,77.853L129.174,66.96l15.639-21.608c0.578-0.799,0.633-1.862,0.14-2.716c-0.492-0.854-1.448-1.354-2.422-1.236   l-26.532,2.738l2.738-26.532c0.102-0.98-0.383-1.929-1.236-2.422c-0.853-0.492-1.917-0.439-2.716,0.14l-12.686,9.181   c0.748,1.572,1.333,3.219,1.708,4.936l9.382-6.791l-2.48,24.034c-0.078,0.749,0.187,1.492,0.719,2.024   c0.531,0.532,1.271,0.804,2.024,0.719l24.034-2.48L123.32,66.519c-0.441,0.609-0.584,1.386-0.39,2.113   c0.195,0.727,0.707,1.327,1.394,1.635l22.055,9.868l-12.873,5.76l3.079,4.1l16.936-7.578c0.899-0.403,1.479-1.297,1.479-2.282   S154.421,78.257,153.521,77.853z"></path><path d="M13.621,80.135l22.055-9.868c0.687-0.308,1.198-0.908,1.394-1.635c0.194-0.728,0.052-1.504-0.39-2.113L22.514,46.946   l24.034,2.48c0.752,0.086,1.493-0.187,2.024-0.719c0.532-0.532,0.797-1.275,0.719-2.024l-2.48-24.034l9.38,6.789   c0.355-1.742,0.872-3.441,1.544-5.055l-12.519-9.061c-0.8-0.579-1.865-0.632-2.716-0.14c-0.854,0.493-1.338,1.441-1.236,2.422   l2.738,26.532L17.47,41.399c-0.974-0.114-1.93,0.383-2.422,1.236c-0.493,0.854-0.438,1.917,0.14,2.716L30.826,66.96L6.479,77.853   C5.579,78.257,5,79.15,5,80.135s0.579,1.879,1.479,2.282l16.202,7.249l3.08-4.1L13.621,80.135z"></path><path d="M137.945,97.694c-0.08-0.13-0.17-0.27-0.26-0.41l-17.76-23.65c-3.44-4.58-8.9-7.31-14.6-7.31h-13.37l-0.38-2.8   c2.56-1.99,4.45-4.77,5.3-7.93c0.18-0.71,0.34-1.3,0.47-1.79c2.08-0.6,3.67-2.33,4.01-4.52l0.87-5.47   c0.28-1.78-0.23-3.58-1.41-4.95c-0.15-0.18-0.31-0.35-0.48-0.5c0.33-1.36,0.5-2.76,0.52-4.17c0-0.03,0-0.06-0.01-0.1   c-0.1-5.49-2.45-10.6-6.49-14.26c-0.14-0.89-0.62-1.69-1.34-2.24c-3.47-2.64-7.78-4.08-12.14-4.08h-1.76   c-3.54,0-6.76,1.52-9.59,3.39c-0.88-0.11-1.81,0.13-2.55,0.69c-4.56,3.47-7.7,10.1-7.83,16.6c0.02,1.41,0.19,2.8,0.52,4.16   c-0.17,0.16-0.33,0.33-0.48,0.51c-1.18,1.37-1.69,3.17-1.41,4.97l0.87,5.45c0.36,2.2,1.94,3.92,4.01,4.52   c0.13,0.49,0.29,1.08,0.47,1.79c0.85,3.16,2.74,5.94,5.3,7.93l-0.38,2.8h-15.26c-5.14,0.03-10.03,2.45-13.12,6.56l-18.32,24.39   c-0.09,0.14-0.18,0.28-0.27,0.41c-1.51,2.79-1.69,6.07-0.5,9.02c0.04,0.09,0.08,0.18,0.13,0.27l15.79,31.02   c2.21,5.2,8.15,7.75,13.44,5.82v7.55c0,1.93,1.57,3.5,3.5,3.5c0.96,0,1.84-0.39,2.47-1.03c0.64-0.63,1.03-1.51,1.03-2.47v-64.92   c0-1.26-0.58-2.5-1.65-3.16c-1.48-0.92-3.34-0.62-4.46,0.63l-15.13,16.88c-0.97,1.09-1.17,2.66-0.5,3.95l9.46,18.18l-6.31,3.26   l-11.32-22.23c-0.33-0.9-0.29-1.87,0.1-2.72l18.14-24.15c1.77-2.36,4.58-3.76,7.51-3.76c0,0,0,0,0.01,0h14.02v17.81   c0,0.39,0.09,0.77,0.26,1.12l10.44,20.78v39.33c0,1.38,1.11,2.5,2.5,2.5c0.69,0,1.31-0.28,1.77-0.73c0.45-0.45,0.73-1.08,0.73-1.77   v-39.33l10.44-20.78c0.17-0.35,0.26-0.73,0.26-1.12v-17.81h12.12c3.51,0,6.88,1.69,9,4.51l17.58,23.41   c0.39,0.85,0.43,1.83,0.1,2.72l-11.56,22.69l-6.31-3.27l9.69-18.63c0.67-1.29,0.48-2.86-0.5-3.95l-15.12-16.88   c-0.97-1.08-2.5-1.45-3.86-0.94c-1.35,0.52-2.25,1.82-2.25,3.27l-0.01,65.11c0,1.93,1.57,3.5,3.5,3.5c0.97,0,1.84-0.39,2.47-1.03   c0.64-0.63,1.03-1.51,1.03-2.47v-7.54c1.16,0.42,2.38,0.64,3.64,0.64c4.3,0,8.12-2.53,9.79-6.46l15.81-31.02   c0.04-0.09,0.08-0.18,0.12-0.27C139.635,103.764,139.455,100.484,137.945,97.694z M42.525,103.664l7.41-8.27v22.52L42.525,103.664z    M46.955,127.365l2.75,5.29c0.15,0.4,0.22,0.8,0.22,1.21c0,1.46-0.89,2.77-2.27,3.32c-1.86,0.76-3.98-0.13-4.73-1.98   c-0.04-0.09-0.08-0.18-0.13-0.27l-2.18-4.29L46.955,127.365z M88.205,90.544l-8.2,16.33l-8.2-16.33v-17.3   c1.42-0.3,2.55-1.45,2.75-2.94l0.45-3.24c1.62,0.57,3.3,0.88,4.99,0.88s3.38-0.31,5-0.88l0.45,3.24c0.2,1.49,1.33,2.65,2.76,2.95   V90.544z M90.105,53.794c-0.56,2.1-2,3.91-3.94,4.94l-2.39,1.27c-2.36,1.25-5.19,1.25-7.55-0.01l-2.39-1.26   c-1.94-1.03-3.38-2.84-3.94-4.94c-0.87-3.26-1.01-3.86-1.02-3.9c-0.31-1.66-1.76-2.86-3.45-2.86h-0.05l-0.56-3.47   c0.81-0.2,1.52-0.69,2-1.38c0.09-0.13,0.09-0.42,0.05-0.78c-0.22-1.94,0.32-3.89,1.4-5.51l1.38-2.06c2.31,0.09,4.65-0.67,6.47-2.17   l1.64,1.12c3.71,2.52,8.19,3.47,12.54,2.69l0.65,0.72c1.46,1.6,2.01,3.71,2.19,5.87c0.01,0.04,0.02,0.07,0.03,0.09   c0.48,0.71,1.2,1.21,2.01,1.41l-0.55,3.47h-0.05c-1.69,0-3.13,1.14-3.43,2.79C91.115,49.934,90.975,50.534,90.105,53.794z    M109.095,95.405l7.4,8.27l-7.41,14.24L109.095,95.405z M116.225,134.944c-0.05,0.08-0.09,0.17-0.13,0.26   c-0.55,1.37-1.88,2.26-3.37,2.26c-0.48,0-0.93-0.09-1.37-0.271c-1.38-0.55-2.27-1.86-2.26-3.33c0-0.4,0.07-0.81,0.21-1.2l2.52-4.84   l6.35,3.29L116.225,134.944z"></path></g></svg>