<svg fill="#229897" xmlns="http://www.w3.org/2000/svg" xmlns:xlink="http://www.w3.org/1999/xlink" version="1.1" x="0px" y="0px" viewBox="0 0 264.92 405.996" style="enable-background:new 0 0 264.92 405.996;" xml:space="preserve"><g><ellipse transform="matrix(0.9941 -0.1085 0.1085 0.9941 -18.8125 4.0697)" cx="27.987" cy="174.891" rx="22.496" ry="22.494"></ellipse><path d="M46.089,203.662c-2.149-0.457-4.279-0.002-5.991,1.101c-1.729,1.115-3.033,2.892-3.493,5.064   c-0.08,0.394-0.575,2.808-0.58,6.396c0.021,5.011,0.932,12.741,6.517,19.707c2.773,3.44,6.707,6.481,11.668,8.504   c3.661,1.503,7.848,2.482,12.609,2.895c1.298,0.112,2.646,0.174,4.03,0.202c0.429,0.008,0.848,0.025,1.284,0.025   c1.393,0,2.844-0.054,4.328-0.14c2.18-0.127,4.448-0.336,6.842-0.656c4.377-0.587,7.454-4.611,6.869-8.989   c-0.204-1.521-0.828-2.877-1.732-3.984c-0.855-1.049-1.963-1.87-3.221-2.376c-1.239-0.499-2.618-0.699-4.036-0.509   c-3.41,0.456-6.419,0.654-9.051,0.654c-3.525,0-6.357-0.358-8.641-0.907c-1.217-0.292-2.284-0.635-3.2-1.012   c-3.925-1.674-5.529-3.67-6.737-6.014c-1.153-2.332-1.54-5.194-1.529-7.399c-0.001-0.626,0.027-1.181,0.064-1.656   c0.024-0.306,0.051-0.585,0.078-0.806c0.035-0.28,0.067-0.482,0.086-0.591c0.008-0.043,0.012-0.072,0.015-0.084   c0.001-0.005,0.001-0.007,0.001-0.007l-0.002-0.001C53.143,208.779,50.388,204.573,46.089,203.662z"></path><path d="M0,0l4.587,31.061l22.333,4.333l3,23.667l81.619,18.847c-1.628,21.487-3.577,45.753-5.616,67.893   c-0.951,10.322-1.921,20.175-2.887,29.07c-2.783-0.07-5.524,1.313-7.062,3.87c-5.639,9.351-11.415,14.597-16.688,17.628   c-5.282,3.016-10.2,3.918-14.563,3.932c-3.836,0.002-7.201-0.752-9.537-1.5c-1.165-0.372-2.072-0.74-2.643-0.99   c-0.087-0.039-0.15-0.068-0.222-0.101c-2.377-1.645-5.077-2.518-7.913-2.253c-8.758,0.819-18.9,9.291-18.801,24.775   c0.249,20.421,3.009,33.116,11.877,51.859c-3.305,6.797-5.049,15.016-5.74,18.898c-1.698,0.794-2.655,2.698-2.185,4.586   l4.993,20.055c0.534,2.142,2.705,3.447,4.848,2.914l13.262-3.303c2.144-0.533,3.448-2.703,2.915-4.848l-4.994-20.055   c-0.332-1.336-1.303-2.346-2.505-2.788c0.099-1.034,0.228-2.156,0.39-3.341c2.401,1.096,4.856,1.517,7.285,1.5   c1.789,1.245,4.502,3.536,7.258,7.414c4.693,6.675,9.896,18.218,9.94,39.01c0,6.936-0.602,14.892-2.044,23.973   c-1.083,6.817,3.567,13.224,10.386,14.307c0.663,0.105,1.322,0.156,1.973,0.156c6.039,0,11.354-4.389,12.333-10.542   c1.625-10.249,2.35-19.512,2.352-27.893c0.047-21.563-4.917-37.425-11.339-48.494c5.217,0.612,10.748,1.864,16.117,4.091   c8.437,3.525,16.551,9.218,23.534,19.384c3.893,5.701,11.671,7.167,17.372,3.274c5.701-3.894,7.167-11.67,3.274-17.374h-0.002   c-9.734-14.314-22.294-23.33-34.63-28.389c-12.355-5.097-24.413-6.467-34.161-6.476c-2.809,0.003-5.418,0.123-7.815,0.304   c-0.428-1.114-0.83-2.244-1.215-3.385c0.958-0.959,2.904-2.929,5.4-5.559c-0.797,0.026-1.586,0.044-2.354,0.044   c-1.072,0-2.119-0.033-3.153-0.083c-0.451,0.465-0.866,0.891-1.236,1.269c-0.131-0.456-0.27-0.909-0.396-1.367   c-5.172-0.39-9.835-1.42-13.901-3.091c-4.998-2.038-9.31-5.185-12.464-9.097c-4.584-5.719-6.925-12.767-6.958-20.953   c0.004-3.416,0.434-5.893,0.618-6.798c0.682-3.221,2.892-5.813,5.757-7.088c1.24-0.552,2.602-0.861,4.019-0.861   c0.697,0,1.397,0.073,2.086,0.22c5.347,1.135,8.811,6.416,7.724,11.772c-0.023,0.142-0.047,0.309-0.075,0.536   c-0.033,0.263-0.068,0.625-0.094,1.05c-0.021,0.345-0.034,0.729-0.033,1.155c-0.007,1.155,0.111,4.068,1.321,6.518   c1.062,2.059,2.399,3.638,5.729,5.058c0.646,0.267,1.346,0.499,2.085,0.706c-0.661-4.395-1.213-8.57-1.748-12.337   c1.069,0.077,2.165,0.132,3.311,0.136c0.028,0,0.058,0,0.087,0c6.652,0,14.556-1.519,22.438-6.051   c4.311-2.467,8.57-5.812,12.648-10.153c-0.375,2.5-0.745,4.751-1.107,6.707c-0.723,3.995-1.492,6.87-1.989,7.838   c-2.148,4.405-6.001,9.824-10.276,15.162c1.218,0.582,2.301,1.406,3.191,2.411c4.339-5.415,8.296-10.979,10.676-15.811   c1.136-2.393,2.041-6.835,3.104-13.393c0.412-2.595,0.831-5.515,1.254-8.689c1.693-2.244,3.344-4.681,4.938-7.334   c2.275-3.786,1.052-8.703-2.735-10.978c-0.005-0.003-0.009-0.005-0.014-0.007c3.051-27.965,6.144-65.532,8.545-97.182L137.92,84   l8.667,67.728l31.904,71.761l10.5,130.493l-13.816,52.014h89.745V0H0z M45.379,282.384c-0.474,1.967-0.779,3.813-0.975,5.371   l-8.423,2.098c0.661-3.833,1.691-9.135,3.116-14.596C41.07,278.45,43.185,280.764,45.379,282.384z"></path></g></svg>