<svg fill="#FFFFFF" xmlns="http://www.w3.org/2000/svg" xmlns:xlink="http://www.w3.org/1999/xlink" version="1.1" x="0px" y="0px" viewBox="0 0 64 64" style="enable-background:new 0 0 64 64;" xml:space="preserve"><g><path d="M43,39.4c-0.4-0.4-1-0.7-1.7-0.7H21.4c-1.3,0-2.4,1.1-2.4,2.4c0,0.7,0.3,1.3,0.7,1.7c0.4,0.4,1,0.7,1.7,0.7h2.5v13.8h14.9   V43.5h2.5c1.3,0,2.4-1.1,2.4-2.4C43.7,40.5,43.5,39.8,43,39.4z M36.3,54.9h-9.9V43.3h9.9V54.9z"></path><path d="M15.2,25.9c0,2.2-1.6,3.9-3.8,3.9c-2.2,0-3.9-1.6-3.9-3.8c0-2.1,1.7-3.9,3.8-3.9C13.5,22,15.2,23.7,15.2,25.9z"></path><path d="M13.6,55.8c1,0,1.9,0,2.9-0.1c0.9,0,1.7-0.1,2.5-0.1c1,0,1.8-0.8,1.8-1.8S20,52,19,52c-0.9,0-1.8,0-2.7,0.1   c-2,0.1-4,0.2-5.7-0.2c-1.4-0.3-2.6-1.2-3.5-2.4c-0.8-1.1-1-2.4-1.2-4c0-0.2-0.1-0.5-0.1-0.7l-1.2-7.8c-0.1-1-1.1-1.6-2-1.5   c-1,0.1-1.6,1.1-1.5,2l1.2,7.8c0,0.2,0.1,0.5,0.1,0.7c0.3,1.8,0.5,3.7,1.8,5.5c1.4,1.9,3.4,3.3,5.6,3.8   C11.1,55.7,12.3,55.8,13.6,55.8z"></path><path d="M23.9,34.2h-2.3c-0.6,0-1.4,0-2.1,0c-0.3,0-0.6-0.1-0.9-0.2c-1.1-0.7-2.2-1.3-3.5-2.1c-0.8-0.5-1.9-1.1-4-0.9   c0,0-0.1,0-0.1,0c-2.1,0.2-3.5,2-3.4,4.2c0,0.1,0,0.3,0,0.4c0.2,3.3,0.5,6.6,0.6,9.9c0,1.3,0.3,2.3,0.9,3.1   c0.8,1.1,2.2,1.6,4.1,1.6c1.5,0,3,0,4.4,0c0.6,0,1.2,0,1.9,0c0.4,0,1.3,0,1.8,0c0.1,0,0.1,0,0.2,0c0.2,0,0.4-0.2,0.4-0.4V45   c0-0.2-0.2-0.4-0.4-0.4c-2.3-0.1-5.7-0.3-5.7-0.3l-0.3-5.7c0-0.3-0.1-0.6-0.1-0.9c0-0.4-0.1-0.8-0.1-1.2c0.1,0.1,0.2,0.1,0.4,0.2   c0.6,0.3,1.2,0.7,1.8,1c0.4,0.2,0.8,0.3,1.2,0.3c0.7,0,1.5,0,2.5,0c0.6,0,1.2,0,1.8,0c0.3,0,0.6,0,0.9,0c1.1,0,2-0.8,2-1.9   C26,35,25.1,34.2,23.9,34.2z"></path><g><path d="M47.1,25.6c0,2.3,1.7,4.1,4,4.1c2.3,0,4.1-1.7,4.1-4c0-2.3-1.8-4.1-4-4.1C49,21.5,47.1,23.3,47.1,25.6z"></path><path d="M49.7,56.3c-1,0-2-0.1-3-0.1c-0.9,0-1.8-0.1-2.6-0.1c-1,0-1.9-0.8-1.9-1.9s0.8-1.9,1.9-1.9c0.9,0,1.9,0,2.8,0.1    c2.1,0.1,4.2,0.2,6-0.2c1.4-0.3,2.8-1.2,3.7-2.5c0.8-1.2,1-2.5,1.3-4.2c0-0.3,0.1-0.5,0.1-0.8l1.2-8.2c0.2-1,1.1-1.7,2.1-1.6    c1,0.2,1.7,1.1,1.6,2.1l-1.2,8.2c0,0.2-0.1,0.5-0.1,0.7c-0.3,1.9-0.6,3.9-1.9,5.8c-1.5,2-3.5,3.5-5.9,4    C52.4,56.2,51.1,56.3,49.7,56.3z"></path><path d="M47.3,44.9c0,0-3.6,0.2-6,0.3c-0.2,0-0.4,0.2-0.4,0.5v5c0,0.2,0.2,0.4,0.4,0.4c0.6,0,1.6,0,2.1,0c2.2,0,4.3,0,6.6,0    c3.4,0,5.2-1.5,5.2-4.9c0.1-3.6,0.4-7.3,0.6-10.9c0.1-2.3-1.4-4.2-3.6-4.4c0,0-0.1,0-0.1,0c-0.7-0.1-1.4,0.1-2,0.4    c-1.1,0.5-1.9,1.6-2.1,3c-0.2,1.2-0.3,2.3-0.4,3.6c0,0.3,0,0.7-0.1,1L47.3,44.9z"></path></g><path d="M35.5,31c0-1.3-1.1-2.3-2.4-2.3c-1.3,0-2.3,1.1-2.3,2.4c0,1.3,1.1,2.3,2.3,2.3c0.7,0,1.3-0.3,1.7-0.7   C35.3,32.3,35.5,31.7,35.5,31z"></path><path d="M36.6,19.4l0.7-0.6c1.8-1.6,3.8-3.3,3.8-5.7c0-1.6-0.8-3.3-2.1-4.5l0,0c-1.4-1.3-3.4-2-5.7-2c-3.8,0-7.8,2.2-8.2,6.3   c0,0.3,0,0.4,0.4,0.4c1,0.1,2,0.2,2.9,0.4c0.2,0,0.4,0.1,0.5,0.1c0.2,0,0.3,0,0.5-0.6c0.5-1.8,1.9-2.8,3.7-2.8   c1.4,0,2.6,0.7,3.1,1.7c0.3,0.6,0.5,1.7-0.5,3c-0.5,0.7-1.2,1.3-1.9,1.8c-0.9,0.6-1.8,1.3-2.2,2.4c-0.6,1.4-0.7,3.4-0.6,5.2   c0,0.3,0.1,0.3,0.3,0.3c0.6,0,1.2,0,1.7,0c0.1,0,0.2,0,0.4,0l0.6,0c0.2,0,0.4,0,0.6,0c0.3,0,0.4-0.1,0.4-0.1   c0.1-0.1,0.1-0.2,0.1-0.4c0-0.9,0-1.7,0.1-2.5C35.2,20.7,35.9,20.1,36.6,19.4z"></path></g></svg>