<svg fill="#229897" xmlns="http://www.w3.org/2000/svg" xmlns:xlink="http://www.w3.org/1999/xlink" version="1.1" x="0px" y="0px" viewBox="0 0 437.733 307.188" style="enable-background:new 0 0 437.733 307.188;" xml:space="preserve"><g><path d="M81.417,291.471c-0.665-0.179-1.361-0.283-2.083-0.283H60.666v-39.334h19.14v-7.722h-41.62   c-8.548,0-15.501-6.952-15.501-15.5v-9.09v-3.412v-54.276H20c-11.047,0-20,8.955-20,20v50c0,11.047,8.953,20,20,20h23.334v39.334   H24.666c-4.418,0-8,3.58-8,8c0,4.418,3.582,8,8,8h54.668c4.418,0,8-3.582,8-8c0-0.465-0.048-0.918-0.124-1.361   C84.728,296.298,82.715,294.097,81.417,291.471z"></path><circle cx="55.731" cy="117.058" r="22.5"></circle><path d="M126.166,216.131h-21.73c0.645,0.468,1.264,0.972,1.831,1.538c2.884,2.886,4.54,6.881,4.54,10.963v12.499h2.857   l0.002,43.502c0,6.902,5.596,12.498,12.5,12.498c6.904,0,12.5-5.596,12.5-12.498v-56.002c0-3.291-1.332-6.512-3.662-8.838   C132.678,217.463,129.457,216.131,126.166,216.131z"></path><path d="M25.687,228.631c0,6.904,5.596,12.5,12.5,12.5h38.546h6.074v43.502c0,6.902,5.596,12.5,12.5,12.5   c6.904,0,12.5-5.598,12.5-12.5v-56.002c0-3.291-1.332-6.51-3.66-8.84c-2.328-2.324-5.549-3.66-8.84-3.66H79.778v-57.704v-1.898   c2.933-1.542,6.712-3.908,10.573-7.394c3.928-3.559,7.919-8.327,10.908-14.511c2.997-6.176,4.936-13.744,4.927-22.559   c0-10.238-2.558-22.093-8.641-35.811c-0.877-1.975-2.458-3.415-4.313-4.167V0h-81v73.253c-0.973,0.776-1.781,1.787-2.322,3.003   c-6.087,13.718-8.643,25.572-8.643,35.809c-0.008,8.813,1.93,16.385,4.927,22.559c4.501,9.292,11.188,15.327,16.659,19.017   c0.987,0.665,1.936,1.255,2.833,1.78v3.007V228.631z M17.232,5h71.001v71.001H17.232V5z M17.27,112.065   c-0.002-7.55,1.886-17.191,7.268-29.322c0.254-0.57,0.427-1.154,0.539-1.742H82.38c0.112,0.588,0.286,1.173,0.539,1.744   c5.38,12.131,7.269,21.772,7.267,29.321c-0.01,6.517-1.373,11.525-3.328,15.591c-2.931,6.072-7.387,10.145-11.205,12.722   c-1.898,1.281-3.611,2.171-4.792,2.713c-0.282,0.13-0.531,0.239-0.747,0.331H37.34c-1.793-0.765-6.031-2.838-9.988-6.602   C22.211,131.846,17.344,124.619,17.27,112.065z"></path><path d="M230.951,291.472c-0.666-0.18-1.361-0.284-2.084-0.284h-18.668v-39.334h19.141v-7.722h-41.621   c-8.547,0-15.5-6.952-15.5-15.5v-9.09v-3.412v-54.276h-2.686c-11.047,0-20,8.955-20,20v50c0,11.047,8.953,20,20,20h23.334v39.334   h-18.668c-4.418,0-8,3.58-8,8c0,4.418,3.582,8,8,8h54.668c4.418,0,8-3.582,8-8c0-0.465-0.048-0.918-0.124-1.361   C234.263,296.298,232.249,294.097,230.951,291.472z"></path><circle cx="205.266" cy="117.058" r="22.5"></circle><path d="M275.699,216.131h-21.73c0.645,0.468,1.266,0.972,1.832,1.538c2.883,2.886,4.539,6.881,4.539,10.963v12.499h2.857   l0.002,43.502c0,6.902,5.596,12.498,12.5,12.498s12.5-5.596,12.5-12.498v-56.002c0-3.291-1.332-6.512-3.662-8.838   C282.211,217.463,278.99,216.131,275.699,216.131z"></path><path d="M175.221,228.631c0,6.904,5.596,12.5,12.5,12.5h38.545h6.074v43.502c0,6.902,5.596,12.5,12.5,12.5s12.5-5.598,12.5-12.5   v-56.002c0-3.291-1.332-6.51-3.66-8.84c-2.328-2.324-5.549-3.66-8.84-3.66h-15.527v-57.704v-1.899   c2.934-1.541,6.711-3.908,10.572-7.393c3.928-3.559,7.918-8.327,10.908-14.511c2.997-6.176,4.935-13.744,4.926-22.559   c0-10.238-2.557-22.093-8.64-35.811c-0.877-1.975-2.458-3.415-4.313-4.167V0h-81v73.253c-0.973,0.776-1.781,1.787-2.322,3.003   c-6.087,13.718-8.64,25.572-8.643,35.809c-0.008,8.813,1.93,16.385,4.927,22.559c4.5,9.292,11.188,15.327,16.659,19.017   c0.987,0.665,1.936,1.255,2.834,1.78v3.007V228.631z M166.766,5h71v71.001h-71V5z M166.803,112.065   c-0.002-7.55,1.885-17.191,7.268-29.322c0.254-0.57,0.427-1.154,0.539-1.742h57.304c0.112,0.588,0.286,1.173,0.539,1.744   c5.38,12.131,7.269,21.772,7.269,29.321c-0.009,6.517-1.372,11.525-3.33,15.591c-2.932,6.072-7.387,10.145-11.205,12.722   c-1.898,1.281-3.611,2.171-4.792,2.713c-0.282,0.13-0.531,0.239-0.747,0.331h-32.773c-1.793-0.765-6.031-2.838-9.988-6.602   C171.744,131.846,166.877,124.619,166.803,112.065z"></path><path d="M380.484,291.471c-0.665-0.179-1.361-0.283-2.083-0.283h-18.668v-39.334h19.14v-7.722h-41.62   c-8.548,0-15.501-6.952-15.501-15.5v-9.09v-3.412v-54.276h-2.685c-11.047,0-20,8.955-20,20v50c0,11.047,8.953,20,20,20h23.334   v39.334h-18.668c-4.418,0-8,3.58-8,8c0,4.418,3.582,8,8,8h54.668c4.418,0,8-3.582,8-8c0-0.465-0.048-0.918-0.124-1.361   C383.797,296.298,381.782,294.097,380.484,291.471z"></path><circle cx="354.799" cy="117.058" r="22.5"></circle><path d="M425.233,216.131h-21.731c0.645,0.468,1.266,0.972,1.832,1.538c2.884,2.886,4.54,6.881,4.54,10.963v12.499h2.857   l0.002,43.502c0,6.902,5.596,12.498,12.5,12.498s12.5-5.596,12.5-12.498v-56.002c0-3.291-1.332-6.512-3.662-8.838   C431.745,217.463,428.524,216.131,425.233,216.131z"></path><path d="M324.754,228.631c0,6.904,5.596,12.5,12.5,12.5H375.8h6.074v43.502c0,6.902,5.596,12.5,12.5,12.5s12.5-5.598,12.5-12.5   v-56.002c0-3.291-1.332-6.51-3.66-8.84c-2.328-2.324-5.549-3.66-8.84-3.66h-15.528v-57.704v-1.898   c2.934-1.542,6.712-3.908,10.574-7.394c3.928-3.559,7.919-8.327,10.908-14.511c2.994-6.176,4.936-13.744,4.927-22.559   c-0.003-10.238-2.558-22.093-8.643-35.811c-0.876-1.976-2.456-3.415-4.313-4.167V0h-81v73.253c-0.973,0.776-1.781,1.787-2.32,3.003   c-6.087,13.718-8.643,25.572-8.643,35.809c-0.008,8.813,1.93,16.385,4.927,22.559c4.498,9.292,11.186,15.327,16.657,19.017   c0.987,0.665,1.936,1.255,2.834,1.78v3.007V228.631z M316.299,5H387.3v71.001h-71.001V5z M316.336,112.065   c0-7.55,1.888-17.191,7.267-29.322c0.254-0.57,0.427-1.154,0.539-1.742h57.305c0.113,0.588,0.287,1.173,0.54,1.744   c5.378,12.131,7.269,21.772,7.267,29.321c-0.01,6.517-1.372,11.525-3.33,15.591c-2.932,6.072-7.387,10.145-11.205,12.722   c-1.896,1.281-3.611,2.171-4.789,2.713c-0.283,0.13-0.532,0.239-0.748,0.331h-32.775c-1.793-0.765-6.029-2.838-9.988-6.602   C321.277,131.846,316.41,124.619,316.336,112.065z"></path></g></svg>