<svg xmlns="http://www.w3.org/2000/svg" xmlns:xlink="http://www.w3.org/1999/xlink" width="100" height="100" viewBox="0 0 100 100"><g><g transform="translate(50 50) scale(0.69 0.69) rotate(0) translate(-50 -50)" style="fill:#229897"><svg fill="#229897" xmlns="http://www.w3.org/2000/svg" xmlns:xlink="http://www.w3.org/1999/xlink" version="1.1" x="0px" y="0px" viewBox="0 0 64 64" style="enable-background:new 0 0 64 64;" xml:space="preserve"><g><text transform="matrix(1 0 0 1 -76.29 -405)" style="" font-family="&apos;Montserrat-Regular&apos;" font-size="10px">idea</text><text transform="matrix(1 0 0 1 -2.3198 -405)"><tspan x="0" y="0" style="" font-family="&apos;Montserrat-Regular&apos;" font-size="10px">brains</tspan><tspan x="38.669" y="0" style="" font-family="&apos;Montserrat-Regular&apos;" font-size="10px">t</tspan><tspan x="43.899" y="0" style="" font-family="&apos;Montserrat-Regular&apos;" font-size="10px">orm</tspan></text><text transform="matrix(1 0 0 1 13.8403 -309)" style="" font-family="&apos;Montserrat-Regular&apos;" font-size="10px">policy</text><text transform="matrix(1 0 0 1 107.6899 -405)" style="" font-family="&apos;Montserrat-Regular&apos;" font-size="10px">leader</text><text transform="matrix(1 0 0 1 202.7402 -405)"><tspan x="0" y="0" style="" font-family="&apos;Montserrat-Regular&apos;" font-size="10px">or</tspan><tspan x="15.35" y="0" style="" font-family="&apos;Montserrat-Regular&apos;" font-size="10px">a</tspan><tspan x="21.94" y="0" style="" font-family="&apos;Montserrat-Regular&apos;" font-size="10px">t</tspan><tspan x="27.17" y="0" style="" font-family="&apos;Montserrat-Regular&apos;" font-size="10px">or</tspan></text><text transform="matrix(1 0 0 1 294.6753 -405)"><tspan x="0" y="0" style="" font-family="&apos;Montserrat-Regular&apos;" font-size="10px">business</tspan><tspan x="-9.195" y="12" style="" font-family="&apos;Montserrat-Regular&apos;" font-size="10px">c</tspan><tspan x="-2.365" y="12" style="" font-family="&apos;Montserrat-Regular&apos;" font-size="10px">onnection</tspan></text><text transform="matrix(1 0 0 1 405.5952 -405)" style="" font-family="&apos;Montserrat-Regular&apos;" font-size="10px">SEO</text><text transform="matrix(1 0 0 1 -94.7397 -309)" style="" font-family="&apos;Montserrat-Regular&apos;" font-size="10px">developer</text><text transform="matrix(1 0 0 1 114.7451 -309)"><tspan x="0" y="0" style="" font-family="&apos;Montserrat-Regular&apos;" font-size="10px">D</tspan><tspan x="7.66" y="0" style="" font-family="&apos;Montserrat-Regular&apos;" font-size="10px">at</tspan><tspan x="19.25" y="0" style="" font-family="&apos;Montserrat-Regular&apos;" font-size="10px">a</tspan><tspan x="-11.475" y="12" style="" font-family="&apos;Montserrat-Regular&apos;" font-size="10px">Security</tspan></text><text transform="matrix(1 0 0 1 216.4199 -309)" style="" font-family="&apos;Montserrat-Regular&apos;" font-size="10px">HR</text><text transform="matrix(1 0 0 1 294.2251 -309)"><tspan x="0" y="0" style="" font-family="&apos;Montserrat-Regular&apos;" font-size="10px">L</tspan><tspan x="5.24" y="0" style="" font-family="&apos;Montserrat-Regular&apos;" font-size="10px">o</tspan><tspan x="13.14" y="0" style="" font-family="&apos;Montserrat-Regular&apos;" font-size="10px">gistics</tspan></text><text transform="matrix(1 0 0 1 392.0103 -309)"><tspan x="0" y="0" style="" font-family="&apos;Montserrat-Regular&apos;" font-size="10px">ch</tspan><tspan x="14.92" y="0" style="" font-family="&apos;Montserrat-Regular&apos;" font-size="10px">a</tspan><tspan x="21.51" y="0" style="" font-family="&apos;Montserrat-Regular&apos;" font-size="10px">tb</tspan><tspan x="34.3" y="0" style="" font-family="&apos;Montserrat-Regular&apos;" font-size="10px">o</tspan><tspan x="42.31" y="0" style="" font-family="&apos;Montserrat-Regular&apos;" font-size="10px">t</tspan></text><text transform="matrix(1 0 0 1 -88.1396 -213)"><tspan x="0" y="0" style="" font-family="&apos;Montserrat-Regular&apos;" font-size="10px">venture</tspan><tspan x="3.45" y="12" style="" font-family="&apos;Montserrat-Regular&apos;" font-size="10px">c</tspan><tspan x="10.399" y="12" style="" font-family="&apos;Montserrat-Regular&apos;" font-size="10px">api</tspan><tspan x="27.33" y="12" style="" font-family="&apos;Montserrat-Regular&apos;" font-size="10px">t</tspan><tspan x="32.33" y="12" style="" font-family="&apos;Montserrat-Regular&apos;" font-size="10px">al</tspan></text><text transform="matrix(1 0 0 1 5.29 -213)"><tspan x="0" y="0" style="" font-family="&apos;Montserrat-Regular&apos;" font-size="10px">lever</tspan><tspan x="32.29" y="0" style="" font-family="&apos;Montserrat-Regular&apos;" font-size="10px">a</tspan><tspan x="39.38" y="0" style="" font-family="&apos;Montserrat-Regular&apos;" font-size="10px">ge</tspan></text><text transform="matrix(1 0 0 1 103.3701 -213)"><tspan x="0" y="0" style="" font-family="&apos;Montserrat-Regular&apos;" font-size="10px">cre</tspan><tspan x="20.75" y="0" style="" font-family="&apos;Montserrat-Regular&apos;" font-size="10px">a</tspan><tspan x="27.34" y="0" style="" font-family="&apos;Montserrat-Regular&apos;" font-size="10px">tive</tspan></text><text transform="matrix(1 0 0 1 187.4502 -213)"><tspan x="0" y="0" style="" font-family="&apos;Montserrat-Regular&apos;" font-size="10px">s</tspan><tspan x="6.16" y="0" style="" font-family="&apos;Montserrat-Regular&apos;" font-size="10px">o</tspan><tspan x="14.06" y="0" style="" font-family="&apos;Montserrat-Regular&apos;" font-size="10px">cial media</tspan><tspan x="2.19" y="12" style="" font-family="&apos;Montserrat-Regular&apos;" font-size="10px">a</tspan><tspan x="9.45" y="12" style="" font-family="&apos;Montserrat-Regular&apos;" font-size="10px">d</tspan><tspan x="17.19" y="12" style="" font-family="&apos;Montserrat-Regular&apos;" font-size="10px">vertising</tspan></text><text transform="matrix(1 0 0 1 298.46 -213)"><tspan x="0" y="0" style="" font-family="&apos;Montserrat-Regular&apos;" font-size="10px">se</tspan><tspan x="12.69" y="0" style="" font-family="&apos;Montserrat-Regular&apos;" font-size="10px">r</tspan><tspan x="19.84" y="0" style="" font-family="&apos;Montserrat-Regular&apos;" font-size="10px">vice</tspan><tspan x="7.48" y="12" style="" font-family="&apos;Montserrat-Regular&apos;" font-size="10px">mind</tspan></text><text transform="matrix(1 0 0 1 396.4004 -213)"><tspan x="0" y="0" style="" font-family="&apos;Montserrat-Regular&apos;" font-size="10px">t</tspan><tspan x="5" y="0" style="" font-family="&apos;Montserrat-Regular&apos;" font-size="10px">arget</tspan></text><text transform="matrix(1 0 0 1 -102.6899 -117)"><tspan x="0" y="0" style="" font-family="&apos;Montserrat-Regular&apos;" font-size="10px">presen</tspan><tspan x="41.1" y="0" style="" font-family="&apos;Montserrat-Regular&apos;" font-size="10px">ta</tspan><tspan x="52.69" y="0" style="" font-family="&apos;Montserrat-Regular&apos;" font-size="10px">tion</tspan></text><text transform="matrix(1 0 0 1 6.1704 -117)"><tspan x="0" y="0" style="" font-family="&apos;Montserrat-Regular&apos;" font-size="10px">str</tspan><tspan x="19.06" y="0" style="" font-family="&apos;Montserrat-Regular&apos;" font-size="10px">a</tspan><tspan x="25.65" y="0" style="" font-family="&apos;Montserrat-Regular&apos;" font-size="10px">tegy</tspan></text><text transform="matrix(1 0 0 1 115.9453 -117)"><tspan x="0" y="0" style="" font-family="&apos;Montserrat-Regular&apos;" font-size="10px">Web</tspan><tspan x="-18.685" y="12" style="" font-family="&apos;Montserrat-Regular&apos;" font-size="10px">developer</tspan></text><text transform="matrix(1 0 0 1 203.7554 -117)"><tspan x="0" y="0" style="" font-family="&apos;Montserrat-Regular&apos;" font-size="10px">global</tspan><tspan x="-5.08" y="12" style="" font-family="&apos;Montserrat-Regular&apos;" font-size="10px">business</tspan></text><text transform="matrix(1 0 0 1 293.9302 -117)"><tspan x="0" y="0" style="" font-family="&apos;Montserrat-Regular&apos;" font-size="10px">c</tspan><tspan x="6.83" y="0" style="" font-family="&apos;Montserrat-Regular&apos;" font-size="10px">om</tspan><tspan x="24.34" y="0" style="" font-family="&apos;Montserrat-Regular&apos;" font-size="10px">p</tspan><tspan x="30.64" y="0" style="" font-family="&apos;Montserrat-Regular&apos;" font-size="10px">any</tspan><tspan x="4.835" y="12" style="" font-family="&apos;Montserrat-Regular&apos;" font-size="10px">profile</tspan></text><text transform="matrix(1 0 0 1 388.3452 -117)"><tspan x="0" y="0" style="" font-family="&apos;Montserrat-Regular&apos;" font-size="10px">empl</tspan><tspan x="27.87" y="0" style="" font-family="&apos;Montserrat-Regular&apos;" font-size="10px">o</tspan><tspan x="35.95" y="0" style="" font-family="&apos;Montserrat-Regular&apos;" font-size="10px">yee</tspan><tspan x="13.02" y="12" style="" font-family="&apos;Montserrat-Regular&apos;" font-size="10px">c</tspan><tspan x="19.97" y="12" style="" font-family="&apos;Montserrat-Regular&apos;" font-size="10px">ard</tspan></text><text transform="matrix(1 0 0 1 -89.3247 -21)"><tspan x="0" y="0" style="" font-family="&apos;Montserrat-Regular&apos;" font-size="10px">business</tspan><tspan x="1.245" y="12" style="" font-family="&apos;Montserrat-Regular&apos;" font-size="10px">p</tspan><tspan x="7.545" y="12" style="" font-family="&apos;Montserrat-Regular&apos;" font-size="10px">artner</tspan></text><text transform="matrix(1 0 0 1 9.1753 -21)"><tspan x="0" y="0" style="" font-family="&apos;Montserrat-Regular&apos;" font-size="10px">s</tspan><tspan x="6.16" y="0" style="" font-family="&apos;Montserrat-Regular&apos;" font-size="10px">t</tspan><tspan x="11.16" y="0" style="" font-family="&apos;Montserrat-Regular&apos;" font-size="10px">artup</tspan></text><text transform="matrix(1 0 0 1 104.0103 -21)"><tspan x="0" y="0" style="" font-family="&apos;Montserrat-Regular&apos;" font-size="10px">re</tspan><tspan x="13.76" y="0" style="" font-family="&apos;Montserrat-Regular&apos;" font-size="10px">t</tspan><tspan x="18.76" y="0" style="" font-family="&apos;Montserrat-Regular&apos;" font-size="10px">ailer</tspan></text><text transform="matrix(1 0 0 1 210.3901 -21)"><tspan x="0" y="0" style="" font-family="&apos;Montserrat-Regular&apos;" font-size="10px">p</tspan><tspan x="6.71" y="0" style="" font-family="&apos;Montserrat-Regular&apos;" font-size="10px">l</tspan><tspan x="12.02" y="0" style="" font-family="&apos;Montserrat-Regular&apos;" font-size="10px">an</tspan></text><text transform="matrix(1 0 0 1 296.2603 -21)" style="" font-family="&apos;Montserrat-Regular&apos;" font-size="10px">funding</text><text transform="matrix(1 0 0 1 398.5503 -21)" style="" font-family="&apos;Montserrat-Regular&apos;" font-size="10px">vision</text><text transform="matrix(1 0 0 1 -88.5898 75)" style="" font-family="&apos;Montserrat-Regular&apos;" font-size="10px">building</text><text transform="matrix(1 0 0 1 11.1353 75)"><tspan x="0" y="0" style="" font-family="&apos;Montserrat-Regular&apos;" font-size="10px">c</tspan><tspan x="6.95" y="0" style="" font-family="&apos;Montserrat-Regular&apos;" font-size="10px">areer</tspan><tspan x="7.62" y="12" style="" font-family="&apos;Montserrat-Regular&apos;" font-size="10px">p</tspan><tspan x="13.919" y="12" style="" font-family="&apos;Montserrat-Regular&apos;" font-size="10px">a</tspan><tspan x="20.51" y="12" style="" font-family="&apos;Montserrat-Regular&apos;" font-size="10px">th</tspan></text><text transform="matrix(1 0 0 1 107.2554 75)" style="" font-family="&apos;Montserrat-Regular&apos;" font-size="10px">report</text><text transform="matrix(1 0 0 1 195.3652 75)"><tspan x="0" y="0" style="" font-family="&apos;Montserrat-Regular&apos;" font-size="10px">cus</tspan><tspan x="20.77" y="0" style="" font-family="&apos;Montserrat-Regular&apos;" font-size="10px">t</tspan><tspan x="26" y="0" style="" font-family="&apos;Montserrat-Regular&apos;" font-size="10px">omer</tspan><tspan x="4.525" y="12" style="" font-family="&apos;Montserrat-Regular&apos;" font-size="10px">support</tspan></text><text transform="matrix(1 0 0 1 293.9302 75)"><tspan x="0" y="0" style="" font-family="&apos;Montserrat-Regular&apos;" font-size="10px">c</tspan><tspan x="6.83" y="0" style="" font-family="&apos;Montserrat-Regular&apos;" font-size="10px">om</tspan><tspan x="24.34" y="0" style="" font-family="&apos;Montserrat-Regular&apos;" font-size="10px">p</tspan><tspan x="30.64" y="0" style="" font-family="&apos;Montserrat-Regular&apos;" font-size="10px">any</tspan><tspan x="13.815" y="12" style="" font-family="&apos;Montserrat-Regular&apos;" font-size="10px">visit</tspan></text><text transform="matrix(1 0 0 1 404.7549 75)"><tspan x="0" y="0" style="" font-family="&apos;Montserrat-Regular&apos;" font-size="10px">v</tspan><tspan x="6.76" y="0" style="" font-family="&apos;Montserrat-Regular&apos;" font-size="10px">d</tspan><tspan x="14.37" y="0" style="" font-family="&apos;Montserrat-Regular&apos;" font-size="10px">o</tspan><tspan x="-23.915" y="12" style="" font-family="&apos;Montserrat-Regular&apos;" font-size="10px">c</tspan><tspan x="-17.084" y="12" style="" font-family="&apos;Montserrat-Regular&apos;" font-size="10px">onference</tspan></text></g><path d="M54.617,32.924c0.373,0.155,0.804,0.069,1.09-0.217l6-6c0.391-0.391,0.391-1.023,0-1.414l-6-6  c-0.286-0.286-0.717-0.374-1.09-0.217C54.244,19.23,54,19.596,54,20v2h-7v-8h4c0.384,0,0.735-0.221,0.901-0.566  c0.167-0.347,0.12-0.758-0.121-1.059l-8-10c-0.379-0.475-1.183-0.475-1.562,0l-8,10c-0.24,0.301-0.287,0.712-0.121,1.059  C34.265,13.779,34.616,14,35,14h4v29h-2.889l-0.116-1.104c-0.041-0.391-0.306-0.72-0.678-0.844L27,38.28v-3.709  c0.087-0.068,0.177-0.129,0.263-0.2c3.419-2.85,5.447-6.958,5.689-11.371H33c0.552,0,1-0.447,1-1v-1c0-7.72-6.28-14-14-14  S6,13.28,6,21v2c0,0.375,0.209,0.718,0.542,0.89C6.687,23.964,6.844,24,7,24c0.041,0,0.081-0.014,0.122-0.019  c0.472,4.042,2.463,7.762,5.615,10.39c0.085,0.071,0.176,0.132,0.263,0.2v3.709l-8.316,2.772c-0.372,0.124-0.637,0.453-0.678,0.844  l-2,19c-0.03,0.281,0.062,0.563,0.251,0.773S2.717,62,3,62h11h12h11h23c1.103,0,2-0.897,2-2V45c0-0.206-0.04-0.4-0.098-0.587  c0.134-0.293,0.127-0.633-0.037-0.915C61.686,43.189,61.356,43,61,43h-1h-9V30h3v2C54,32.404,54.244,32.77,54.617,32.924z M40,12  h-2.919L43,4.601L48.919,12H46c-0.552,0-1,0.447-1,1v10v20h-4V13C41,12.447,40.552,12,40,12z M34.073,42.745l0.143,1.359  c0,0,0,0,0,0L35.889,60H27V46v-5v-0.612L34.073,42.745z M21.935,54.895L20,58.764l-1.935-3.869L20,47.801L21.935,54.895z M25,44.612  l-2.393-0.797L25,42.618V44.612z M15,44.612v-1.994l2.393,1.197L15,44.612z M8,21c0-6.617,5.383-12,12-12s12,5.383,12,12h-0.006H29  c-2.757,0-5-2.243-5-5c0-0.304-0.138-0.59-0.374-0.78c-0.236-0.189-0.546-0.26-0.843-0.196l-0.603,0.134  c-0.654,0.145-1.302,0.306-1.946,0.48c-0.056,0.015-0.11,0.033-0.165,0.048c-0.596,0.164-1.189,0.339-1.775,0.527l0,0  C14.659,17.382,11.213,19.017,8,21.107V21z M9.028,22.841c1.491-0.973,3.033-1.843,4.618-2.611c0.042-0.02,0.084-0.041,0.127-0.061  c0.473-0.227,0.95-0.443,1.43-0.651c0.111-0.048,0.223-0.095,0.334-0.142c0.43-0.182,0.863-0.357,1.299-0.524  c0.183-0.07,0.368-0.136,0.552-0.203c0.38-0.139,0.76-0.277,1.144-0.405c0.282-0.094,0.568-0.179,0.853-0.267  c0.301-0.093,0.602-0.19,0.905-0.277c0.601-0.17,1.206-0.33,1.817-0.474C22.689,20.503,25.559,23,29,23h1.973  c-0.239,3.819-2.028,7.365-4.99,9.834c-0.182,0.152-0.371,0.291-0.562,0.427c0,0-0.001,0-0.001,0.001  c-0.391,0.279-0.8,0.521-1.22,0.732c-0.027,0.013-0.053,0.028-0.08,0.041c-0.411,0.202-0.833,0.372-1.262,0.51  c-0.033,0.011-0.066,0.02-0.099,0.03c-0.436,0.135-0.879,0.24-1.326,0.309c-0.013,0.002-0.026,0.003-0.039,0.005  c-0.927,0.14-1.869,0.14-2.796,0c-0.009-0.001-0.019-0.002-0.028-0.004c-0.452-0.07-0.899-0.176-1.338-0.312  c-0.028-0.009-0.055-0.017-0.083-0.026c-0.435-0.139-0.861-0.311-1.276-0.515c-0.022-0.011-0.043-0.022-0.065-0.033  c-0.423-0.213-0.834-0.456-1.227-0.737c-0.001-0.001-0.002-0.001-0.003-0.002c-0.19-0.136-0.378-0.275-0.56-0.426  C11.027,30.342,9.228,26.725,9.028,22.841z M17.387,36.687c0.055,0.013,0.11,0.023,0.165,0.036c0.351,0.077,0.705,0.138,1.06,0.182  c0.057,0.007,0.113,0.016,0.17,0.022C19.187,36.97,19.593,37,20,37s0.813-0.03,1.218-0.073c0.057-0.006,0.113-0.015,0.17-0.022  c0.356-0.044,0.709-0.104,1.06-0.182c0.055-0.012,0.11-0.023,0.165-0.036c0.803-0.19,1.587-0.468,2.342-0.835  c0.015-0.007,0.03-0.012,0.045-0.019V39v1.382l-5,2.5l-5-2.5V39v-3.166c0.015,0.007,0.03,0.012,0.045,0.019  C15.799,36.22,16.584,36.498,17.387,36.687z M5.927,42.745L13,40.388V41v5v14H4.111L5.927,42.745z M15,46.721l3.544-1.181  l-2.509,9.198c-0.064,0.237-0.04,0.49,0.07,0.71L18.382,60H15V46.721z M21.618,60l2.276-4.553c0.11-0.22,0.135-0.473,0.07-0.71  l-2.509-9.198L25,46.721V60H21.618z M37.9,60l-0.263-2.5L37.058,52H43v1c0,0.553,0.448,1,1,1h5c0.552,0,1-0.447,1-1v-1h6.42  c0.715,0,1.381-0.386,1.736-1.008L60,47.766V60H37.9z M48,51v1h-3v-1v-1h3V51z M56.42,50H50v-1c0-0.553-0.448-1-1-1h-5  c-0.552,0-1,0.447-1,1v0.999l-6.153-0.003L36.321,45H40h6h4h9.277L56.42,50z M50,28c-0.552,0-1,0.447-1,1v14h-2V24h8  c0.552,0,1-0.447,1-1v-0.586L59.586,26L56,29.586V29c0-0.553-0.448-1-1-1H50z"></path></svg></g></g></svg>