<svg fill="#229897" xmlns="http://www.w3.org/2000/svg" xmlns:xlink="http://www.w3.org/1999/xlink" version="1.1" x="0px" y="0px" viewBox="0 0 64 64" enable-background="new 0 0 64 64" xml:space="preserve"><g display="none"><rect x="-324.076" y="-102.113" display="inline" fill="#229897" width="824.576" height="414.113"></rect></g><g display="none"><circle display="inline" fill="#229897" cx="32" cy="31.96" r="32"></circle><polyline display="inline" fill="#229897" points="50.701,51.129 50.701,11.017 16.724,11.017 16.724,56.32 45.51,56.32    45.51,56.321 50.701,51.129  "></polyline><polygon display="inline" fill="#229897" points="43.806,54.621 15,54.621 15,9.288 49,9.288 49,49.427  "></polygon><path display="inline" fill="#229897" d="M23.154,34.022c-1.672,0-3.028,1.356-3.028,3.028c0,1.672,1.356,3.028,3.028,3.028   c1.672,0,3.028-1.356,3.028-3.028h-3.028V34.022z"></path><path display="inline" fill="#229897" stroke="#229897" stroke-width="0.3" stroke-miterlimit="10" d="M23.477,33.699v3.028h3.028   C26.506,35.054,25.15,33.699,23.477,33.699z"></path><path display="inline" fill="#229897" d="M23.154,41.897c-1.672,0-3.028,1.356-3.028,3.028c0,1.672,1.356,3.028,3.028,3.028   c1.672,0,3.028-1.356,3.028-3.028h-3.028V41.897z"></path><path display="inline" fill="#229897" stroke="#229897" stroke-width="0.3" stroke-miterlimit="10" d="M23.477,41.573v3.028h3.028   C26.506,42.929,25.15,41.573,23.477,41.573z"></path><line display="inline" fill="#229897" stroke="#229897" stroke-miterlimit="10" x1="29.079" y1="35.794" x2="43.874" y2="35.794"></line><line display="inline" fill="#229897" stroke="#229897" stroke-miterlimit="10" x1="29.079" y1="38.279" x2="43.874" y2="38.279"></line><line display="inline" fill="#229897" stroke="#229897" stroke-miterlimit="10" x1="29.079" y1="43.38" x2="43.874" y2="43.38"></line><line display="inline" fill="#229897" stroke="#229897" stroke-miterlimit="10" x1="29.079" y1="45.865" x2="43.874" y2="45.865"></line><path display="inline" fill="#229897" d="M30.71,28.334h-9.347c-0.643,0-1.168-0.526-1.168-1.168v-7.807   c0-0.643,0.526-1.168,1.168-1.168h9.347c0.643,0,1.168,0.526,1.168,1.168v7.807C31.879,27.808,31.353,28.334,30.71,28.334z"></path><polygon display="inline" fill="#229897" points="24.586,21.124 28.29,23.262 24.586,25.4  "></polygon><rect x="34.75" y="17.558" display="inline" fill="#229897" width="9.124" height="2.93"></rect><rect x="34.75" y="26.046" display="inline" fill="#229897" width="9.124" height="2.93"></rect><rect x="34.75" y="21.802" display="inline" fill="#229897" width="9.124" height="2.93"></rect><polygon display="inline" fill="#229897" points="43.806,54.621 43.806,49.427 49,49.427  "></polygon></g><g display="none"><circle display="inline" fill="#229897" cx="32" cy="31.96" r="32"></circle><polyline display="inline" points="50.701,51.129 50.701,11.017 16.724,11.017 16.724,56.32 45.51,56.32 45.51,56.321    50.701,51.129  "></polyline><polygon display="inline" fill="#229897" points="43.806,54.621 15,54.621 15,9.288 49,9.288 49,49.427  "></polygon><path display="inline" fill="#229897" d="M23.154,34.022c-1.672,0-3.028,1.356-3.028,3.028c0,1.672,1.356,3.028,3.028,3.028   c1.672,0,3.028-1.356,3.028-3.028h-3.028V34.022z"></path><path display="inline" stroke="#229897" stroke-width="0.3" stroke-miterlimit="10" d="M23.477,33.699v3.028h3.028   C26.506,35.054,25.15,33.699,23.477,33.699z" fill="#229897"></path><path display="inline" fill="#229897" d="M23.154,41.897c-1.672,0-3.028,1.356-3.028,3.028c0,1.672,1.356,3.028,3.028,3.028   c1.672,0,3.028-1.356,3.028-3.028h-3.028V41.897z"></path><path display="inline" stroke="#229897" stroke-width="0.3" stroke-miterlimit="10" d="M23.477,41.573v3.028h3.028   C26.506,42.929,25.15,41.573,23.477,41.573z" fill="#229897"></path><line display="inline" fill="#229897" stroke="#229897" stroke-miterlimit="10" x1="29.079" y1="35.794" x2="43.874" y2="35.794"></line><line display="inline" fill="#229897" stroke="#229897" stroke-miterlimit="10" x1="29.079" y1="38.279" x2="43.874" y2="38.279"></line><line display="inline" fill="#229897" stroke="#229897" stroke-miterlimit="10" x1="29.079" y1="43.38" x2="43.874" y2="43.38"></line><line display="inline" fill="#229897" stroke="#229897" stroke-miterlimit="10" x1="29.079" y1="45.865" x2="43.874" y2="45.865"></line><path display="inline" d="M30.71,28.334h-9.347c-0.643,0-1.168-0.526-1.168-1.168v-7.807c0-0.643,0.526-1.168,1.168-1.168h9.347   c0.643,0,1.168,0.526,1.168,1.168v7.807C31.879,27.808,31.353,28.334,30.71,28.334z"></path><polygon display="inline" fill="#229897" points="24.586,21.124 28.29,23.262 24.586,25.4  "></polygon><rect x="34.75" y="17.558" display="inline" fill="#229897" width="9.124" height="2.93"></rect><rect x="34.75" y="26.046" display="inline" fill="#229897" width="9.124" height="2.93"></rect><rect x="34.75" y="21.802" display="inline" fill="#229897" width="9.124" height="2.93"></rect><polygon display="inline" fill="#229897" points="43.806,54.621 43.806,49.427 49,49.427  "></polygon></g><g display="none"><polygon display="inline" fill="#229897" points="37.043,63.995 -3.624,63.995 -3.624,-0.005 44.376,-0.005 44.376,56.661  "></polygon><path display="inline" fill="#229897" d="M7.888,34.914c-2.361,0-4.275,1.914-4.275,4.275c0,2.361,1.914,4.275,4.275,4.275   s4.275-1.914,4.275-4.275H7.888V34.914z"></path><path display="inline" d="M8.556,34.675v3.845h3.845C12.295,36.448,10.628,34.781,8.556,34.675z"></path><path display="inline" fill="#229897" d="M7.888,46.031c-2.361,0-4.275,1.914-4.275,4.275c0,2.361,1.914,4.275,4.275,4.275   s4.275-1.914,4.275-4.275H7.888V46.031z"></path><path display="inline" d="M8.556,45.792v3.845h3.845C12.295,47.565,10.628,45.898,8.556,45.792z"></path><rect x="16.253" y="36.71" display="inline" fill="#229897" width="20.887" height="1.412"></rect><rect x="16.253" y="40.217" display="inline" fill="#229897" width="20.887" height="1.412"></rect><rect x="16.253" y="47.419" display="inline" fill="#229897" width="20.887" height="1.412"></rect><rect x="16.253" y="50.926" display="inline" fill="#229897" width="20.887" height="1.412"></rect><path display="inline" fill="#229897" d="M18.555,25.3H5.359c-0.907,0-1.65-0.742-1.65-1.65V12.629c0-0.907,0.742-1.65,1.65-1.65   h13.196c0.907,0,1.65,0.742,1.65,1.65v11.022C20.205,24.558,19.462,25.3,18.555,25.3z"></path><polygon display="inline" fill="#229897" points="9.91,15.121 15.139,18.14 9.91,21.159  "></polygon><rect x="24.258" y="10.087" display="inline" fill="#229897" width="12.881" height="4.137"></rect><rect x="24.258" y="22.07" display="inline" fill="#229897" width="12.881" height="4.137"></rect><rect x="24.258" y="16.079" display="inline" fill="#229897" width="12.881" height="4.137"></rect><polygon display="inline" fill="#229897" points="37.043,63.995 37.043,56.661 44.376,56.661  "></polygon></g><g><path d="M16.983,25.075h13.196c0.907,0,1.649-0.742,1.649-1.65V12.403c0-0.907-0.742-1.65-1.649-1.65H16.983   c-0.907,0-1.65,0.742-1.65,1.65v11.022C15.333,24.332,16.076,25.075,16.983,25.075z M16.733,12.403c0-0.133,0.117-0.25,0.25-0.25   h13.196c0.133,0,0.25,0.117,0.25,0.25v11.022c0,0.133-0.117,0.25-0.25,0.25H16.983c-0.133,0-0.25-0.117-0.25-0.25V12.403z"></path><polygon points="21.534,14.895 21.534,20.933 26.763,17.914  "></polygon><path d="M48.764,9.861H35.882v4.137h12.881V9.861z M47.364,12.598H37.282v-1.337h10.081V12.598z"></path><path d="M48.764,21.845H35.882v4.137h12.881V21.845z M47.364,24.582H37.282v-1.337h10.081V24.582z"></path><path d="M48.764,15.853H35.882v4.137h12.881V15.853z M47.364,18.59H37.282v-1.337h10.081V18.59z"></path><path d="M56,56.667V0H8v64h40.667L56,56.667z M48.879,61.808v-4.929h4.929L48.879,61.808z M9.4,1.4h45.2v54.079h-7.122V62.6H9.4   V1.4z"></path><path d="M19.512,43.469c2.361,0,4.275-1.914,4.275-4.275h-4.275v-4.275c-2.361,0-4.275,1.914-4.275,4.275   C15.236,41.555,17.15,43.469,19.512,43.469z"></path><path d="M20.393,34.037v4.275h4.275C24.668,35.951,22.754,34.037,20.393,34.037z"></path><path d="M19.512,46.036c-2.361,0-4.275,1.914-4.275,4.275c0,2.361,1.914,4.275,4.275,4.275c2.361,0,4.275-1.914,4.275-4.275h-4.275   V46.036z"></path><path d="M20.393,45.155v4.275h4.275C24.668,47.069,22.754,45.155,20.393,45.155z"></path><rect x="27.876" y="36.721" width="20.888" height="1.4"></rect><rect x="27.876" y="40.229" width="20.888" height="1.4"></rect><rect x="27.876" y="47.43" width="20.888" height="1.4"></rect><rect x="27.876" y="50.938" width="20.888" height="1.4"></rect></g><g display="none"><circle display="inline" fill="#229897" cx="32" cy="32" r="32"></circle><polygon display="inline" fill="#229897" points="8.75,0.75 55.513,0.75 55.513,56.087 47.479,63.513 8.75,63.513  "></polygon><polygon display="inline" fill="#229897" points="48.344,56.156 48.375,60.6 11.405,60.6 11.405,3.396 52.6,3.396 52.6,56.156  "></polygon><path display="inline" d="M54.6,1.4v54.687L48.087,62.6H9.4V1.4H54.6 M56,0H8v64h40.667L56,56.667V0L56,0z"></path><polygon display="inline" points="48.879,63.513 47.479,63.513 47.479,55.479 55.513,55.479 55.513,56.879 48.879,56.879  "></polygon><path display="inline" d="M30.179,11.764c0.133,0,0.25,0.117,0.25,0.25v11.022c0,0.133-0.117,0.25-0.25,0.25H16.983   c-0.133,0-0.25-0.117-0.25-0.25V12.013c0-0.133,0.117-0.25,0.25-0.25H30.179 M30.179,10.364H16.983c-0.907,0-1.65,0.742-1.65,1.65   v11.022c0,0.907,0.742,1.65,1.65,1.65h13.196c0.907,0,1.65-0.742,1.65-1.65V12.013C31.829,11.106,31.086,10.364,30.179,10.364   L30.179,10.364z"></path><polygon display="inline" points="21.534,14.505 26.763,17.524 21.534,20.543  "></polygon><path display="inline" d="M47.364,10.864v1.337H37.282v-1.337H47.364 M48.764,9.464H35.882v4.137h12.881V9.464L48.764,9.464z"></path><path display="inline" d="M47.364,22.847v1.337H37.282v-1.337H47.364 M48.764,21.447H35.882v4.137h12.881V21.447L48.764,21.447z"></path><path display="inline" d="M47.364,16.856v1.337H37.282v-1.337H47.364 M48.764,15.456H35.882v4.137h12.881V15.456L48.764,15.456z"></path><path display="inline" d="M19.512,34.919c-2.361,0-4.275,1.914-4.275,4.275c0,2.361,1.914,4.275,4.275,4.275   s4.275-1.914,4.275-4.275h-4.275V34.919z"></path><path display="inline" d="M20.393,34.037v4.275h4.275C24.668,35.951,22.754,34.037,20.393,34.037z"></path><path display="inline" d="M19.512,46.036c-2.361,0-4.275,1.914-4.275,4.275c0,2.361,1.914,4.275,4.275,4.275   s4.275-1.914,4.275-4.275h-4.275V46.036z"></path><path display="inline" d="M20.393,45.155v4.275h4.275C24.668,47.069,22.754,45.155,20.393,45.155z"></path><rect x="27.876" y="36.721" display="inline" width="20.888" height="1.4"></rect><rect x="27.876" y="40.229" display="inline" width="20.888" height="1.4"></rect><rect x="27.876" y="47.43" display="inline" width="20.888" height="1.4"></rect><rect x="27.876" y="50.938" display="inline" width="20.888" height="1.4"></rect></g></svg>