<svg fill="#229897" xmlns="http://www.w3.org/2000/svg" data-name="Layer 1" viewBox="0 0 64 64" x="0px" y="0px"><title>confidence-self-faith-trust-leader</title><path d="M9.29,44.71a1,1,0,0,0,.79.29,1,1,0,0,0,.74-.42L12,42.91V61a1,1,0,0,0,1,1h6a1,1,0,0,0,1-1V45h7v5H24a1,1,0,0,0-1,1V61a1,1,0,0,0,1,1H44a1,1,0,0,0,1-1V51a1,1,0,0,0-1-1H35V42a5,5,0,0,0-5-5H24V31.51l13.58-9.7a1,1,0,0,0,.41-.66,1,1,0,0,0-.19-.75l-3-4a1,1,0,0,0-1.37-.22L23.18,23.27A7,7,0,1,0,12.11,25H11a1,1,0,0,0-.74.33L3.8,32.51A5,5,0,0,0,4,39.39Zm2.71-7L10.4,36l1.6-1.6ZM43,60H25V52H43ZM19.38,27,18,29.76,16.62,27ZM12,20a5,5,0,1,1,5,5A5,5,0,0,1,12,20ZM5.28,33.85,11.45,27h2.93l2.73,5.45a1,1,0,0,0,1.78,0l2.89-5.77,12-8.31,1.81,2.41L22.42,30.19A1,1,0,0,0,22,31v7a1,1,0,0,0,1,1h7a3,3,0,0,1,3,3v8H29V44a1,1,0,0,0-1-1H19a1,1,0,0,0-1,1V60H14V32a1,1,0,0,0-.62-.92,1,1,0,0,0-1.09.21l-4,4a1,1,0,0,0,0,1.4l3.27,3.41L9.87,42.46,5.39,38A3,3,0,0,1,5.28,33.85Z"></path><path d="M61,10a7,7,0,0,1-7-7,1,1,0,0,0-2,0,7,7,0,0,1-7,7,1,1,0,0,0,0,2,7,7,0,0,1,7,7,1,1,0,0,0,2,0,7,7,0,0,1,7-7,1,1,0,0,0,0-2Zm-8,4.88A9.08,9.08,0,0,0,49.12,11,9.08,9.08,0,0,0,53,7.12,9.08,9.08,0,0,0,56.88,11,9.08,9.08,0,0,0,53,14.88Z"></path><rect x="33.67" y="28" width="3.38" height="2" transform="translate(-10.3 26.52) rotate(-36.25)"></rect><rect x="37.8" y="21.67" width="12.4" height="2" transform="translate(-4.88 30.42) rotate(-36.27)"></rect><rect x="38.39" y="15" width="7.21" height="2" transform="translate(-1.82 25.98) rotate(-33.69)"></rect></svg>