<svg xmlns="http://www.w3.org/2000/svg" xmlns:xlink="http://www.w3.org/1999/xlink" width="100" height="100" viewBox="0 0 100 100"><g><g transform="translate(50 50) scale(0.69 0.69) rotate(0) translate(-50 -50)" style="fill:#229897"><svg fill="#229897" xmlns="http://www.w3.org/2000/svg" xmlns:xlink="http://www.w3.org/1999/xlink" version="1.1" x="0px" y="0px" viewBox="0 0 91 91" enable-background="new 0 0 91 91" xml:space="preserve"><g><path d="M62.848,32.887c-0.077-0.123-0.171-0.229-0.271-0.325v-0.498c0-5.326-5.02-9.659-11.19-9.659   c-4.719,0-8.755,2.538-10.398,6.112c-1.989-1.022-5.224-2.084-8.971-0.992c-4.589,1.339-6.395,5.544-7.051,7.833   c-1.935,0.101-5.409,0.634-8.983,2.909c-4.173,2.654-4.476,8.079-4.298,11.014c-1.391,0.172-3.271,0.617-4.952,1.738   c-3.621,2.411-1.187,9.294-0.658,10.663l4.612,11.638c0.083,0.209,2.118,5.148,8.276,7.364c2.017,0.726,4.456,1.431,6.927,1.431   c2.8,0,5.641-0.906,7.955-3.708c0.431,0.045,0.875,0.078,1.342,0.078c0.033,0,0.067-0.004,0.1-0.004   c-2.405,3.563-2.268,7.443-0.852,9.953c0.909,1.611,2.304,2.53,3.737,2.53c0.333,0,0.667-0.05,0.997-0.152   c1.925-0.593,13.818-1.35,20.862-1.686c0.148-0.007,0.293-0.033,0.434-0.076c0.628-0.195,6.45-2.379,17.194-18.939   c4.138-6.377,1.831-11.668-0.08-13.729L62.848,32.887z M51.387,25.907c4.239,0,7.688,2.763,7.688,6.157v7.465   c0,3.551-3.534,6.665-7.564,6.665c-3.672,0-7.04-2.564-7.689-5.613c0.052-1.303,1.136-3.221,2.937-4.271   c2.043-1.191,4.509-1.039,7.132,0.443c0.841,0.476,1.91,0.179,2.386-0.663c0.476-0.842,0.18-1.91-0.663-2.386   c-5.012-2.833-8.806-1.478-10.621-0.419c-0.459,0.268-0.884,0.586-1.292,0.926v-2.147C43.699,28.669,47.146,25.907,51.387,25.907z    M31.28,74.206c-4.529-2.233-7.028-4.902-7.59-5.546l-5.167-11.593c-0.394-0.884-1.428-1.278-2.312-0.888   c-0.884,0.394-1.281,1.43-0.887,2.313l5.268,11.818c0.059,0.133,0.133,0.257,0.223,0.368c0.119,0.152,2.988,3.746,8.956,6.688   c0.01,0.005,0.054,0.023,0.085,0.037c-2.218,1.619-5.238,1.596-9.705-0.014c-4.623-1.664-6.152-5.229-6.209-5.365l-4.605-11.62   c-1.073-2.773-1.401-5.979-0.662-6.472c2.083-1.388,4.818-1.247,4.84-1.246c0.54,0.044,1.065-0.182,1.424-0.586   c0.359-0.402,0.512-0.952,0.413-1.483c-0.013-0.07-1.25-7.003,2.511-9.396c4.219-2.685,8.299-2.373,8.332-2.368   c0.939,0.093,1.772-0.574,1.9-1.504c0.007-0.052,0.771-5.256,4.902-6.462c3.254-0.948,6.011,0.438,7.198,1.199v7.442   c0,0.495,0.059,0.981,0.143,1.461c0.004,0.023,0.007,0.046,0.013,0.069c0.399,2.159,1.607,4.139,3.33,5.657l3.623,11.282   c0.148,0.461,0.48,0.841,0.92,1.048c4.311,2.034,8.482,4.691,8.903,5.596c0.2,1.11-0.981,3.504-1.902,4.895   c-0.124,0.071-0.454,0.225-1.103,0.353c-0.352,0.014-1.147,0.06-2.219,0.19c-1.647,0.012-4.021-0.188-7.424-0.881   c-9.279-1.892-10.2-7.701-10.232-7.929c-0.011-0.095-0.03-0.188-0.056-0.278l-4.949-17.235c-0.266-0.93-1.236-1.465-2.166-1.2   c-0.93,0.268-1.467,1.237-1.2,2.167l4.919,17.128c0.192,1.134,1.634,7.207,10.156,10.013c-0.857,1.297-1.93,2.195-3.204,2.678   C34.675,75.704,31.282,74.206,31.28,74.206z M47.04,86.409c-2.54,0.194-4.946,0.415-6.673,0.647   c0.083-0.703,0.281-1.287,0.622-1.714c1.003-1.261,3.196-1.478,4.958-1.65l0.615-0.084C46.85,83.848,47.078,85.085,47.04,86.409z    M74.723,68.205c-9.077,13.989-14.284,17.003-15.159,17.438c-1.288,0.063-5.005,0.251-9.013,0.517   c0.009-1.498-0.221-3.723-1.495-5.01c-0.756-0.765-1.798-1.111-2.902-0.998l-0.548,0.056c-2.163,0.213-5.431,0.534-7.357,2.954   c-0.557,0.7-0.945,1.523-1.178,2.453c-0.258-1.112-0.534-4.09,2.75-7.021c3.877-3.462,9.359-4.625,12.369-5.014   c3.975-0.073,5.354-1.223,5.813-1.893c0.002-0.002,0.002-0.005,0.004-0.007c0.332-0.482,1.44-2.166,2.11-4.083   c1.388-2.902,1.549-6.744,0.359-9.232c-0.415-0.874-1.463-1.242-2.334-0.825c-0.873,0.417-1.242,1.464-0.825,2.335   c0.062,0.13,0.107,0.279,0.157,0.425c-1.979-1.475-4.613-2.905-7.066-4.091l-2.251-7.011c1.069,0.321,2.196,0.499,3.353,0.499   c5.998,0,11.067-4.657,11.067-10.167V39.05l12.131,19.343c0.068,0.11,0.15,0.213,0.244,0.305   C74.987,58.735,78.505,62.376,74.723,68.205z"></path><path d="M30.189,65.583l-3.384,1.616c-0.873,0.416-1.243,1.462-0.827,2.334c0.301,0.629,0.928,0.998,1.582,0.998   c0.253,0,0.51-0.056,0.753-0.172l3.384-1.615c0.873-0.417,1.243-1.461,0.827-2.335C32.107,65.538,31.062,65.169,30.189,65.583z"></path><path d="M38.563,64.253c0.343,0,0.69-0.101,0.993-0.311l3.498-2.414c0.795-0.55,0.996-1.641,0.446-2.437s-1.641-0.996-2.436-0.447   l-3.497,2.415c-0.797,0.551-0.996,1.641-0.447,2.438C37.46,63.988,38.007,64.253,38.563,64.253z"></path><path d="M19.43,75.543c0.173,0,0.348-0.025,0.522-0.079l0.756-0.236c0.923-0.286,1.439-1.269,1.152-2.191   c-0.288-0.925-1.268-1.44-2.192-1.152l-0.757,0.235c-0.923,0.288-1.439,1.269-1.151,2.193   C17.992,75.063,18.684,75.543,19.43,75.543z"></path><path d="M35.574,20.764c0.343,0.353,0.799,0.531,1.255,0.531c0.44,0,0.88-0.165,1.221-0.496c0.694-0.675,0.709-1.783,0.035-2.476   l-8.512-8.755c-0.675-0.693-1.784-0.708-2.476-0.035c-0.694,0.674-0.709,1.783-0.035,2.476L35.574,20.764z"></path><path d="M52.664,16.917c0.967,0,1.751-0.784,1.751-1.75V2.033c0-0.967-0.784-1.751-1.751-1.751s-1.752,0.784-1.752,1.751v13.133   C50.912,16.133,51.697,16.917,52.664,16.917z"></path><path d="M67.261,21.295c0.446,0,0.892-0.169,1.233-0.508l9.271-9.192c0.688-0.681,0.692-1.79,0.011-2.477s-1.79-0.69-2.477-0.01   L66.028,18.3c-0.687,0.681-0.691,1.789-0.011,2.476C66.36,21.122,66.811,21.295,67.261,21.295z"></path><path d="M85.25,31.815H71.318c-0.966,0-1.751,0.783-1.751,1.75s0.785,1.751,1.751,1.751H85.25c0.966,0,1.751-0.784,1.751-1.751   S86.216,31.815,85.25,31.815z"></path></g></svg></g></g></svg>