<svg fill="#229897" xmlns="http://www.w3.org/2000/svg" xmlns:xlink="http://www.w3.org/1999/xlink" version="1.1" x="0px" y="0px" viewBox="0 0 100 100" style="enable-background:new 0 0 100 100;" xml:space="preserve"><g><path d="M88.54,43.244H72.02c0.326-0.721,0.503-1.506,0.512-2.311c0.025-2.401-1.777-5.816-5.755-5.859h-15.13l-4.775-5.936   c-2.798-3.912-6.254-5.813-10.566-5.813h-1.854c3.709-2.177,6.207-6.203,6.207-10.804C40.658,5.617,35.038,0,28.131,0   S15.605,5.617,15.605,12.521c0,4.601,2.498,8.627,6.207,10.804h-1.854c-4.313,0-7.769,1.902-10.567,5.815l-8.43,10.516   c-1.043,1.553-1.251,3.518-0.557,5.254l8.331,16.188c1.463,3.504,4.961,3.834,6.973,3.188l0.006,29.143   c0,3.623,2.968,6.572,6.616,6.572c2.497,0,4.674-1.381,5.801-3.412c1.126,2.031,3.305,3.412,5.801,3.412   c3.648,0,6.617-2.949,6.617-6.572V39.637l3.868,4.72c0.299,0.404,1.071,1.365,1.842,1.473c-2.941,2.126-4.189,5.117-4.189,8.79   v33.926C42.07,94.861,47.21,100,53.529,100H88.54c6.319,0,11.46-5.139,11.46-11.455V54.619C100,48.346,94.859,43.244,88.54,43.244z    M18.073,12.521c0-5.545,4.512-10.055,10.058-10.055c5.546,0,10.059,4.51,10.059,10.055c0,5.543-4.512,10.053-10.059,10.053   C22.585,22.574,18.073,18.064,18.073,12.521z M25.944,25.792h4.375l-2.188,3.054L25.944,25.792z M30.993,52.232l-2.861,3.33   l-2.861-3.33l2.861-19.995L30.993,52.232z M15.709,49.808l-3.165-6.332l3.165-3.828V49.808z M38.081,93.428   c0,2.264-1.861,4.105-4.149,4.105s-4.149-1.842-4.149-4.105V64.387h-3.304v29.041c0,2.264-1.861,4.105-4.149,4.105   c-2.287,0-4.148-1.842-4.148-4.105l-0.006-33.939h19.905V93.428z M38.081,32.734v25.221H18.176l0.006-25.221L9.616,43.18   l6.093,12.14v6.264c-1.483,0.986-3.67,0.645-4.715-1.486l-8.31-16.135C2.311,43,2.426,41.919,2.994,41.056l8.38-10.445   c2.306-3.243,5.114-4.819,8.584-4.819h4.129l2.869,4.005L23.68,52.697l4.452,5.182l4.453-5.182l-3.277-22.901l2.869-4.005h4.129   c3.47,0,6.278,1.576,8.585,4.819l5.574,6.93h16.304c2.082,0.022,3.313,1.764,3.296,3.365c-0.02,1.816-1.511,3.293-3.327,3.295   H52.188c0,0-0.001,0-0.002,0h-3.32c-0.948,0-1.875-0.5-2.483-1.336L38.081,32.734z M97.532,88.545c0,4.955-4.034,8.988-8.992,8.988   H53.529c-4.958,0-8.992-4.033-8.992-8.988V54.619c0-4.913,4.034-8.909,8.992-8.909H88.54c4.958,0,8.992,3.996,8.992,8.909V88.545z    M88.54,47.974H53.529c-3.823,0-6.727,3.036-6.727,6.645v33.926c0,3.707,3.018,6.725,6.727,6.725H88.54   c3.71,0,6.728-3.018,6.728-6.725V54.619C95.268,51.031,92.387,47.974,88.54,47.974z M93.758,88.545c0,2.875-2.34,5.215-5.218,5.215   H53.529c-2.877,0-5.218-2.34-5.218-5.215V54.619c0-3.17,2.649-5.137,5.218-5.137H88.54c3.061,0,5.218,2.432,5.218,5.137V88.545z"></path></g></svg>