<svg fill="#229897" xmlns="http://www.w3.org/2000/svg" xmlns:xlink="http://www.w3.org/1999/xlink" version="1.1" x="0px" y="0px" viewBox="0 0 64 64" enable-background="new 0 0 64 64" xml:space="preserve"><g display="none"><rect x="-650.076" y="-102.113" display="inline" fill="#229897" width="824.576" height="414.113"></rect></g><g><g><path d="M24.935,33.549l-1.551-1.347l-1.305,1.586l-3.149,3.827l-0.346-0.336l-1.473-1.433l-1.392,1.511l-1.255,1.362    l-1.319,1.432l1.396,1.357l3.306,3.215l1.558,1.515l1.381-1.678l5.777-7.02l1.237-1.504l-1.47-1.277L24.935,33.549z M19.24,43.29    l-3.306-3.215l1.255-1.362l1.904,1.852l4.53-5.505l1.394,1.211L19.24,43.29z"></path><rect x="28.574" y="36.413" width="20.887" height="2"></rect><rect x="28.574" y="39.921" width="20.887" height="2"></rect><path d="M24.935,46.259l-1.551-1.347l-1.305,1.586l-3.149,3.827l-0.346-0.336l-1.473-1.433l-1.392,1.511l-1.255,1.362    l-1.319,1.432l1.396,1.357l3.306,3.215l1.558,1.515l1.381-1.678l5.777-7.02l1.237-1.504l-1.47-1.277L24.935,46.259z M19.24,56    l-3.306-3.215l1.255-1.362l1.904,1.852l4.53-5.505l1.394,1.211L19.24,56z"></path><rect x="28.574" y="49.123" width="20.887" height="2"></rect><rect x="28.574" y="52.631" width="20.887" height="2"></rect><path d="M23.394,27.102c5.052,0,9.148-4.096,9.148-9.148h-9.148V8.807c-5.052,0-9.148,4.096-9.148,9.148    S18.342,27.102,23.394,27.102z M21.394,11.092v6.863v2h2h6.863c-0.867,2.971-3.616,5.148-6.863,5.148    c-3.941,0-7.148-3.206-7.148-7.148C16.246,14.708,18.423,11.959,21.394,11.092z"></path><path d="M24.371,7.83v9.148h9.148C33.519,11.926,29.423,7.83,24.371,7.83z M26.371,10.115c2.336,0.682,4.181,2.527,4.863,4.863    h-4.863V10.115z"></path><rect x="35.462" y="22.312" width="2" height="3.217"></rect><rect x="38.534" y="14.84" width="2" height="10.689"></rect><rect x="41.607" y="9.409" width="2" height="16.12"></rect><rect x="44.681" y="14.499" width="2" height="11.03"></rect><rect x="47.754" y="19.69" width="2" height="5.839"></rect><path d="M57.5,56.164V0H16.141C10.817,0,6.5,4.317,6.5,9.641V64h43.164L57.5,56.164z M8.5,62V9.641C8.5,5.428,11.928,2,16.141,2    H55.5v53.335L48.835,62H8.5z"></path></g></g><g display="none"><g display="inline"><path d="M24.279,34.304l-0.775-0.673l-0.653,0.793l-3.84,4.666l-1.125-1.094l-0.736-0.716l-0.696,0.755l-1.255,1.362l-0.66,0.716    l0.698,0.679l3.306,3.215l0.779,0.758l0.69-0.839l5.777-7.02l0.619-0.752l-0.735-0.639L24.279,34.304z M19.24,43.29l-3.306-3.215    l1.255-1.362l1.904,1.852l4.53-5.505l1.394,1.211L19.24,43.29z"></path><rect x="28.574" y="36.913" width="20.887" height="1"></rect><rect x="28.574" y="40.421" width="20.887" height="1"></rect><path d="M24.279,47.014l-0.775-0.673l-0.653,0.793l-3.84,4.666l-1.125-1.094l-0.736-0.716l-0.696,0.755l-1.255,1.362l-0.66,0.716    l0.698,0.679l3.306,3.215l0.779,0.758l0.69-0.839l5.777-7.02l0.619-0.752l-0.735-0.639L24.279,47.014z M19.24,56l-3.306-3.215    l1.255-1.362l1.904,1.852l4.53-5.505l1.394,1.211L19.24,56z"></path><rect x="28.574" y="49.623" width="20.887" height="1"></rect><rect x="28.574" y="53.131" width="20.887" height="1"></rect><path d="M23.394,27.102c5.052,0,9.148-4.096,9.148-9.148h-9.148V8.807c-5.052,0-9.148,4.096-9.148,9.148    S18.342,27.102,23.394,27.102z M22.394,9.868v8.087v1h1h8.087c-0.494,4.023-3.932,7.148-8.087,7.148    c-4.493,0-8.148-3.655-8.148-8.148C15.246,13.8,18.371,10.362,22.394,9.868z"></path><path d="M24.371,7.83v9.148h9.148C33.519,11.926,29.423,7.83,24.371,7.83z M25.371,8.891c3.695,0.454,6.633,3.392,7.087,7.087    h-7.087V8.891z"></path><rect x="35.962" y="22.312" width="1" height="3.217"></rect><rect x="39.034" y="14.84" width="1" height="10.689"></rect><rect x="42.107" y="9.409" width="1" height="16.12"></rect><rect x="45.181" y="14.499" width="1" height="11.03"></rect><rect x="48.254" y="19.69" width="1" height="5.839"></rect><path d="M57.5,56.164V0H16.141C10.817,0,6.5,4.317,6.5,9.641V64h43.164L57.5,56.164z M7.5,63V9.641C7.5,4.876,11.376,1,16.141,1    H56.5v54.75L49.25,63H7.5z"></path></g></g><g display="none"><g display="inline"><polygon points="19.093,40.564 17.189,38.712 15.934,40.074 19.24,43.29 25.017,36.27 23.623,35.059   "></polygon><polygon points="19.093,53.274 17.189,51.422 15.934,52.784 19.24,56 25.017,48.98 23.623,47.769   "></polygon><path d="M23.394,26.102c4.154,0,7.592-3.125,8.087-7.148h-8.087h-1v-1V9.868c-4.023,0.494-7.148,3.932-7.148,8.087    C15.246,22.447,18.901,26.102,23.394,26.102z"></path><path d="M25.371,8.891v7.087h7.087C32.003,12.283,29.066,9.345,25.371,8.891z"></path><path d="M57.5,56.164V0H16.141C10.817,0,6.5,4.317,6.5,9.641V64h43.164L57.5,56.164z M48.254,19.69h1v5.839h-1V19.69z     M45.181,14.499h1v11.03h-1V14.499z M42.107,9.409h1v16.12h-1V9.409z M39.034,14.84h1v10.689h-1V14.84z M35.962,22.312h1v3.217h-1    V22.312z M24.371,7.83c5.052,0,9.148,4.096,9.148,9.148h-9.148V7.83z M23.394,8.807v9.148h9.148c0,5.052-4.096,9.148-9.148,9.148    c-5.052,0-9.148-4.096-9.148-9.148S18.342,8.807,23.394,8.807z M25.789,49.615l-5.777,7.02l-0.69,0.839l-0.779-0.758l-3.306-3.215    l-0.698-0.679l0.66-0.716l1.255-1.362l0.696-0.755l0.736,0.716l1.125,1.094l3.84-4.666l0.653-0.793l0.775,0.673l1.394,1.211    l0.735,0.639L25.789,49.615z M25.789,36.905l-5.777,7.02l-0.69,0.839l-0.779-0.758l-3.306-3.215l-0.698-0.679l0.66-0.716    l1.255-1.362l0.696-0.755l0.736,0.716l1.125,1.094l3.84-4.666l0.653-0.793l0.775,0.673l1.394,1.211l0.735,0.639L25.789,36.905z     M49.461,54.131H28.574v-1h20.887V54.131z M49.461,50.623H28.574v-1h20.887V50.623z M49.461,41.421H28.574v-1h20.887V41.421z     M49.461,37.913H28.574v-1h20.887V37.913z"></path></g></g></svg>