<svg fill="#229897" xmlns="http://www.w3.org/2000/svg" xmlns:xlink="http://www.w3.org/1999/xlink" version="1.1" x="0px" y="0px" viewBox="0 0 100 100" enable-background="new 0 0 100 100" xml:space="preserve"><g><g><path d="M66.094,33.503c-1.338-0.445-2.782,0.279-3.228,1.615c-0.018,0.051-1.948,5.02-4.303,9.065    c-2.93,5.034-6.634,7.965-10.624,6.856c-1.936-0.539-5.28-3.031-6.975-10.012c-1.124-4.628-0.373-9.511-0.365-9.555    c0.24-1.388-0.69-2.709-2.079-2.95c-1.39-0.241-2.708,0.69-2.95,2.078c-0.04,0.23-1.069,5.745,0.222,11.367    c1.066,4.641,3.957,9.465,3.957,9.465s-0.482,0.508-1.289,0.996c-0.846,0.515-1.515,0.598-1.515,0.598L30.507,40.75    c-0.008-0.016-0.289-0.523-0.708-0.879l-0.018-0.015c-0.003-0.002-0.006-0.006-0.01-0.009L17.518,29.567    c-1.233-1.035-3.073-0.877-4.108,0.359c-1.035,1.234-0.874,3.074,0.359,4.108l11.664,9.784l2.582,7.459l-7.232-5.915    c-0.017-0.014-0.989-0.899-2.449-0.596L3.162,47.974c-1.577,0.333-2.584,1.879-2.25,3.456c0.332,1.575,1.879,2.582,3.455,2.249    l13.51-2.855l5.879,6.644c0,0,6.36,6.91,13.867,6.87c9.212-0.049,15.577-5.18,20.542-11.162c0,0,6.382-7.275,9.331-16.404    C67.854,35.664,67.429,33.949,66.094,33.503z"></path><circle cx="49.958" cy="44.932" r="4.677"></circle></g></g><g><path d="M71.184,29.609c-0.503,0-0.991-0.211-1.334-0.583c-0.327-0.35-0.503-0.816-0.488-1.305   c0.022-0.488,0.227-0.932,0.584-1.268c0.707-0.656,1.917-0.613,2.571,0.095c0.336,0.357,0.512,0.824,0.489,1.312   c-0.015,0.481-0.225,0.933-0.583,1.269C72.087,29.442,71.65,29.609,71.184,29.609L71.184,29.609z M75.988,25.148   c-0.504,0-0.992-0.211-1.334-0.584c-0.68-0.736-0.643-1.895,0.094-2.572c0.714-0.664,1.918-0.62,2.573,0.086   c0.335,0.357,0.51,0.825,0.488,1.313c-0.015,0.481-0.219,0.933-0.576,1.268C76.892,24.973,76.454,25.148,75.988,25.148   L75.988,25.148z M80.799,20.679c-0.504,0-0.991-0.211-1.334-0.583c-0.686-0.736-0.643-1.888,0.094-2.574   c0.708-0.655,1.917-0.612,2.574,0.096c0.327,0.356,0.503,0.816,0.487,1.305c-0.021,0.488-0.226,0.94-0.583,1.268   C81.703,20.505,81.258,20.679,80.799,20.679L80.799,20.679z M85.602,16.211c-0.501,0-0.991-0.211-1.333-0.576   c-0.329-0.357-0.503-0.824-0.488-1.312c0.021-0.481,0.226-0.933,0.583-1.269c0.707-0.656,1.917-0.612,2.573,0.095   c0.686,0.737,0.642,1.896-0.095,2.573C86.506,16.037,86.061,16.211,85.602,16.211L85.602,16.211z M90.406,11.75   c-0.503,0-0.991-0.219-1.335-0.583c-0.327-0.357-0.502-0.823-0.488-1.312c0.022-0.481,0.227-0.934,0.583-1.269   c0.708-0.655,1.918-0.612,2.573,0.095c0.335,0.357,0.511,0.824,0.489,1.313c-0.015,0.488-0.226,0.933-0.576,1.268   C91.31,11.576,90.872,11.75,90.406,11.75L90.406,11.75z"></path><path d="M55.781,32.897L55.781,32.897c-0.503,0-0.962-0.19-1.312-0.547c-0.336-0.351-0.517-0.81-0.517-1.298   c0.007-0.489,0.203-0.94,0.553-1.283c0.7-0.678,1.896-0.663,2.58,0.037c0.7,0.721,0.687,1.873-0.035,2.573   C56.707,32.715,56.255,32.897,55.781,32.897L55.781,32.897z M60.476,28.326c-0.496,0-0.956-0.197-1.306-0.554   c-0.335-0.351-0.523-0.809-0.517-1.298c0.007-0.488,0.204-0.94,0.554-1.282c0.699-0.678,1.896-0.664,2.573,0.036   c0.7,0.722,0.686,1.874-0.028,2.581C61.409,28.137,60.956,28.326,60.476,28.326L60.476,28.326z M65.177,23.749   c-0.495,0-0.954-0.197-1.304-0.554c-0.7-0.714-0.686-1.873,0.036-2.574c0.692-0.685,1.895-0.662,2.572,0.03   C66.824,21,67.007,21.46,67,21.948c-0.009,0.488-0.205,0.94-0.555,1.283C66.109,23.566,65.658,23.749,65.177,23.749L65.177,23.749z    M69.878,19.171c-0.494,0-0.954-0.197-1.305-0.555c-0.335-0.342-0.524-0.802-0.517-1.29c0.008-0.489,0.203-0.94,0.554-1.283   c0.691-0.678,1.895-0.663,2.573,0.03c0.7,0.721,0.686,1.88-0.029,2.581C70.812,18.989,70.359,19.171,69.878,19.171L69.878,19.171z"></path></g><g><polygon points="98.706,25.34 30.343,90.117 98.706,90.117  "></polygon></g></svg>