<svg fill="#229897" xmlns="http://www.w3.org/2000/svg" xmlns:xlink="http://www.w3.org/1999/xlink" version="1.1" x="0px" y="0px" viewBox="0 0 64 62" style="enable-background:new 0 0 64 62;" xml:space="preserve"><g><path d="M63,4H49c-0.552,0-1,0.447-1,1v9v9c0,0.553,0.448,1,1,1h6v1c0,1.654-1.346,3-3,3H12c-2.757,0-5,2.243-5,5v1.586   l-1.293-1.293l-1.414,1.414l3,3C7.488,37.902,7.744,38,8,38s0.512-0.098,0.707-0.293l3-3l-1.414-1.414L9,34.586V33   c0-1.654,1.346-3,3-3h40c2.757,0,5-2.243,5-5v-1h6c0.552,0,1-0.447,1-1V5C64,4.447,63.552,4,63,4z M54.152,9.5L50,12.169V6.831   L54.152,9.5z M52.404,6h7.192L56,8.312L52.404,6z M56,10.688L59.596,13h-7.192L56,10.688z M57.848,9.5L62,6.831v5.338L57.848,9.5z    M50,22v-7h12v7H50z"></path><path d="M0,39v18c0,0.553,0.448,1,1,1h14c0.552,0,1-0.447,1-1v-8h4.586l-1.293,1.293l1.414,1.414l3-3   C23.902,48.512,24,48.256,24,48s-0.098-0.512-0.293-0.707l-3-3l-1.414,1.414L20.586,47H16v-8c0-0.553-0.448-1-1-1H8H1   C0.448,38,0,38.447,0,39z M2,40h12v16H2V40z"></path><path d="M25,58h14c0.552,0,1-0.447,1-1v-8h4.586l-1.293,1.293l1.414,1.414l3-3C47.902,48.512,48,48.256,48,48   s-0.098-0.512-0.293-0.707l-3-3l-1.414,1.414L44.586,47H40v-8c0-0.553-0.448-1-1-1H25c-0.552,0-1,0.447-1,1v9v9   C24,57.553,24.448,58,25,58z M26,40h12v16H26V40z"></path><path d="M49,58h14c0.552,0,1-0.447,1-1V39c0-0.553-0.448-1-1-1H49c-0.552,0-1,0.447-1,1v9v9C48,57.553,48.448,58,49,58z M50,40h12   v16H50V40z"></path><path d="M20.707,10.293l-1.414,1.414L20.586,13H14v2h6.586l-1.293,1.293l1.414,1.414l3-3C23.902,14.512,24,14.256,24,14   s-0.098-0.512-0.293-0.707L20.707,10.293z"></path><path d="M44.707,10.293l-1.414,1.414L44.586,13H40V5c0-0.553-0.448-1-1-1H25c-0.552,0-1,0.447-1,1v9v9c0,0.553,0.448,1,1,1h14   c0.552,0,1-0.447,1-1v-8h4.586l-1.293,1.293l1.414,1.414l3-3C47.902,14.512,48,14.256,48,14s-0.098-0.512-0.293-0.707   L44.707,10.293z M38,22H26V6h12V22z"></path><rect x="28" y="8" width="8" height="2"></rect><rect x="28" y="12" width="8" height="2"></rect><rect x="28" y="16" width="8" height="2"></rect><rect x="52" y="17" width="3" height="2"></rect><rect x="57" y="17" width="3" height="2"></rect><path d="M8,42c-2.206,0-4,1.794-4,4s1.794,4,4,4s4-1.794,4-4S10.206,42,8,42z M8,48c-1.103,0-2-0.897-2-2s0.897-2,2-2s2,0.897,2,2   S9.103,48,8,48z"></path><rect x="4" y="52" width="8" height="2"></rect><path d="M59,50h-2v-4h-2v4h-2c-0.552,0-1,0.447-1,1v3h2v-2h4v2h2v-3C60,50.447,59.552,50,59,50z"></path><rect x="52" y="42" width="8" height="2"></rect><path d="M29,50h6c0.347,0,0.668-0.18,0.851-0.475s0.199-0.663,0.044-0.973l-3-6c-0.339-0.678-1.45-0.678-1.789,0l-3,6   c-0.155,0.31-0.138,0.678,0.044,0.973S28.653,50,29,50z M32,45.236L33.382,48h-2.764L32,45.236z"></path><rect x="28" y="52" width="8" height="2"></rect><rect x="14" y="34" width="2" height="2"></rect><rect x="18" y="34" width="2" height="2"></rect><rect x="22" y="34" width="2" height="2"></rect><rect x="26" y="34" width="2" height="2"></rect><rect x="30" y="34" width="2" height="2"></rect><rect x="34" y="34" width="2" height="2"></rect><rect x="38" y="34" width="2" height="2"></rect><rect x="42" y="34" width="2" height="2"></rect><rect x="46" y="34" width="2" height="2"></rect><rect x="50" y="34" width="2" height="2"></rect><rect x="54" y="34" width="2" height="2"></rect><rect x="58" y="34" width="2" height="2"></rect><rect x="62" y="34" width="2" height="2"></rect><rect x="13" width="2" height="2"></rect><rect x="17" width="2" height="2"></rect><rect x="21" width="2" height="2"></rect><rect x="25" width="2" height="2"></rect><rect x="29" width="2" height="2"></rect><rect x="33" width="2" height="2"></rect><rect x="37" width="2" height="2"></rect><rect x="41" width="2" height="2"></rect><rect x="45" width="2" height="2"></rect><rect x="49" width="2" height="2"></rect><rect x="53" width="2" height="2"></rect><rect x="57" width="2" height="2"></rect><rect x="61" width="2" height="2"></rect><rect x="1" y="60" width="2" height="2"></rect><rect x="5" y="60" width="2" height="2"></rect><rect x="9" y="60" width="2" height="2"></rect><rect x="13" y="60" width="2" height="2"></rect><rect x="17" y="60" width="2" height="2"></rect><rect x="21" y="60" width="2" height="2"></rect><rect x="25" y="60" width="2" height="2"></rect><rect x="29" y="60" width="2" height="2"></rect><rect x="33" y="60" width="2" height="2"></rect><rect x="37" y="60" width="2" height="2"></rect><rect x="41" y="60" width="2" height="2"></rect><rect x="45" y="60" width="2" height="2"></rect><rect x="49" y="60" width="2" height="2"></rect><rect x="53" y="60" width="2" height="2"></rect><rect x="57" y="60" width="2" height="2"></rect><rect x="61" y="60" width="2" height="2"></rect><path d="M1,9h10c0.552,0,1-0.447,1-1V4c0-0.553-0.448-1-1-1H1C0.448,3,0,3.447,0,4v4C0,8.553,0.448,9,1,9z M2,5h8v2H2V5z"></path><path d="M1,17h10c0.552,0,1-0.447,1-1v-4c0-0.553-0.448-1-1-1H1c-0.552,0-1,0.447-1,1v4C0,16.553,0.448,17,1,17z M2,13h8v2H2V13z"></path><path d="M1,25h10c0.552,0,1-0.447,1-1v-4c0-0.553-0.448-1-1-1H1c-0.552,0-1,0.447-1,1v4C0,24.553,0.448,25,1,25z M2,21h8v2H2V21z"></path></g></svg>