<svg fill="#FFFFFF" xmlns="http://www.w3.org/2000/svg" xmlns:xlink="http://www.w3.org/1999/xlink" version="1.1" x="0px" y="0px" viewBox="0 0 100 100" enable-background="new 0 0 100 100" xml:space="preserve"><symbol viewBox="-27.299 -39.024 54.598 78.047"><path fill="none" d="M11.157,34.02c-1.275-1.85-3.408-3.026-5.733-3.026c-2.13,0-4.118,0.985-5.424,2.607   c-1.306-1.622-3.294-2.607-5.423-2.607c-2.325,0-4.457,1.176-5.734,3.026c-1.275-1.85-3.408-3.026-5.733-3.026   c-1.913,0-3.648,0.776-4.908,2.029v-66.474c1.26,1.253,2.995,2.029,4.908,2.029c2.325,0,4.458-1.176,5.733-3.026   c1.277,1.85,3.409,3.026,5.734,3.026c2.129,0,4.117-0.986,5.423-2.607c1.306,1.622,3.294,2.607,5.424,2.607   c2.325,0,4.458-1.176,5.733-3.026c1.277,1.85,3.409,3.026,5.734,3.026c1.913,0,3.647-0.776,4.907-2.028v66.473   c-1.26-1.253-2.994-2.028-4.907-2.028C14.567,30.995,12.435,32.17,11.157,34.02z"></path><path fill="#FFFFFF" stroke="#FFFFFF" stroke-width="3" stroke-miterlimit="10" d="M-20.463-37.524   c0.391,1.615,1.839,2.822,3.573,2.822c1.733,0,3.181-1.207,3.572-2.822h4.323c0.391,1.615,1.839,2.822,3.573,2.822   s3.182-1.207,3.573-2.822h3.701c0.391,1.615,1.839,2.822,3.573,2.822s3.182-1.207,3.573-2.822h4.322   c0.391,1.615,1.839,2.822,3.573,2.822s3.182-1.207,3.573-2.822h5.335v75.047h-5.266c-0.219-1.825-1.759-3.25-3.641-3.25   s-3.423,1.425-3.641,3.25H9.065c-0.219-1.825-1.759-3.25-3.641-3.25s-3.423,1.425-3.641,3.25h-3.564   c-0.219-1.825-1.759-3.25-3.641-3.25s-3.423,1.425-3.641,3.25h-4.186c-0.219-1.825-1.758-3.25-3.641-3.25   c-1.883,0-3.423,1.425-3.641,3.25h-5.267v-75.047H-20.463z"></path></symbol><symbol viewBox="-30.282 -48.056 60.563 94.113"><path fill="#FFFFFF" stroke="#FFFFFF" stroke-width="6" stroke-miterlimit="10" d="M16.006,43.056   c-3.233-4.883-8.77-8.108-15.065-8.108s-11.832,3.225-15.065,8.108h-10.584v-88.113h10.584c3.233,4.883,8.77,8.108,15.065,8.108   s11.832-3.224,15.065-8.108H26.59v88.113H16.006z"></path><line fill="none" stroke="#FFFFFF" stroke-width="5" stroke-linecap="round" stroke-linejoin="round" stroke-miterlimit="10" stroke-dasharray="7,8" x1="27.781" y1="-20.755" x2="-27.782" y2="-20.755"></line></symbol><symbol viewBox="-24.712 -42.834 54.356 85.667"><path fill="#FFFFFF" stroke="#FFFFFF" stroke-width="5" stroke-miterlimit="10" d="M17.181,40.333h-4.475   c-0.466-2.355-2.539-4.131-5.031-4.131c-2.491,0-4.565,1.776-5.03,4.131h-4.883c-0.466-2.355-2.539-4.131-5.031-4.131   c-2.491,0-4.565,1.776-5.03,4.131h-4.883c-0.466-2.355-2.539-4.131-5.03-4.131v-72.023c2.622,0,4.76-1.974,5.069-4.512h4.806   c0.309,2.539,2.447,4.512,5.069,4.512c2.622,0,4.76-1.974,5.069-4.512h4.806c0.309,2.539,2.447,4.512,5.069,4.512   c2.622,0,4.76-1.974,5.069-4.512h4.398c0.309,2.539,2.447,4.512,5.069,4.512v72.023C19.72,36.202,17.647,37.978,17.181,40.333z"></path><line fill="none" stroke="#FFFFFF" stroke-width="4" stroke-linecap="round" stroke-linejoin="round" stroke-miterlimit="10" stroke-dasharray="7,6" x1="-22.644" y1="-17.395" x2="27.644" y2="-17.395"></line></symbol><symbol viewBox="-23.971 -42.094 47.944 84.188"><g><path fill="#FFFFFF" stroke="#FFFFFF" stroke-width="3.521" stroke-miterlimit="10" d="M17.182,40.333h-4.475    c-0.466-2.355-2.539-4.131-5.031-4.131c-2.491,0-4.565,1.776-5.03,4.131h-4.883c-0.466-2.355-2.539-4.131-5.031-4.131    c-2.491,0-4.565,1.776-5.03,4.131h-4.883c-0.466-2.355-2.539-4.131-5.03-4.131v-72.023c2.622,0,4.76-1.974,5.069-4.512h4.806    c0.309,2.539,2.447,4.512,5.069,4.512c2.622,0,4.76-1.974,5.069-4.512h4.806c0.309,2.539,2.447,4.512,5.069,4.512    c2.622,0,4.76-1.974,5.069-4.512h4.398c0.309,2.539,2.447,4.512,5.069,4.512v72.023C19.721,36.202,17.648,37.978,17.182,40.333z"></path></g><polygon fill="#FFFFFF" stroke="#FFFFFF" stroke-width="3.8113" stroke-miterlimit="10" points="5.14,17.02 11.952,13.853    8.431,7.217 7.524,-0.241 0.124,1.057 -7.248,-0.385 -8.301,7.053 -11.951,13.62 -5.201,16.919 -0.084,22.42  "></polygon></symbol><symbol id="a" viewBox="-21.087 -31.266 42.17 72.87"><path fill="#FFFFFF" stroke="#FFFFFF" stroke-width="5" stroke-miterlimit="10" d="M6.373,39.104h5.21c0-3.87,3.13-7,7-7v-53.87   c-3.87,0-7-3.14-7-7h-5.21"></path><path fill="#FFFFFF" stroke="#FFFFFF" stroke-width="5" stroke-miterlimit="10" d="M-6.377-28.766h-5.21c0,3.86-3.13,7-7,7v53.87   c3.87,0,7,3.13,7,7h5.21"></path><line fill="none" stroke="#FFFFFF" stroke-width="5" stroke-miterlimit="10" x1="2.373" y1="39.104" x2="-2.377" y2="39.104"></line><line fill="none" stroke="#FFFFFF" stroke-width="5" stroke-miterlimit="10" x1="2.373" y1="-28.766" x2="-2.377" y2="-28.766"></line><g><path stroke="#FFFFFF" stroke-width="0.9" stroke-miterlimit="10" d="M-9.901-10.118c0-0.994-0.806-1.8-1.8-1.8    s-1.8,0.806-1.8,1.8s0.806,1.8,1.8,1.8S-9.901-9.124-9.901-10.118z"></path><path stroke="#FFFFFF" stroke-width="0.9" stroke-miterlimit="10" d="M-2.101-10.118c0-0.994-0.806-1.8-1.8-1.8    s-1.8,0.806-1.8,1.8s0.806,1.8,1.8,1.8S-2.101-9.124-2.101-10.118z"></path><path stroke="#FFFFFF" stroke-width="0.9" stroke-miterlimit="10" d="M5.699-10.118c0-0.994-0.806-1.8-1.8-1.8s-1.8,0.806-1.8,1.8    s0.806,1.8,1.8,1.8S5.699-9.124,5.699-10.118z"></path><path stroke="#FFFFFF" stroke-width="0.9" stroke-miterlimit="10" d="M13.499-10.118c0-0.994-0.806-1.8-1.8-1.8    s-1.8,0.806-1.8,1.8s0.806,1.8,1.8,1.8S13.499-9.124,13.499-10.118z"></path></g></symbol><symbol viewBox="-21.086 -31.266 42.17 72.87"><use xlink:href="#a" width="42.17" height="72.87" x="-21.087" y="-31.266" transform="matrix(1 0 0 1 6.996482e-004 -2.671033e-004)" overflow="visible"></use><line fill="none" stroke="#FFFFFF" stroke-width="4" stroke-miterlimit="10" x1="9.224" y1="13.75" x2="-9.223" y2="13.75"></line></symbol><g display="none"><path display="inline" fill="#FFFFFF" d="M828.792,1194.743H-409.006c-2.084,0-3.789-1.705-3.789-3.789V3.789   c0-2.084,1.705-3.789,3.789-3.789H828.792c2.084,0,3.789,1.705,3.789,3.789v1187.164   C832.582,1193.038,830.877,1194.743,828.792,1194.743z"></path></g><g><g><polygon points="44.522,78.586 9.396,78.586 9.396,10.231 60.495,10.231 60.495,33.871 65.271,33.871 65.271,5.456 4.62,5.456     4.62,83.362 44.522,83.362   "></polygon><path d="M39.316,51.71H17.444v4.619h20.592C38.31,54.73,38.742,53.185,39.316,51.71z"></path><path d="M37.687,60.388c0-0.4,0.011-0.798,0.03-1.194H17.444v4.619h20.49C37.774,62.694,37.687,61.551,37.687,60.388z"></path><polygon points="20.456,71.127 25.119,71.127 25.119,68.988 25.119,66.849 20.456,66.849 20.456,68.988   "></polygon><polygon points="32.614,71.127 37.276,71.127 37.276,68.988 37.276,66.849 32.614,66.849 32.614,68.988   "></polygon><rect x="19.208" y="33.826" width="9.067" height="10.229"></rect><rect x="30.412" y="28.068" width="9.067" height="15.986"></rect><path d="M50.682,22.009h-9.067v22.045h2.515c1.875-2.009,4.09-3.691,6.553-4.955V22.009z"></path><path d="M38.952,60.388c0,12.477,10.091,22.627,22.494,22.627c4.68,0,9.179-1.45,13.012-4.193l0.438-0.314l11.954,12.065    c1.217,1.224,3.343,1.225,4.562-0.001c1.26-1.268,1.26-3.331,0-4.599l-0.001-0.001L79.463,73.914l0.307-0.434    c2.728-3.856,4.17-8.383,4.17-13.092c0-12.477-10.091-22.627-22.494-22.627S38.952,47.912,38.952,60.388z M77.497,60.388    c0,3.352-1.028,6.577-2.975,9.328l-1.666,2.293l-2.131,1.525c-2.736,1.958-5.945,2.993-9.279,2.993    c-8.851,0-16.051-7.24-16.051-16.14s7.2-16.139,16.051-16.139S77.497,51.489,77.497,60.388z"></path><path d="M48.32,61.781c0,0.943,0.765,1.708,1.708,1.708s1.708-0.765,1.708-1.708c0-6.207,5.05-11.256,11.257-11.256    c0.943,0,1.708-0.765,1.708-1.708s-0.765-1.708-1.708-1.708C54.902,47.109,48.32,53.691,48.32,61.781z"></path></g></g></svg>