<svg fill="#229897" xmlns="http://www.w3.org/2000/svg" xmlns:xlink="http://www.w3.org/1999/xlink" version="1.1" x="0px" y="0px" viewBox="0 0 50 50" style="enable-background:new 0 0 50 50;" xml:space="preserve"><g><path d="M14.1,11.9h12.6c0.6,0,1-0.4,1-1s-0.4-1-1-1H14.1c-0.6,0-1,0.4-1,1S13.6,11.9,14.1,11.9z"></path><path d="M22.9,26.1c0,0.6,0.4,1,1,1c0.6,0,1-0.4,1-1c0-3.4,2.8-6.2,6.2-6.2c0.6,0,1-0.4,1-1c0-0.6-0.4-1-1-1   C26.6,17.9,22.9,21.6,22.9,26.1z"></path><path d="M48.9,38.3l-6.6-6.6c0.8-1.7,1.3-3.5,1.3-5.5c0-5.3-3.4-9.8-8-11.6V9.1c0-0.6-0.4-1-1-1h-3v-3c0-0.6-0.4-1-1-1H9.9   c-0.3,0-0.5,0.1-0.7,0.3l-8.9,8.9C0.1,13.4,0,13.7,0,14v26.9c0,0.6,0.4,1,1,1h3v3c0,0.6,0.4,1,1,1h29.5c0.6,0,1-0.4,1-1v-7.2   c0.4-0.2,0.8-0.3,1.2-0.5l6.6,6.6c1.5,1.5,4,1.5,5.5,0C50.4,42.3,50.4,39.8,48.9,38.3z M41.5,26.1c0,5.7-4.7,10.4-10.4,10.4   s-10.4-4.7-10.4-10.4s4.7-10.4,10.4-10.4S41.5,20.4,41.5,26.1z M33.5,10.1v3.8c-0.7-0.1-1.3-0.2-2-0.2v-3.6H33.5z M8.9,7.5V13H3.4   L8.9,7.5z M2,15h7.9c0.6,0,1-0.4,1-1V6.1h18.6v7.8c-3,0.4-5.7,1.9-7.6,4.1H5c-0.6,0-1,0.4-1,1c0,0.6,0.4,1,1,1h15.4   c-1,1.8-1.6,3.8-1.6,6.1H5c-0.6,0-1,0.4-1,1c0,0.6,0.4,1,1,1h13.9c0.4,2.3,1.3,4.4,2.7,6.1H5c-0.6,0-1,0.4-1,1s0.4,1,1,1h18.8   c1.6,1.2,3.6,2,5.7,2.3v1.5H2V15z M33.5,43.9H6v-2h24.5c0.6,0,1-0.4,1-1v-2.4c0.7,0,1.4-0.1,2-0.2V43.9z M47.4,42.4   c-0.7,0.7-2,0.7-2.7,0l-6.3-6.3c0,0,0,0,0,0c1-0.8,1.9-1.7,2.7-2.7c0,0,0,0,0,0l6.3,6.3C48.2,40.4,48.2,41.7,47.4,42.4z"></path></g></svg>