<svg fill="#229897" xmlns="http://www.w3.org/2000/svg" xmlns:xlink="http://www.w3.org/1999/xlink" version="1.1" x="0px" y="0px" viewBox="0 0 100 100" style="enable-background:new 0 0 100 100;" xml:space="preserve"><path d="M49.9,98.9c-2.4,0-4.1-2.2-5.7-4.1c-0.9-1.1-2-2.6-2.7-2.7c-0.7-0.2-2.4,0.8-3.7,1.5  c-2.2,1.2-4.5,2.5-6.7,1.6c-2.2-0.9-2.9-3.5-3.6-5.9c-0.4-1.3-0.9-3.2-1.5-3.6c-0.6-0.4-2.5-0.2-3.9,0c-2.5,0.3-5.2,0.6-6.8-1.1  c-1.7-1.7-1.4-4.3-1.1-6.8c0.2-1.4,0.4-3.3,0-3.9c-0.4-0.6-2.2-1.1-3.6-1.5c-2.5-0.7-5-1.4-5.9-3.6C3.7,66.5,5,64.2,6.2,62  c0.7-1.2,1.6-2.9,1.5-3.7c-0.1-0.7-1.6-1.9-2.7-2.7c-1.9-1.5-4.1-3.3-4.1-5.7S3,45.8,5,44.3c1.1-0.9,2.6-2,2.7-2.7  c0.1-0.7-0.8-2.4-1.5-3.7c-1.2-2.2-2.5-4.5-1.6-6.7c0.9-2.2,3.5-2.9,5.9-3.6c1.3-0.4,3.2-0.9,3.6-1.5c0.4-0.6,0.2-2.5,0-3.9  c-0.3-2.5-0.6-5.2,1.1-6.8c1.7-1.7,4.3-1.4,6.8-1.1c1.4,0.2,3.3,0.4,3.9,0c0.6-0.4,1.1-2.2,1.5-3.6c0.7-2.5,1.4-5,3.6-5.9  c2.2-0.9,4.5,0.4,6.7,1.6C39,7,40.7,7.9,41.5,7.7c0.7-0.1,1.9-1.6,2.7-2.7c1.5-1.9,3.3-4.1,5.7-4.1s4.1,2.2,5.7,4.1  c0.9,1.1,2,2.6,2.7,2.7C59,7.9,60.7,7,61.9,6.3c2.2-1.2,4.5-2.5,6.7-1.6c2.2,0.9,2.9,3.5,3.6,5.9c0.4,1.3,0.9,3.2,1.5,3.6  c0.6,0.4,2.5,0.2,3.9,0c2.5-0.3,5.2-0.6,6.8,1.1c1.7,1.7,1.4,4.3,1.1,6.8c-0.2,1.4-0.4,3.3,0,3.9c0.4,0.6,2.2,1.1,3.6,1.5  c2.5,0.7,5,1.4,5.9,3.6c0.9,2.2-0.4,4.5-1.6,6.7c-0.7,1.2-1.6,2.9-1.5,3.7c0.1,0.7,1.6,1.9,2.7,2.7c1.9,1.5,4.1,3.3,4.1,5.7  s-2.2,4.1-4.1,5.7c-1.1,0.9-2.6,2-2.7,2.7c-0.1,0.7,0.8,2.4,1.5,3.7c1.2,2.2,2.5,4.5,1.6,6.7c-0.9,2.2-3.5,2.9-5.9,3.6  c-1.3,0.4-3.2,0.9-3.6,1.5c-0.4,0.6-0.2,2.5,0,3.9c0.3,2.5,0.6,5.2-1.1,6.8c-1.7,1.7-4.3,1.4-6.8,1.1c-1.4-0.2-3.3-0.4-3.9,0  c-0.6,0.4-1.1,2.2-1.5,3.6c-0.7,2.5-1.4,5-3.6,5.9c-2.2,0.9-4.5-0.4-6.7-1.6c-1.2-0.7-2.9-1.6-3.7-1.5c-0.7,0.1-1.9,1.6-2.7,2.7  C54,96.7,52.3,98.9,49.9,98.9z M41.3,88.6c0.3,0,0.6,0,0.8,0.1c1.9,0.4,3.4,2.2,4.8,4c0.9,1.1,2.2,2.8,2.9,2.8s2.1-1.7,2.9-2.8  c1.4-1.8,2.8-3.6,4.8-4c2-0.4,4.1,0.7,6.1,1.9c1.1,0.6,3,1.7,3.6,1.4c0.6-0.3,1.2-2.3,1.6-3.7c0.6-2.2,1.3-4.4,2.9-5.5  c1.7-1.1,4-0.9,6.3-0.6c1.3,0.1,3.5,0.4,4-0.1c0.5-0.5,0.2-2.7,0.1-4c-0.3-2.3-0.5-4.6,0.6-6.3c1.1-1.7,3.4-2.3,5.5-2.9  c1.4-0.4,3.4-1,3.7-1.6c0.2-0.6-0.8-2.5-1.4-3.6c-1.1-2-2.3-4.1-1.9-6.1c0.4-1.9,2.2-3.4,4-4.8c1.1-0.9,2.8-2.2,2.8-2.9  s-1.7-2.1-2.8-2.9c-1.8-1.4-3.6-2.8-4-4.8c-0.4-2,0.7-4.1,1.9-6.1c0.6-1.1,1.7-3,1.4-3.6c-0.3-0.6-2.3-1.2-3.7-1.6  c-2.2-0.6-4.4-1.3-5.5-2.9c-1.1-1.7-0.9-4-0.6-6.3c0.1-1.3,0.4-3.5-0.1-4c-0.5-0.5-2.7-0.2-4-0.1c-2.3,0.3-4.6,0.5-6.3-0.6  c-1.7-1.1-2.3-3.4-2.9-5.5c-0.4-1.4-1-3.4-1.6-3.7c-0.6-0.2-2.5,0.8-3.6,1.4c-2,1.1-4.1,2.3-6.1,1.9c-1.9-0.4-3.4-2.2-4.8-4  c-0.9-1.1-2.2-2.8-2.9-2.8s-2.1,1.7-2.9,2.8c-1.4,1.8-2.8,3.6-4.8,4c-2,0.4-4.1-0.7-6.1-1.9c-1.1-0.6-3-1.7-3.6-1.4  c-0.6,0.3-1.2,2.3-1.6,3.7c-0.6,2.2-1.3,4.4-2.9,5.5c-1.7,1.1-4,0.9-6.3,0.6c-1.3-0.1-3.5-0.4-4,0.1c-0.5,0.5-0.2,2.7-0.1,4  c0.3,2.3,0.5,4.6-0.6,6.3c-1.1,1.7-3.4,2.3-5.5,2.9c-1.4,0.4-3.4,1-3.7,1.6c-0.2,0.6,0.8,2.5,1.4,3.6c1.1,2,2.3,4.1,1.9,6.1  c-0.4,1.9-2.2,3.4-4,4.8c-1.1,0.9-2.8,2.2-2.8,2.9S6,52,7.2,52.9c1.8,1.4,3.6,2.8,4,4.8c0.4,2-0.7,4.1-1.9,6.1  c-0.6,1.1-1.7,3-1.4,3.6c0.3,0.6,2.3,1.2,3.7,1.6c2.2,0.6,4.4,1.3,5.5,2.9c1.1,1.7,0.9,4,0.6,6.3c-0.1,1.3-0.4,3.5,0.1,4  c0.5,0.5,2.7,0.2,4,0.1c2.3-0.3,4.6-0.5,6.3,0.6c1.7,1.1,2.3,3.4,2.9,5.5c0.4,1.4,1,3.4,1.6,3.7c0.6,0.3,2.5-0.8,3.6-1.4  C37.8,89.6,39.6,88.6,41.3,88.6z"></path><path d="M40.7,54.6h3.7c0.1,0,0.1-0.1,0.1-0.2V42.4c0-0.1-0.1-0.2-0.1-0.2h-3.7c-0.1,0-0.1,0.1-0.1,0.2v12.1  C40.6,54.6,40.7,54.6,40.7,54.6z"></path><path d="M72.3,69.7L62,59.5l1.2-1.8c2.4-3.5,3.6-7.6,3.6-11.9c0-11.7-9.5-21.2-21.2-21.2s-21.2,9.5-21.2,21.2  c0,11.7,9.5,21.2,21.2,21.2c3.8,0,7.6-1.1,10.9-3l1.3-0.8l10.5,10.5c1,1,2.8,1,3.9,0c0.5-0.5,0.8-1.2,0.8-1.9S72.9,70.3,72.3,69.7z   M45.7,62.6C36.5,62.6,29,55,29,45.8C29,36.5,36.5,29,45.7,29s16.8,7.5,16.8,16.8C62.5,55,55,62.6,45.7,62.6z"></path><path d="M50.5,46h-3.7c-0.1,0-0.1,0.1-0.1,0.2v8.2c0,0.1,0.1,0.2,0.1,0.2h3.7c0.1,0,0.1-0.1,0.1-0.2v-8.2  C50.7,46.1,50.6,46,50.5,46z"></path><path d="M38.5,48.2h-3.7c-0.1,0-0.1,0-0.1,0.1v6.3c0,0,0.1,0.1,0.1,0.1h3.7c0.1,0,0.1,0,0.1-0.1v-6.3  C38.6,48.2,38.6,48.2,38.5,48.2z"></path><path d="M56.7,37.8H53c-0.1,0-0.1,0.1-0.1,0.2v16.5c0,0.1,0.1,0.2,0.1,0.2h3.7c0.1,0,0.1-0.1,0.1-0.2V38  C56.8,37.9,56.7,37.8,56.7,37.8z"></path></svg>