<svg xmlns="http://www.w3.org/2000/svg" xmlns:xlink="http://www.w3.org/1999/xlink" width="100" height="100" viewBox="0 0 100 100"><g><g transform="translate(50 50) scale(0.69 0.69) rotate(0) translate(-50 -50)" style="fill:#229897"><svg fill="#229897" xmlns="http://www.w3.org/2000/svg" xmlns:xlink="http://www.w3.org/1999/xlink" version="1.1" x="0px" y="0px" viewBox="0 0 100 100" style="enable-background:new 0 0 100 100;" xml:space="preserve"><path d="M7.3,70.1c0,5,1.9,9.7,5.3,13.3c-0.3,1.5-2.3,5.6-4.2,8.8l-0.9,1.5L9,94.6c0.6,0.3,1.2,0.5,2,0.5c2.2,0,5.3-1.2,9.5-3.1  c2.3-1,5.3-2.3,6.3-2.3h48.9c10.8,0,19.5-8.7,19.5-19.5s-8.8-19.5-19.5-19.5H26.8C16,50.7,7.3,59.4,7.3,70.1z M15.3,81.6  c-3-3-4.7-7-4.7-11.3c0-8.8,7.2-16,16-16h48.9c8.8,0,16,7.2,16,16s-7.2,16-16,16H48.4c-0.4-4-2.3-7.1-5.7-8.9  c-1.7-0.9-3.6-0.3-5.2,0.3c-1,0.3-2,0.7-3,0.7c-0.9,0-2-0.3-3-0.7c-1.6-0.6-3.4-1.3-5.2-0.3c-3.9,2.1-5.8,6.9-5.6,10.7  c-0.5,0.2-1.1,0.4-1.7,0.7c-1.6,0.7-4.2,1.8-6.1,2.4C17.2,83.2,16.2,82.2,15.3,81.6z"></path><path d="M52.5,64.9c9.7,0,19.4,0,29.1,0c2.3,0,2.3-3.5,0-3.5c-9.7,0-19.4,0-29.1,0C50.3,61.4,50.3,64.9,52.5,64.9z"></path><path d="M52.5,72.8c9.7,0,19.4,0,29.1,0c2.3,0,2.3-3.5,0-3.5c-9.7,0-19.4,0-29.1,0C50.3,69.3,50.3,72.8,52.5,72.8z"></path><path d="M52.5,80.6c7.6,0,15.2,0,22.8,0c2.3,0,2.3-3.5,0-3.5c-7.6,0-15.2,0-22.8,0C50.3,77.1,50.3,80.6,52.5,80.6z"></path><path d="M26.4,66.1c0,4.5,3.6,8.1,8.1,8.1s8.1-3.6,8.1-8.1S39,58,34.5,58S26.4,61.6,26.4,66.1z"></path><path d="M6.3,24.3c0,10.8,8.8,19.5,19.5,19.5h48.9c1,0,3.9,1.3,6.3,2.3c4.2,1.8,7.3,3.1,9.5,3.1c0.8,0,1.4-0.2,2-0.5l1.5-0.9  l-0.9-1.5c-1.9-3.3-3.9-7.3-4.2-8.8c3.4-3.6,5.3-8.3,5.3-13.3c0-10.8-8.8-19.5-19.5-19.5H25.8C15,4.7,6.3,13.5,6.3,24.3z M9.8,24.1  c0-8.8,7.2-16,16-16h48.9c8.8,0,16,7.2,16,16c0,4.3-1.7,8.3-4.7,11.3c-0.8,0.7-1.8,1.8,2.5,9.8c-1.9-0.7-4.5-1.8-6.1-2.5  c-0.6-0.2-1.2-0.5-1.7-0.7c0.2-3.8-1.7-8.6-5.6-10.7c-1.8-0.9-3.7-0.3-5.3,0.3c-1,0.3-2,0.7-3,0.7s-2-0.3-3-0.7  c-1.6-0.6-3.4-1.3-5.2-0.3c-3.4,1.9-5.3,4.9-5.7,8.9H25.8C16.9,40.2,9.8,32.9,9.8,24.1z"></path><path d="M19.8,18.9c9.7,0,19.4,0,29.1,0c2.3,0,2.3-3.5,0-3.5c-9.7,0-19.4,0-29.1,0C17.6,15.4,17.6,18.9,19.8,18.9z"></path><path d="M19.8,26.8c9.7,0,19.4,0,29.1,0c2.3,0,2.3-3.5,0-3.5c-9.7,0-19.4,0-29.1,0C17.6,23.3,17.6,26.8,19.8,26.8z"></path><path d="M26,34.6c7.6,0,15.2,0,22.8,0c2.3,0,2.3-3.5,0-3.5c-7.6,0-15.2,0-22.8,0C23.8,31.1,23.8,34.6,26,34.6z"></path><path d="M58.8,20.1c0,4.5,3.6,8.1,8.1,8.1s8.1-3.6,8.1-8.1c0-4.5-3.6-8.1-8.1-8.1S58.8,15.6,58.8,20.1z"></path></svg></g></g></svg>