<svg xmlns="http://www.w3.org/2000/svg" xmlns:xlink="http://www.w3.org/1999/xlink" width="100" height="100" viewBox="0 0 100 100"><g><g transform="translate(50 50) scale(0.69 0.69) rotate(0) translate(-50 -50)" style="fill:#ffffff"><svg fill="#ffffff" xmlns="http://www.w3.org/2000/svg" xmlns:xlink="http://www.w3.org/1999/xlink" version="1.1" x="0px" y="0px" viewBox="0 0 96 96" style="enable-background:new 0 0 96 96;" xml:space="preserve"><g><g><path d="M64,76.2c0-8.9-6.4-16.5-15.1-18l-1.1-0.2L47,58.9c-3.2,3.8-8,6.1-13,6.1s-9.7-2.2-13-6.1l-0.7-0.9l-1.1,0.2    C10.4,59.8,4,67.3,4,76.2V92h60V76.2z M60,88H8V76.2c0-6.6,4.5-12.2,10.8-13.8c4,4.2,9.5,6.6,15.2,6.6s11.3-2.4,15.2-6.6    C55.5,64,60,69.6,60,76.2V88z"></path><path d="M34,55c9.4,0,17-7.6,17-17s-7.6-17-17-17s-17,7.6-17,17S24.6,55,34,55z M34,25c7.2,0,13,5.8,13,13s-5.8,13-13,13    s-13-5.8-13-13S26.8,25,34,25z"></path><path d="M83,50.4v-0.7c0-6.6-5.4-12-12-12s-12,5.4-12,12v0.7c0,6.6,5.4,12,12,12S83,57,83,50.4z M63,50.4v-0.7c0-4.4,3.6-8,8-8    s8,3.6,8,8v0.7c0,4.4-3.6,8-8,8S63,54.8,63,50.4z"></path><path d="M81.5,64.1l-1.3-0.3l-0.8,1.1c-2.2,2.9-7.1,4.8-11.2,4.2l-0.5,4c4.9,0.6,10.6-1.3,13.9-4.7c3.7,1.5,6.4,5.5,6.4,9.7v10H68    v4h24V78C92,71.6,87.6,65.7,81.5,64.1z"></path><path d="M88,4H54c-2.2,0-4,1.8-4,4v17c0,2.2,1.8,4,4,4h20.7l4.1,9.5l5.4-9.5H88c2.2,0,4-1.8,4-4V8C92,5.8,90.2,4,88,4z M88,25    h-6.2l-2.6,4.5L77.3,25H54V8h34V25z"></path><rect x="59" y="12" width="24" height="4"></rect><rect x="60" y="18" width="13" height="4"></rect></g></g></svg></g></g></svg>