<svg xmlns="http://www.w3.org/2000/svg" xmlns:xlink="http://www.w3.org/1999/xlink" width="100" height="100" viewBox="0 0 100 100"><g><rect width="100%" height="100%" fill="#f5b71f"></rect><g transform="translate(50 50) scale(0.69 0.69) rotate(0) translate(-50 -50)" style="fill:#ffffff"><svg fill="#ffffff" xmlns:x="http://ns.adobe.com/Extensibility/1.0/" xmlns:i="http://ns.adobe.com/AdobeIllustrator/10.0/" xmlns:graph="http://ns.adobe.com/Graphs/1.0/" xmlns="http://www.w3.org/2000/svg" xmlns:xlink="http://www.w3.org/1999/xlink" version="1.1" x="0px" y="0px" viewBox="0 0 100 100" style="enable-background:new 0 0 100 100;" xml:space="preserve"><g><g i:extraneous="self"><g><path d="M54.2,36.8h2.7c4,0,7.2-3.2,7.2-7.2v-8.2c0-4-3.2-7.2-7.2-7.2H43.1c-4,0-7.2,3.2-7.2,7.2v8.2c0,4,3.2,7.2,7.2,7.2h1     c-0.1,0.9-0.3,1.9-0.7,3c-0.4,1.1-0.1,2.3,0.8,3c0.5,0.4,1.1,0.7,1.8,0.7c0.5,0,0.9-0.1,1.3-0.4C50.1,41.5,52.5,38.9,54.2,36.8z      M47,39.5c0.5-1.7,0.5-3.3,0.5-4.3c0-0.9-0.8-1.6-1.6-1.6h-2.7c-2.2,0-4-1.8-4-4v-8.2c0-2.2,1.8-4,4-4h13.8c2.2,0,4,1.8,4,4v8.2     c0,2.2-1.8,4-4,4h-3.6c-0.5,0-1,0.2-1.3,0.7C51,35.6,49.2,37.8,47,39.5z"></path><path d="M44.5,24.3h11.1c0.9,0,1.6-0.7,1.6-1.6S56.5,21,55.5,21H44.5c-0.9,0-1.6,0.7-1.6,1.6S43.5,24.3,44.5,24.3z"></path><path d="M57.2,28.2c0-0.9-0.7-1.6-1.6-1.6H44.5c-0.9,0-1.6,0.7-1.6,1.6s0.7,1.6,1.6,1.6h11.1C56.5,29.8,57.2,29.1,57.2,28.2z"></path><circle cx="23.2" cy="39.8" r="10.2"></circle><path d="M45,67.9c0.2-1,0.5-1.9,1.1-2.6c-1.9,0-3.7-0.3-4.8-0.8c-1.3-0.6-2.6-3.8-3.2-5.2c-0.3-0.7-0.5-1.3-0.8-1.7     c-1-1.9-3.1-4.2-7.3-4.2H17c-3.3,0-5.9,1.7-7.7,5l-0.4,0.8c-1.7,3.2-3.5,6.5-4.1,9c-0.7,2.6-2.1,10-2.2,10.3     c-0.4,2.1,1,4.2,3.1,4.6C5.9,83,6.2,83,6.4,83c1.8,0,3.5-1.3,3.8-3.2c0-0.1,1.5-7.5,2.1-9.8c0.2-1,0.9-2.4,1.6-3.8l-0.5,17     c0,1.4,1.1,2.6,2.5,2.6h14.5c1.4,0,2.5-1.2,2.5-2.6l-0.5-17.5c1.2,2.3,2.9,4.7,5.5,5.9c2.5,1.1,5.7,1.5,8.5,1.5     C45.2,71.7,44.6,69.8,45,67.9z"></path><circle cx="76.8" cy="39.8" r="10.2"></circle><path d="M97.4,78.4c-0.1-0.3-1.5-7.7-2.2-10.3c-0.6-2.5-2.4-5.8-4.1-8.9l-0.4-0.8c-1.8-3.3-4.4-5-7.7-5H70.1     c-4.2,0-6.3,2.3-7.3,4.2c-0.2,0.4-0.5,1-0.8,1.7c-0.6,1.4-1.9,4.6-3.2,5.2c-2.3,1.1-5.7,0.8-6.8,0.7c-2.1-0.4-4.1,1.1-4.5,3.2     c-0.4,2.1,1.1,4.2,3.2,4.5c0.6,0.1,6.5,1,11.4-1.3c2.6-1.2,4.3-3.6,5.5-5.9l-0.5,17.5c0,1.4,1.1,2.6,2.5,2.6h14.5     c1.4,0,2.5-1.2,2.5-2.6l-0.5-17c0.7,1.4,1.4,2.9,1.6,3.8c0.6,2.4,2.1,9.7,2.1,9.8c0.4,1.9,2,3.2,3.8,3.2c0.3,0,0.5,0,0.8-0.1     C96.5,82.5,97.8,80.5,97.4,78.4z"></path></g></g></g></svg></g></g></svg>