<svg fill="#FFFFFF" xmlns="http://www.w3.org/2000/svg" xmlns:xlink="http://www.w3.org/1999/xlink" version="1.1" x="0px" y="0px" viewBox="0 0 100 100" enable-background="new 0 0 100 100" xml:space="preserve"><g><g><path fill-rule="evenodd" clip-rule="evenodd" d="M83.553,61.025V49.026H51.974v-8.052c6.691-0.96,11.842-6.7,11.842-13.659    C63.815,19.685,57.629,13.5,50,13.5s-13.816,6.185-13.816,13.816c0,6.958,5.15,12.699,11.842,13.659v8.052H16.447v11.999    c-6.691,0.96-11.842,6.698-11.842,13.659c0,7.632,6.187,13.815,13.815,13.815c7.629,0,13.816-6.184,13.816-13.815    c0-6.961-5.15-12.7-11.842-13.659v-8.052h27.632v8.052c-6.692,0.959-11.842,6.698-11.842,13.659    C36.184,82.316,42.371,88.5,50,88.5s13.815-6.184,13.815-13.815c0-6.961-5.15-12.7-11.842-13.659v-8.052h27.632v8.052    c-6.691,0.959-11.842,6.698-11.842,13.659c0,7.632,6.187,13.815,13.815,13.815s13.815-6.184,13.815-13.815    C95.395,67.724,90.244,61.984,83.553,61.025z M24.342,74.685c0,3.269-2.652,5.921-5.921,5.921c-3.269,0-5.921-2.652-5.921-5.921    c0-3.27,2.652-5.921,5.921-5.921C21.69,68.764,24.342,71.415,24.342,74.685z M44.079,27.316c0-3.271,2.652-5.921,5.921-5.921    c3.269,0,5.921,2.65,5.921,5.921S53.269,33.237,50,33.237C46.731,33.237,44.079,30.587,44.079,27.316z M55.921,74.685    c0,3.269-2.652,5.921-5.921,5.921c-3.269,0-5.921-2.652-5.921-5.921c0-3.27,2.652-5.921,5.921-5.921    C53.269,68.764,55.921,71.415,55.921,74.685z M81.579,80.605c-3.269,0-5.921-2.652-5.921-5.921c0-3.27,2.652-5.921,5.921-5.921    s5.921,2.651,5.921,5.921C87.5,77.953,84.848,80.605,81.579,80.605z"></path></g></g></svg>