<svg fill="#FFFFFF" xmlns="http://www.w3.org/2000/svg" data-name="Layer 1" viewBox="0 0 64 64" x="0px" y="0px"><title>x</title><path d="M59,4.53H5A4.16,4.16,0,0,0,.86,8.68l0,44.37a6.43,6.43,0,0,0,6.43,6.42H56.68a6.43,6.43,0,0,0,6.43-6.42l0-44.37A4.16,4.16,0,0,0,59,4.53Zm-54,3H59a1.16,1.16,0,0,1,1.16,1.15v6.25H3.86V8.68A1.16,1.16,0,0,1,5,7.53ZM56.68,56.47H7.32a3.43,3.43,0,0,1-3.43-3.42V17.93H60.11V53.05A3.43,3.43,0,0,1,56.68,56.47Z"></path><path d="M43.81,12.71a1.49,1.49,0,1,0-1.48-1.49A1.49,1.49,0,0,0,43.81,12.71Z"></path><path d="M49.28,12.71a1.49,1.49,0,1,0-1.48-1.49A1.49,1.49,0,0,0,49.28,12.71Z"></path><path d="M54.74,12.71a1.49,1.49,0,1,0-1.48-1.49A1.49,1.49,0,0,0,54.74,12.71Z"></path><path d="M7.78,12.72H31.06a1.5,1.5,0,1,0,0-3H7.78a1.5,1.5,0,1,0,0,3Z"></path><path d="M55.44,33.88H8.56a1.5,1.5,0,0,1-1.5-1.5v-9a1.5,1.5,0,0,1,1.5-1.5H55.44a1.5,1.5,0,0,1,1.5,1.5v9A1.5,1.5,0,0,1,55.44,33.88Zm-45.38-3H53.94v-6H10.06Z"></path><path d="M37.14,52.52H26.86a1.5,1.5,0,0,1-1.5-1.5V39.74a1.5,1.5,0,0,1,1.5-1.5H37.14a1.5,1.5,0,0,1,1.5,1.5V51A1.5,1.5,0,0,1,37.14,52.52Zm-8.78-3h7.28V41.24H28.36Z"></path><path d="M18.36,41.24H8.49a1.5,1.5,0,0,1,0-3h9.87a1.5,1.5,0,0,1,0,3Z"></path><path d="M55.51,41.24H45.64a1.5,1.5,0,0,1,0-3h9.87a1.5,1.5,0,0,1,0,3Z"></path><path d="M18.36,46.88H8.49a1.5,1.5,0,0,1,0-3h9.87a1.5,1.5,0,0,1,0,3Z"></path><path d="M55.51,46.88H45.64a1.5,1.5,0,0,1,0-3h9.87a1.5,1.5,0,0,1,0,3Z"></path><path d="M18.36,52.52H8.49a1.5,1.5,0,0,1,0-3h9.87a1.5,1.5,0,0,1,0,3Z"></path><path d="M55.51,52.52H45.64a1.5,1.5,0,0,1,0-3h9.87a1.5,1.5,0,0,1,0,3Z"></path></svg>