<svg fill="#FFFFFF" xmlns="http://www.w3.org/2000/svg" xmlns:xlink="http://www.w3.org/1999/xlink" xml:space="preserve" version="1.1" style="shape-rendering:geometricPrecision;text-rendering:geometricPrecision;image-rendering:optimizeQuality;" viewBox="0 0 847 847" x="0px" y="0px" fill-rule="evenodd" clip-rule="evenodd"><defs><style type="text/css">
   
    .str0 {stroke:black;stroke-width:20;stroke-linecap:round;stroke-linejoin:round}
    .fil0 {fill:none}
   
  </style></defs><g><rect class="fil0 str0" x="96" y="329" width="200" height="404"></rect><polygon class="fil0 str0" points="223,158 477,158 477,389 334,389 334,287 223,287 "></polygon><rect class="fil0 str0" x="334" y="428" width="204" height="305"></rect><polygon class="fil0 str0" points="514,114 755,114 755,733 514,733 514,733 574,733 574,389 514,389 "></polygon><line class="fil0 str0" x1="334" y1="389" x2="334" y2="428"></line><rect class="fil0 str0" x="136" y="404" width="37.635" height="37.635"></rect><rect class="fil0 str0" x="218" y="404" width="37.635" height="37.635"></rect><rect class="fil0 str0" x="136" y="489" width="37.635" height="37.635"></rect><rect class="fil0 str0" x="218" y="489" width="37.635" height="37.635"></rect><rect class="fil0 str0" x="136" y="573" width="37.635" height="37.635"></rect><rect class="fil0 str0" x="218" y="573" width="37.635" height="37.635"></rect><rect class="fil0 str0" x="557" y="170" width="48.4465" height="48.4465"></rect><rect class="fil0 str0" x="663" y="170" width="48.4465" height="48.4465"></rect><rect class="fil0 str0" x="557" y="279" width="48.4465" height="48.4465"></rect><rect class="fil0 str0" x="663" y="279" width="48.4465" height="48.4465"></rect><rect class="fil0 str0" x="663" y="388" width="48.4465" height="48.4465"></rect><rect class="fil0 str0" x="377" y="483" width="37.635" height="37.635"></rect><rect class="fil0 str0" x="459" y="483" width="37.635" height="37.635"></rect><rect class="fil0 str0" x="377" y="568" width="37.635" height="37.635"></rect><rect class="fil0 str0" x="459" y="568" width="37.635" height="37.635"></rect></g></svg>