<svg xmlns="http://www.w3.org/2000/svg" xmlns:xlink="http://www.w3.org/1999/xlink" width="100" height="100" viewBox="0 0 100 100"><g><g transform="translate(50 50) scale(0.69 0.69) rotate(0) translate(-50 -50)" style="fill:#ffffff"><svg fill="#ffffff" xmlns="http://www.w3.org/2000/svg" viewBox="0 0 64 64" x="0px" y="0px"><g><path d="M61,32H54V29a5.009,5.009,0,0,0-4-4.9V3c0-.016-.008-.029-.009-.044a.97.97,0,0,0-.037-.255c-.006-.018-.018-.032-.024-.049a.975.975,0,0,0-.056-.112.989.989,0,0,0-.13-.193,1.068,1.068,0,0,0-.089-.089.985.985,0,0,0-.2-.134,1.072,1.072,0,0,0-.1-.052A.992.992,0,0,0,49,2H3a.992.992,0,0,0-.356.072,1.072,1.072,0,0,0-.1.052.985.985,0,0,0-.2.134,1.068,1.068,0,0,0-.089.089.989.989,0,0,0-.13.193.975.975,0,0,0-.056.112c-.006.017-.018.031-.024.049a.97.97,0,0,0-.037.255C2.008,2.971,2,2.984,2,3V31c0,.013.007.024.007.037a1.015,1.015,0,0,0,.069.346l0,0c0,.008.01.014.014.023a.994.994,0,0,0,.179.266.842.842,0,0,0,.077.069.948.948,0,0,0,.208.14.825.825,0,0,0,.095.045A.975.975,0,0,0,3,32h9V53a9.011,9.011,0,0,0,9,9H53a9.011,9.011,0,0,0,9-9V33A1,1,0,0,0,61,32Zm-9-3v3H29a1,1,0,0,0-1,1V52H22V29a4.98,4.98,0,0,0-1-3H49A3,3,0,0,1,52,29Zm-8.586-5L34.04,14.625,48,4.914V24Zm2.4-20L26,17.782,6.188,4ZM4,4.914l13.96,9.711L4,28.586ZM5.414,30,19.628,15.786l5.8,4.035a1,1,0,0,0,1.142,0l5.8-4.035L40.586,24H17a5.006,5.006,0,0,0-5,5v1ZM21,60a7.008,7.008,0,0,1-7-7V29a3,3,0,0,1,6,0V53a1,1,0,0,0,1,1h6.92A7,7,0,0,1,21,60Zm39-7a7.008,7.008,0,0,1-7,7H26.651A8.989,8.989,0,0,0,30,53V34H60Z"></path><path d="M48,37v8a1,1,0,0,0,1,1h8a1,1,0,0,0,1-1V37a1,1,0,0,0-1-1H49A1,1,0,0,0,48,37Zm2,1h6v6H50Z"></path><path d="M33,40H45a1,1,0,0,0,0-2H33a1,1,0,0,0,0,2Z"></path><path d="M33,44H45a1,1,0,0,0,0-2H33a1,1,0,0,0,0,2Z"></path><path d="M41,48H33a1,1,0,0,0-1,1v4.7a4.943,4.943,0,0,1-.832,2.748A1,1,0,0,0,32,58h8a1,1,0,0,0,.832-.445A6.938,6.938,0,0,0,42,53.7V49A1,1,0,0,0,41,48Zm-1,5.7a4.941,4.941,0,0,1-.567,2.3H33.608A6.921,6.921,0,0,0,34,53.7V50h6Z"></path><path d="M57,50H45a1,1,0,0,0,0,2H57a1,1,0,0,0,0-2Z"></path><path d="M56.5,54h-12a1,1,0,0,0,0,2h12a1,1,0,0,0,0-2Z"></path></g></svg></g></g></svg>