<svg fill="#FFFFFF" xmlns="http://www.w3.org/2000/svg" xmlns:xlink="http://www.w3.org/1999/xlink" version="1.1" x="0px" y="0px" viewBox="0 0 100 100" style="enable-background:new 0 0 100 100;" xml:space="preserve"><circle cx="48.9" cy="52.9" r="2.4"></circle><circle cx="58.2" cy="52.9" r="2.4"></circle><circle cx="39.7" cy="52.9" r="2.4"></circle><path d="M26,52.3c0,8.5,6.8,15.5,15.3,15.7v8.7L53,68.1h4c8.7,0,15.7-7,15.7-15.7s-7-15.7-15.7-15.7H41.7C33,36.6,26,43.7,26,52.3z   M28.2,52.3c0-7.4,6.1-13.5,13.5-13.5h15.2c7.4,0,13.5,6.1,13.5,13.5s-6.1,13.5-13.5,13.5h-4.7l-8.7,6.5v-6.5h-1.8  C34.3,65.8,28.2,59.8,28.2,52.3z"></path><path d="M26.5,89.9L26.5,89.9c0-0.1-0.6-7.6-10.1-7.6c-9.6,0-10.1,7.6-10.1,7.6v2.2c0,0.6,0.5,1.1,1.1,1.1h17.9  c0.6,0,1.1-0.5,1.1-1.1L26.5,89.9z"></path><path d="M16.1,80.5c2.8,0,5-2.5,5-5.5s-2.2-5.5-5-5.5c-2.8,0-5,2.5-5,5.5S13.4,80.5,16.1,80.5z"></path><path d="M93.2,89.9L93.2,89.9c0-0.1-0.6-7.6-10.1-7.6C73.5,82.3,73,89.9,73,90v2.2c0,0.6,0.5,1.1,1.1,1.1h17.9  c0.6,0,1.1-0.5,1.1-1.1L93.2,89.9z"></path><path d="M82.9,80.5c2.8,0,5-2.5,5-5.5s-2.2-5.5-5-5.5c-2.8,0-5,2.5-5,5.5S80.1,80.5,82.9,80.5z"></path><path d="M59.4,21.4L59.4,21.4c0-0.1-0.6-7.6-10.1-7.6c-9.6,0-10.1,7.6-10.1,7.6v2.2c0,0.6,0.5,1.1,1.1,1.1h17.9  c0.6,0,1.1-0.5,1.1-1.1L59.4,21.4z"></path><path d="M49.1,12c2.8,0,5-2.5,5-5.5s-2.2-5.5-5-5.5c-2.8,0-5,2.5-5,5.5S46.3,12,49.1,12z"></path><path d="M33.9,14.9c-0.2-0.5-0.7-0.8-1.2-0.8c-0.2,0-0.4,0-0.5,0.1C-4.9,30.5,6.8,68.1,6.9,68.5  c0.2,0.7,1,1.1,1.6,0.8c0.3-0.1,0.6-0.3,0.8-0.6c0.2-0.3,0.2-0.7,0.1-1c0-0.1-2.9-9-1.3-19.8c2-14.3,10.5-24.9,25.2-31.3  C33.9,16.3,34.2,15.6,33.9,14.9z"></path><path d="M67.8,14.2c-0.2-0.1-0.3-0.1-0.5-0.1c-0.2,0-0.3,0-0.5,0.1c-0.3,0.1-0.6,0.4-0.7,0.7c-0.1,0.3-0.1,0.7,0,1  c0.1,0.3,0.4,0.6,0.7,0.7c34.9,15.3,24.4,49.6,23.9,51c-0.2,0.7,0.2,1.4,0.8,1.6c0.7,0.2,1.4-0.2,1.6-0.8  C93.3,68.1,105,30.5,67.8,14.2z"></path><path d="M66.9,93c-18.2,7.7-33.1,0.1-33.3,0c-0.2-0.1-0.4-0.1-0.6-0.1c-0.1,0-0.3,0-0.4,0.1c-0.3,0.1-0.6,0.3-0.8,0.6  c-0.2,0.3-0.2,0.7-0.1,1c0.1,0.3,0.3,0.6,0.6,0.8c0.3,0.2,7.3,3.7,17.6,3.7c6.1,0,12.1-1.2,17.9-3.7c0.7-0.3,1-1,0.7-1.7  C68.4,93,67.6,92.7,66.9,93z"></path></svg>