<svg xmlns="http://www.w3.org/2000/svg" xmlns:xlink="http://www.w3.org/1999/xlink" width="100" height="100" viewBox="0 0 100 100"><g><g transform="translate(50 50) scale(0.69 0.69) rotate(0) translate(-50 -50)" style="fill:#229897"><svg fill="#229897" xmlns="http://www.w3.org/2000/svg" xmlns:xlink="http://www.w3.org/1999/xlink" version="1.1" x="0px" y="0px" viewBox="0 0 512 512" enable-background="new 0 0 512 512" xml:space="preserve"><g><path d="M231.4,34.8H34.8v196.6h196.6V34.8z M215,215H51.2V51.2H215V215z"></path><path d="M133.1,149.5c27.1,0,49.2,22.1,49.2,49.2h16.4c0-26.5-15.8-49.3-38.5-59.6c8.5-7.5,13.9-18.3,13.9-30.5   c0-22.6-18.4-41-41-41c-22.6,0-41,18.4-41,41c0,12.2,5.4,23,13.9,30.5c-22.7,10.3-38.5,33.1-38.5,59.6h16.4   C83.9,171.5,106,149.5,133.1,149.5z M108.5,108.5c0-13.6,11-24.6,24.6-24.6c13.6,0,24.6,11,24.6,24.6s-11,24.6-24.6,24.6   C119.5,133.1,108.5,122.1,108.5,108.5z"></path><rect x="256" y="59.4" width="114.7" height="16.4"></rect><rect x="256" y="124.9" width="114.7" height="16.4"></rect><rect x="256" y="190.5" width="114.7" height="16.4"></rect><path d="M510,354.3c0-56-43.4-101.9-98.3-106.1V2H2v508h409.7v-49.6C466.6,456.2,510,410.3,510,354.3z M18.4,493.6V18.4h376.9   v229.8c-17.7,1.4-34.1,7-48.3,16H34.8v16.4h292c-13,13.5-22.4,30.4-26.9,49.2H34.8v16.4h262.6c-0.2,2.7-0.4,5.4-0.4,8.2   c0,56,43.4,101.9,98.3,106.1v0.4H174.1v16.4h221.2v16.4H18.4z M403.5,444.5c-49.7,0-90.1-40.4-90.1-90.1   c0-49.7,40.4-90.1,90.1-90.1c49.7,0,90.1,40.4,90.1,90.1C493.6,404,453.2,444.5,403.5,444.5z"></path><polygon points="387.1,375.5 360.1,348.5 348.5,360.1 387.1,398.7 466.6,319.1 455,307.6  "></polygon><rect x="239.6" y="403.5" width="16.5" height="16.4"></rect><rect x="206.8" y="403.5" width="16.5" height="16.4"></rect><rect x="174" y="403.5" width="16.5" height="16.4"></rect><path d="M34.8,477.2h114.7V362.5H34.8V477.2z M51.2,378.9h81.9v81.9H51.2V378.9z"></path></g></svg></g></g></svg>