<svg fill="#229897" xmlns="http://www.w3.org/2000/svg" xmlns:xlink="http://www.w3.org/1999/xlink" version="1.1" x="0px" y="0px" viewBox="0 0 100 100" enable-background="new 0 0 100 100" xml:space="preserve"><path d="M45.19,62.302c0.015,0.151,0.027,0.276,0.027,0.276C45.207,62.473,45.198,62.384,45.19,62.302z M45.139,61.79  c0.005,0.048,0.014,0.142,0.025,0.252C45.151,61.907,45.143,61.83,45.139,61.79z M42.189,54.34  c-0.154-0.274-0.318-0.539-0.505-0.784c-2.598-3.429-6.601-5.903-10.806-6.655c-5.643-1.006-11.445,1.039-15.51,5.084  c-3.536,3.519-4.467,7.624-4.964,12.431c-0.244,2.365-1.909,5.08-2.768,7.279c-0.32,0.82-1.003,1.933-1.003,2.853  c0,2.03,3.745,1.245,3.745,1.477c0,3.277-0.558,7.025,1.823,9.646c1.398,1.538,3.311,2.25,5.345,2.25c1.475,0,2.45-0.587,2.45,1.023  c0,0.916-0.058,6.056-0.058,6.056h18.693c0,0,0-11.047,0-15.666c0-1.173,0.07-1.025,1.03-1.922c1.665-1.557,3.028-3.439,3.99-5.52  c0.766-1.654,1.164-3.294,1.37-4.971c0.131-0.872,0.306-3.551-0.051-5.637C44.612,59.198,43.575,56.384,42.189,54.34z   M49.786,60.108c0,0.911-0.728,1.651-1.626,1.651s-1.626-0.74-1.626-1.651s0.728-1.65,1.626-1.65S49.786,59.197,49.786,60.108z   M48.786,60.108c0-0.35-0.281-0.635-0.626-0.635s-0.626,0.285-0.626,0.635c0,0.351,0.281,0.636,0.626,0.636  S48.786,60.459,48.786,60.108z M53.867,54.08c0,1.601-1.277,2.897-2.854,2.897s-2.854-1.297-2.854-2.897s1.278-2.897,2.854-2.897  S53.867,52.479,53.867,54.08z M52.867,54.08c0-1.037-0.831-1.882-1.854-1.882s-1.854,0.845-1.854,1.882s0.832,1.883,1.854,1.883  S52.867,55.117,52.867,54.08z M93.367,28.092c0,12.753-14.066,23.09-31.416,23.09c-17.351,0-31.417-10.337-31.417-23.09  C30.534,15.338,44.6,5,61.951,5C79.301,5,93.367,15.338,93.367,28.092z M92.367,28.092c0-12.174-13.645-22.077-30.416-22.077  c-16.772,0-30.417,9.903-30.417,22.077c0,12.172,13.645,22.076,30.417,22.076C78.723,50.168,92.367,40.265,92.367,28.092z   M59.831,33.349c0,0-0.004-0.052-0.01-0.123C59.823,33.266,59.827,33.305,59.831,33.349z M58.491,29.703  c-0.068-0.123-0.141-0.238-0.225-0.347c-1.149-1.518-2.921-2.613-4.783-2.946c-2.496-0.446-5.066,0.46-6.865,2.25  c-1.564,1.557-1.978,3.377-2.198,5.506c-0.108,1.044-0.845,2.247-1.226,3.22c-0.141,0.364-0.443,0.856-0.443,1.264  c0,0.9,1.658,0.549,1.658,0.654c0,1.448-0.247,3.106,0.807,4.269c0.62,0.68,1.465,0.996,2.367,0.996  c0.651,0,1.085-0.258,1.085,0.452c0,0.403-0.026,2.682-0.026,2.682h8.274c0,0,0-4.89,0-6.934c0-0.522,0.031-0.456,0.456-0.852  c0.736-0.688,1.339-1.521,1.766-2.444c0.339-0.733,0.517-1.461,0.608-2.203c0.059-0.386,0.136-1.57-0.024-2.492  C59.564,31.853,59.104,30.607,58.491,29.703z M61.854,32.256c0,0.404-0.321,0.733-0.72,0.733c-0.397,0-0.72-0.329-0.72-0.733  c0-0.403,0.322-0.728,0.72-0.728C61.533,31.528,61.854,31.853,61.854,32.256z M61.354,32.256c0-0.124-0.097-0.221-0.22-0.221  c-0.121,0-0.22,0.099-0.22,0.221c0,0.124,0.099,0.225,0.22,0.225S61.354,32.38,61.354,32.256z M63.662,29.588  c0,0.707-0.567,1.282-1.265,1.282c-0.698,0-1.263-0.575-1.263-1.282c0-0.708,0.564-1.284,1.263-1.284  C63.095,28.304,63.662,28.88,63.662,29.588z M63.162,29.588c0-0.427-0.343-0.776-0.765-0.776c-0.421,0-0.763,0.349-0.763,0.776  c0,0.427,0.342,0.774,0.763,0.774C62.819,30.362,63.162,30.015,63.162,29.588z M81.149,18.083c0,5.645-6.23,10.221-13.908,10.221  c-7.681,0-13.909-4.576-13.909-10.221c0-5.646,6.229-10.223,13.909-10.223C74.919,7.861,81.149,12.438,81.149,18.083z   M80.649,18.083c0-5.357-6.015-9.715-13.408-9.715s-13.409,4.357-13.409,9.715c0,5.356,6.016,9.713,13.409,9.713  S80.649,23.439,80.649,18.083z"></path></svg>