<svg fill="#229897" xmlns="http://www.w3.org/2000/svg" xmlns:xlink="http://www.w3.org/1999/xlink" version="1.1" x="0px" y="0px" viewBox="0 0 120 120" style="enable-background:new 0 0 120 120;" xml:space="preserve"><g><path d="M109.6,97.6c-2.6-3-6.6-4-10.2-5.2c-1-0.3-1.7,1-1,1.7c0.1,0.1,0.2,0.1,0.2,0.2c0,0.3-0.1,0.6-0.1,1c-1.1,0-2.3,0-3.4,0   c0.2-0.9,0.1-1.9,0.1-3c0-1.9,0-3.8,0-5.7c0-3.7-0.1-7.3-0.2-11c0.1-0.1,0.1-0.1,0.2-0.2c0.1-0.1,0-0.2-0.1-0.1   c0,0-0.1,0.1-0.1,0.1c0-0.8,0-1.7-0.1-2.5c-0.1-4.5-0.3-9.1-0.4-13.6c0-2-0.1-3.9-0.3-5.9c0.1-0.1,0.3-0.2,0.4-0.3   c0.1-0.1,0-0.4-0.1-0.2c-0.1,0.1-0.2,0.1-0.3,0.2c0-0.1,0-0.2,0-0.3c-0.1-1.6-0.1-3.5-1.1-4.8c-0.1-0.1-0.2-0.1-0.3,0   c-0.1,0.1-0.2,0.3-0.3,0.5c-0.2-0.2-0.4-0.2-0.7-0.2c-2.6-0.1-5.2,0.2-7.8,0.1c-2.2,0-5.2-0.1-7.5-0.9c0-0.1,0.1-0.3,0.1-0.4   c0,0,0,0,0,0c-0.1,0.1-0.2,0.2-0.3,0.3c-0.3-0.1-0.5-0.2-0.7-0.3c0,0-0.1,0-0.1,0.1c0.1,0.2,0.3,0.4,0.5,0.6   c-2.7,3-2.2,7.8-1.8,11.5c0.5,4.7,1.3,9.2,1.3,14c0,4.4,0.1,8.9,0,13.3c-0.1,3.6-0.6,7.2-0.8,10.7c-1.7,0.1-3.3,0.1-5,0.1   c0.4-0.2,0.7-0.5,0.6-1.1C70.2,90.7,69.6,85.3,69,80c-0.5-5.1-0.8-10.3-1.6-15.4c0,0,0,0,0.1,0c1.4-0.8,0.2-2.9-1.3-2.2   c-2.5,1.2-5.5,1.4-8.3,1.4c-1.7,0-4.5,0-6.1-0.7c-0.1,0-0.1-0.1-0.2-0.1c-0.1,0-0.2,0-0.2,0.1c-0.1,0.1-0.2,0.2-0.2,0.4   c-0.4,7-0.5,14-0.4,21.1c0,0.9-0.3,8.9,0.8,12c-2.9-0.1-5.8-0.1-8.6-0.1c1.5-1.4,1-5.3,1.1-6.9c0-3.3-0.1-6.5-0.4-9.7   c0,0,0-0.1,0-0.1c0-0.3-0.1-0.7-0.1-1c0,0,0,0,0.1,0c1.2-0.5,0.6-2-0.4-2.3c-0.1-0.3-0.4-0.3-0.6,0c-0.1,0-0.2,0-0.4,0.1   c-2.3,1.1-4.8,0.4-7.1,1.1c-0.6,0.2-1.7,0-2.5,0.3c0,0,0-0.1,0-0.1c0.3-0.8-0.9-1.3-1.3-0.6c-3.1,5.5-2.4,12.9-1.7,18.9   c0,0.2,0.1,0.3,0.1,0.4c-2.7,0-5.4-0.1-8.1,0c-1.2,0-2.8-0.2-4.2,0c1.6-4.5,1.4-9.5,1.2-14.2c0-0.7-0.1-1.4-0.1-2.1   c0.1,0.2,0.4,0.2,0.6,0.2c3.5-0.8,6.9-3.3,10-5.1c3.5-2.1,7-4.3,10.5-6.5c7.3-4.6,14.3-9.5,21.4-14.5c9.8-6.9,19.5-14,29-21.3   c0.3,0.3,0.7,0.6,1,1c0.5,0.6,1,1.2,1.5,1.7c0.7,0.7,1.9-0.2,1.3-1c0,0-0.1-0.1-0.1-0.1c0.5,0.2,1.1,0.1,1.5-0.5   c0.9-1.5,1.8-3.1,2.6-4.6c0.8-1.3,1.7-2.6,2.6-3.8c0.2-0.3,0.3-0.7,0.3-1c0.3-0.2,0.5-0.4,0.8-0.6c0.6-0.5,0.5-1.2,0-1.6   c0.2-0.2,0.5-0.4,0.7-0.6c0.8-0.6,0.4-2.2-0.8-1.8c-1.8,0.6-3.7,1.6-5.4,2.8c-0.7,0.3-1.3,0.7-1.9,1c-2.6,1.3-5.2,2.7-8,3.5   c-0.5,0.2-0.8,0.6-0.8,1c-0.1,0.1-0.2,0.3,0,0.3c0,0,0,0,0,0c0.1,0.6,0.5,1.1,1.2,1.1c0.1,0,0.2,0,0.4,0c0.3,0.2,0.6,0.5,0.8,0.7   c-0.1,0.3-0.1,0.6,0.2,0.9c-9.6,7.2-19.3,14.2-29.2,21C51.9,57,45,61.6,38.1,66.2c-3.4,2.3-6.9,4.5-10.4,6.7   c-3,1.9-6.8,3.7-9.2,6.4c0,0,0,0.1-0.1,0.1c-0.4-5.3-1.2-10.6-1.4-15.9c-0.3-7.7,1-16,0.4-24c0-0.3,0-0.6,0-0.9   c0-2.2,0.1-5.4-0.5-8.1c0.1,0,0.2,0,0.4,0c0.5,0,1.1-0.6,0.9-1.1c0-0.1-0.1-0.2-0.1-0.3c0.1,0.1,0.1,0.3,0.2,0.4   c0.3,0.7,1.6,0.4,1.5-0.4c-0.6-5-2.6-9.7-4.3-14.4c-0.3-0.8-1.4-0.8-1.6,0c-0.2,0.5-0.3,1-0.5,1.4c0,0.1-0.1,0.1-0.1,0.2   c0,0,0,0,0,0.1c-1.4,4-3,8.3-2.8,12.4c-0.7,0.3-0.7,1.5,0.2,1.7c1.1,0.2,2.1,0.2,3.2,0.2c2.8,10.3,0.6,21.7,0.6,32.2   c0,3.3,0.3,6.5,0.6,9.8c0,0.7,0,1.3,0,2C15,81.3,15,88,15,94.6c-0.2,0.6-0.4,1.2-0.7,1.8c-0.7,1.6,1.4,2.9,2.3,1.8   c1.1,0.6,2.7,0.7,3.8,0.9c3.2,0.5,6.4,0.5,9.6,0.6c7.2,0.1,14.5-0.1,21.7,0.2c9.5,0.3,18.8,1.1,28.3,0.3c6-0.5,12.1-1.6,18.1-1.5   c0,0.3,0,0.5-0.1,0.8c0,0,0,0,0,0c-0.1,0.2-0.1,0.4,0,0.6c-0.1,0.7-0.2,1.5-0.3,2.2c-0.1,0.1-0.1,0.2-0.1,0.3c0,0.1,0,0.2-0.1,0.2   c0,0,0,0-0.1,0c-0.5,0.2-0.5,0.8-0.3,1.2c-0.2,0.8,1,1,1.3,0.3c0-0.1,0.1-0.1,0.1-0.2c0.1,0,0.1-0.1,0.2-0.1   c0.2,0.3,0.7,0.5,1.1,0.3c1.5-0.8,2.9-1.8,4.3-2.8c1-0.4,2-1,3-1.6c0.9,0.1,1.6-0.3,2-0.9C109.7,98.9,110.1,98.2,109.6,97.6z    M94.3,29.5c0.3-0.2,0.6-0.5,0.9-0.7c-0.4,0.6-0.7,1.2-1,1.8c-0.1-0.1-0.3-0.1-0.4-0.2c0-0.1,0-0.2,0-0.2   C93.9,30,94.1,29.8,94.3,29.5z M88.6,29.5c0,0.1,0,0.1,0,0.2c-0.1-0.1-0.2-0.1-0.2-0.2C88.4,29.6,88.5,29.5,88.6,29.5z M32.3,78.8   c0.3,0.1,0.6,0.3,1,0.4c0.5,0,1.1,0.1,1.6,0.2c-1.4,1-2.7,2.6-3.3,4.2C31.6,81.9,31.9,80.4,32.3,78.8z M41.7,92.5   c-0.1,0.7,0,2.5-0.4,3.2c-0.2,0.2-0.4,0.5-0.5,0.7c-0.8,0-1.6,0-2.4,0c0.1,0,0.1-0.1,0.2-0.1c0.2-0.1,0.1-0.5-0.2-0.4   c-0.1,0-0.1,0.1-0.2,0.1c1.3-1.5,2.6-2.9,3.6-4.5C41.8,91.8,41.8,92.1,41.7,92.5z M42.2,81.3c-3,4.2-6,8.4-8.4,13   c-0.1,0.1-0.1,0.3,0,0.4c0.1,0.1,0.2,0.2,0.2,0.3c0.1,0.2,0.3,0.2,0.5,0.2c0.7-0.1,0.7-1.2,1-1.7c0.1-0.1,0-0.3-0.1-0.3   c0.7-1.4,1.6-2.8,2.4-4.1c1.4-2.4,2.9-4.7,4.4-7C42,83.7,42,85.5,42,87.2c0,1.1-0.1,2.2-0.1,3.3c-1.2,2.2-3.3,4.1-5,6   c-1.6,0-3.1,0.1-4.7,0.1c0-0.1,0-0.3,0-0.4c-0.3-3.1-0.7-6.6-0.7-10c0.1,0.1,0.2,0.3,0.5,0.4c0.3,0.1,0.4-0.3,0.2-0.4   c-0.4-0.3-0.3,0-0.1-0.3c0.1-0.2,0.1-0.5,0.1-0.8c0.2-0.8,0.6-1.5,1-2.2c0.7-1.2,1.5-2.3,2.5-3.3c0.3,0,0.5,0.1,0.8,0.1   c0.8,0.1,1.6,0.1,2.4,0c-1.1,2.1-2.8,4-4.2,5.9c-1.1,1.4-2.8,3.5-1.7,5.3c0.2,0.3,0.5,0.1,0.5-0.1c0.3-4.3,4.5-7.1,5.9-11   c1-0.1,2.1-0.2,3.1-0.5C42.2,79.8,42.2,80.6,42.2,81.3z M52.1,64.4c1.1,0.8,2.3,1.1,3.6,1.3c-1.3,1.7-2.4,3.6-3.3,5.5   C52.3,69,52.2,66.7,52.1,64.4z M52.5,73.6c0.8-2.8,2.3-5.4,3.9-7.8c0.5,0.1,1,0.1,1.6,0.1c0.3,0,0.6,0,0.9,0.1   c-1.1,2.9-2.7,5.7-4.2,8.5c-0.6,1-1.6,2.4-2.1,3.8C52.6,76.7,52.5,75.1,52.5,73.6z M52.7,82.2c0-0.7,0-1.5-0.1-2.2   c0.1,0,0.2,0,0.2-0.1C55,75.3,58.2,71,59.3,66c1.1,0,2.2,0,3.3-0.1c-3.5,5.8-6.5,11.9-9.8,17.8C52.7,83.2,52.7,82.7,52.7,82.2z    M53,89.4c0.2,0.2,0.5,0.2,0.7-0.1c0.1-0.1,0.2-0.3,0.2-0.4c0.5-0.7,1.1-1.2,1.7-1.9c0.2-0.2-0.1-0.5-0.3-0.4c0,0-0.1,0-0.1,0.1   c1.8-3.1,3.7-6.3,5.5-9.4c2.2-3.7,4.1-7.5,5.2-11.7c0-0.1-0.1-0.2-0.2,0c-2.7,8.5-9.3,14.9-12.8,23c0-0.8-0.1-1.6-0.1-2.4   c0.2-0.3,0.4-0.6,0.6-0.8c0.1-0.1,0-0.2-0.1-0.3c3.7-6.1,6.8-12.7,9.8-19.2c1.1-0.1,2.1-0.4,3.1-0.8c-0.3,3.3-0.3,6.7-0.1,10   c-4.7,5.2-9.7,10.5-13.1,16.7C53,91,53,90.2,53,89.4z M53.4,96.6c0-0.2,0-0.6,0-0.8c0-0.4,0-0.7-0.1-1.1c0.4-0.3,0.6-1.2,0.8-1.8   c0-0.1,0-0.2-0.1-0.3c0.2-0.4,0.5-0.8,0.7-1.3c1.3-2.2,2.8-4.3,4.3-6.4c2.3-3.1,4.9-6,7.2-9.2c0.1,1,0.1,2.1,0.2,3.2   c0.1,1.3,0.2,2.6,0.3,3.9c-2.8,2.6-5.3,5.5-7.8,8.5c-1.2,1.5-3,3.3-3.8,5.2C54.5,96.6,53.9,96.6,53.4,96.6z M65.8,97.2   c-1.1,0-2.2-0.1-3.4-0.1c1.8-1.7,3.3-3.8,3.4-6.4c0-0.1-0.1-0.1-0.1,0c-0.9,2.7-2.5,4.7-4.6,6.4c-0.8,0-1.5-0.1-2.3-0.1   c2.3-3.2,3.5-7,7-9.3c0.2-0.2,0-0.5-0.2-0.4c-3.9,1.7-6.1,6-8.3,9.6c-0.4,0-0.9,0-1.3-0.1c3-4.8,6.9-9.2,10.7-13.3   c0.2,3.2,0.5,6.5,0.8,9.7c-0.3,0.8-0.6,1.7-1,2.5C66.4,96.1,66,96.6,65.8,97.2z M66.9,97.2c0.1-0.3,0.3-0.7,0.4-1   c0.1-0.3,0.2-0.7,0.3-1c0,0.3,0.1,0.6,0.1,1c0,0.6,0.4,0.9,0.8,1.1C68,97.2,67.5,97.2,66.9,97.2z M76.4,48.1   c0.6,0.5,1.3,0.9,2.1,1.2c-1.5,2.1-2.5,5-2.2,7.6c0,0.4,0.6,0.5,0.7,0.1c0.4-2.7,0.4-5.1,2-7.5c0.7,0.2,1.5,0.3,2.3,0.4   c-2.2,2.8-4.2,5.9-4.8,9.4C75.9,55.5,75.6,51.7,76.4,48.1z M77.1,61.2c0.2-4.3,2.2-7.9,4.8-11.3c0,0,0.1,0,0.1,0   c2.5,0.3,5.1,0.3,7.6,0.3c-2.5,2.5-4.3,5.3-5.9,8.5c-1.8,3.6-3.8,7.3-5.2,11.1c-0.2,0.5,0.5,0.7,0.8,0.3c2.1-3.1,3.3-6.9,4.8-10.3   c1.6-3.4,3.5-6.8,6-9.6c0.6,0,1.3,0,1.9,0c-0.4,1.6-0.4,3.4-0.3,5.1c-2.5,2.3-4.7,4.9-6.8,7.5c-2.1,2.8-5.7,7.1-5.1,11   c0,0.2,0.4,0.2,0.4-0.1c0.1-3.9,2.9-7.6,5.1-10.6c1.9-2.6,4-5.1,6.4-7.3c0,1,0.1,1.9,0.1,2.7c0,1.5,0,3,0.1,4.6   c-2.7,3.3-5.5,6.5-8.1,9.8c-1.5,1.8-2.8,3.8-4,5.8c-0.6,1-1.3,2.2-1,3.4c0.1,0.2,0.4,0.2,0.4-0.1c0-1.4,1.1-3,1.9-4.2   c1.3-2.1,2.9-4.1,4.3-6c2.1-2.8,4.4-5.5,6.5-8.3c0.1,3,0.2,5.9,0.3,8.9c-2.1,3-4.4,5.9-6.8,8.8c-2.3,2.8-5,5.3-7.5,8   c0,0,0-0.1,0-0.1c0.2-4.6,0.1-9.2,0-13.7c-0.1-4.3-0.4-8.4-1-12.6c0-0.3-0.1-0.6-0.1-1C76.9,61.6,77.1,61.4,77.1,61.2z M88,95.8   c1.5-1.7,2.9-3.9,3-6.3c0-0.1-0.2-0.2-0.2,0c-0.7,2.2-2.2,4.6-4,6.4c-1.4,0.2-2.7,0.3-4,0.5c-0.5,0.1-1,0.1-1.4,0.2   c0-0.1-0.1-0.2-0.2-0.2c3-4.6,7.5-8,11-12.2c0.2-0.2-0.1-0.5-0.3-0.3c-4.1,4.3-9,7.8-12.1,12.8c-0.9,0.1-1.9,0.2-2.8,0.2   c1.2-1.9,1-4.9,1.1-7.2c0,0,0,0,0,0c3-2.2,5.5-5.5,7.8-8.4c2.3-2.8,4.5-5.8,6.4-8.9c0,0.1,0,0.3,0,0.4c0.1,1.6,0.1,3.2,0.2,4.8   c-4.1,3.8-7.8,8.2-11.3,12.4c-1.1,1.2-2.6,2.8-3,4.4c-0.2,0.7,0.4,1,1,0.7c0.2-0.1,0.2-0.4-0.1-0.5c0.1,0,2-2.9,2.1-3   c1.2-1.5,2.4-2.9,3.6-4.3c2.5-3,5-6.1,7.7-9c0.1,2.5,0.2,5,0.3,7.5c0.1,1.9,0.1,3.8,0.2,5.8c0,0.4,0,0.7,0,1.1   c-0.7,1-1.5,1.9-2.4,2.8C89.7,95.6,88.8,95.7,88,95.8z M91.7,95.5c0.5-0.6,0.9-1.2,1.2-1.9c0,0.6,0.1,1.2,0.2,1.8   C92.7,95.4,92.2,95.4,91.7,95.5z M99.6,95.3c0-0.1,0-0.1,0-0.2c0.1,0.1,0.2,0.1,0.2,0.2C99.8,95.3,99.7,95.3,99.6,95.3z"></path><path d="M78,65.6c1.8-4.6,4.2-9.4,7.6-13c0.2-0.2-0.1-0.5-0.3-0.3c-2.2,2.2-4,5-5.6,7.7c-0.9,1.5-2.5,3.8-2.2,5.6   C77.6,65.9,77.9,65.8,78,65.6z"></path></g></svg>