<svg fill="#FFFFFF" xmlns="http://www.w3.org/2000/svg" xmlns:xlink="http://www.w3.org/1999/xlink" version="1.1" x="0px" y="0px" viewBox="0 0 100 100" enable-background="new 0 0 100 100" xml:space="preserve"><g><path d="M75.063,57.248c-8.146,0-14.772,6.627-14.772,14.772s6.627,14.772,14.772,14.772s14.772-6.627,14.772-14.772   S83.209,57.248,75.063,57.248z M75.063,84.793c-7.043,0-12.772-5.729-12.772-12.772s5.729-12.772,12.772-12.772   s12.772,5.729,12.772,12.772S82.106,84.793,75.063,84.793z"></path><path d="M75.147,41.861c8.146,0,14.771-6.627,14.771-14.772s-6.626-14.772-14.771-14.772c-8.146,0-14.773,6.627-14.773,14.772   S67.001,41.861,75.147,41.861z M75.147,14.316c7.042,0,12.771,5.729,12.771,12.772s-5.729,12.772-12.771,12.772   c-7.043,0-12.773-5.729-12.773-12.772S68.104,14.316,75.147,14.316z"></path><path d="M69.87,32.572c0.194,0.187,0.443,0.279,0.693,0.279c0.263,0,0.524-0.103,0.721-0.307l3.862-4.014l3.862,4.014   c0.196,0.204,0.458,0.307,0.721,0.307c0.25,0,0.499-0.093,0.693-0.279c0.398-0.383,0.41-1.016,0.027-1.414l-3.916-4.07l3.916-4.07   c0.383-0.398,0.371-1.031-0.027-1.414s-1.03-0.372-1.414,0.027l-3.862,4.014l-3.862-4.014c-0.383-0.399-1.016-0.41-1.414-0.027   s-0.41,1.016-0.027,1.414l3.916,4.07l-3.916,4.07C69.46,31.556,69.472,32.189,69.87,32.572z"></path><path d="M81.893,67.12L71.23,74.707l-2.756-3.949c-0.316-0.451-0.939-0.562-1.393-0.248c-0.453,0.316-0.563,0.939-0.248,1.393   l3.334,4.777c0.153,0.219,0.387,0.367,0.649,0.413c0.057,0.01,0.114,0.015,0.171,0.015c0.206,0,0.409-0.063,0.58-0.186   l11.484-8.173c0.45-0.32,0.555-0.944,0.234-1.395C82.968,66.905,82.343,66.799,81.893,67.12z"></path><path d="M90.25,49H7.75c-0.552,0-1,0.448-1,1s0.448,1,1,1h82.5c0.553,0,1-0.448,1-1S90.803,49,90.25,49z"></path><path d="M12.5,32.099h25.926v5.234c0,0.384,0.219,0.733,0.565,0.9c0.138,0.067,0.287,0.1,0.435,0.1   c0.221,0,0.441-0.073,0.621-0.216l14.035-11.122c0.245-0.194,0.385-0.492,0.379-0.804c-0.007-0.313-0.159-0.604-0.412-0.788   L40.015,15.191c-0.304-0.222-0.707-0.252-1.042-0.083c-0.335,0.17-0.546,0.515-0.546,0.891v4.324H12.5c-0.552,0-1,0.448-1,1v9.774   C11.5,31.651,11.948,32.099,12.5,32.099z M13.5,22.324h25.927c0.552,0,1-0.448,1-1v-3.36l11.381,8.281l-11.381,9.019v-4.166   c0-0.552-0.448-1-1-1H13.5V22.324z"></path><path d="M53.461,65.678H27.534v-4.324c0-0.376-0.211-0.721-0.546-0.892c-0.335-0.168-0.737-0.139-1.042,0.083L11.912,70.756   c-0.253,0.184-0.405,0.476-0.412,0.788c-0.006,0.313,0.134,0.61,0.379,0.805l14.035,11.122c0.18,0.143,0.4,0.216,0.621,0.216   c0.148,0,0.297-0.033,0.435-0.1c0.346-0.167,0.565-0.517,0.565-0.9v-5.234h25.926c0.553,0,1-0.447,1-1v-9.774   C54.461,66.125,54.014,65.678,53.461,65.678z M52.461,75.452H26.535c-0.552,0-1,0.447-1,1v4.166l-11.382-9.02l11.381-8.281v3.36   c0,0.553,0.448,1,1,1h25.927V75.452z"></path></g></svg>