<svg fill="#FFFFFF" xmlns="http://www.w3.org/2000/svg" xmlns:xlink="http://www.w3.org/1999/xlink" version="1.1" x="0px" y="0px" viewBox="0 0 100 100" enable-background="new 0 0 100 100" xml:space="preserve"><g><path fill="#FFFFFF" d="M91.1,85.7c-1.1-8.8-9.5-13.4-15-15.6l-8.9,15l-0.8-10.3l2.1-4.8h-8l2,4.8l-0.8,10.3l-8.8-15   c-5.6,2.1-13.9,6.7-15,15.6c-0.2,1.3,0.4,2.5,1.4,3.2c3,2.1,10.6,6.1,25.2,6.1l0,0l0,0c14.6,0,22.2-4,25.2-6.1   C90.7,88.2,91.2,87,91.1,85.7z M80.9,87.7h-7.8v-2.1h7.8V87.7z"></path><ellipse fill="#FFFFFF" cx="64.5" cy="52.8" rx="13.3" ry="14"></ellipse><path fill="#FFFFFF" d="M41.4,72.9H31.2v-3.7h15.4c1.1-0.6,2.2-1.1,3.3-1.6l0,0l3.5-1.6c-3.6-3.2-5.8-7.9-5.8-13.2   c0-9.6,7.5-17.4,16.8-17.4c1.5,0,2.9,0.2,4.3,0.6V13.6c0-0.9-0.8-1.7-1.7-1.7h-15V7.2c0-1.2-1-2.2-2.2-2.2H27.7   c-1.2,0-2.2,1-2.2,2.2V12h-15c-0.9,0-1.7,0.8-1.7,1.7v76.4c0,1.3,1.1,2.3,2.3,2.3h21.6V74.8h6.5C40,74.1,40.7,73.5,41.4,72.9z    M58.3,24.4h4.3v9.8h-4.3V24.4z M52.7,24.4H57v9.8h-4.3V24.4z M38.6,54.6h-4.3v-9.8h4.3V54.6z M38.6,34.3h-4.3v-9.8h4.3V34.3z    M44.2,54.6h-4.3v-9.8h4.3V54.6z M44.2,34.3h-4.3v-9.8h4.3V34.3z M20.2,76.5H16v-9.8h4.3V76.5z M20.2,54.6H16v-9.8h4.3V54.6z    M20.2,34.3H16v-9.8h4.3V34.3z M25.8,76.5h-4.3v-9.8h4.3V76.5z M25.8,54.6h-4.3v-9.8h4.3V54.6z M25.8,34.3h-4.3v-9.8h4.3V34.3z"></path></g></svg>