<svg fill="#FFFFFF" xmlns="http://www.w3.org/2000/svg" xmlns:xlink="http://www.w3.org/1999/xlink" version="1.1" x="0px" y="0px" viewBox="0 0 100 100" enable-background="new 0 0 100 100" xml:space="preserve"><g><g><g><path d="M41.9,40.5c-2.8,0-5.1-2.3-5.1-5.1c0-2.8,2.3-5.1,5.1-5.1s5.1,2.3,5.1,5.1C47,38.3,44.7,40.5,41.9,40.5z M41.9,33.2     c-1.2,0-2.2,1-2.2,2.2c0,1.2,1,2.2,2.2,2.2c1.2,0,2.2-1,2.2-2.2C44.2,34.2,43.2,33.2,41.9,33.2z"></path></g></g></g><g><g><g><path d="M90.7,70.4h-3V11.2h3c0.8,0,1.4-0.6,1.4-1.4c0-0.8-0.6-1.4-1.4-1.4H51.4V6.4C51.4,5.6,50.8,5,50,5s-1.4,0.6-1.4,1.4v1.8     H9.3c-0.8,0-1.4,0.6-1.4,1.4c0,0.8,0.6,1.4,1.4,1.4h3v59.2h-3c-0.8,0-1.4,0.6-1.4,1.4c0,0.8,0.6,1.4,1.4,1.4h28.9L18.9,92.5     c-0.6,0.6-0.6,1.5,0,2c0.3,0.3,0.6,0.4,1,0.4c0.4,0,0.7-0.1,1-0.4l21.3-21.3h6.3v16.2c0,0.8,0.6,1.4,1.4,1.4s1.4-0.6,1.4-1.4     V73.3h6.3l21.3,21.3c0.3,0.3,0.6,0.4,1,0.4c0.4,0,0.7-0.1,1-0.4c0.6-0.6,0.6-1.5,0-2L61.9,73.3h28.9c0.8,0,1.4-0.6,1.4-1.4     C92.2,71,91.5,70.4,90.7,70.4z M15.1,29.9h6.3v12.7l-6.3-6.3V29.9z M15.1,40.3l6.3,6.3V53h-6.3V40.3z M84.9,53h-6.5v-1.1l5.9-5.9     l0.6,0.6V53z M84.9,37.6c-0.2-0.3-0.4-0.6-0.4-1c0-0.4,0.1-0.7,0.4-1V37.6z M84.9,32.4c-1.9,0.5-3.3,2.2-3.3,4.2     c0,2,1.4,3.7,3.3,4.2v1.9c-0.5-0.3-1.2-0.2-1.7,0.3l-4.9,4.9v-18h6.5V32.4z M84.9,27h-8c-0.8,0-1.4,0.7-1.4,1.4v26     c0,0.8,0.6,1.4,1.4,1.4h8v14.5H15.1V55.9h7.8c0.8,0,1.4-0.6,1.4-1.4v-26c0-0.8-0.6-1.4-1.4-1.4h-7.8V11.2h69.8V27z"></path><path d="M69.4,23.7H30.5c-0.8,0-1.4,0.6-1.4,1.4v32.5c0,0.8,0.6,1.4,1.4,1.4h38.8c0.8,0,1.4-0.6,1.4-1.4V25.2     C70.8,24.4,70.2,23.7,69.4,23.7z M67.9,56.2H32v-1.8l7.7-7.7l4,4c0.3,0.3,0.6,0.4,1,0.4s0.7-0.1,1-0.4l12.5-12.5l9.7,9.7V56.2z      M67.9,43.7L59.3,35c-0.6-0.6-1.5-0.6-2,0L44.7,47.6l-4-4c-0.3-0.3-0.6-0.4-1-0.4c-0.4,0-0.7,0.2-1,0.4L32,50.3V26.6h35.9V43.7z"></path></g></g></g></svg>