<svg fill="#229897" xmlns="http://www.w3.org/2000/svg" xmlns:xlink="http://www.w3.org/1999/xlink" xml:space="preserve" style="shape-rendering:geometricPrecision;text-rendering:geometricPrecision;image-rendering:optimizeQuality;" viewBox="0 0 6827 6827" x="0px" y="0px" fill-rule="evenodd" clip-rule="evenodd"><defs><style type="text/css">
   
    .fil2 {fill:none}
    .fil1 {fill:#229897}
    .fil0 {fill:#229897;fill-rule:nonzero}
   
  </style></defs><g><g><path class="fil0" d="M1543 853l3741 0c181,0 345,74 464,193 119,119 193,283 193,464l0 3805c0,181 -74,345 -193,464 -119,119 -283,193 -464,193l-3741 0c-181,0 -345,-74 -464,-193 -119,-119 -193,-283 -193,-464l0 -3805c0,-181 74,-345 193,-464 119,-119 283,-193 464,-193zm3741 160l-3741 0c-137,0 -261,56 -351,146 -90,90 -146,215 -146,351l0 3805c0,137 56,261 146,351 90,90 215,146 351,146l3741 0c137,0 261,-56 351,-146 90,-90 146,-215 146,-351l0 -3805c0,-137 -56,-261 -146,-351 -90,-90 -215,-146 -351,-146z"></path><circle class="fil1" cx="1531" cy="1402" r="111"></circle><path class="fil0" d="M1531 1211c53,0 100,21 135,56 35,35 56,82 56,135 0,53 -21,100 -56,135 -35,35 -82,56 -135,56 -53,0 -100,-21 -135,-56 -35,-35 -56,-82 -56,-135 0,-53 21,-100 56,-135 35,-35 82,-56 135,-56zm22 169c-6,-6 -13,-9 -22,-9 -8,0 -16,3 -22,9 -6,6 -9,13 -9,22 0,8 3,16 9,22 6,6 13,9 22,9 8,0 16,-3 22,-9 6,-6 9,-13 9,-22 0,-8 -3,-16 -9,-22z"></path><circle class="fil1" cx="2066" cy="1402" r="111"></circle><path class="fil0" d="M2066 1211c53,0 100,21 135,56 35,35 56,82 56,135 0,53 -21,100 -56,135 -35,35 -82,56 -135,56 -53,0 -100,-21 -135,-56 -35,-35 -56,-82 -56,-135 0,-53 21,-100 56,-135 35,-35 82,-56 135,-56zm22 169c-6,-6 -13,-9 -22,-9 -8,0 -16,3 -22,9 -6,6 -9,13 -9,22 0,8 3,16 9,22 6,6 13,9 22,9 8,0 16,-3 22,-9 6,-6 9,-13 9,-22 0,-8 -3,-16 -9,-22z"></path><circle class="fil1" cx="2601" cy="1402" r="111"></circle><path class="fil0" d="M2601 1211c53,0 100,21 135,56 35,35 56,82 56,135 0,53 -21,100 -56,135 -35,35 -82,56 -135,56 -53,0 -100,-21 -135,-56 -35,-35 -56,-82 -56,-135 0,-53 21,-100 56,-135 35,-35 82,-56 135,-56zm22 169c-6,-6 -13,-9 -22,-9 -8,0 -16,3 -22,9 -6,6 -9,13 -9,22 0,8 3,16 9,22 6,6 13,9 22,9 8,0 16,-3 22,-9 6,-6 9,-13 9,-22 0,-8 -3,-16 -9,-22z"></path><path class="fil0" d="M965 1950c-44,0 -80,-36 -80,-80 0,-44 36,-80 80,-80l4896 0c44,0 80,36 80,80 0,44 -36,80 -80,80l-4896 0z"></path><path class="fil0" d="M3165 3462l-708 0c-44,0 -80,-36 -80,-80l0 -708c0,-44 36,-80 80,-80l708 0c44,0 80,36 80,80l0 708c0,44 -36,80 -80,80zm-628 -160l548 0 0 -548 -548 0 0 548z"></path><path class="fil0" d="M5413 2752l-1653 0 0 1653 1653 0 0 -1653zm-1733 -160l1813 0c44,0 80,36 80,80l0 1813c0,44 -36,80 -80,80l-1813 0c-44,0 -80,-36 -80,-80l0 -1813c0,-44 36,-80 80,-80z"></path><path class="fil0" d="M3163 4565l-1824 0c-44,0 -80,-36 -80,-80l0 -688c0,-44 36,-80 80,-80l1824 0c44,0 80,36 80,80l0 688c0,44 -36,80 -80,80zm-1744 -160l1664 0 0 -528 -1664 0 0 528z"></path><path class="fil0" d="M2042 3462l-708 0c-44,0 -80,-36 -80,-80l0 -708c0,-44 36,-80 80,-80l708 0c44,0 80,36 80,80l0 708c0,44 -36,80 -80,80zm-628 -160l548 0 0 -548 -548 0 0 548z"></path><path class="fil0" d="M5480 5012c44,0 80,36 80,80 0,44 -36,80 -80,80l-4132 0c-44,0 -80,-36 -80,-80 0,-44 36,-80 80,-80l4132 0z"></path></g></g><rect class="fil2" width="6827" height="6827"></rect></svg>