<svg fill="#229897" xmlns="http://www.w3.org/2000/svg" xmlns:xlink="http://www.w3.org/1999/xlink" version="1.1" x="0px" y="0px" viewBox="0 0 100 100" enable-background="new 0 0 100 100" xml:space="preserve"><g><path fill="#229897" d="M29.71,66.875c-0.026,0-0.053,0-0.077,0l0,0C15.813,66.837,5,56.227,5,42.689V5h49.219v37.689   C54.219,56.227,43.46,66.837,29.71,66.875L29.71,66.875z M7.812,7.812v34.876c0,11.972,9.598,21.355,21.859,21.374   c12.191-0.019,21.735-9.402,21.735-21.374V7.812H7.812z"></path><path fill="#229897" d="M29.834,56.647c-7.754,0-14.062-5.806-14.062-12.945c0-0.777,0.63-1.406,1.406-1.406   s1.406,0.629,1.406,1.406c0,5.587,5.047,10.132,11.25,10.132s11.25-4.546,11.25-10.132c0-0.777,0.63-1.406,1.406-1.406   s1.406,0.629,1.406,1.406C43.896,50.84,37.588,56.647,29.834,56.647z"></path><g><path fill="#229897" d="M19.263,32.341c-3.864,0-7.007-2.921-7.007-6.512c0-0.777,0.63-1.406,1.406-1.406s1.406,0.629,1.406,1.406    c0,2.039,1.881,3.7,4.195,3.7c2.313,0,4.194-1.66,4.194-3.7c0-0.777,0.63-1.406,1.406-1.406s1.406,0.629,1.406,1.406    C26.27,29.42,23.127,32.341,19.263,32.341z"></path><path fill="#229897" d="M40.405,32.341c-3.864,0-7.007-2.921-7.007-6.512c0-0.777,0.63-1.406,1.406-1.406s1.406,0.629,1.406,1.406    c0,2.039,1.881,3.7,4.195,3.7s4.195-1.66,4.195-3.7c0-0.777,0.63-1.406,1.406-1.406s1.406,0.629,1.406,1.406    C47.412,29.42,44.269,32.341,40.405,32.341z"></path></g><path fill="#229897" d="M70.491,95c-0.025,0-0.052,0-0.077,0l0,0c-13.819-0.038-24.633-10.648-24.633-24.186v-5.345   c0-0.777,0.63-1.406,1.406-1.406s1.406,0.629,1.406,1.406v5.345c0,11.972,9.598,21.355,21.859,21.374   c12.191-0.019,21.735-9.402,21.735-21.374V35.938h-33.75c-0.777,0-1.406-0.629-1.406-1.406s0.63-1.406,1.406-1.406H95v37.689   C95,84.352,84.241,94.962,70.491,95L70.491,95z"></path><path fill="#229897" d="M70.615,84.772c-7.754,0-14.062-5.806-14.062-12.945c0-0.777,0.63-1.406,1.406-1.406   s1.406,0.629,1.406,1.406c0,5.587,5.047,10.132,11.25,10.132s11.25-4.546,11.25-10.132c0-0.777,0.63-1.406,1.406-1.406   s1.406,0.629,1.406,1.406C84.678,78.965,78.369,84.772,70.615,84.772z"></path><g><path fill="#229897" d="M86.787,60.466c-0.777,0-1.406-0.629-1.406-1.406c0-2.039-1.881-3.7-4.195-3.7s-4.195,1.66-4.195,3.7    c0,0.777-0.63,1.406-1.406,1.406s-1.406-0.629-1.406-1.406c0-3.591,3.143-6.512,7.007-6.512s7.007,2.921,7.007,6.512    C88.193,59.837,87.564,60.466,86.787,60.466z"></path><path fill="#229897" d="M65.645,60.466c-0.777,0-1.406-0.629-1.406-1.406c0-2.039-1.881-3.7-4.194-3.7    c-2.313,0-4.195,1.66-4.195,3.7c0,0.777-0.63,1.406-1.406,1.406s-1.406-0.629-1.406-1.406c0-3.591,3.143-6.512,7.007-6.512    s7.007,2.921,7.007,6.512C67.051,59.837,66.421,60.466,65.645,60.466z"></path></g></g></svg>