<svg fill="#FFFFFF" xmlns:dc="http://purl.org/dc/elements/1.1/" xmlns:cc="http://creativecommons.org/ns#" xmlns:rdf="http://www.w3.org/1999/02/22-rdf-syntax-ns#" xmlns:svg="http://www.w3.org/2000/svg" xmlns="http://www.w3.org/2000/svg" xmlns:sodipodi="http://sodipodi.sourceforge.net/DTD/sodipodi-0.dtd" xmlns:inkscape="http://www.inkscape.org/namespaces/inkscape" viewBox="0 0 32 32.000001" version="1.1" x="0px" y="0px"><g transform="translate(0,-1020.3622)"><path style="color:#000000;font-style:normal;font-variant:normal;font-weight:normal;font-stretch:normal;font-size:medium;line-height:normal;font-family:sans-serif;text-indent:0;text-align:start;text-decoration:none;text-decoration-line:none;text-decoration-style:solid;text-decoration-color:#000000;letter-spacing:normal;word-spacing:normal;text-transform:none;direction:ltr;block-progression:tb;writing-mode:lr-tb;baseline-shift:baseline;text-anchor:start;white-space:normal;clip-rule:nonzero;display:inline;overflow:visible;visibility:visible;opacity:1;isolation:auto;mix-blend-mode:normal;color-interpolation:sRGB;color-interpolation-filters:linearRGB;solid-color:#000000;solid-opacity:1;fill:#FFFFFF;fill-opacity:1;fill-rule:nonzero;stroke:none;stroke-width:0.99999994;stroke-linecap:round;stroke-linejoin:round;stroke-miterlimit:4;stroke-dasharray:none;stroke-dashoffset:0;stroke-opacity:1;color-rendering:auto;image-rendering:auto;shape-rendering:auto;text-rendering:auto;enable-background:accumulate" d="M 8.3183594 2 A 0.50005 0.50005 0 0 0 8.2695312 2.0019531 A 0.50005 0.50005 0 0 0 7.8730469 2.2460938 C 7.5967815 2.6970797 7.0868247 2.9828693 6.5273438 2.9882812 A 0.50005 0.50005 0 0 0 6.5039062 2.9882812 L 3.9238281 2.9882812 A 0.50005 0.50005 0 0 0 3.7675781 3.0097656 C 3.0524222 3.1218483 2.4960938 3.7438665 2.4960938 4.4882812 C 2.4960938 5.3107812 3.173589 5.9882812 3.9960938 5.9882812 A 0.50005 0.50005 0 0 0 4.0214844 5.9863281 A 0.50059569 0.50059569 0 0 0 4.1015625 5.9902344 L 6.5039062 5.9902344 A 0.50005 0.50005 0 0 0 6.5117188 5.9902344 L 10.003906 5.9902344 C 10.285971 5.9902344 10.503906 6.2081344 10.503906 6.4902344 C 10.503906 6.7722344 10.285971 6.9902344 10.003906 6.9902344 A 0.50005 0.50005 0 0 0 10.001953 6.9902344 A 0.50005 0.50005 0 0 0 9.9667969 6.9902344 L 7.0136719 6.9902344 A 0.50005 0.50005 0 0 0 6.9648438 6.9902344 A 0.50059569 0.50059569 0 0 0 6.8398438 7.0117188 C 5.5428451 7.1285289 4.5000358 8.179218 4.5 9.4824219 A 0.50005 0.50005 0 0 0 5.0078125 9.9902344 A 0.50005 0.50005 0 0 0 5.5 9.4824219 C 5.500022 8.6798548 6.161354 8.0208501 7.0214844 7.9941406 C 6.6985658 8.4095146 6.5000154 8.9213419 6.5 9.4824219 A 0.50005 0.50005 0 0 0 7.0078125 9.9902344 A 0.50005 0.50005 0 0 0 7.5 9.4824219 C 7.5000225 8.6631219 8.1878407 7.9902344 9.0742188 7.9902344 L 9.9667969 7.9902344 A 0.50005 0.50005 0 0 0 9.9882812 7.9902344 A 0.50005 0.50005 0 0 0 10.003906 7.9902344 C 10.826411 7.9902344 11.503906 7.3127344 11.503906 6.4902344 C 11.503906 5.7251249 10.915753 5.0913968 10.171875 5.0058594 A 0.50005 0.50005 0 0 0 10.039062 4.9902344 L 6.5390625 4.9902344 A 0.50005 0.50005 0 0 0 6.5117188 4.9902344 A 0.50005 0.50005 0 0 0 6.5039062 4.9902344 L 6.0625 4.9902344 A 0.50005 0.50005 0 0 0 6 4.9882812 C 5.7179355 4.9882812 5.5 4.7703812 5.5 4.4882812 C 5.5 4.2061813 5.7179355 3.9882812 6 3.9882812 L 6.4765625 3.9882812 A 0.50005 0.50005 0 0 0 6.5117188 3.9902344 C 6.5204206 3.9902344 6.5284195 3.9864133 6.5371094 3.9863281 A 0.50005 0.50005 0 0 0 6.6015625 3.9785156 C 6.6015625 3.9785156 6.6035156 3.9785156 6.6035156 3.9785156 C 7.4721978 3.9478617 8.2740709 3.5030674 8.7246094 2.7675781 A 0.50005 0.50005 0 0 0 8.3183594 2 z M 3.9960938 3.9882812 L 4.59375 3.9882812 C 4.5371318 4.1455294 4.5 4.3126178 4.5 4.4882812 C 4.5 4.6652456 4.5363291 4.8319981 4.59375 4.9902344 L 4.1015625 4.9902344 A 0.50005 0.50005 0 0 0 4.0585938 4.9902344 A 0.50005 0.50005 0 0 0 3.9960938 4.9882812 C 3.7140292 4.9882812 3.4960938 4.7703812 3.4960938 4.4882812 C 3.4960937 4.2061813 3.7140292 3.9882812 3.9960938 3.9882812 z M 4.5 10.990234 A 0.50004997 0.50004997 0 0 0 4.0019531 11.439453 L 2.0019531 31.439453 A 0.50004997 0.50004997 0 0 0 2.5 31.990234 L 10.5 31.990234 L 19.5 31.990234 A 0.50004997 0.50004997 0 0 0 19.501953 31.990234 A 0.50004997 0.50004997 0 0 0 19.505859 31.990234 L 29.5 31.990234 A 0.50004997 0.50004997 0 0 0 30 31.490234 L 30 16.490234 A 0.50004997 0.50004997 0 0 0 29.484375 15.990234 A 0.50004997 0.50004997 0 0 0 29.314453 16.023438 L 20 19.751953 L 20 16.490234 A 0.50004997 0.50004997 0 0 0 19.484375 15.990234 A 0.50004997 0.50004997 0 0 0 19.314453 16.023438 L 12.527344 18.738281 L 11.998047 13.4375 A 0.50004997 0.50004997 0 0 0 11.5 12.990234 L 9.1523438 12.990234 L 8.9980469 11.439453 A 0.50004997 0.50004997 0 0 0 8.5 10.990234 L 4.5 10.990234 z M 4.953125 11.990234 L 8.046875 11.990234 L 8.3476562 14.990234 L 4.6523438 14.990234 L 4.953125 11.990234 z M 9.2539062 13.990234 L 11.046875 13.990234 L 11.560547 19.125 L 9.8359375 19.814453 L 9.2539062 13.990234 z M 4.5527344 15.990234 L 8.4472656 15.990234 L 8.9472656 20.990234 L 4.0527344 20.990234 L 4.5527344 15.990234 z M 19 17.228516 L 19 30.990234 L 10.953125 30.990234 L 9.9394531 20.851562 L 19 17.228516 z M 29 17.230469 L 29 30.990234 L 20 30.990234 L 20 20.830078 L 29 17.230469 z M 3.953125 21.990234 L 9.046875 21.990234 L 9.1464844 22.990234 L 3.8535156 22.990234 L 3.953125 21.990234 z M 11.5 21.990234 A 0.50005 0.50005 0 0 0 11 22.490234 L 11 23.490234 L 11 24.490234 A 0.50005 0.50005 0 0 0 11.5 24.990234 L 13.5 24.990234 A 0.50005 0.50005 0 0 0 14 24.490234 L 14 22.490234 A 0.50005 0.50005 0 0 0 13.5 21.990234 L 11.5 21.990234 z M 15.5 21.990234 A 0.50005 0.50005 0 0 0 15 22.490234 L 15 23.490234 L 15 24.490234 A 0.50005 0.50005 0 0 0 15.5 24.990234 L 17.5 24.990234 A 0.50005 0.50005 0 0 0 18 24.490234 L 18 22.490234 A 0.50005 0.50005 0 0 0 17.5 21.990234 L 15.5 21.990234 z M 21.5 21.990234 A 0.50005 0.50005 0 0 0 21 22.490234 L 21 23.490234 L 21 24.490234 A 0.50005 0.50005 0 0 0 21.5 24.990234 L 23.5 24.990234 A 0.50005 0.50005 0 0 0 24 24.490234 L 24 22.490234 A 0.50005 0.50005 0 0 0 23.5 21.990234 L 21.5 21.990234 z M 25.5 21.990234 A 0.50005 0.50005 0 0 0 25 22.490234 L 25 23.490234 L 25 24.490234 A 0.50005 0.50005 0 0 0 25.5 24.990234 L 27.5 24.990234 A 0.50005 0.50005 0 0 0 28 24.490234 L 28 22.490234 A 0.50005 0.50005 0 0 0 27.5 21.990234 L 25.5 21.990234 z M 12 22.990234 L 13 22.990234 L 13 23.990234 L 12 23.990234 L 12 23.490234 L 12 22.990234 z M 16 22.990234 L 17 22.990234 L 17 23.990234 L 16 23.990234 L 16 23.490234 L 16 22.990234 z M 22 22.990234 L 23 22.990234 L 23 23.990234 L 22 23.990234 L 22 23.490234 L 22 22.990234 z M 26 22.990234 L 27 22.990234 L 27 23.990234 L 26 23.990234 L 26 23.490234 L 26 22.990234 z M 3.7539062 23.990234 L 9.2460938 23.990234 L 9.7460938 28.990234 L 3.2539062 28.990234 L 3.7539062 23.990234 z M 11.5 25.990234 A 0.50005 0.50005 0 0 0 11 26.490234 L 11 27.490234 L 11 28.490234 A 0.50005 0.50005 0 0 0 11.5 28.990234 L 13.5 28.990234 A 0.50005 0.50005 0 0 0 14 28.490234 L 14 26.490234 A 0.50005 0.50005 0 0 0 13.5 25.990234 L 11.5 25.990234 z M 15.5 25.990234 A 0.50005 0.50005 0 0 0 15 26.490234 L 15 27.490234 L 15 28.490234 A 0.50005 0.50005 0 0 0 15.5 28.990234 L 17.5 28.990234 A 0.50005 0.50005 0 0 0 18 28.490234 L 18 26.490234 A 0.50005 0.50005 0 0 0 17.5 25.990234 L 15.5 25.990234 z M 21.5 25.990234 A 0.50005 0.50005 0 0 0 21 26.490234 L 21 27.490234 L 21 28.490234 A 0.50005 0.50005 0 0 0 21.5 28.990234 L 23.5 28.990234 A 0.50005 0.50005 0 0 0 24 28.490234 L 24 26.490234 A 0.50005 0.50005 0 0 0 23.5 25.990234 L 21.5 25.990234 z M 25.5 25.990234 A 0.50005 0.50005 0 0 0 25 26.490234 L 25 27.490234 L 25 28.490234 A 0.50005 0.50005 0 0 0 25.5 28.990234 L 27.5 28.990234 A 0.50005 0.50005 0 0 0 28 28.490234 L 28 26.490234 A 0.50005 0.50005 0 0 0 27.5 25.990234 L 25.5 25.990234 z M 12 26.990234 L 13 26.990234 L 13 27.990234 L 12 27.990234 L 12 27.490234 L 12 26.990234 z M 16 26.990234 L 17 26.990234 L 17 27.990234 L 16 27.990234 L 16 27.490234 L 16 26.990234 z M 22 26.990234 L 23 26.990234 L 23 27.990234 L 22 27.990234 L 22 27.490234 L 22 26.990234 z M 26 26.990234 L 27 26.990234 L 27 27.990234 L 26 27.990234 L 26 27.490234 L 26 26.990234 z M 3.1523438 29.990234 L 9.8476562 29.990234 L 9.9472656 30.990234 L 3.0527344 30.990234 L 3.1523438 29.990234 z " transform="translate(0,1020.3622)"></path></g></svg>