<svg fill="#229897" xmlns="http://www.w3.org/2000/svg" xmlns:xlink="http://www.w3.org/1999/xlink" version="1.1" x="0px" y="0px" viewBox="0 0 100 100" enable-background="new 0 0 100 100" xml:space="preserve"><path d="M81,9.811V7.782H56.554L23.03,5l-0.231,2.782H19v45.78L16,89.71l3,0.249v2.823h34.019l24.769,2.056  l0.171-2.056H81V56.125l3.817-45.997L81,9.811z M24.858,7.159l7.513,0.624h-7.565L24.858,7.159z M18.159,87.882L19,77.744v10.207  L18.159,87.882z M79,11.652v44.389v24.183v10.559h-0.876h-2.008H53.1H28.92H21v-0.657v-2.008V53.646V29.463V9.782h1.633h2.007  h31.831H79V11.652z M81,11.818l1.659,0.138L81,31.945V11.818z"></path><path d="M48,23.782c0,0.552-0.447,1-1,1H26c-0.552,0-1-0.448-1-1l0,0c0-0.552,0.448-1,1-1h21C47.553,22.782,48,23.23,48,23.782  L48,23.782z"></path><path d="M48,29.782c0,0.552-0.447,1-1,1H26c-0.552,0-1-0.448-1-1l0,0c0-0.552,0.448-1,1-1h21C47.553,28.782,48,29.23,48,29.782  L48,29.782z"></path><path d="M48,35.782c0,0.552-0.447,1-1,1H26c-0.552,0-1-0.448-1-1l0,0c0-0.552,0.448-1,1-1h21C47.553,34.782,48,35.23,48,35.782  L48,35.782z"></path><path d="M75,45.782c0,0.553-0.447,1-1,1H26c-0.552,0-1-0.447-1-1l0,0c0-0.553,0.448-1,1-1h48C74.553,44.782,75,45.229,75,45.782  L75,45.782z"></path><path d="M75,51.782c0,0.553-0.447,1-1,1H26c-0.552,0-1-0.447-1-1l0,0c0-0.553,0.448-1,1-1h48C74.553,50.782,75,51.229,75,51.782  L75,51.782z"></path><path d="M75,57.782c0,0.553-0.447,1-1,1H26c-0.552,0-1-0.447-1-1l0,0c0-0.553,0.448-1,1-1h48C74.553,56.782,75,57.229,75,57.782  L75,57.782z"></path><path d="M75,63.782c0,0.553-0.447,1-1,1H26c-0.552,0-1-0.447-1-1l0,0c0-0.553,0.448-1,1-1h48C74.553,62.782,75,63.229,75,63.782  L75,63.782z"></path><path d="M75,70.782c0,0.553-0.447,1-1,1H26c-0.552,0-1-0.447-1-1l0,0c0-0.553,0.448-1,1-1h48C74.553,69.782,75,70.229,75,70.782  L75,70.782z"></path><path d="M75,77.782c0,0.553-0.447,1-1,1H26c-0.552,0-1-0.447-1-1l0,0c0-0.553,0.448-1,1-1h48C74.553,76.782,75,77.229,75,77.782  L75,77.782z"></path><path d="M55,84.782c0,0.553-0.447,1-1,1H26c-0.552,0-1-0.447-1-1l0,0c0-0.553,0.448-1,1-1h28C54.553,83.782,55,84.229,55,84.782  L55,84.782z"></path><circle cx="62.996" cy="20.078" r="5.783"></circle><path d="M71.99,31.643c-0.348-4.382-4.256-5.14-8.995-5.14S54.347,27.26,54,31.643c0,0.226,0,3.134,0,5.14  h3.213v-3.855c0,0,0-1.285,0.643-1.285c0,0.083,0,4.554,0,5.14h10.279c0-0.586,0-5.057,0-5.14c0.644,0,0.644,1.285,0.644,1.285  v3.855H72C72.001,34.656,71.999,31.681,71.99,31.643z M62.995,35.498l-0.99-1.274l0.99-6.436l0.989,6.432L62.995,35.498z"></path></svg>