<svg fill="#FFFFFF" xmlns="http://www.w3.org/2000/svg" data-name="Layer 1" viewBox="0 0 100 100" x="0px" y="0px"><title>a</title><path d="M44.028,20.13013H75.54a.90521.90521,0,0,1,.90521.90521V25.2746a.90515.90515,0,0,1-.90515.90515H44.028a.90521.90521,0,0,1-.90521-.90521v-4.2392A.90521.90521,0,0,1,44.028,20.13013Z"></path><path d="M36.78851,15.97107H24.68927A1.13433,1.13433,0,0,0,23.555,17.10535V29.20459a1.13433,1.13433,0,0,0,1.13428,1.13428H36.78851a1.13433,1.13433,0,0,0,1.13428-1.13428V17.10535A1.13433,1.13433,0,0,0,36.78851,15.97107ZM35.65417,28.07025H25.82355V18.23962h9.83062Z"></path><path d="M44.02789,38.02679H75.54a.90521.90521,0,0,1,.90521.90521v4.2392a.90521.90521,0,0,1-.90521.90521H44.028a.90521.90521,0,0,1-.90521-.90521V38.93195A.90515.90515,0,0,1,44.02789,38.02679Z"></path><path d="M36.78851,33.86768H24.68927A1.13433,1.13433,0,0,0,23.555,35.002V47.1012a1.13433,1.13433,0,0,0,1.13428,1.13427H36.78851a1.13433,1.13433,0,0,0,1.13428-1.13427V35.002A1.13433,1.13433,0,0,0,36.78851,33.86768ZM35.65417,45.96692H25.82355V36.13629h9.83062Z"></path><rect x="43.12274" y="55.9234" width="33.32245" height="6.04962" rx="0.90521" ry="0.90521"></rect><path d="M24.68933,51.76428H36.78851a1.13428,1.13428,0,0,1,1.13428,1.13428V64.9978a1.13434,1.13434,0,0,1-1.13434,1.13434H24.68933A1.13434,1.13434,0,0,1,23.555,64.9978V52.89862A1.13434,1.13434,0,0,1,24.68933,51.76428Z"></path><path d="M44.02789,73.82007H75.54a.90521.90521,0,0,1,.90521.90521v4.2392a.90515.90515,0,0,1-.90515.90515H44.028a.90521.90521,0,0,1-.90521-.90521v-4.2392A.90515.90515,0,0,1,44.02789,73.82007Z"></path><path d="M36.78851,69.66132H24.68927A1.13433,1.13433,0,0,0,23.555,70.79559V82.89447a1.13457,1.13457,0,0,0,1.13428,1.13428H36.78851a1.13457,1.13457,0,0,0,1.13428-1.13428V70.79559A1.13433,1.13433,0,0,0,36.78851,69.66132ZM35.65417,81.76013H25.82355v-9.8302h9.83062Z"></path><path d="M16.01855,95h67.9629a2.49982,2.49982,0,0,0,2.5-2.5V7.5a2.49982,2.49982,0,0,0-2.5-2.5H16.01855a2.49982,2.49982,0,0,0-2.5,2.5v85A2.49982,2.49982,0,0,0,16.01855,95Zm2.5-85h62.9629V90H18.51855Z"></path></svg>