<svg xmlns="http://www.w3.org/2000/svg" xmlns:xlink="http://www.w3.org/1999/xlink" width="100" height="100" viewBox="0 0 100 100"><g><g transform="translate(50 50) scale(0.69 0.69) rotate(0) translate(-50 -50)" style="fill:#ffffff"><svg fill="#ffffff" xmlns="http://www.w3.org/2000/svg" xmlns:xlink="http://www.w3.org/1999/xlink" version="1.1" x="0px" y="0px" viewBox="0 0 100 100" enable-background="new 0 0 100 100" xml:space="preserve"><g><path d="M98.343,22.769c-0.058-0.434-0.248-0.841-0.561-1.154L78.851,2.684c-0.297-0.297-0.679-0.485-1.087-0.554   c-0.401-0.145-0.835-0.16-1.254-0.032H31.49c-1.104,0-2,0.896-2,2v91.892c0,1.104,0.896,2,2,2h64.878c1.104,0,2-0.896,2-2V23.824   C98.456,23.47,98.446,23.11,98.343,22.769z M91.62,21.349H79.091V8.82L91.62,21.349z M33.49,93.989V6.098h41.601v17.251   c0,1.104,0.896,2,2,2h17.277v68.641H33.49z"></path><path d="M48.426,16.642l-6.19,6.191l-1.086-1.085c-0.781-0.781-2.047-0.781-2.828,0c-0.781,0.781-0.781,2.047,0,2.828l2.5,2.5   c0.375,0.375,0.884,0.586,1.414,0.586s1.039-0.211,1.414-0.586l7.604-7.605c0.781-0.781,0.781-2.047,0-2.828   C50.473,15.86,49.207,15.86,48.426,16.642z"></path><path d="M48.426,35.849l-6.19,6.19l-1.086-1.086c-0.781-0.78-2.047-0.78-2.828,0.001s-0.781,2.047,0,2.828l2.5,2.5   c0.391,0.39,0.902,0.585,1.414,0.585s1.023-0.195,1.414-0.586l7.604-7.604c0.781-0.781,0.781-2.048,0-2.828   C50.473,35.067,49.207,35.067,48.426,35.849z"></path><path d="M47.82,73.437h-8.084c-1.104,0-2,0.896-2,2v8.083c0,1.104,0.896,2,2,2h8.084c1.104,0,2-0.896,2-2v-8.083   C49.82,74.332,48.925,73.437,47.82,73.437z M45.82,81.52h-4.084v-4.083h4.084V81.52z"></path><path d="M47.82,54.229h-8.084c-1.104,0-2,0.896-2,2v8.083c0,1.104,0.896,2,2,2h8.084c1.104,0,2-0.896,2-2v-8.083   C49.82,55.125,48.925,54.229,47.82,54.229z M45.82,62.313h-4.084v-4.083h4.084V62.313z"></path><path d="M57.712,20.643h12.55c1.104,0,2-0.896,2-2s-0.896-2-2-2h-12.55c-1.104,0-2,0.896-2,2S56.607,20.643,57.712,20.643z"></path><path d="M57.712,25.961h6.381c1.104,0,2-0.896,2-2s-0.896-2-2-2h-6.381c-1.104,0-2,0.896-2,2S56.607,25.961,57.712,25.961z"></path><path d="M57.712,39.894h19.894c1.104,0,2-0.896,2-2s-0.896-2-2-2H57.712c-1.104,0-2,0.896-2,2S56.607,39.894,57.712,39.894z"></path><path d="M57.712,45.212h7.344c1.104,0,2-0.896,2-2c0-1.105-0.896-2-2-2h-7.344c-1.104,0-2,0.895-2,2   C55.712,44.315,56.607,45.212,57.712,45.212z"></path><path d="M57.712,58.718h22.021c1.104,0,2-0.895,2-2c0-1.104-0.896-2-2-2H57.712c-1.104,0-2,0.896-2,2   C55.712,57.823,56.607,58.718,57.712,58.718z"></path><path d="M57.712,64.036h12.874c1.104,0,2-0.896,2-2s-0.896-2-2-2H57.712c-1.104,0-2,0.896-2,2S56.607,64.036,57.712,64.036z"></path><path d="M81.009,73.969H57.712c-1.104,0-2,0.896-2,2s0.896,2,2,2h23.297c1.104,0,2-0.896,2-2S82.113,73.969,81.009,73.969z"></path><path d="M67.607,79.286h-9.896c-1.104,0-2,0.896-2,2c0,1.105,0.896,2,2,2h9.896c1.104,0,2-0.895,2-2   C69.607,80.183,68.712,79.286,67.607,79.286z"></path><path d="M23.737,14.092H12.57c-1.104,0-2,0.896-2,2v4.3H7.122c-1.104,0-2,0.896-2,2v18.83c-0.097,0.095-0.262,0.121-0.376,0.039   c-0.896-0.65-2.145-0.448-2.793,0.445S1.504,43.852,2.398,44.5c0.736,0.534,1.606,0.816,2.517,0.816   c1.807,0,3.414-1.159,4.021-2.843c0.026-0.057,0.046-0.116,0.066-0.176c0.01-0.03,0.025-0.059,0.034-0.089   c0.005-0.016,0.005-0.031,0.009-0.047c0.026-0.099,0.043-0.201,0.055-0.306c0.003-0.025,0.006-0.051,0.008-0.076   c0.003-0.046,0.014-0.09,0.014-0.137V24.393h1.448v28.499c0,0.966,0.685,1.771,1.595,1.959v28.672c0,0.236,0.049,0.459,0.123,0.67   c0.011,0.032,0.012,0.065,0.023,0.098l3.964,10.821c0.288,0.788,1.038,1.313,1.878,1.313c0.839,0,1.589-0.524,1.878-1.312   l3.965-10.822c0.013-0.036,0.015-0.074,0.026-0.111c0.072-0.207,0.119-0.426,0.119-0.656V54.851   c0.91-0.188,1.596-0.993,1.596-1.959V16.092C25.737,14.988,24.842,14.092,23.737,14.092z M20.142,81.522h-3.977V54.892h3.977   V81.522z M14.57,18.092h7.167v2.3H14.57V18.092z M21.737,24.393v26.073H14.57V24.393H21.737z M18.153,88.608l-1.101-3.006h2.202   L18.153,88.608z"></path></g></svg></g></g></svg>