<svg xmlns="http://www.w3.org/2000/svg" xmlns:xlink="http://www.w3.org/1999/xlink" width="100" height="100" viewBox="0 0 100 100"><g><g transform="translate(50 50) scale(0.69 0.69) rotate(0) translate(-50 -50)" style="fill:#229897"><svg fill="#229897" xmlns="http://www.w3.org/2000/svg" xmlns:xlink="http://www.w3.org/1999/xlink" version="1.1" x="0px" y="0px" viewBox="0 0 25 25" style="enable-background:new 0 0 25 25;" xml:space="preserve"><g><path d="M3.5,25c1.762,0,3.205-1.306,3.449-3H12h1v-1v-5.051c1.694-0.244,3-1.688,3-3.449s-1.306-3.205-3-3.449V4h5.051   c0.244,1.694,1.688,3,3.449,3C23.434,7,25,5.434,25,3.5S23.434,0,21.5,0c-1.762,0-3.205,1.306-3.449,3H13h-1v1v5.051   c-1.694,0.244-3,1.688-3,3.449s1.306,3.205,3,3.449V21H6.949c-0.244-1.694-1.688-3-3.449-3C1.566,18,0,19.566,0,21.5   S1.566,25,3.5,25z"></path></g></svg></g></g></svg>