<svg fill="#229897" xmlns="http://www.w3.org/2000/svg" xmlns:xlink="http://www.w3.org/1999/xlink" version="1.1" x="0px" y="0px" viewBox="0 0 64 64" enable-background="new 0 0 64 64" xml:space="preserve"><path d="M52.3,12.2h-5l-1.6-4.8c-0.1-0.2-0.3-0.2-0.3,0l-1.6,4.8h-5c-0.2,0-0.2,0.2-0.1,0.3l4.1,3l-1.6,4.8  c-0.1,0.2,0.1,0.3,0.3,0.2l4.1-3l4.1,3c0.1,0.1,0.3,0,0.3-0.2l-1.6-4.8l4.1-3C52.5,12.5,52.4,12.2,52.3,12.2z"></path><path d="M38.6,24.6l4.1,3l-1.6,4.8c-0.1,0.2,0.1,0.3,0.3,0.2l4.1-3l4.1,3c0.1,0.1,0.3,0,0.3-0.2l-1.6-4.8l4.1-3  c0.1-0.1,0.1-0.3-0.1-0.3h-5l-1.6-4.8c-0.1-0.2-0.3-0.2-0.3,0l-1.6,4.8h-5C38.6,24.3,38.5,24.5,38.6,24.6z"></path><path d="M38.6,36.6l4.1,3l-1.6,4.8c-0.1,0.2,0.1,0.3,0.3,0.2l4.1-3l4.1,3c0.1,0.1,0.3,0,0.3-0.2l-1.6-4.8l4.1-3  c0.1-0.1,0.1-0.3-0.1-0.3h-5l-1.6-4.8c-0.1-0.2-0.3-0.2-0.3,0l-1.6,4.8h-5C38.6,36.3,38.5,36.5,38.6,36.6z"></path><path d="M38.6,48.7l4.1,3l-1.6,4.8c-0.1,0.2,0.1,0.3,0.3,0.2l4.1-3l4.1,3c0.1,0.1,0.3,0,0.3-0.2l-1.6-4.8l4.1-3  c0.1-0.1,0.1-0.3-0.1-0.3h-5l-1.6-4.8c-0.1-0.2-0.3-0.2-0.3,0l-1.6,4.8h-5C38.6,48.4,38.5,48.6,38.6,48.7z"></path><path d="M59.3,1.1H15.4c-1.8,0-3.2,1.5-3.2,3.2v17.2l4.2,5.7V5.3h42v53.4h-42V40.1l-4.2-5.7v25.3c0,1.8,1.5,3.2,3.2,3.2h43.9  c1.8,0,3.2-1.5,3.2-3.2V4.4C62.5,2.6,61.1,1.1,59.3,1.1z"></path><polygon points="5,16.4 4.8,16.6 5.3,17.2 12.2,26.8 16.3,32.5 23.3,42.1 23.7,42.7 23.9,42.6 24.8,41.9 24.4,41.3 16.3,30.2   12.2,24.4 6.4,16.4 5.9,15.8 5,16.4 "></polygon><polygon points="16.3,37.3 21,43.7 21.5,44.4 22.4,43.7 22.6,43.6 22.1,42.9 16.3,34.9 12.2,29.2 4.1,18.1 3.7,17.4 3.4,17.6   3.4,17.6 2.5,18.2 3,18.9 12.2,31.5 "></polygon><path d="M22,45.1l2.2,1.2l1.8,1c0.1,0.1,0.3,0,0.3-0.2l-0.4-2l-0.5-2.4l0-0.1L22,45.1L22,45.1z"></path><path d="M5.3,14.9c-0.7-0.9-2-1.1-2.9-0.5c-0.9,0.7-1.1,2-0.5,2.9L2,17.5l3.4-2.4L5.3,14.9z"></path></svg>