<svg xmlns="http://www.w3.org/2000/svg" xmlns:xlink="http://www.w3.org/1999/xlink" width="100" height="100" viewBox="0 0 100 100"><g><g transform="translate(50 50) scale(0.69 0.69) rotate(0) translate(-50 -50)" style="fill:#229897"><svg fill="#229897" xmlns="http://www.w3.org/2000/svg" xmlns:xlink="http://www.w3.org/1999/xlink" version="1.1" x="0px" y="0px" viewBox="0 0 512 512" enable-background="new 0 0 512 512" xml:space="preserve"><polygon points="87.125,281.68 75.125,281.68 75.125,294.178 62.627,294.178 62.627,306.178 75.125,306.178 75.125,318.676   87.125,318.676 87.125,306.178 99.624,306.178 99.624,294.178 87.125,294.178 "></polygon><polygon points="473.37,223.654 473.37,211.156 461.37,211.156 461.37,223.654 448.872,223.654 448.872,235.654 461.37,235.654   461.37,248.152 473.37,248.152 473.37,235.654 485.868,235.654 485.868,223.654 "></polygon><polygon points="415.37,281.68 403.37,281.68 403.37,294.178 390.872,294.178 390.872,306.178 403.37,306.178 403.37,318.676   415.37,318.676 415.37,306.178 427.868,306.178 427.868,294.178 415.37,294.178 "></polygon><polygon points="63.128,166.801 50.63,166.801 50.63,154.303 38.63,154.303 38.63,166.801 26.132,166.801 26.132,178.801   38.63,178.801 38.63,191.299 50.63,191.299 50.63,178.801 63.128,178.801 "></polygon><rect x="330.63" y="88.195" width="72" height="12"></rect><rect x="243.325" y="88.195" width="72" height="12"></rect><rect x="330.63" y="110.841" width="72" height="12"></rect><rect x="243.325" y="109.815" width="72" height="12"></rect><rect x="330.63" y="132.69" width="72" height="12"></rect><path d="M75.125,252.701l42.696,0.03l0.009-12l-30.705-0.021V30.9h335.593v22.378H216.63v12h206.089v175.471l-61.477-0.002  l1.821,7.429c4.742,19.341,4.349,39.794-1.139,59.146l-17.563,61.949V487.1h12v-116.16l17.107-60.344  c5.355-18.889,6.311-38.733,2.834-57.848l58.415,0.001V18.9H75.125V252.701z"></path><polygon points="164.357,252.749 218.667,252.749 254.915,292.615 291.3,252.749 351.297,252.749 351.297,240.749 286.007,240.749   254.931,274.795 223.974,240.749 164.357,240.749 "></polygon><polygon points="254.363,256.553 312.603,192.744 303.739,184.654 254.38,238.733 236.702,219.29 227.823,227.363 "></polygon><path d="M102.76,140.827h91.879V48.947H102.76V140.827z M114.76,60.947h67.879v36.88L148.7,70.21l-33.94,27.617V60.947z   M114.76,113.299l33.94-27.618l33.939,27.618v15.528H114.76V113.299z"></path><path d="M222.036,429.608h52.258l35.576-41.714l-9.13-7.787l-31.983,37.501H161.682c-8.291,0-15.035-6.745-15.035-15.035v-60.259  l-22.401-5.326c-2.096-0.498-3.769-1.927-4.59-3.919c-0.821-1.992-0.64-4.185,0.497-6.015l29.032-46.748v-16.336  c0-5.454,0.967-17.866,1.81-23.222h-12c-0.939,5.971-1.81,17.146-1.81,23.222v12.913l-27.226,43.84  c-3.197,5.147-3.706,11.314-1.397,16.917c2.309,5.604,7.014,9.621,12.91,11.022l13.177,3.132v50.778  c0,14.907,12.128,27.035,27.035,27.035h48.354V493.1h105.29v-12h-93.29V429.608z"></path><path d="M367.542,224.205c-2.104-4.78-4.523-9.482-7.195-13.975l-10.314,6.133c2.424,4.075,4.619,8.339,6.527,12.675  L367.542,224.205z"></path><path d="M333.286,194.53c3.305,3.389,6.436,7.022,9.307,10.799l9.553-7.264c-3.168-4.165-6.621-8.172-10.266-11.911L333.286,194.53z  "></path><path d="M143,227.592l11.398,3.752c1.473-4.475,3.269-8.892,5.338-13.129l-10.783-5.266  C146.646,217.674,144.643,222.601,143,227.592z"></path><path d="M216.109,153.992c-4.991,1.649-9.916,3.669-14.637,6.005l5.321,10.756c4.22-2.088,8.621-3.894,13.081-5.367L216.109,153.992  z"></path><path d="M174.853,195.425l-9.047-7.884c-3.452,3.96-6.665,8.196-9.55,12.588l10.029,6.588  C168.874,202.777,171.756,198.978,174.853,195.425z"></path><path d="M176.186,177.058l7.973,8.969c3.527-3.135,7.297-6.049,11.204-8.661l-6.669-9.977  C184.331,170.305,180.123,173.558,176.186,177.058z"></path><path d="M274.114,162.414l2.297-11.778c-5.113-0.997-10.362-1.682-15.603-2.038l-0.812,11.973  C264.74,160.892,269.49,161.513,274.114,162.414z"></path><path d="M300.212,170.935l5.1-10.862c-4.742-2.227-9.677-4.169-14.664-5.774l-3.675,11.424  C291.476,167.17,295.93,168.924,300.212,170.935z"></path><path d="M311.882,177.282c4.008,2.497,7.906,5.281,11.588,8.274l7.57-9.311c-4.069-3.309-8.379-6.387-12.812-9.148L311.882,177.282z  "></path><path d="M232.65,162.081c4.607-0.874,9.333-1.431,14.049-1.656l-0.572-11.986c-5.271,0.251-10.558,0.875-15.713,1.853  L232.65,162.081z"></path></svg></g></g></svg>