<svg fill="#FFFFFF" xmlns="http://www.w3.org/2000/svg" xmlns:xlink="http://www.w3.org/1999/xlink" version="1.1" x="0px" y="0px" viewBox="0 0 100 100" style="enable-background:new 0 0 100 100;" xml:space="preserve"><path d="M95.1,34.9v30.5h-5.8c1.2-1.1,1.9-2.7,1.9-4.5V39.1c0-3.5-2.8-6.3-6.3-6.3c-3.5,0-6.3,2.8-6.3,6.3v18.5  l-18.4-1.4c-1.3-0.1-2.6,0.4-3.5,1.2c-1,0.9-1.5,2.1-1.5,3.4v30c0,2.6,2.1,4.7,4.7,4.7c2.6,0,4.7-2.1,4.7-4.7V66l3.4,0.3v28.9h4.2  V69.6h22.9v25.5h4.2V34.9H95.1z"></path><rect x="26.6" y="46.4" width="47.3" height="5.2"></rect><circle cx="80.1" cy="22.8" r="7.9"></circle><path d="M40.2,56.3L21.6,57v-18c0-3.5-2.8-6.3-6.3-6.3s-6.3,2.8-6.3,6.3v21.9c0,1.7,0.7,3.3,1.9,4.5H5.2V34.9H1v60.2  h4.2V69.6h22.9v25.5h4.2V66l3.4-0.1v25.1c0,2.6,2.1,4.7,4.7,4.7c2.6,0,4.7-2.1,4.7-4.7v-30c0-1.3-0.5-2.5-1.4-3.4  C42.7,56.7,41.4,56.2,40.2,56.3z"></path><circle cx="20.2" cy="22.8" r="7.9"></circle><path d="M50.2,3.3c-9,0-16.4,7.4-16.4,16.4s7.4,16.4,16.4,16.4c9,0,16.4-7.4,16.4-16.4S59.3,3.3,50.2,3.3z   M50.2,31.8c-6.6,0-12-5.4-12-12s5.4-12,12-12c6.6,0,12,5.4,12,12S56.9,31.8,50.2,31.8z"></path><path d="M48.6,25.5c-0.6,0-1.1-0.2-1.5-0.6l-4-4c-0.8-0.8-0.8-2.1,0-2.9c0.8-0.8,2.1-0.8,2.9,0l2.6,2.6l5.9-5.9  c0.8-0.8,2.1-0.8,2.9,0c0.8,0.8,0.8,2.1,0,2.9L50,24.9C49.6,25.3,49.1,25.5,48.6,25.5z"></path></svg>