<svg fill="#229897" xmlns="http://www.w3.org/2000/svg" xmlns:xlink="http://www.w3.org/1999/xlink" version="1.1" x="0px" y="0px" viewBox="0 0 100 100" style="enable-background:new 0 0 100 100;" xml:space="preserve"><path d="M69.6,33.8c-3.9,0-7.1,3.2-7.1,7.1h4c0-1.7,1.4-3,3-3s3,1.4,3,3c0,1.7-1.4,3-3,3h-2v5.7h4v-2c2.9-0.9,5.1-3.6,5.1-6.8  C76.6,36.9,73.5,33.8,69.6,33.8z"></path><rect x="67.5" y="52.2" width="4" height="3.4"></rect><path d="M36,32.7c-6.5,0-11.9,5.3-11.9,11.9S29.5,56.4,36,56.4s11.9-5.3,11.9-11.9S42.6,32.7,36,32.7z"></path><path d="M47,60.6H25.1c-5.6,0-10.3,4.6-10.3,10.3v9.6h18.8l5.6-4l0.8,3.3c0,0.1,0,0.2-0.1,0.2l-0.4,0.4h17.8V71  C57.3,65.2,52.8,60.6,47,60.6z M32.1,79.8l1-4.1l5.1-3.6l0.7,2.9L32.1,79.8z M39,66.2l-1.8,2l0.6,2.3l-4.2,3l1.3-5.4l-1.8-2  c-0.1-0.1-0.1-0.2,0-0.2l1.1-2.6c0-0.1,0.1-0.1,0.2-0.1h3.4c0.1,0,0.2,0,0.2,0.1L39,66C39,66,39,66.1,39,66.2z"></path><path d="M90.3,18.5H9c-1.1,0-2,0.9-2,2v51.8c0,1.1,0.9,2,2,2h3l1.5-4H11V22.5h77.3v47.8H60.7l-1.5,4l31.1,0c1.1,0,2-0.9,2-2V20.5  C92.3,19.4,91.4,18.5,90.3,18.5z"></path></svg>