<svg fill="#FFFFFF" xmlns="http://www.w3.org/2000/svg" xmlns:xlink="http://www.w3.org/1999/xlink" version="1.1" x="0px" y="0px" viewBox="0 0 100 100" enable-background="new 0 0 100 100" xml:space="preserve"><path d="M83.773,85c1.101-3.081,3.448-10.249,2.709-13.525c-0.206-0.909-0.965-2.177-2.146-2.812  c-0.324-0.174-0.661-0.282-0.997-0.337V43h-32v32.002l11.619-0.025c0.803,2.174,1.902,4.216,3.315,6.068L69.31,85h-2.971v10h21V85  H83.773z M53.339,45h28v22.205c-0.123-0.054-0.246-0.109-0.378-0.15c-0.934-0.294-1.938-0.234-2.751,0.133  c-1.076-0.756-2.067-0.856-2.749-0.794c-0.028,0.003-0.056,0.006-0.084,0.01c-0.015-0.841-0.027-2.008-0.038-3.29  c2.501-1.292,4.095-3.847,4.095-6.711c0-4.185-3.404-7.589-7.588-7.589c-4.185,0-7.589,3.404-7.589,7.589  c0,2.819,1.559,5.36,4.008,6.677v5.601l-1.197-2.347c-0.827-1.615-2.756-2.266-4.388-1.484c-1.489,0.712-2.232,2.435-1.729,4.006  l1.321,4.123l-8.933,0.019V45z M68.265,56.883V60.7c-1.253-1.046-2.008-2.608-2.008-4.298c0-3.082,2.507-5.589,5.589-5.589  c3.081,0,5.588,2.507,5.588,5.589c0,1.741-0.798,3.331-2.111,4.37c-0.008-1.371-0.015-2.739-0.018-3.889  c0-1.94-1.579-3.52-3.52-3.52S68.265,54.942,68.265,56.883z M67.861,79.829c-1.481-1.941-2.609-4.104-3.354-6.428l-1.651-5.155  c-0.2-0.625,0.096-1.309,0.688-1.592c0.648-0.312,1.415-0.052,1.743,0.589l2.801,5.488c0.242,0.477,0.775,0.72,1.295,0.597  c0.52-0.125,0.883-0.586,0.883-1.12V56.883c0-0.838,0.682-1.52,1.52-1.52s1.52,0.682,1.52,1.522  c0.037,11.68,0.037,11.68,0.82,11.935c0.407,0.131,0.8,0.058,1.056-0.291c0.009-0.006,0.95-0.603,2.274,0.614  c0.372,0.346,0.946,0.354,1.33,0.021c0.349-0.301,0.999-0.385,1.578-0.202c0.444,0.14,0.756,0.402,0.833,0.702  c0.07,0.276,0.256,0.509,0.509,0.64s0.549,0.148,0.815,0.047c0.29-0.111,0.568-0.088,0.871,0.073  c0.565,0.304,1.032,1.011,1.141,1.49c0.607,2.689-1.69,9.832-2.886,13.085h-9.814L67.861,79.829z M85.339,93h-17v-6h17V93z"></path><path d="M13.339,37h32V5h-32V37z M15.339,7h28v28h-28V7z"></path><path d="M83.339,5h-32v32h32V5z M81.339,35h-28V7h28V35z"></path><path d="M13.339,75h32V43h-32V75z M15.339,45h28v28h-28V45z"></path></svg>