<svg xmlns="http://www.w3.org/2000/svg" xmlns:xlink="http://www.w3.org/1999/xlink" width="100" height="100" viewBox="0 0 100 100"><g><g transform="translate(50 50) scale(0.69 0.69) rotate(0) translate(-50 -50)" style="fill:#229897"><svg fill="#229897" xmlns="http://www.w3.org/2000/svg" xmlns:xlink="http://www.w3.org/1999/xlink" version="1.1" x="0px" y="0px" viewBox="0 0 100 100" enable-background="new 0 0 100 100" xml:space="preserve"><path d="M88.4,23.6h-8.3l1.7-5.6l3.8,3.2L84,5L73.6,17.5l5-0.5l-2,6.6H11.6v54.8h27L30.8,95h4.9l7.7-16.6h4.3V95  h4.4V78.4h3.6L63.6,95h4.9l-7.7-16.6h27.7V23.6z M75.2,28l-7,22.7l-5.9-13L50.9,57.3l-5.1-5.9l-4.2,9.4L38.2,54L35,61.7L31.9,59  L29,65.7l-2.7-3.8l-3.1,3l-4.5-7.9L16,59.5V28H75.2z M84,74H16v-9.7l2-1.9l4.6,7.9l3.4-3.2l3.9,5.6l3.4-8.1l3.1,2.7l2.1-5l3.2,6.7  l5.1-11.3l4.8,5.5L62,45.1l6.9,15.3L78.7,28H84V74z"></path></svg></g></g></svg>