<svg fill="#229897" xmlns="http://www.w3.org/2000/svg" xmlns:xlink="http://www.w3.org/1999/xlink" version="1.1" x="0px" y="0px" viewBox="0 0 128 128" style="enable-background:new 0 0 128 128;" xml:space="preserve"><g><path d="M76.3642807,58.7113991c-0.2372818,0-0.4736938,0.0152016-0.7089996,0.0445023   c-1.1298981-1.3868027-2.9296951-2.1797028-4.7978973-2.0557022c-0.9140015-1.3544998-2.4247971-2.2777977-4.1327972-2.4516983   V41.6054993C66.7245865,38.4623985,64.2743835,36,61.1454849,36c-3.0839996,0-5.5,2.4623985-5.5,5.6054993v15.7425995   c-1.1893997-1.0028992-2.6074028-1.6884003-4.2012024-1.6884003c-1.3426971,0-2.6455002,0.4790001-3.6688995,1.3486023   c-3.6064987,3.0663986-0.9071999,8.1215973,0.8789024,11.466301c0.4862976,0.910202,0.9452972,1.7695007,1.1767998,2.3993988   c0.5155983,1.4013977,1.0487976,2.8487015,1.6200981,4.1542969c1.2705002,3.6123047,2.6991997,5.8672028,3.8592987,7.6992035   c1.4590034,2.2978973,2.2627029,3.5625,2.2627029,6.524498C57.573185,90.767601,58.8085823,92,60.3261833,92h14.7508965   c1.520607,0,2.7569199-1.232399,2.7569199-2.7480011c0-0.7461014,0.7382813-2.2099991,1.4032822-3.5273972   c1.2266006-2.4502029,2.7538986-5.4990005,2.7538986-9.1152039L82,64.1846008   C82,61.1665001,79.4716797,58.7113991,76.3642807,58.7113991z M77.9911804,76.6093979   c0,2.669899-1.1846008,5.0361023-2.3378983,7.3387985C74.945282,85.3506012,74.2675858,86.6942978,73.9794846,88H61.5292816   c-0.2431984-3.3252029-1.4589996-5.2393036-2.8515968-7.4316025c-1.0468025-1.6533966-2.3506012-3.7109985-3.4765015-6.9335938   l-0.0575981-0.1475067c-0.5332031-1.2099991-1.0547028-2.6259995-1.5752029-4.0399933   c-0.309597-0.842804-0.8320999-1.8213043-1.3857994-2.8565063c-1.1093979-2.078598-2.9668007-5.5565987-1.8163986-6.5345993   c0.3008156-0.2558975,0.6836014-0.3964996,1.0780983-0.3964996c1.490303,0,3.4081993,2.4028015,4.0634995,4.4697037   c0.4854012,1.5326996,1.5127029,1.7612,2.0820007,1.7612c0.0009995,0,0.0009995,0,0.0009995,0l0.8721008-0.0078049   l0.5898018-0.6190948c0.5743141-0.6011047,0.6171989-1.3379021,0.5928001-1.8203011V41.6054993   c0-0.9151001,0.644516-1.6054993,1.5-1.6054993c0.9003983,0,1.5790977,0.6903992,1.5790977,1.6054993v17.8213005   l2.7334175-1.0777016c0.962883-0.3802986,2.105484,0.1743011,2.2890854,1.0723l0.5009155,2.4531021l2.28228-1.0317001   c0.8387985-0.3793983,1.9082031,0.0145988,2.2441025,0.8041992l0.7167969,2.2890015l2.125-1.0517006   c0.2276001-0.1133003,0.4863052-0.1729012,0.7481003-0.1729012C77.2665863,62.7113991,78,63.3721008,78,64.1846008   L77.9911804,76.6093979z"></path><path d="M64,20c5.5224838,0,10-4.4771004,10-10.0004997C74,4.4775,69.5224838,0,64,0c-5.5234146,0-10,4.4775-10,9.9995003   C54,15.5228996,58.4765854,20,64,20z M64,4c3.3085861,0,6,2.6914001,6,5.9995003C70,13.3080997,67.3085861,16,64,16   c-3.3086166,0-6-2.6919003-6-6.0004997C58,6.6914001,60.6913834,4,64,4z"></path><path d="M64,108c-5.5234146,0-10,4.4775009-10,10c0,5.5233994,4.4765854,10,10,10c5.5224838,0,10-4.4766006,10-10   C74,112.4775009,69.5224838,108,64,108z M64,124c-3.3086166,0-6-2.6913986-6-6s2.6913834-6,6-6c3.3085861,0,6,2.6913986,6,6   S67.3085861,124,64,124z"></path><path d="M118,54c-5.5234146,0-10,4.4766006-10,10c0,5.5224991,4.4765854,10,10,10c5.5224838,0,10-4.4775009,10-10   C128,58.4766006,123.5224838,54,118,54z M118,70c-3.3086166,0-6-2.6913986-6-6s2.6913834-6,6-6c3.3085785,0,6,2.6913986,6,6   S121.3085785,70,118,70z"></path><path d="M20,64c0-5.5233994-4.4775152-10-10-10C4.4765849,54,0,58.4766006,0,64c0,5.5224991,4.4765849,10,10,10   C15.5224848,74,20,69.5224991,20,64z M10,70c-3.3086152,0-6-2.6913986-6-6s2.6913848-6,6-6c3.3085852,0,6,2.6913986,6,6   S13.3085852,70,10,70z"></path><path d="M102,36c5.5224838,0,10-4.4775009,10-10.0004997c0-5.5223999-4.4766159-10-10-10c-5.5234146,0-10,4.4780006-10,9.9995003   C92,31.5228996,96.4765854,35.9995003,102,36z M102,19.9995003c3.3085861,0,6,2.6914005,6,6S105.3085861,32,102,32   c-3.3086166-0.0004997-6-2.6924-6-6.0009995C96,22.6909008,98.6913834,19.9995003,102,19.9995003z"></path><path d="M26,92c-5.5234146,0-9.9990005,4.4775009-10,10c0.0009995,5.5233994,4.4774837,10,10,10c5.5233841,0,10-4.4766006,10-10   C36,96.4775009,31.5224838,92,26,92z M26,108c-3.3076153,0-5.9990005-2.6913986-6-5.9990005   C20.0009995,98.6913986,22.6923847,96,26,96c3.3085842,0,6,2.6913986,6,6S29.3085842,108,26,108z"></path><path d="M102,92c-5.5225143,0-9.9990005,4.4766006-10,10c0.0009995,5.5224991,4.4774857,10,10,10c5.5233841,0,10-4.4775009,10-10   S107.5233841,92,102,92z M102,108c-3.3076172,0-5.9990005-2.6913986-6-5.9990005C96.0009995,98.6913986,98.6923828,96,102,96   c3.3085861,0,6,2.6913986,6,6S105.3085861,108,102,108z"></path><path d="M26,15.9995003C20.4765854,16,16,20.4771004,16,26s4.4765854,9.9995003,10,10c5.5233841,0,10-4.4771004,10-10   C36,20.4761009,31.5224838,16,26,15.9995003z M26,32c-3.3086147-0.0004997-6-2.6919003-6-6s2.6913853-6,6-6.0004997   C29.3085842,20,32,22.6919003,32,26C32,29.3085995,29.3085842,32,26,32z"></path></g></svg>