<svg fill="#229897" xmlns="http://www.w3.org/2000/svg" xmlns:xlink="http://www.w3.org/1999/xlink" version="1.1" x="0px" y="0px" viewBox="0 0 64 64" style="enable-background:new 0 0 64 64;" xml:space="preserve"><g><path d="M45.4,3H18.6c-2.2,0-4,1.9-4,4.3v49.4c0,2.4,1.8,4.3,4,4.3h26.8c2.2,0,4-1.9,4-4.3V7.3C49.4,4.9,47.6,3,45.4,3z M26.2,4.9   h11.5c0.2,0,0.4,0.2,0.4,0.4S38,5.8,37.8,5.8H26.2c-0.2,0-0.4-0.2-0.4-0.4S26,4.9,26.2,4.9z M36.9,58.6h-9.7   c-0.9,0-1.6-0.7-1.6-1.6c0-0.9,0.7-1.6,1.6-1.6h9.7c0.9,0,1.6,0.7,1.6,1.6C38.5,57.9,37.7,58.6,36.9,58.6z M47.6,52.6H16.4V11.4   h31.3V52.6z"></path><g><g><path d="M23.9,17.5h-2.3c-1.4,0-2.5,1.1-2.5,2.5v2.3c0,1.4,1.1,2.5,2.5,2.5h2.3c1.4,0,2.5-1.1,2.5-2.5V20     C26.4,18.6,25.3,17.5,23.9,17.5z M25.3,19.4c-0.7,1.4-1.4,2.7-2.1,4c-0.1,0.1-0.6,0.2-0.7,0.1c-0.7-0.5-1.4-1-2-1.5     c-0.2-0.1-0.3-0.6-0.2-0.7c0.2-0.2,0.6-0.3,0.8-0.2c0.5,0.2,0.9,0.5,1.5,0.8c0.5-0.8,0.9-1.5,1.4-2.3c0.1-0.2,0.3-0.5,0.4-0.6     c0.2-0.1,0.5-0.3,0.7-0.2C25.2,18.8,25.3,19.2,25.3,19.4z"></path><path d="M40.6,20.2H30.2c-0.6,0-1.1-0.6-1.1-1.3c0-0.7,0.5-1.3,1.1-1.3h10.3c0.6,0,1.1,0.6,1.1,1.3     C41.7,19.6,41.2,20.2,40.6,20.2z"></path><path d="M43.5,24.8h-13c-0.7,0-1.4-0.6-1.4-1.3c0-0.7,0.6-1.3,1.4-1.3h13c0.7,0,1.4,0.6,1.4,1.3C44.9,24.2,44.3,24.8,43.5,24.8z"></path></g><g><path d="M23.9,28.4h-2.3c-1.4,0-2.5,1.1-2.5,2.5v2.3c0,1.4,1.1,2.5,2.5,2.5h2.3c1.4,0,2.5-1.1,2.5-2.5v-2.3     C26.4,29.5,25.3,28.4,23.9,28.4z M25.3,30.2c-0.7,1.4-1.4,2.7-2.1,4c-0.1,0.1-0.6,0.2-0.7,0.1c-0.7-0.5-1.4-1-2-1.5     c-0.2-0.1-0.3-0.6-0.2-0.7c0.2-0.2,0.6-0.3,0.8-0.2c0.5,0.2,0.9,0.5,1.5,0.8c0.5-0.8,0.9-1.5,1.4-2.3c0.1-0.2,0.3-0.5,0.4-0.6     c0.2-0.1,0.5-0.3,0.7-0.2C25.2,29.7,25.3,30.1,25.3,30.2z"></path><path d="M40.6,31H30.2c-0.6,0-1.1-0.6-1.1-1.3s0.5-1.3,1.1-1.3h10.3c0.6,0,1.1,0.6,1.1,1.3S41.2,31,40.6,31z"></path><path d="M43.5,35.6h-13c-0.7,0-1.4-0.6-1.4-1.3s0.6-1.3,1.4-1.3h13c0.7,0,1.4,0.6,1.4,1.3S44.3,35.6,43.5,35.6z"></path></g><g><path d="M23.9,39.2h-2.3c-1.4,0-2.5,1.1-2.5,2.5V44c0,1.4,1.1,2.5,2.5,2.5h2.3c1.4,0,2.5-1.1,2.5-2.5v-2.3     C26.4,40.3,25.3,39.2,23.9,39.2z M25.3,41.1c-0.7,1.4-1.4,2.7-2.1,4c-0.1,0.1-0.6,0.2-0.7,0.1c-0.7-0.5-1.4-1-2-1.5     c-0.2-0.1-0.3-0.6-0.2-0.7c0.2-0.2,0.6-0.3,0.8-0.2c0.5,0.2,0.9,0.5,1.5,0.8c0.5-0.8,0.9-1.5,1.4-2.3c0.1-0.2,0.3-0.5,0.4-0.6     c0.2-0.1,0.5-0.3,0.7-0.2C25.2,40.5,25.3,40.9,25.3,41.1z"></path><path d="M40.6,41.8H30.2c-0.6,0-1.1-0.6-1.1-1.3s0.5-1.3,1.1-1.3h10.3c0.6,0,1.1,0.6,1.1,1.3S41.2,41.8,40.6,41.8z"></path><path d="M43.5,46.5h-13c-0.7,0-1.4-0.6-1.4-1.3s0.6-1.3,1.4-1.3h13c0.7,0,1.4,0.6,1.4,1.3S44.3,46.5,43.5,46.5z"></path></g></g></g></svg>