<svg fill="#229897" xmlns="http://www.w3.org/2000/svg" xmlns:xlink="http://www.w3.org/1999/xlink" version="1.1" x="0px" y="0px" viewBox="0 0 100 100" style="enable-background:new 0 0 100 100;" xml:space="preserve"><g><path d="M89.277,44.088H70.619c0.834-0.873,1.354-2.049,1.367-3.342c0.027-2.517-1.939-4.955-4.889-4.986H51.209l-5.177-6.438   c-2.658-3.729-5.925-5.541-9.989-5.541h-16.66c-4.064,0-7.332,1.813-9.989,5.541l-8.56,10.676c-0.883,1.316-1.059,2.98-0.471,4.451   l8.471,16.454c1.264,3.09,4.887,3.729,7.196,2.1l0.006,31.274c0,3.155,2.586,5.723,5.766,5.723c3.18,0,5.767-2.567,5.767-5.723   v-28.07h0.29v28.07c0,3.155,2.587,5.723,5.767,5.723s5.767-2.567,5.767-5.723V36.703l5.69,6.945   c0.563,0.769,1.317,1.344,2.154,1.672c-3.392,1.783-5.708,5.322-5.708,9.389v34.589c0,5.901,4.801,10.702,10.702,10.702h37.048   c5.902,0,10.703-4.801,10.703-10.702V54.709C99.98,48.854,95.18,44.088,89.277,44.088z M29.942,25.319l-2.229,3.114l-2.229-3.114   H29.942z M30.628,52.277l-2.916,3.395l-2.915-3.395l2.915-20.385L30.628,52.277z M16.029,53.939L10.666,43.25l5.369-6.549   L16.029,53.939z M37.853,94.277c0,2.307-1.896,4.185-4.228,4.185s-4.229-1.878-4.229-4.185V64.668h-3.367v29.609   c0,2.307-1.897,4.185-4.229,4.185c-2.331,0-4.228-1.878-4.228-4.185l-0.006-34.604h20.286V94.277z M46.313,42.727l-8.46-10.33   v25.715H17.567l0.006-25.713l-8.73,10.649l7.186,14.321v3.434c-1.29,2.076-4.449,2.213-5.782-0.506L1.778,43.846   c-0.38-0.98-0.263-2.084,0.316-2.965l8.541-10.648c2.351-3.307,5.212-4.913,8.749-4.913h4.208l2.924,4.083L23.176,52.75   l4.537,5.283l4.538-5.283l-3.339-23.348l2.924-4.083h4.208c3.536,0,6.398,1.606,8.749,4.913l5.681,7.066h16.616   c2.121,0.021,3.376,1.797,3.358,3.431c-0.02,1.851-1.54,3.356-3.391,3.358H52.229c-0.001,0-0.001,0-0.001,0h-3.385   C47.877,44.088,46.932,43.579,46.313,42.727z M98.441,89.298c0,5.053-4.11,9.164-9.164,9.164H52.229   c-5.053,0-9.164-4.111-9.164-9.164V54.709c0-5.008,4.111-9.082,9.164-9.082h37.048c5.054,0,9.164,4.074,9.164,9.082V89.298z    M27.712,23.578c6.501,0,11.79-5.289,11.79-11.789S34.213,0,27.712,0c-6.5,0-11.789,5.289-11.789,11.789   S21.212,23.578,27.712,23.578z M27.712,1.539c5.653,0,10.251,4.598,10.251,10.25s-4.599,10.25-10.251,10.25   c-5.652,0-10.25-4.598-10.25-10.25S22.061,1.539,27.712,1.539z M89.277,47.935H52.229c-3.896,0-6.856,3.095-6.856,6.774v34.589   c0,3.78,3.075,6.856,6.856,6.856h37.048c3.781,0,6.857-3.076,6.857-6.856V54.709C96.135,51.053,93.197,47.935,89.277,47.935z    M94.596,89.298c0,2.933-2.385,5.317-5.318,5.317H52.229c-2.932,0-5.318-2.385-5.318-5.317V54.709c0-3.232,2.7-5.236,5.318-5.236   h37.048c3.119,0,5.318,2.479,5.318,5.236V89.298z"></path></g></svg>