<svg fill="#FFFFFF" xmlns="http://www.w3.org/2000/svg" xmlns:xlink="http://www.w3.org/1999/xlink" version="1.1" x="0px" y="0px" viewBox="0 0 64 64" style="enable-background:new 0 0 64 64;" xml:space="preserve"><g><path d="M16,28c3.309,0,6-2.691,6-6s-2.691-6-6-6s-6,2.691-6,6S12.691,28,16,28z M16,18c2.206,0,4,1.794,4,4s-1.794,4-4,4   s-4-1.794-4-4S13.794,18,16,18z"></path><path d="M48,28c3.309,0,6-2.691,6-6s-2.691-6-6-6s-6,2.691-6,6S44.691,28,48,28z M48,18c2.206,0,4,1.794,4,4s-1.794,4-4,4   s-4-1.794-4-4S45.794,18,48,18z"></path><path d="M58,30v13c0,1.654-1.346,3-3,3V35c0-2.757-2.243-5-5-5h-5c-0.552,0-1,0.448-1,1v4v1v1h-8c-0.552,0-1,0.448-1,1v3h-6v-3   c0-0.552-0.448-1-1-1h-8v-1v-1v-4c0-0.552-0.448-1-1-1h-5c-2.757,0-5,2.243-5,5v11c-1.654,0-3-1.346-3-3V30H4v13   c0,2.045,1.237,3.802,3,4.576V60h2V48h1h1h8v11c0,0.552,0.448,1,1,1h3h1h1v-1V44v-1h3h8h3v1v15v1h1h1h3c0.552,0,1-0.448,1-1V48h8h1   h1v12h2V47.576c1.763-0.774,3-2.531,3-4.576V30H58z M24,41h-2h-6v-6h-2v7c0,0.552,0.448,1,1,1h7c0.551,0,1,0.449,1,1v14h-2V47   c0-0.552-0.448-1-1-1h-9V35c0-1.654,1.346-3,3-3h4v3v1v2c0,0.552,0.448,1,1,1h8v2H24z M44,46c-0.552,0-1,0.448-1,1v11h-2V44   c0-0.551,0.449-1,1-1h7c0.552,0,1-0.448,1-1v-7h-2v6h-6h-2h-3v-2h8c0.552,0,1-0.448,1-1v-2v-1v-3h4c1.654,0,3,1.346,3,3v11H44z"></path><path d="M23,14v3c0,0.431,0.275,0.812,0.684,0.949C23.788,17.983,23.895,18,24,18c0.309,0,0.607-0.144,0.8-0.4l2.7-3.6H35   c1.654,0,3-1.346,3-3V7c0-1.654-1.346-3-3-3H23c-1.654,0-3,1.346-3,3v4C20,12.654,21.346,14,23,14z M22,7c0-0.551,0.449-1,1-1h12   c0.551,0,1,0.449,1,1v4c0,0.551-0.449,1-1,1h-8c-0.315,0-0.611,0.148-0.8,0.4L25,14v-1c0-0.552-0.448-1-1-1h-1   c-0.551,0-1-0.449-1-1V7z"></path><rect x="24" y="8" width="10" height="2"></rect><rect x="31" y="29" width="6" height="2"></rect><path d="M30,25c-1.654,0-3,1.346-3,3v4c0,1.654,1.346,3,3,3h8c1.654,0,3-1.346,3-3v-0.697l1.832-2.748   c0.205-0.307,0.224-0.701,0.05-1.026C42.708,27.203,42.369,27,42,27h-1.171c-0.413-1.164-1.525-2-2.829-2H30z M39,28   c0,0.552,0.448,1,1,1h0.131l-0.963,1.445C39.059,30.609,39,30.803,39,31v1c0,0.551-0.449,1-1,1h-8c-0.551,0-1-0.449-1-1v-4   c0-0.551,0.449-1,1-1h8C38.551,27,39,27.449,39,28z"></path><rect x="27" y="20" width="2" height="2"></rect><rect x="31" y="20" width="2" height="2"></rect><rect x="35" y="20" width="2" height="2"></rect></g></svg>