<svg fill="#229897" xmlns="http://www.w3.org/2000/svg" data-name="Calque 1" viewBox="0 0 165.87311 93.10156" x="0px" y="0px"><title>Plan de travail 27dialogue_kit</title><g><path d="M158.87555,31.10156H138.77582L130.0567,16a1.9998,1.9998,0,0,0-3.46387,0l-8.71875,15.10156H97.77448a7.00578,7.00578,0,0,0-6.998,6.998V86.10352a7.00578,7.00578,0,0,0,6.998,6.998h61.10107a7.00567,7.00567,0,0,0,6.99756-6.998V38.09961A7.00568,7.00568,0,0,0,158.87555,31.10156Zm-54.54065,39v-4h48v4Zm35,4v4h-35v-4Zm-35-12v-4h48v4Zm12.25037-17.95874a2.75626,2.75626,0,0,0-1.11188.78333,4.95042,4.95042,0,0,0-.75726,1.21325,5.96853,5.96853,0,0,0-.42859,1.41309,5.31968,5.31968,0,0,0-.07666,1.33911h2.121v5.35132h-4.24072V48.8396a8.77969,8.77969,0,0,1,.278-2.19629,7.62445,7.62445,0,0,1,.83252-2.01843,6.22725,6.22725,0,0,1,1.41449-1.64319,5.1786,5.1786,0,0,1,1.96912-1.00781ZM104.31488,48.8396a8.84259,8.84259,0,0,1,.278-2.19629,7.62445,7.62445,0,0,1,.83252-2.01843,6.25142,6.25142,0,0,1,1.41455-1.64319,5.18824,5.18824,0,0,1,1.96906-1.00781v2.16894a2.74326,2.74326,0,0,0-1.11053.78333,4.91458,4.91458,0,0,0-.75861,1.21325,6.03227,6.03227,0,0,0-.42859,1.41309,5.31778,5.31778,0,0,0-.07532,1.33911h2.11969v5.35132h-4.24072Zm48.02,5.262h-33v-4h33Z"></path><path d="M68.09863,0H6.99756A7.00568,7.00568,0,0,0,0,6.99805V55.002A7.00568,7.00568,0,0,0,6.99756,62H27.09729l8.71912,15.10156a1.99979,1.99979,0,0,0,3.46386,0L47.999,62H68.09863a7.00578,7.00578,0,0,0,6.99805-6.998V6.99805A7.00578,7.00578,0,0,0,68.09863,0ZM48.79114,47.10156h-35v-4h35Zm-33.37488-28.699a2.014,2.014,0,0,0,.66943-.19348,2.02582,2.02582,0,0,1,.72834-.192,2.55686,2.55686,0,0,1,1.73968.66785,2.1818,2.1818,0,0,1,.75818,1.70984,2.675,2.675,0,0,1-.74365,1.93249,2.55761,2.55761,0,0,1-1.9325.77429,3.02362,3.02362,0,0,1-2.3938-1.08569,3.85,3.85,0,0,1-.9364-2.60181,5.05716,5.05716,0,0,1,1.63568-3.77624,5.49149,5.49149,0,0,1,3.95368-1.57593l.05969.44678a3.96384,3.96384,0,0,0-2.61646,1.00183,2.953,2.953,0,0,0-1.18884,2.29858C15.14929,18.20422,15.238,18.40259,15.41626,18.40259Zm6.779,0a2.01411,2.01411,0,0,0,.66944-.19348,2.02548,2.02548,0,0,1,.72827-.192,2.53584,2.53584,0,0,1,1.72442.68408,2.16841,2.16841,0,0,1,.77344,1.69361,2.675,2.675,0,0,1-.74365,1.93249,2.55739,2.55739,0,0,1-1.93244.77429,3.02359,3.02359,0,0,1-2.39379-1.08569,3.85,3.85,0,0,1-.93641-2.60181,5.05716,5.05716,0,0,1,1.63568-3.77624,5.49135,5.49135,0,0,1,3.95362-1.57593l.05969.44678a3.96365,3.96365,0,0,0-2.61639,1.00183,2.95277,2.95277,0,0,0-1.18885,2.29858C21.92828,18.20422,22.017,18.40259,22.19525,18.40259Zm39.59589,8.699v4h-48v-4Zm-48,12v-4h48v4Zm48-16h-33v-4h33Z"></path></g></svg>