<svg fill="#229897" xmlns="http://www.w3.org/2000/svg" xmlns:sodipodi="http://sodipodi.sourceforge.net/DTD/sodipodi-0.dtd" viewBox="0 0 100 100" x="0px" y="0px"><path d="M 19.00886,4.9999988 C 14.585687,4.9999988 11,8.5856878 11,13.008859 c 0,0 0,37.374679 0,56.062018 0,4.423171 3.585687,8.00886 8.00886,8.00886 l 2.728018,0 c 0.790962,1.240325 1.921712,2.285475 3.35371,2.953265 l 30.483722,14.21573 c 4.008709,1.86941 8.766814,0.12916 10.636767,-3.87929 l 23.70122,-50.806207 c 1.869956,-4.008456 0.129222,-8.766919 -3.879292,-10.636767 l -25.378074,-11.838096 0,-4.079513 c 0,-4.4231712 -3.585687,-8.0088602 -8.00886,-8.0088602 z m 0,2.402658 33.637211,0 c 3.096217,0 5.606202,2.509982 5.606202,5.6062022 l 0,2.953267 -2.70299,-1.251384 c -3.597943,-1.665715 -7.782607,-0.45504 -9.96102,2.70299 l -22.975416,0 0,4.00443 20.973201,0 -1.501661,3.203544 -24.276856,0 0,4.00443 22.39978,0 -1.476634,3.203543 -20.923146,0 0,4.00443 19.046069,0 -1.501661,3.203544 -17.544408,0 0,4.00443 15.692359,0 -1.501661,3.203544 -14.190698,0 0,4.00443 12.313622,0 -1.476634,3.203544 -10.836988,0 0,4.00443 8.959912,0 -1.501662,3.203544 -7.45825,0 0,4.00443 5.606202,0 -2.202437,4.705205 c -0.804606,1.718931 -0.945451,3.595778 -0.525581,5.305869 l -1.676855,0 c -3.096217,0 -5.606202,-2.509982 -5.606202,-5.606202 0,-18.687339 0,-56.062018 0,-56.062018 0,-3.0962202 2.509985,-5.6062022 5.606202,-5.6062022 z m 32.811297,8.9599122 c 0.902305,-0.05538 1.826088,0.116648 2.70299,0.525581 L 85.00687,31.103877 c 2.806096,1.308589 4.036986,4.627303 2.728018,7.433222 l -23.70122,50.806203 c -1.308968,2.80592 -4.652161,4.0366 -7.45825,2.72802 L 26.091695,77.855592 C 23.2856,76.547005 22.079737,73.203264 23.388705,70.397345 L 47.089924,19.591141 c 0.899916,-1.92907 2.745163,-3.106734 4.730233,-3.228572 z"></path><path d="M 53.564142,27.472637 81.872258,40.672929 80.179914,44.302175 51.871798,31.101883 z" color="#000"></path><path d="M 46.162827,31.974465 78.82604,47.205572 77.133696,50.834819 44.470483,35.603711 z" color="#000"></path><path d="M 43.116601,38.507108 75.779815,53.738216 74.08747,57.367462 41.424257,42.136354 z" color="#000"></path><path d="M 40.070383,45.039751 72.733597,60.270858 71.041252,63.900104 38.378039,48.668997 z" color="#000"></path><path d="m 37.024163,51.572393 21.04963,9.815601 -1.69235,3.629251 -21.04962,-9.815606 z" color="#000"></path></svg>