<svg fill="#FFFFFF" xmlns="http://www.w3.org/2000/svg" xmlns:xlink="http://www.w3.org/1999/xlink" version="1.1" x="0px" y="0px" viewBox="0 0 64 64" style="enable-background:new 0 0 64 64;" xml:space="preserve"><path d="M61,53h-1V22c0-2.757-2.243-5-5-5h-7v-3c0-0.321-0.16-0.613-0.414-0.799l0.005-0.008l-15-11  c-0.352-0.258-0.831-0.258-1.183,0l-15,11l0.005,0.008C16.16,13.387,16,13.679,16,14v3H9c-2.757,0-5,2.243-5,5v31H3  c-0.552,0-1,0.447-1,1v3c0,2.757,2.243,5,5,5h50c2.757,0,5-2.243,5-5v-3C62,53.447,61.552,53,61,53z M18,15.868l13.445,8.964  c0.336,0.225,0.773,0.225,1.109,0L46,15.868V31H18V15.868z M40,17.465l-8,5.333l-8-5.333V15h16V17.465z M48,27c1.103,0,2,0.897,2,2  s-0.897,2-2,2V27z M14,29c0-1.103,0.897-2,2-2v4C14.897,31,14,30.103,14,29z M16,25c-2.206,0-4,1.794-4,4s1.794,4,4,4h1h30h1  c2.206,0,4-1.794,4-4s-1.794-4-4-4v-2h6v26H10V23h6V25z M32,4.24l13.256,9.721L42,16.131V14c0-0.553-0.448-1-1-1H23  c-0.552,0-1,0.447-1,1v2.131l-3.256-2.17L32,4.24z M6,22c0-1.654,1.346-3,3-3h7v2H9c-0.552,0-1,0.447-1,1v28c0,0.553,0.448,1,1,1h46  c0.552,0,1-0.447,1-1V22c0-0.553-0.448-1-1-1h-7v-2h7c1.654,0,3,1.346,3,3v31H38c-0.552,0-1,0.447-1,1c0,0.552-0.449,1-1,1h-8  c-0.551,0-1-0.448-1-1c0-0.553-0.448-1-1-1H6V22z M60,57c0,1.654-1.346,3-3,3H7c-1.654,0-3-1.346-3-3v-2h21.171  c0.413,1.164,1.525,2,2.829,2h8c1.304,0,2.416-0.836,2.829-2H60V57z"></path><rect x="31" y="35" width="2" height="2"></rect><rect x="31" y="39" width="2" height="2"></rect><rect x="27" y="39" width="2" height="2"></rect><rect x="35" y="39" width="2" height="2"></rect><rect x="31" y="43" width="2" height="2"></rect><rect x="27" y="43" width="2" height="2"></rect><rect x="23" y="43" width="2" height="2"></rect><rect x="35" y="43" width="2" height="2"></rect><rect x="39" y="43" width="2" height="2"></rect></svg>