<svg fill="#FFFFFF" xmlns="http://www.w3.org/2000/svg" xmlns:xlink="http://www.w3.org/1999/xlink" version="1.1" x="0px" y="0px" viewBox="0 0 79.3 99" style="enable-background:new 0 0 79.3 99;" xml:space="preserve"><g><path d="M47.7,23.8c0.2,0.1,0.4,0.2,0.6,0.2c0.2,0,0.4-0.1,0.6-0.2c4.2-2.2,5.8-5.2,6.4-6.8c0.5-1.5,0.3-3.1-0.5-4.2   C54,11.7,52.7,11,51.3,11c-1.2,0-2.2,0.4-3,1.2c-0.8-0.7-1.8-1.2-3-1.2c-1.4,0-2.6,0.6-3.5,1.7c-0.9,1.1-1.1,2.7-0.5,4.2   C41.9,18.6,43.5,21.6,47.7,23.8z M44.1,14.5c0.3-0.4,0.8-0.6,1.3-0.6c0.9,0,1.6,0.7,1.6,1.6c0,0.8,0.6,1.4,1.4,1.4   c0.8,0,1.4-0.6,1.4-1.4c0-0.9,0.7-1.6,1.6-1.6c0.5,0,1,0.2,1.3,0.6c0.3,0.4,0.3,1,0.1,1.5c-0.4,1.1-1.5,3.2-4.4,4.9   c-2.8-1.7-4-3.8-4.4-4.9C43.8,15.4,43.8,14.8,44.1,14.5z"></path><path d="M34.3,64.9c-0.6,0.9-1,2.1-1.3,3.6c-0.3,1.7,0.1,3.5,1.2,4.8l0.5,0.7c1.5,2,3.7,3.4,6.1,4l2.5,0.6c0.1,0,0.2,0,0.3,0   c0.6,0,1.2-0.4,1.4-1.1c0.2-0.8-0.3-1.5-1-1.7l-2.5-0.6c-1.8-0.5-3.4-1.5-4.6-3l-0.5-0.7c-0.6-0.7-0.8-1.7-0.6-2.6   c0.2-1.1,0.5-2,0.9-2.5c0.5-0.7,2.2-0.3,2.7-0.1c0.7,0.3,1.5-0.1,1.8-0.8c0.3-0.7-0.1-1.5-0.8-1.8C38.8,63.2,35.8,62.8,34.3,64.9z"></path><path d="M64.9,63.4c0.3-1.7,1.1-7-0.2-11.2c-0.4-1.4-0.8-2.6-2.3-4.3c0.2,0.1,0.4,0.2,0.6,0.2c0.2,0,0.3,0,0.5-0.1l1.3-0.5   c0,0,0,0,0,0l0.4-0.2c0.7-0.3,1.1-1.1,0.8-1.8c-0.3-0.7-1.1-1.1-1.8-0.8L63,45.2c0,0,0,0,0,0l-0.4,0.1c-0.7,0.3-1.1,1.1-0.8,1.8   c0,0,0,0.1,0,0.1c0,0-0.1-0.1-0.1-0.1c-0.5-0.4-1.1-0.5-1.7-0.2c-0.4-0.3-0.8-0.3-1.3-0.2l-0.1,0c0,0,0,0,0,0l-1.3,0.5   c-0.7,0.3-1.1,1.1-0.8,1.8c0.2,0.6,0.7,0.9,1.3,0.9c0.2,0,0.3,0,0.5-0.1l0.1,0c0,0,0,0,0,0l1.4-0.5c0.1,0,0.1-0.1,0.2-0.1   c1.4,1.5,1.7,2.3,2.1,3.7c1.3,4.3,0,10.3,0,10.3c-0.1,0.4,0,0.7,0.2,1.1l4.6,7.1l-2.5,2.3c-0.3,0.3-0.5,0.7-0.5,1.1   c0,0.4,0.2,0.8,0.6,1.1l1.7,1.3c0.1,0.1,0.1,0.2,0.1,0.3c0,0.1,0,0.2-0.1,0.3l-1.2,1.2c-0.3,0.3-0.5,0.7-0.4,1.2   c0.1,0.4,0.3,0.8,0.7,1.1l0.8,0.4c0.3,0.2,0.5,0.5,0.5,0.8l0,1c0,0.4-0.2,0.7-0.6,0.8c-1.3,0.5-2.2,1.7-2.4,3.1l-0.2,1.5   c0,0.4-0.3,0.7-0.6,0.8l-1.7,0.6c-0.1,0-0.2,0.1-0.3,0.1h-7c-1.2,0-2.3,0.6-3,1.5l-3.1,4.3H25.8l4.1-10.3c0.2-0.5,0.1-1-0.2-1.4   C18.3,71.5,14.2,60,17.9,51.3c0,0,0,0,0,0c0.1,0.1,0.2,0.1,0.3,0.1l1.3,0.5c0,0,0,0,0,0l0.2,0.1c0.2,0.1,0.3,0.1,0.5,0.1   c0.6,0,1.1-0.4,1.3-0.9c0.3-0.7-0.1-1.5-0.8-1.8l-0.2-0.1c0,0,0,0,0,0l-1.3-0.5c-0.7-0.3-1.5,0.1-1.8,0.8c-0.1,0-0.1-0.1-0.2-0.1   c-0.7-0.3-1.5,0-1.8,0.8c-2.8,6.7-3,18.3,11.7,35.4l-4.5,11.4c-0.2,0.4-0.1,0.9,0.1,1.3c0.3,0.4,0.7,0.6,1.2,0.6h24.5   c0.5,0,0.9-0.2,1.1-0.6l3.5-4.8c0.2-0.2,0.4-0.4,0.7-0.4h7c0.4,0,0.8-0.1,1.2-0.2l1.7-0.6c1.4-0.5,2.3-1.7,2.5-3.1l0.2-1.5   c0-0.3,0.3-0.6,0.6-0.8c1.4-0.5,2.3-1.8,2.4-3.3l0-1c0-1.1-0.4-2.1-1.1-2.8c0.7-0.6,1-1.5,0.9-2.4c-0.1-0.9-0.5-1.8-1.3-2.3   l-0.3-0.2l2.1-1.9c0.5-0.5,0.6-1.2,0.2-1.8L64.9,63.4z"></path><path d="M23.4,53.4l0.5,0.2c0,0,0,0,0,0l1.4,0.5c0.2,0.1,0.3,0.1,0.5,0.1c0.6,0,1.1-0.4,1.3-0.9c0.3-0.7-0.1-1.5-0.8-1.8l-0.5-0.2   c0,0,0,0,0,0l-1.3-0.5c-0.7-0.3-1.5,0.1-1.8,0.8C22.3,52.3,22.7,53.1,23.4,53.4z"></path><path d="M4.6,43.4l-0.7-0.2c0,0,0,0,0,0l-0.7-0.2c-0.5-0.2-1.1,0-1.5,0.4c0,0.1-0.1,0.1-0.1,0.2c0,0,0,0,0,0.1c0,0,0,0,0,0.1   c0,0.1-0.1,0.1-0.1,0.2c-0.3,0.7,0.1,1.5,0.8,1.8l1.3,0.5c0.2,0.1,0.3,0.1,0.5,0.1c0.6,0,1.1-0.4,1.3-0.9   C5.7,44.5,5.3,43.7,4.6,43.4z"></path><path d="M14.2,50c0.2,0.1,0.3,0.1,0.5,0.1c0.6,0,1.1-0.4,1.3-0.9c0.3-0.7-0.1-1.5-0.8-1.8l-0.1,0c0,0,0,0,0,0l-0.2-0.1l-1-0.4   c0,0,0,0,0,0l-0.1,0c-0.7-0.3-1.5,0.1-1.8,0.8c-0.3,0.7,0.1,1.5,0.8,1.8l1.3,0.5L14.2,50z"></path><path d="M9.9,45.4l-0.3-0.1c0,0,0,0,0,0l-1.4-0.5c-0.7-0.3-1.5,0.1-1.8,0.8c-0.3,0.7,0.1,1.5,0.8,1.8l0.4,0.2c0,0,0,0,0,0L8.9,48   c0.2,0.1,0.3,0.1,0.5,0.1c0.6,0,1.1-0.4,1.3-0.9C11,46.4,10.6,45.6,9.9,45.4z"></path><path d="M28.7,55.3l1.3,0.5c0,0,0,0,0,0l0.8,0.3c0.2,0.1,0.3,0.1,0.5,0.1c0.6,0,1.1-0.4,1.3-0.9c0.3-0.7-0.1-1.5-0.8-1.8L31,53.2   c0,0,0,0,0,0l-1.3-0.5c-0.7-0.3-1.5,0.1-1.8,0.8C27.6,54.2,28,55,28.7,55.3z"></path><path d="M36.2,37.3c0.8,0,1.4-0.6,1.4-1.4v-0.9v-0.5v-0.9c0-0.8-0.6-1.4-1.4-1.4c-0.8,0-1.4,0.6-1.4,1.4v0.9v0.5v0.9   C34.8,36.7,35.5,37.3,36.2,37.3z"></path><path d="M36.2,42.9c0.8,0,1.4-0.6,1.4-1.4v-1v-0.4v-1c0-0.8-0.6-1.4-1.4-1.4c-0.8,0-1.4,0.6-1.4,1.4v1v0.4v1   C34.8,42.3,35.5,42.9,36.2,42.9z"></path><path d="M36.2,31.7c0.8,0,1.4-0.6,1.4-1.4v-0.9v-0.5V28c0-0.8-0.6-1.4-1.4-1.4c-0.8,0-1.4,0.6-1.4,1.4v0.9v0.5v0.9   C34.8,31,35.5,31.7,36.2,31.7z"></path><path d="M36.2,48.6c0.8,0,1.4-0.6,1.4-1.4v-1.1v-0.4v-1c0-0.8-0.6-1.4-1.4-1.4c-0.8,0-1.4,0.6-1.4,1.4v1v0.4v1.1   C34.8,47.9,35.5,48.6,36.2,48.6z"></path><path d="M36.2,26c0.8,0,1.4-0.6,1.4-1.4v-0.8v-0.6v-0.8c0-0.8-0.6-1.4-1.4-1.4c-0.8,0-1.4,0.6-1.4,1.4v0.8v0.6v0.8   C34.8,25.4,35.5,26,36.2,26z"></path><path d="M36.2,20.4c0.8,0,1.4-0.6,1.4-1.4v-0.8v-0.6v-0.1c0-0.8-0.6-1.4-1.4-1.4c-0.8,0-1.4,0.6-1.4,1.4v0.1v0.6V19   C34.8,19.7,35.5,20.4,36.2,20.4z"></path><path d="M14.3,23.9c0.3,0.4,0.7,0.7,1.2,0.7c0.3,0,0.5-0.1,0.7-0.2c0.7-0.4,0.9-1.3,0.5-1.9l-0.4-0.6c-0.4-0.7-1.3-0.9-1.9-0.5   c-0.7,0.4-0.9,1.3-0.5,1.9L14.3,23.9z"></path><path d="M28.3,43.8c0.7-0.4,0.9-1.3,0.5-1.9L28,40.6c-0.4-0.7-1.3-0.9-1.9-0.5c-0.7,0.4-0.9,1.3-0.5,1.9l0.8,1.2   c0.3,0.4,0.7,0.7,1.2,0.7C27.8,44,28.1,43.9,28.3,43.8z"></path><path d="M28.6,47l0.8,1.2c0.3,0.4,0.7,0.7,1.2,0.7c0.3,0,0.5-0.1,0.7-0.2c0.7-0.4,0.9-1.3,0.5-1.9L31,45.5   c-0.4-0.7-1.3-0.9-1.9-0.5C28.4,45.5,28.2,46.3,28.6,47z"></path><path d="M19.7,27.3L19,26c-0.4-0.7-1.3-0.9-1.9-0.5c-0.7,0.4-0.9,1.3-0.5,1.9l0.8,1.2c0.3,0.4,0.7,0.7,1.2,0.7   c0.3,0,0.5-0.1,0.7-0.2C19.9,28.8,20.2,27.9,19.7,27.3z"></path><path d="M20.4,33.6c0.3,0.4,0.7,0.7,1.2,0.7c0.3,0,0.5-0.1,0.7-0.2c0.7-0.4,0.9-1.3,0.5-1.9L22,30.9c-0.4-0.7-1.3-0.9-1.9-0.5   c-0.7,0.4-0.9,1.3-0.5,1.9L20.4,33.6z"></path><path d="M34.1,50.4c-0.4-0.7-1.3-0.9-1.9-0.5c-0.7,0.4-0.9,1.3-0.5,1.9l0.8,1.2c0.3,0.4,0.7,0.7,1.2,0.7c0.3,0,0.5-0.1,0.7-0.2   c0.2-0.1,0.4-0.3,0.5-0.5c0.1,0.5,0.4,1,0.9,1.1c-0.1,0.1-0.2,0.2-0.3,0.4l-0.1,0.2c0,0,0,0,0,0L35,54.6c-0.7-0.3-1.5,0.1-1.8,0.8   c-0.3,0.7,0.1,1.5,0.8,1.8l1.1,0.4c0,0,0,0,0,0l0.7,0.2c0,0,0,0,0,0c0,0,0,0,0.1,0c0.1,0,0.3,0.1,0.4,0.1c0,0,0,0,0,0c0,0,0,0,0,0   s0,0,0,0c0.1,0,0.3,0,0.4-0.1c0,0,0,0,0.1,0c0,0,0,0,0,0l0.7-0.2c0,0,0,0,0,0l1.1-0.4c0.7-0.3,1.1-1.1,0.8-1.8   c-0.2-0.6-0.8-1-1.4-0.9c-0.1-0.2-0.3-0.4-0.5-0.5c-0.1-0.1-0.2-0.1-0.3-0.1c0.3-0.3,0.5-0.6,0.5-1.1v-0.6c0.1,0.2,0.3,0.4,0.5,0.6   c0.2,0.1,0.5,0.2,0.7,0.2c0.5,0,0.9-0.2,1.2-0.7l0.8-1.2c0.4-0.7,0.2-1.5-0.5-1.9c-0.7-0.4-1.5-0.2-1.9,0.5l-0.8,1.2   c0,0,0,0.1-0.1,0.1v-0.6c0-0.8-0.6-1.4-1.4-1.4c-0.8,0-1.4,0.6-1.4,1.4v1.1v0.3c0,0,0,0,0,0L34.1,50.4z"></path><path d="M23.4,38.5c0.3,0.4,0.7,0.7,1.2,0.7c0.3,0,0.5-0.1,0.7-0.2c0.7-0.4,0.9-1.3,0.5-1.9L25,35.8c-0.4-0.7-1.3-0.9-1.9-0.5   c-0.7,0.4-0.9,1.3-0.5,1.9L23.4,38.5z"></path><path d="M56.2,23.5c0.2,0.1,0.5,0.2,0.7,0.2c0.5,0,0.9-0.2,1.2-0.7l0.4-0.6c0.4-0.7,0.2-1.5-0.5-1.9c-0.7-0.4-1.5-0.2-1.9,0.5   l-0.4,0.6C55.4,22.3,55.6,23.1,56.2,23.5z"></path><path d="M51,33.5c0.5,0,0.9-0.2,1.2-0.7l0.8-1.2c0.4-0.7,0.2-1.5-0.5-1.9c-0.7-0.4-1.5-0.2-1.9,0.5l-0.8,1.2   c-0.4,0.7-0.2,1.5,0.5,1.9C50.4,33.4,50.7,33.5,51,33.5z"></path><path d="M49.4,34.5c-0.7-0.4-1.5-0.2-1.9,0.5l-0.8,1.2c-0.4,0.7-0.2,1.5,0.5,1.9c0.2,0.1,0.5,0.2,0.7,0.2c0.5,0,0.9-0.2,1.2-0.7   l0.8-1.2C50.3,35.8,50.1,34.9,49.4,34.5z"></path><path d="M46.1,42.6l0.8-1.2c0.4-0.7,0.2-1.5-0.5-1.9c-0.7-0.4-1.5-0.2-1.9,0.5l-0.8,1.2c-0.4,0.7-0.2,1.5,0.5,1.9   c0.2,0.1,0.5,0.2,0.7,0.2C45.4,43.2,45.9,43,46.1,42.6z"></path><path d="M55.2,28l0.8-1.2c0.4-0.7,0.2-1.5-0.5-1.9c-0.7-0.4-1.5-0.2-1.9,0.5l-0.8,1.2c-0.4,0.7-0.2,1.5,0.5,1.9   c0.2,0.1,0.5,0.2,0.7,0.2C54.4,28.6,54.9,28.4,55.2,28z"></path><path d="M41.2,47.9c0.2,0.1,0.5,0.2,0.7,0.2c0.5,0,0.9-0.2,1.2-0.7l0.8-1.2c0.4-0.7,0.2-1.5-0.5-1.9c-0.7-0.4-1.5-0.2-1.9,0.5   l-0.8,1.2C40.3,46.6,40.5,47.5,41.2,47.9z"></path><path d="M71,43.8c-0.2-0.5-0.5-0.8-1-0.9c-0.3-0.1-0.5-0.1-0.8,0l-1.3,0.5c-0.7,0.3-1.1,1.1-0.8,1.8c0.2,0.6,0.7,0.9,1.3,0.9   c0.2,0,0.3,0,0.5-0.1l0.7-0.2c0,0,0,0,0,0l0.7-0.2c0.5-0.2,0.9-0.7,0.9-1.3C71.1,44.1,71.1,43.9,71,43.8z"></path><path d="M41.1,56.2c0.2,0,0.3,0,0.5-0.1l1.4-0.5c0,0,0,0,0,0l0.8-0.3c0.7-0.3,1.1-1.1,0.8-1.8c-0.3-0.7-1.1-1.1-1.8-0.8l-1.3,0.5   c0,0,0,0,0,0l-0.8,0.3c-0.7,0.3-1.1,1.1-0.8,1.8C40,55.8,40.5,56.2,41.1,56.2z"></path><path d="M46.7,54.1c0.2,0,0.3,0,0.5-0.1l1.4-0.5c0,0,0,0,0,0l0.5-0.2c0.7-0.3,1.1-1.1,0.8-1.8c-0.3-0.7-1.1-1.1-1.8-0.8l-1.3,0.5   c0,0,0,0,0,0l-0.5,0.2c-0.7,0.3-1.1,1.1-0.8,1.8C45.6,53.8,46.1,54.1,46.7,54.1z"></path><path d="M52.3,52.1c0.2,0,0.3,0,0.5-0.1l1.4-0.5c0,0,0,0,0,0l0.2-0.1c0.7-0.3,1.1-1.1,0.8-1.8c-0.3-0.7-1.1-1.1-1.8-0.8L52,49.3   c0,0,0,0,0,0l-0.2,0.1c-0.7,0.3-1.1,1.1-0.8,1.8C51.2,51.7,51.7,52.1,52.3,52.1z"></path><path d="M2.8,33.5v-1.4l9.3,9.3c0.3,0.3,0.6,0.4,1,0.4c0.4,0,0.7-0.1,1-0.4c0.6-0.6,0.6-1.4,0-2l-9.3-9.3h1.7   c0.8,0,1.4-0.6,1.4-1.4c0-0.8-0.6-1.4-1.4-1.4H1.4c-0.1,0-0.3,0-0.4,0.1c0,0-0.1,0-0.1,0c-0.1,0-0.2,0.1-0.3,0.2c0,0,0,0,0,0   c-0.1,0.1-0.2,0.2-0.3,0.2c0,0,0,0-0.1,0.1c-0.1,0.1-0.1,0.2-0.2,0.3c0,0,0,0,0,0c0,0,0,0,0,0c0,0.1-0.1,0.2-0.1,0.3   c0,0,0,0.1,0,0.1c0,0,0,0.1,0,0.1v4.8c0,0.8,0.6,1.4,1.4,1.4C2.2,34.9,2.8,34.3,2.8,33.5z"></path><path d="M78.8,20.8l-3.4-3.4c-0.6-0.6-1.4-0.6-2,0L56.2,34.7c-0.1,0.1-0.2,0.3-0.3,0.5c0,0,0,0,0,0l-2.3,5.7   c-0.2,0.5-0.1,1.1,0.3,1.5c0.3,0.3,0.6,0.4,1,0.4c0.2,0,0.4,0,0.5-0.1l5.7-2.3c0,0,0,0,0,0c0.2-0.1,0.3-0.2,0.5-0.3l17.3-17.3   C79.4,22.2,79.4,21.3,78.8,20.8z M57.7,38.2l0.4,0.4l-0.6,0.3L57.7,38.2z M60.5,37.1l-1.4-1.4l15.3-15.3l1.4,1.4L60.5,37.1z"></path><path d="M24.4,20.2l0.7,2.6c-0.7,0.9-1,2.1-0.7,3.2l0.9,3.7c0.4,1.7,2,2.9,3.7,2.9c0.3,0,0.6,0,1-0.1c2.1-0.5,3.3-2.6,2.8-4.7   l-0.9-3.7c-0.3-1-0.9-1.8-1.8-2.4c-0.1,0-0.1-0.1-0.2-0.1L29.3,19c1.6-0.9,3-2.1,3.9-3.7c1.4-2.3,1.8-5,1.1-7.7   C32.9,2.2,27.4-1.1,22,0.3c-5.4,1.4-8.7,6.9-7.3,12.3C15.8,17.2,19.9,20.2,24.4,20.2z M29.4,29.9c-0.6,0.1-1.1-0.2-1.3-0.8   l-0.9-3.7c0-0.2,0-0.3,0-0.5c0.4-0.1,0.7-0.4,0.8-0.7c0.2,0.2,0.5,0.3,0.8,0.3c0,0,0.1,0,0.1,0c0.1,0.1,0.2,0.3,0.3,0.4l0.9,3.7   C30.3,29.2,29.9,29.7,29.4,29.9z M22.7,3c0.6-0.2,1.2-0.2,1.8-0.2c3.3,0,6.2,2.2,7.1,5.5c0.5,1.9,0.2,3.9-0.8,5.5   c-1,1.7-2.6,2.9-4.5,3.3c-3.9,1-7.9-1.4-8.9-5.3C16.4,8,18.8,4,22.7,3z"></path><path d="M21,16c1.1,0.6,2.3,1,3.5,1c0.6,0,1.1-0.1,1.7-0.2c3.6-0.9,5.8-4.6,4.9-8.3c-0.9-3.6-4.6-5.8-8.3-4.9   C21,4,19.6,5.1,18.6,6.6c-0.9,1.6-1.2,3.4-0.7,5.2C18.3,13.6,19.4,15,21,16z M19.8,7.4c0.7-1.2,1.9-2.1,3.3-2.5   c0.4-0.1,0.9-0.2,1.3-0.2c2.4,0,4.6,1.6,5.2,4.1c0.7,2.9-1,5.8-3.9,6.6c-1.4,0.4-2.8,0.1-4.1-0.6s-2.1-1.9-2.5-3.3   C18.9,10.1,19.1,8.6,19.8,7.4z"></path></g></svg>