<svg xmlns="http://www.w3.org/2000/svg" xmlns:xlink="http://www.w3.org/1999/xlink" width="100" height="100" viewBox="0 0 100 100"><g><g transform="translate(50 50) scale(0.69 0.69) rotate(0) translate(-50 -50)" style="fill:#229897"><svg fill="#229897" xmlns="http://www.w3.org/2000/svg" xmlns:xlink="http://www.w3.org/1999/xlink" version="1.1" x="0px" y="0px" viewBox="0 0 75.2 99" style="enable-background:new 0 0 75.2 99;" xml:space="preserve"><path d="M58.1,22.1c0.6,0,1.2-0.2,1.7-0.6c1.2-0.9,1.5-2.7,0.5-4c-0.9-1.2-2.7-1.5-4-0.5c-0.6,0.5-1,1.1-1.1,1.9  c-0.1,0.7,0.1,1.5,0.6,2.1C56.4,21.7,57.3,22.1,58.1,22.1z M57.6,18.6c0.1-0.1,0.3-0.2,0.5-0.2s0.5,0.1,0.7,0.3  c0.3,0.4,0.2,0.9-0.2,1.1C58.4,19.9,58.2,20,58,20c-0.2,0-0.4-0.1-0.5-0.3l0,0c-0.1-0.2-0.2-0.4-0.2-0.6  C57.3,19,57.5,18.8,57.6,18.6z"></path><ellipse transform="matrix(0.7578 -0.6525 0.6525 0.7578 -3.5562 33.6095)" cx="43.5" cy="21.6" rx="1.3" ry="1.3"></ellipse><path d="M50.5,21.2L50.5,21.2L52,21l0.3,2.1c0,0.4,0.3,0.7,0.6,0.8l1.5,0.6c-0.1,0.1-0.3,0.2-0.4,0.4l-0.4,0.6  c-0.4,0.6-0.2,1.5,0.4,1.8c0.2,0.1,0.5,0.2,0.7,0.2s0.5-0.1,0.7-0.2c0.3-0.1,0.5-0.3,0.7-0.6l0.5-1.3l1.9,0.8  c0.1,0.1,0.3,0.1,0.4,0.1c0.2,0,0.4-0.1,0.6-0.2l1.7-1.3l0,0l0.9,1.1c0.2,0.3,0.5,0.4,0.8,0.4c0.2,0,0.4-0.1,0.6-0.2  c0.4-0.3,0.5-1,0.2-1.4l-0.9-1.1l0,0l1.6-1.2c0.3-0.2,0.4-0.6,0.4-0.9l-0.3-2.1h0.1l1.4-0.2c0.6-0.1,0.9-0.6,0.9-1.1  c-0.1-0.6-0.6-0.9-1.1-0.9l-1.4,0.2h-0.1l-0.3-2c0-0.4-0.3-0.7-0.6-0.8l-1.9-0.8c0,0,0,0,0-0.1l0.5-1.3c0.2-0.5,0-1.1-0.5-1.3  s-1.1,0-1.3,0.5L59.7,13v0.1l-2-0.8c-0.3-0.1-0.7-0.1-1,0.1l-1.6,1.2l0,0l-0.9-1.1c-0.3-0.4-1-0.5-1.4-0.2s-0.5,1-0.2,1.4l0.9,1.1  l0,0l-1.7,1.3c-0.3,0.2-0.4,0.6-0.4,0.9l0.3,2l-1.4,0.2c-0.6,0.1-0.9,0.6-0.9,1.1C49.6,20.9,50,21.2,50.5,21.2z M57.5,14.4l4.6,1.9  l0.6,4.9l-4,3l-4.6-1.9l-0.6-4.9L57.5,14.4z"></path><path d="M38.8,21l0.5,0.2L39,21.9c-0.1,0.3,0,0.7,0.2,1l0.5,0.6l-0.4,0.3c-0.4,0.4-0.5,1-0.1,1.4c0.2,0.2,0.5,0.3,0.8,0.3  c0.2,0,0.5-0.1,0.7-0.2L41,25l0.6,0.7c0.2,0.2,0.5,0.3,0.8,0.3c0.1,0,0.1,0,0.2,0l0.8-0.2l0.1,0.4c0.1,0.5,0.5,0.8,1,0.8  c0.1,0,0.1,0,0.2,0c0.5-0.1,0.9-0.6,0.8-1.2l-0.1-0.4l0.8-0.2c0.4-0.1,0.6-0.3,0.8-0.7l0.3-0.8l0.4,0.1c0.1,0,0.2,0.1,0.3,0.1  c0.4,0,0.8-0.3,0.9-0.7c0.2-0.5-0.1-1.1-0.6-1.3L47.9,22l0.3-0.8c0.1-0.3,0-0.7-0.2-1l-0.6-0.7l0.4-0.3c0.4-0.4,0.5-1,0.1-1.4  s-1-0.5-1.4-0.1L46.2,18l-0.5-0.6c-0.2-0.3-0.6-0.4-0.9-0.3L44,17.3l-0.1-0.5c-0.1-0.5-0.6-0.9-1.2-0.8c-0.5,0.1-0.9,0.6-0.8,1.2  l0.1,0.5l-1,0.1c-0.4,0.1-0.6,0.3-0.8,0.7L40,19.2L39.5,19c-0.5-0.2-1.1,0.1-1.3,0.6C38,20.2,38.3,20.8,38.8,21z M41.9,19.7l2.5-0.5  l1.6,1.9l-0.8,2.4L42.8,24l-1.6-1.9L41.9,19.7z"></path><ellipse transform="matrix(0.4431 -0.8965 0.8965 0.4431 30.7757 60.7778)" cx="64.3" cy="5.6" rx="1.3" ry="1.3"></ellipse><path d="M59.8,4.5l0.4,0.2l-0.4,0.8c-0.2,0.3-0.1,0.7,0.1,1l0.4,0.7L60,7.4c-0.5,0.3-0.6,0.9-0.3,1.4c0.2,0.3,0.5,0.4,0.8,0.4  c0.2,0,0.4-0.1,0.6-0.2l0.3-0.2l0.5,0.7c0.2,0.3,0.5,0.4,0.8,0.4c0,0,0,0,0.1,0l0.9-0.1v0.4c0,0.5,0.5,0.9,1,0.9c0,0,0,0,0.1,0  c0.6,0,1-0.5,0.9-1.1V9.6l0.8-0.1c0.4,0,0.7-0.2,0.8-0.6l0.4-0.8l0.4,0.2c0.1,0.1,0.3,0.1,0.4,0.1c0.4,0,0.7-0.2,0.9-0.6  c0.2-0.5,0-1.1-0.5-1.3l-0.4-0.2l0.3-0.7c0.2-0.3,0.1-0.7-0.1-1l-0.5-0.7l0.4-0.3c0.5-0.3,0.6-0.9,0.3-1.4c-0.3-0.5-0.9-0.6-1.4-0.3  l-0.4,0.3l-0.4-0.7c-0.2-0.3-0.5-0.5-0.9-0.4L65,1.2V0.7c0-0.6-0.5-1-1.1-0.9c-0.6,0-1,0.5-0.9,1.1v0.5l-0.9,0.1  c-0.4,0-0.7,0.2-0.8,0.6L61,2.8l-0.4-0.2c-0.5-0.2-1.1,0-1.3,0.5C59.1,3.6,59.3,4.2,59.8,4.5z M63,3.6l2.5-0.2l1.4,2.1l-1.1,2.3  L63.3,8l-1.4-2.1L63,3.6z"></path><path d="M33.2,66.7c-0.6,0.8-1,2-1.3,3.4c-0.3,1.6,0.1,3.3,1.1,4.6l0.5,0.6c1.4,1.9,3.5,3.3,5.8,3.8l2.4,0.6c0.1,0,0.2,0,0.3,0  c0.6,0,1.1-0.4,1.3-1c0.2-0.7-0.3-1.4-1-1.6L40,76.6c-1.7-0.4-3.3-1.4-4.3-2.9l-0.5-0.6c-0.5-0.7-0.8-1.6-0.6-2.5  c0.2-1.1,0.5-1.9,0.8-2.4c0.5-0.7,2.1-0.3,2.5-0.1c0.7,0.3,1.5-0.1,1.7-0.8c0.3-0.7-0.1-1.5-0.8-1.7C37.5,65,34.7,64.6,33.2,66.7z"></path><path d="M62.3,65.2c0.3-1.7,1-6.6-0.1-10.6c-0.4-1.3-0.7-2.5-2.2-4.1c0.2,0.1,0.4,0.2,0.6,0.2c0.2,0,0.3,0,0.5-0.1l1.3-0.5l0,0  l0.4-0.2c0.7-0.3,1-1,0.8-1.7c-0.3-0.7-1-1.1-1.7-0.8l-1.3,0.5l0,0L60.3,48c-0.7,0.3-1,1-0.8,1.7v0.1l-0.1-0.1  c-0.4-0.4-1.1-0.5-1.6-0.2c-0.3-0.2-0.8-0.3-1.2-0.2h-0.1l0,0l-1.3,0.5c-0.7,0.3-1,1-0.8,1.7c0.2,0.5,0.7,0.9,1.3,0.9  c0.2,0,0.3,0,0.5-0.1h0.1l0,0l1.3-0.5c0.1,0,0.1-0.1,0.1-0.1c1.4,1.4,1.6,2.2,2,3.5c1.2,4,0,9.7,0,9.8c-0.1,0.3,0,0.7,0.2,1l4.3,6.8  l-2.4,2.1c-0.3,0.3-0.5,0.7-0.4,1.1c0,0.4,0.2,0.8,0.5,1l1.6,1.2c0.1,0.1,0.1,0.2,0.1,0.2c0,0.1,0,0.2-0.1,0.3l-1.2,1.1  c-0.3,0.3-0.5,0.7-0.4,1.1c0,0.4,0.3,0.8,0.7,1l0.7,0.4c0.3,0.2,0.4,0.5,0.4,0.8v1c0,0.3-0.2,0.7-0.6,0.8c-1.2,0.5-2.1,1.6-2.2,2.9  l-0.2,1.5c0,0.3-0.3,0.6-0.6,0.7l-1.7,0.6c-0.1,0-0.2,0-0.3,0h-6.6c-1.1,0-2.2,0.5-2.9,1.5l-2.9,4H25.1l3.9-9.8  c0.2-0.5,0.1-1-0.2-1.4C18.1,72.9,14.2,62,17.6,53.7l0,0c0.1,0.1,0.2,0.1,0.3,0.2l0.2,0.1l0,0l1.3,0.5c0.2,0.1,0.3,0.1,0.5,0.1  c0.5,0,1.1-0.3,1.3-0.9c0.3-0.7-0.1-1.5-0.8-1.7l-0.2-0.1l0,0l-1.3-0.5c-0.7-0.3-1.5,0.1-1.7,0.8c-0.1,0-0.1-0.1-0.2-0.1  c-0.7-0.3-1.5,0-1.7,0.7c-2.7,6.4-2.9,17.4,11.1,33.7l-4.3,10.8c-0.2,0.4-0.1,0.9,0.1,1.2c0.2,0.4,0.7,0.6,1.1,0.6h23.3  c0.4,0,0.8-0.2,1.1-0.6l3.3-4.6c0.2-0.2,0.4-0.4,0.7-0.4h6.6c0.4,0,0.8-0.1,1.2-0.2l1.7-0.6c1.3-0.5,2.2-1.6,2.4-3l0.2-1.5  c0-0.3,0.2-0.6,0.6-0.7c1.3-0.5,2.2-1.8,2.3-3.2v-1c0-1-0.3-2-1-2.6c0.6-0.6,0.9-1.4,0.9-2.3c-0.1-0.9-0.5-1.7-1.2-2.2L64.7,76  l2-1.8c0.5-0.4,0.6-1.2,0.2-1.7L62.3,65.2z"></path><path d="M10.1,48.1L9.8,48l0,0l-1.3-0.5c-0.7-0.3-1.5,0.1-1.7,0.8C6.5,49,6.9,49.8,7.6,50L8,50.2l0,0l1.3,0.5  c0.2,0.1,0.3,0.1,0.5,0.1c0.5,0,1.1-0.3,1.3-0.9C11.1,49.1,10.8,48.3,10.1,48.1z"></path><path d="M22.9,55.7l0.4,0.2l0,0l1.3,0.5c0.2,0.1,0.3,0.1,0.5,0.1c0.5,0,1.1-0.3,1.3-0.9c0.3-0.7-0.1-1.5-0.8-1.7l-0.5-0.2l0,0  l-1.3-0.5c-0.7-0.3-1.5,0.1-1.7,0.8C21.9,54.6,22.3,55.4,22.9,55.7z"></path><path d="M28,57.5l0.7,0.3l0,0l1.3,0.5c0.2,0.1,0.3,0.1,0.5,0.1c0.5,0,1.1-0.3,1.3-0.9c0.3-0.7-0.1-1.5-0.8-1.7l-0.8-0.3l0,0L28.9,55  c-0.7-0.3-1.5,0.1-1.7,0.8C26.9,56.5,27.3,57.2,28,57.5z"></path><path d="M5,46.2l-1.3-0.5c-0.2-0.1-0.4-0.1-0.5-0.1c-0.5,0-1,0.4-1.2,0.9c0,0.2,0,0.4,0,0.6c0,0.5,0.4,1,0.9,1.2l0.6,0.2l0,0  l0.6,0.2c0.2,0.1,0.3,0.1,0.5,0.1c0.5,0,1.1-0.3,1.3-0.9C6.1,47.2,5.7,46.5,5,46.2z"></path><path d="M68,46.3c-0.2-0.4-0.6-0.6-1.1-0.7c-0.2,0-0.4,0-0.5,0.1L65.8,46l0,0l-0.6,0.2c-0.7,0.3-1,1-0.8,1.7  c0.2,0.5,0.7,0.9,1.3,0.9c0.2,0,0.3,0,0.5-0.1l1.3-0.5c0.7-0.3,1-1,0.8-1.7C68.1,46.4,68,46.4,68,46.3z"></path><path d="M35.1,24.3c0.7,0,1.3-0.6,1.3-1.3v-0.8v-0.6v-0.1c0-0.7-0.6-1.3-1.3-1.3s-1.3,0.6-1.3,1.3v0.1v0.6V23  C33.8,23.7,34.4,24.3,35.1,24.3z"></path><path d="M35.1,40.4c0.7,0,1.3-0.6,1.3-1.3v-0.9v-0.4v-0.9c0-0.7-0.6-1.3-1.3-1.3s-1.3,0.6-1.3,1.3v0.9v0.4V39  C33.8,39.8,34.4,40.4,35.1,40.4z"></path><path d="M35.1,29.7c0.7,0,1.3-0.6,1.3-1.3v-0.8V27v-0.8c0-0.7-0.6-1.3-1.3-1.3s-1.3,0.6-1.3,1.3V27v0.5v0.8  C33.8,29.1,34.4,29.7,35.1,29.7z"></path><path d="M35.1,35c0.7,0,1.3-0.6,1.3-1.3v-0.8v-0.5v-0.8c0-0.7-0.6-1.3-1.3-1.3s-1.3,0.6-1.3,1.3v0.8v0.5v0.8  C33.8,34.4,34.4,35,35.1,35z"></path><path d="M35.1,45.7c0.7,0,1.3-0.6,1.3-1.3v-0.9v-0.4v-0.9c0-0.7-0.6-1.3-1.3-1.3s-1.3,0.6-1.3,1.3v0.9v0.4v0.9  C33.8,45.1,34.4,45.7,35.1,45.7z"></path><path d="M35.1,51.1c0.7,0,1.3-0.6,1.3-1.3v-1v-0.3v-1c0-0.7-0.6-1.3-1.3-1.3s-1.3,0.6-1.3,1.3v1v0.3v1  C33.8,50.5,34.4,51.1,35.1,51.1z"></path><path d="M16.6,26.2l-0.4-0.6c-0.4-0.6-1.2-0.8-1.8-0.4S13.6,26.4,14,27l0.4,0.6c0.3,0.4,0.7,0.6,1.1,0.6c0.2,0,0.5-0.1,0.7-0.2  C16.8,27.7,17,26.9,16.6,26.2z"></path><path d="M27.9,49.6l0.7,1.2c0.3,0.4,0.7,0.6,1.1,0.6c0.2,0,0.5-0.1,0.7-0.2c0.6-0.4,0.8-1.2,0.4-1.8l-0.7-1.2  c-0.4-0.6-1.2-0.8-1.8-0.4C27.7,48.1,27.5,49,27.9,49.6z"></path><path d="M20,36.9c0.3,0.4,0.7,0.6,1.1,0.6c0.2,0,0.5-0.1,0.7-0.2c0.6-0.4,0.8-1.2,0.4-1.8l-0.7-1.2c-0.4-0.6-1.2-0.8-1.8-0.4  c-0.6,0.4-0.8,1.2-0.4,1.8L20,36.9z"></path><path d="M27.6,46.6c0.6-0.4,0.8-1.2,0.4-1.8l-0.7-1.2c-0.4-0.6-1.2-0.8-1.8-0.4c-0.6,0.4-0.8,1.2-0.4,1.8l0.7,1.2  c0.3,0.4,0.7,0.6,1.1,0.6C27.1,46.8,27.4,46.7,27.6,46.6z"></path><path d="M31.2,52.4c-0.6,0.4-0.8,1.2-0.4,1.8l0.7,1.2c0.3,0.4,0.7,0.6,1.1,0.6c0.2,0,0.5-0.1,0.7-0.2c0.2-0.1,0.4-0.3,0.5-0.6  c0.1,0.5,0.4,1,0.9,1.1c-0.1,0.1-0.2,0.2-0.3,0.3l-0.1,0.2l0,0L34,56.7c-0.7-0.3-1.5,0.1-1.7,0.8c-0.3,0.7,0.1,1.5,0.8,1.7l1,0.4  l0,0l0.6,0.2l0,0c0,0,0,0,0.1,0s0.2,0.1,0.4,0.1l0,0l0,0l0,0c0.1,0,0.3,0,0.4-0.1c0,0,0,0,0.1,0l0,0l0.6-0.2l0,0l1-0.4  c0.7-0.3,1-1,0.8-1.7c-0.2-0.6-0.8-0.9-1.4-0.9c-0.1-0.2-0.2-0.4-0.5-0.5C36.1,56,36,56,35.9,56c0.3-0.2,0.5-0.6,0.5-1v-0.6  c0.1,0.2,0.3,0.4,0.5,0.6c0.2,0.1,0.5,0.2,0.7,0.2c0.4,0,0.9-0.2,1.1-0.6l0.7-1.2c0.4-0.6,0.2-1.5-0.4-1.8c-0.6-0.4-1.5-0.2-1.8,0.4  l-0.7,1.2c0,0,0,0.1-0.1,0.2v-0.7c0-0.7-0.6-1.3-1.3-1.3s-1.3,0.6-1.3,1.3v1V54c0,0,0,0,0-0.1L33,52.8C32.6,52.2,31.8,52,31.2,52.4z  "></path><path d="M22.9,41.5c0.3,0.4,0.7,0.6,1.1,0.6c0.2,0,0.5-0.1,0.7-0.2c0.6-0.4,0.8-1.2,0.4-1.8l-0.7-1.2c-0.4-0.6-1.2-0.8-1.8-0.4  c-0.6,0.4-0.8,1.2-0.4,1.8L22.9,41.5z"></path><path d="M17.2,32.3c0.3,0.4,0.7,0.6,1.1,0.6c0.2,0,0.5-0.1,0.7-0.2c0.6-0.4,0.8-1.2,0.4-1.8l-0.7-1.2c-0.4-0.6-1.2-0.8-1.8-0.4  c-0.6,0.4-0.8,1.2-0.4,1.8L17.2,32.3z"></path><path d="M47.9,34.7c-0.4,0.6-0.2,1.5,0.4,1.8c0.2,0.1,0.5,0.2,0.7,0.2c0.4,0,0.9-0.2,1.1-0.6l0.7-1.2c0.4-0.6,0.2-1.5-0.4-1.8  c-0.6-0.4-1.5-0.2-1.8,0.4L47.9,34.7z"></path><path d="M51.5,29l-0.7,1.2c-0.4,0.6-0.2,1.5,0.4,1.8c0.2,0.1,0.5,0.2,0.7,0.2c0.4,0,0.9-0.2,1.1-0.6l0.7-1.2  c0.4-0.6,0.2-1.5-0.4-1.8C52.7,28.1,51.9,28.3,51.5,29z"></path><path d="M47.6,37.8c-0.6-0.4-1.5-0.2-1.8,0.4l-0.7,1.2c-0.4,0.6-0.2,1.5,0.4,1.8c0.2,0.1,0.5,0.2,0.7,0.2c0.4,0,0.9-0.2,1.1-0.6  l0.7-1.2C48.5,39,48.3,38.2,47.6,37.8z"></path><path d="M44.5,45.4l0.7-1.2c0.4-0.6,0.2-1.5-0.4-1.8c-0.6-0.4-1.5-0.2-1.8,0.4L42.2,44c-0.4,0.6-0.2,1.5,0.4,1.8  c0.2,0.1,0.5,0.2,0.7,0.2C43.8,46,44.2,45.8,44.5,45.4z"></path><path d="M41.6,50l0.7-1.2c0.4-0.6,0.2-1.5-0.4-1.8c-0.6-0.4-1.5-0.2-1.8,0.4l-0.7,1.2c-0.4,0.6-0.2,1.5,0.4,1.8  c0.2,0.1,0.5,0.2,0.7,0.2C40.9,50.7,41.4,50.4,41.6,50z"></path><path d="M14.1,52.4L14.1,52.4c0.2,0.1,0.4,0.1,0.5,0.1c0.5,0,1.1-0.3,1.3-0.9c0.3-0.7-0.1-1.5-0.8-1.7l-1.3-0.5l0,0h-0.1  c-0.7-0.3-1.5,0.1-1.7,0.8c-0.3,0.7,0.1,1.5,0.8,1.7L14.1,52.4L14.1,52.4z"></path><path d="M38.5,57.5c0.2,0.5,0.7,0.9,1.3,0.9c0.2,0,0.3,0,0.5-0.1l1.3-0.5l0,0l0.7-0.3c0.7-0.3,1-1,0.8-1.7c-0.3-0.7-1-1-1.7-0.8  l-1.3,0.5l0,0l-0.8,0.3C38.6,56,38.2,56.8,38.5,57.5z"></path><path d="M45,56.4c0.2,0,0.3,0,0.5-0.1l1.3-0.5l0,0l0.4-0.2c0.7-0.3,1-1,0.8-1.7c-0.3-0.7-1-1-1.7-0.8L45,53.6l0,0l-0.5,0.2  c-0.7,0.3-1,1-0.8,1.7C44,56.1,44.5,56.4,45,56.4z"></path><path d="M49.9,51.8c-0.7,0.3-1,1-0.8,1.7c0.2,0.5,0.7,0.9,1.3,0.9c0.2,0,0.3,0,0.5-0.1l1.3-0.5l0,0l0.2-0.1c0.7-0.3,1-1,0.8-1.7  c-0.3-0.7-1-1-1.7-0.8l-1.3,0.5l0,0L49.9,51.8z"></path><path d="M13.4,41.7c0.5-0.5,0.5-1.4,0-1.9l-8.9-8.9h1.6c0.7,0,1.3-0.6,1.3-1.3c0-0.7-0.6-1.3-1.3-1.3H1.3c-0.2,0-0.3,0-0.5,0.1  c0,0-0.1,0-0.1,0.1c-0.1,0.1-0.2,0.1-0.3,0.2l-0.1,0.1c-0.1,0.1-0.2,0.2-0.2,0.4l0,0l0,0C0,29.2,0,29.4,0,29.5l0,0v4.6  c0,0.7,0.6,1.3,1.3,1.3s1.3-0.6,1.3-1.3v-1.3l8.9,8.9c0.3,0.3,0.6,0.4,0.9,0.4S13.2,41.9,13.4,41.7z"></path><path d="M74.8,24.5l-3.2-3.2c-0.5-0.5-1.4-0.5-1.9,0L53.3,37.7c-0.1,0.1-0.1,0.2-0.2,0.3c0,0.1-0.1,0.1-0.1,0.2l-2.2,5.4  c-0.2,0.5-0.1,1.1,0.3,1.4c0.3,0.3,0.6,0.4,0.9,0.4c0.2,0,0.3,0,0.5-0.1l5.4-2.2l0,0c0.1,0,0.2-0.1,0.3-0.2l0.1-0.1l16.4-16.4  c0.3-0.3,0.4-0.6,0.4-0.9C75.2,25.1,75.1,24.7,74.8,24.5z M54.7,41l0.4,0.4l-0.6,0.2L54.7,41z M57.5,40l-1.3-1.3l14.5-14.5l1.3,1.3  L57.5,40z"></path><path d="M23.2,24l0.6,2.5c-0.1,0.1-0.2,0.2-0.2,0.3c-0.5,0.8-0.6,1.8-0.4,2.8l0.9,3.5c0.4,1.7,1.9,2.8,3.6,2.8c0.3,0,0.6,0,0.9-0.1  c2-0.5,3.1-2.5,2.7-4.5l-0.9-3.5c-0.2-0.9-0.8-1.7-1.7-2.2c-0.1,0-0.1-0.1-0.2-0.1l-0.7-2.6c3.8-2,5.9-6.5,4.8-10.8l0,0  C31.2,6.9,26,3.7,20.8,5c-5.1,1.3-8.3,6.5-6.9,11.7C15,21,18.9,23.9,23.2,24z M27.9,33.1c-0.5,0.1-1.1-0.2-1.2-0.7l-0.9-3.5  c0-0.2,0-0.3,0-0.5c0.4-0.1,0.6-0.4,0.8-0.7c0.2,0.2,0.5,0.3,0.8,0.3h0.1c0.1,0.1,0.2,0.3,0.2,0.4l0.9,3.5  C28.7,32.4,28.4,33,27.9,33.1z M21.5,7.6c0.6-0.1,1.1-0.2,1.7-0.2c3.1,0,5.9,2.1,6.7,5.2c0.9,3.7-1.3,7.5-5,8.4s-7.5-1.3-8.4-5  C15.6,12.4,17.8,8.6,21.5,7.6z"></path><path d="M19.9,19.9c1,0.6,2.1,0.9,3.3,0.9c0.5,0,1.1-0.1,1.6-0.2c1.7-0.4,3.1-1.5,4-3s1.1-3.2,0.7-4.9s-1.5-3.1-3-4S23.3,7.6,21.6,8  c-1.7,0.4-3.1,1.5-4,3s-1.1,3.2-0.7,4.9C17.4,17.6,18.4,19,19.9,19.9z M18.8,11.7c0.7-1.2,1.8-2,3.1-2.3c0.4-0.1,0.8-0.2,1.3-0.2  c0.9,0,1.8,0.2,2.6,0.7c1.2,0.7,2,1.8,2.3,3.1s0.1,2.7-0.6,3.9s-1.8,2-3.1,2.3c-1.3,0.3-2.7,0.1-3.9-0.6c-1.2-0.7-2-1.8-2.3-3.1  C17.9,14.3,18.1,12.9,18.8,11.7z"></path></svg></g></g></svg>