<svg fill="#229897" xmlns="http://www.w3.org/2000/svg" xmlns:xlink="http://www.w3.org/1999/xlink" version="1.1" x="0px" y="0px" viewBox="0 0 1024 1024" style="enable-background:new 0 0 1024 1024;" xml:space="preserve"><g><g><path d="M694.6,529.6c-28.9,0-57.9,0-86.8,0c-58.9,0-117.7,0-176.6,0c-46.9,0-93.7,0-140.6,0c-4.9,0-9.8,0-14.7,0    c-9.3,0-17.6,2.7-25,9.2c-13.1,11.6-25.9,23.5-38.8,35.3c-36.9,33.6-73.8,67.1-110.8,100.7c-0.8,0.7-1.6,1.5-2.4,2.2    c17.1,7.1,34.1,14.1,51.2,21.2c0-17.5,0-35,0-52.5c0-42,0-84,0-125.9c0-50.5,0-101,0-151.5c0-43.5,0-86.9,0-130.4    c0-20.8-0.2-41.6,0-62.3c0-1.6,0.1-3.1,0.3-4.7c-0.4,2.7-0.7,5.3-1.1,8c0.4-2.6,1.1-5.1,2.2-7.6c-1,2.4-2,4.8-3,7.2    c0.7-1.6,1.6-3,2.5-4.5c2.6-4.4-5.4,6-1,1.6s-6,3.6-1.6,1c1.5-0.9,3-1.7,4.5-2.5c-2.4,1-4.8,2-7.2,3c2.5-1,4.9-1.7,7.6-2.2    c-2.7,0.4-5.3,0.7-8,1.1c5.9-0.7,12.1-0.3,18-0.3c13.1,0,26.2,0,39.2,0c43.6,0,87.3,0,130.9,0c52.9,0,105.9,0,158.8,0    c45.5,0,91,0,136.5,0c21.7,0,43.5-0.2,65.2,0c1.6,0,3.2,0.1,4.8,0.3c-2.7-0.4-5.3-0.7-8-1.1c2.6,0.4,5.1,1.1,7.6,2.2    c-2.4-1-4.8-2-7.2-3c1.6,0.7,3,1.6,4.5,2.5c4.4,2.6-6-5.4-1.6-1c4.4,4.4-3.6-6-1-1.6c0.9,1.5,1.7,3,2.5,4.5c-1-2.4-2-4.8-3-7.2    c1,2.5,1.7,4.9,2.2,7.6c-0.4-2.7-0.7-5.3-1.1-8c1.5,12.5,0.3,25.7,0.3,38.3c0,28.5,0,57,0,85.5c0,34.5,0,68.9,0,103.4    c0,29.8,0,59.7,0,89.5c0,14.1,0.2,28.2,0,42.3c0,1.5-0.1,3-0.3,4.4c0.4-2.7,0.7-5.3,1.1-8c-0.4,2.6-1.1,5.1-2.2,7.6    c1-2.4,2-4.8,3-7.2c-0.7,1.6-1.6,3-2.5,4.5c-2.6,4.4,5.4-6,1-1.6c-4.4,4.4,6-3.6,1.6-1c-1.5,0.9-3,1.7-4.5,2.5c2.4-1,4.8-2,7.2-3    c-2.5,1-4.9,1.7-7.6,2.2c2.7-0.4,5.3-0.7,8-1.1C697.3,529.5,696,529.6,694.6,529.6c-15.7,0.4-30.7,13.5-30,30    c0.7,15.9,13.2,30.4,30,30c32.9-0.8,59-27,59.3-60c0-5.3,0-10.5,0-15.8c0-25.7,0-51.3,0-77c0-35.7,0-71.4,0-107.1    c0-33.1,0-66.2,0-99.3c0-17.8,0-35.7,0-53.5c0-26.6-15.7-49.2-40.8-58.3c-7.5-2.7-15.5-3-23.4-3c-15.8,0-31.5,0-47.3,0    c-27.9,0-55.8,0-83.7,0c-34.9,0-69.9,0-104.8,0c-36.5,0-73,0-109.5,0c-32.5,0-65.1,0-97.6,0c-23.5,0-47,0-70.6,0    c-9,0-18-0.2-26.9,0c-32.9,0.6-58.8,27-59.3,59.8c0,3.7,0,7.4,0,11c0,19.4,0,38.9,0,58.3c0,30.5,0,61,0,91.6    c0,36.1,0,72.1,0,108.2c0,35.6,0,71.3,0,106.9c0,29.3,0,58.5,0,87.8c0,17.3,0,34.7,0,52c0,2.3,0,4.6,0,7c0,12,7.5,22.8,18.4,27.4    c11.4,4.8,23.7,2.1,32.8-6.2c17.2-15.6,34.4-31.2,51.6-46.9c27.4-24.9,54.7-49.8,82.1-74.7c6.3-5.7,12.5-11.4,18.8-17.1    c-7.1,2.9-14.1,5.9-21.2,8.8c14,0,28.1,0,42.1,0c33.5,0,67.1,0,100.6,0c40.6,0,81.1,0,121.7,0c35.2,0,70.4,0,105.7,0    c17.1,0,34.2,0.3,51.2,0c0.2,0,0.5,0,0.7,0c15.7,0,30.7-13.8,30-30C723.9,543.4,711.4,529.6,694.6,529.6z"></path></g></g><g><g><path d="M833.4,355.7c7.4,0,14.7,0,22.1,0c7.6,0,15.6-0.6,23.2,0.3c-2.7-0.4-5.3-0.7-8-1.1    c2.6,0.4,5.1,1.1,7.6,2.2c-2.4-1-4.8-2-7.2-3c1.6,0.7,3,1.6,4.5,2.5c4.4,2.6-6-5.4-1.6-1c4.4,4.4-3.6-6-1-1.6    c0.9,1.5,1.7,3,2.5,4.5c-1-2.4-2-4.8-3-7.2c1,2.5,1.7,4.9,2.2,7.6c-0.4-2.7-0.7-5.3-1.1-8c0.7,5.6,0.3,11.5,0.3,17.1    c0,12.5,0,25,0,37.6c0,41.7,0,83.3,0,125c0,50.5,0,100.9,0,151.4c0,43.7,0,87.5,0,131.2c0,21.3-0.6,42.8,0,64.1c0,0.3,0,0.6,0,0.9    c17.1-7.1,34.1-14.1,51.2-21.2c-32.9-29.9-65.9-59.9-98.8-89.8c-16.4-14.9-32.8-29.9-49.3-44.8c-7.5-6.8-14.8-12.5-26.1-12.8    c-3.2-0.1-6.3,0-9.5,0c-43,0-86,0-129,0c-59.8,0-119.5,0-179.3,0c-34.2,0-68.4,0.2-102.6,0c-1.8,0-3.5-0.1-5.3-0.3    c2.7,0.4,5.3,0.7,8,1.1c-2.6-0.4-5.1-1.1-7.6-2.2c2.4,1,4.8,2,7.2,3c-1.6-0.7-3-1.6-4.5-2.5c-4.4-2.6,6,5.4,1.6,1    c-4.4-4.4,3.6,6,1,1.6c-0.9-1.5-1.7-3-2.5-4.5c1,2.4,2,4.8,3,7.2c-1-2.5-1.7-4.9-2.2-7.6c0.4,2.7,0.7,5.3,1.1,8    c-1.1-9.2-0.3-18.7-0.3-28c0-15.7-13.8-30.7-30-30c-16.3,0.7-30,13.2-30,30c0,7.9-0.2,15.9,0,23.8c0.5,26.3,17.5,49.1,42.7,56.9    c9.1,2.8,18.6,2.4,27.9,2.4c29.7,0,59.4,0,89,0c44.4,0,88.7,0,133.1,0c41.5,0,83,0,124.5,0c21,0,42.2,0.5,63.2,0    c0.3,0,0.6,0,0.9,0c-7.1-2.9-14.1-5.9-21.2-8.8c17.2,15.6,34.4,31.2,51.6,46.9c27.4,24.9,54.7,49.8,82.1,74.7    c6.3,5.7,12.5,11.4,18.8,17.1c9.1,8.2,21.3,11.1,32.8,6.2c10.9-4.6,18.4-15.4,18.4-27.4c0-21.9,0-43.8,0-65.7    c0-50.2,0-100.4,0-150.6c0-56.1,0-112.2,0-168.3c0-39.7,0-79.3,0-119c0-6.5,0.1-13.1,0-19.6c-0.2-11.8-3.5-23.9-10.5-33.5    c-11.2-15.1-26-23.5-44.6-25.6c-11.3-1.2-23-0.3-34.3-0.3c-3.7,0-7.3,0-11,0c-15.7,0-30.7,13.8-30,30    C804.1,342,816.6,355.7,833.4,355.7L833.4,355.7z"></path></g></g><g><g><path d="M250.1,374.6c10.7,0,21.4,0,32.1,0c15.7,0,30.7-13.8,30-30c-0.7-16.3-13.2-30-30-30c-10.7,0-21.4,0-32.1,0    c-15.7,0-30.7,13.8-30,30C220.9,360.9,233.3,374.6,250.1,374.6L250.1,374.6z"></path></g></g><g><g><path d="M406,374.6c10.7,0,21.4,0,32.1,0c15.7,0,30.7-13.8,30-30c-0.7-16.3-13.2-30-30-30c-10.7,0-21.4,0-32.1,0    c-15.7,0-30.7,13.8-30,30C376.7,360.9,389.1,374.6,406,374.6L406,374.6z"></path></g></g><g><g><path d="M561.8,374.6c10.7,0,21.4,0,32.1,0c15.7,0,30.7-13.8,30-30c-0.7-16.3-13.2-30-30-30c-10.7,0-21.4,0-32.1,0    c-15.7,0-30.7,13.8-30,30C532.5,360.9,545,374.6,561.8,374.6L561.8,374.6z"></path></g></g></svg>