<svg fill="#229897" xmlns="http://www.w3.org/2000/svg" xmlns:xlink="http://www.w3.org/1999/xlink" version="1.1" x="0px" y="0px" viewBox="0 0 228.08 271.664" style="enable-background:new 0 0 228.08 271.664;" xml:space="preserve"><g><g><path d="M133.413,125.664h6.5v54h-6.5v10h87v-10h-6.5v-54h6.5v-10h-87V125.664z M196.413,125.664h13.5v54h-13.5V125.664z     M178.913,125.664h13.5v54h-13.5V125.664z M161.413,125.664h13.5v54h-13.5V125.664z M143.913,125.664h13.5v54h-13.5V125.664z"></path><polygon points="125.747,208.331 136.913,208.331 136.913,271.664 145.58,271.664 145.58,208.331 208.246,208.331     208.246,271.664 216.913,271.664 216.913,208.331 228.08,208.331 228.08,193.164 125.747,193.164   "></polygon></g><g><path d="M72.042,259.301v-90.271h4.635v90.271c0,6.83,5.537,12.363,12.363,12.363c6.828,0,12.365-5.533,12.365-12.363V106.553    c4.331,1.376,9.677,2.395,16.102,2.395c0.03,0,0.058,0,0.088,0c14.27,0.004,33.223-4.916,57.04-20.406    c3.702-2.409,4.754-7.364,2.346-11.069c-2.407-3.704-7.362-4.754-11.064-2.348c-21.94,14.245-37.776,17.817-48.321,17.821    c-7.04-0.006-11.853-1.575-14.878-2.996c-1.233-0.582-2.147-1.138-2.783-1.566c-1.404-1.938-3.68-3.204-6.257-3.204h-6.343    c-0.367,2.564-5.31,36.184-12.976,43.85c-7.666-7.665-12.608-41.285-12.976-43.85h-6.341c-1.951,0-3.728,0.729-5.087,1.92    c-0.202,0.151-0.399,0.311-0.589,0.483l-0.001,0c0,0,0,0-0.012,0.01v0l0.001,0.001c-0.001,0-0.001,0-0.001,0.001v-0.001    c-0.221,0.203-2.903,2.547-6.556,4.71c-3.733,2.268-8.482,4.118-11.947,4.052c-2.842-0.112-4.763-0.639-7.448-3.554    c-2.636-2.96-5.701-9.135-7.51-20.117c-0.556-3.332-3.094-5.83-6.204-6.502V12H4.813v54.67c-3.29,1.429-5.32,4.947-4.703,8.646    c2.14,12.722,5.794,21.728,11.244,28.016c5.296,6.217,12.641,9.027,19.118,9.027c0.126,0,0.252-0.001,0.378-0.003    c6.362-0.055,11.907-2.022,16.463-4.305v151.25c0,6.83,5.537,12.363,12.363,12.363C66.505,271.664,72.042,266.131,72.042,259.301z    "></path><path d="M51.858,56.981c0,12.427,10.074,22.5,22.5,22.5c12.427,0,22.5-10.073,22.5-22.5c0-4.092-1.098-7.925-3.007-11.231h10.776    v-7.122H90.087L93.747,0H54.97l3.66,38.628H44.089v7.122h10.776C52.956,49.056,51.858,52.889,51.858,56.981z"></path><polygon points="73.358,91.008 66.358,87.008 66.358,96.008 73.358,92.008   "></polygon><polygon points="75.358,92.008 82.358,96.008 82.358,87.008 75.358,91.008   "></polygon><circle cx="74.358" cy="99.508" r="2"></circle><circle cx="74.358" cy="106.508" r="2"></circle><circle cx="74.358" cy="114.508" r="2"></circle><path d="M160.527,65.969c-0.017,2.177,1.07,4.498,3.342,6.516c0.383,0.346,0.862,0.516,1.341,0.516    c0.546,0,1.09-0.223,1.484-0.661c0.739-0.82,0.676-2.085-0.145-2.826c-1.682-1.543-2.006-2.647-2.022-3.545    c-0.003-0.117,0.009-0.236,0.021-0.356c1.245,0.047,2.489-0.005,3.718-0.155c0.18,2.113,1.284,4.561,3.837,6.492    c0.364,0.281,0.794,0.417,1.221,0.417c0.599,0,1.191-0.267,1.585-0.777c0.675-0.874,0.514-2.131-0.36-2.806    c-1.968-1.565-2.279-2.858-2.315-4.057c0-0.066,0.01-0.128,0.012-0.193c3.304-1.19,6.303-3.454,8.577-7.304    C184.649,50.75,199.024,45,199.024,45s-4.125-8.5-10-9.375c-4.679-0.697-5.121,2.947-9.224,1.539    C151.274,27.375,144.274,59,144.274,59s7.639,4.7,16.311,6.184C160.556,65.44,160.529,65.698,160.527,65.969z M186.899,39.892    c1.244-0.9,2.985-0.622,3.884,0.622c0.903,1.246,0.625,2.985-0.62,3.886c-1.245,0.9-2.983,0.621-3.886-0.624    C185.376,42.532,185.657,40.792,186.899,39.892z"></path></g></g></svg>